<?xml version="1.0" encoding="utf-8" standalone="no"?>
<!DOCTYPE svg PUBLIC "-//W3C//DTD SVG 1.1//EN"
  "http://www.w3.org/Graphics/SVG/1.1/DTD/svg11.dtd">
<!-- Created with matplotlib (https://matplotlib.org/) -->
<svg height="1120pt" version="1.1" viewBox="0 0 448 1120" width="448pt" xmlns="http://www.w3.org/2000/svg" xmlns:xlink="http://www.w3.org/1999/xlink">
 <metadata>
  <rdf:RDF xmlns:cc="http://creativecommons.org/ns#" xmlns:dc="http://purl.org/dc/elements/1.1/" xmlns:rdf="http://www.w3.org/1999/02/22-rdf-syntax-ns#">
   <cc:Work>
    <dc:type rdf:resource="http://purl.org/dc/dcmitype/StillImage"/>
    <dc:date>2022-01-11T12:16:36.230117</dc:date>
    <dc:format>image/svg+xml</dc:format>
    <dc:creator>
     <cc:Agent>
      <dc:title>Matplotlib v3.3.3, https://matplotlib.org/</dc:title>
     </cc:Agent>
    </dc:creator>
   </cc:Work>
  </rdf:RDF>
 </metadata>
 <defs>
  <style type="text/css">*{stroke-linecap:butt;stroke-linejoin:round;}</style>
 </defs>
 <g id="figure_1">
  <g id="patch_1">
   <path d="M 0 1120
L 448 1120
L 448 0
L 0 0
z
" style="fill:none;"/>
  </g>
  <g id="axes_1">
   <g id="patch_2">
    <path clip-path="url(#p6df9e1bab2)" d="M 56 941.563636
L 403.2 941.563636
L 403.2 923.891745
L 56 923.891745
z
" style="fill-opacity:0.05098;"/>
   </g>
   <g id="patch_3">
    <path clip-path="url(#p6df9e1bab2)" d="M 56 897.383908
L 403.2 897.383908
L 403.2 879.712017
L 56 879.712017
z
" style="fill-opacity:0.05098;"/>
   </g>
   <g id="patch_4">
    <path clip-path="url(#p6df9e1bab2)" d="M 56 853.20418
L 403.2 853.20418
L 403.2 835.532288
L 56 835.532288
z
" style="fill-opacity:0.05098;"/>
   </g>
   <g id="patch_5">
    <path clip-path="url(#p6df9e1bab2)" d="M 56 809.024451
L 403.2 809.024451
L 403.2 791.35256
L 56 791.35256
z
" style="fill-opacity:0.05098;"/>
   </g>
   <g id="patch_6">
    <path clip-path="url(#p6df9e1bab2)" d="M 56 764.844723
L 403.2 764.844723
L 403.2 747.172832
L 56 747.172832
z
" style="fill-opacity:0.05098;"/>
   </g>
   <g id="patch_7">
    <path clip-path="url(#p6df9e1bab2)" d="M 56 720.664995
L 403.2 720.664995
L 403.2 702.993103
L 56 702.993103
z
" style="fill-opacity:0.05098;"/>
   </g>
   <g id="patch_8">
    <path clip-path="url(#p6df9e1bab2)" d="M 56 676.485266
L 403.2 676.485266
L 403.2 658.813375
L 56 658.813375
z
" style="fill-opacity:0.05098;"/>
   </g>
   <g id="patch_9">
    <path clip-path="url(#p6df9e1bab2)" d="M 56 632.305538
L 403.2 632.305538
L 403.2 614.633647
L 56 614.633647
z
" style="fill-opacity:0.05098;"/>
   </g>
   <g id="patch_10">
    <path clip-path="url(#p6df9e1bab2)" d="M 56 588.12581
L 403.2 588.12581
L 403.2 570.453918
L 56 570.453918
z
" style="fill-opacity:0.05098;"/>
   </g>
   <g id="patch_11">
    <path clip-path="url(#p6df9e1bab2)" d="M 56 543.946082
L 403.2 543.946082
L 403.2 526.27419
L 56 526.27419
z
" style="fill-opacity:0.05098;"/>
   </g>
   <g id="patch_12">
    <path clip-path="url(#p6df9e1bab2)" d="M 56 499.766353
L 403.2 499.766353
L 403.2 482.094462
L 56 482.094462
z
" style="fill-opacity:0.05098;"/>
   </g>
   <g id="patch_13">
    <path clip-path="url(#p6df9e1bab2)" d="M 56 455.586625
L 403.2 455.586625
L 403.2 437.914734
L 56 437.914734
z
" style="fill-opacity:0.05098;"/>
   </g>
   <g id="patch_14">
    <path clip-path="url(#p6df9e1bab2)" d="M 56 411.406897
L 403.2 411.406897
L 403.2 393.735005
L 56 393.735005
z
" style="fill-opacity:0.05098;"/>
   </g>
   <g id="patch_15">
    <path clip-path="url(#p6df9e1bab2)" d="M 56 367.227168
L 403.2 367.227168
L 403.2 349.555277
L 56 349.555277
z
" style="fill-opacity:0.05098;"/>
   </g>
   <g id="patch_16">
    <path clip-path="url(#p6df9e1bab2)" d="M 56 323.04744
L 403.2 323.04744
L 403.2 305.375549
L 56 305.375549
z
" style="fill-opacity:0.05098;"/>
   </g>
   <g id="patch_17">
    <path clip-path="url(#p6df9e1bab2)" d="M 56 278.867712
L 403.2 278.867712
L 403.2 261.19582
L 56 261.19582
z
" style="fill-opacity:0.05098;"/>
   </g>
   <g id="patch_18">
    <path clip-path="url(#p6df9e1bab2)" d="M 56 234.687983
L 403.2 234.687983
L 403.2 217.016092
L 56 217.016092
z
" style="fill-opacity:0.05098;"/>
   </g>
   <g id="patch_19">
    <path clip-path="url(#p6df9e1bab2)" d="M 56 190.508255
L 403.2 190.508255
L 403.2 172.836364
L 56 172.836364
z
" style="fill-opacity:0.05098;"/>
   </g>
   <g id="matplotlib.axis_1">
    <g id="text_1">
     <!-- Order 2000, 2001, 2002, 2003, 2004 -->
     <g transform="translate(137.463281 991.598437)scale(0.1 -0.1)">
      <defs>
       <path d="M 39.40625 66.21875
Q 28.65625 66.21875 22.328125 58.203125
Q 16.015625 50.203125 16.015625 36.375
Q 16.015625 22.609375 22.328125 14.59375
Q 28.65625 6.59375 39.40625 6.59375
Q 50.140625 6.59375 56.421875 14.59375
Q 62.703125 22.609375 62.703125 36.375
Q 62.703125 50.203125 56.421875 58.203125
Q 50.140625 66.21875 39.40625 66.21875
z
M 39.40625 74.21875
Q 54.734375 74.21875 63.90625 63.9375
Q 73.09375 53.65625 73.09375 36.375
Q 73.09375 19.140625 63.90625 8.859375
Q 54.734375 -1.421875 39.40625 -1.421875
Q 24.03125 -1.421875 14.8125 8.828125
Q 5.609375 19.09375 5.609375 36.375
Q 5.609375 53.65625 14.8125 63.9375
Q 24.03125 74.21875 39.40625 74.21875
z
" id="DejaVuSans-79"/>
       <path d="M 41.109375 46.296875
Q 39.59375 47.171875 37.8125 47.578125
Q 36.03125 48 33.890625 48
Q 26.265625 48 22.1875 43.046875
Q 18.109375 38.09375 18.109375 28.8125
L 18.109375 0
L 9.078125 0
L 9.078125 54.6875
L 18.109375 54.6875
L 18.109375 46.1875
Q 20.953125 51.171875 25.484375 53.578125
Q 30.03125 56 36.53125 56
Q 37.453125 56 38.578125 55.875
Q 39.703125 55.765625 41.0625 55.515625
z
" id="DejaVuSans-114"/>
       <path d="M 45.40625 46.390625
L 45.40625 75.984375
L 54.390625 75.984375
L 54.390625 0
L 45.40625 0
L 45.40625 8.203125
Q 42.578125 3.328125 38.25 0.953125
Q 33.9375 -1.421875 27.875 -1.421875
Q 17.96875 -1.421875 11.734375 6.484375
Q 5.515625 14.40625 5.515625 27.296875
Q 5.515625 40.1875 11.734375 48.09375
Q 17.96875 56 27.875 56
Q 33.9375 56 38.25 53.625
Q 42.578125 51.265625 45.40625 46.390625
z
M 14.796875 27.296875
Q 14.796875 17.390625 18.875 11.75
Q 22.953125 6.109375 30.078125 6.109375
Q 37.203125 6.109375 41.296875 11.75
Q 45.40625 17.390625 45.40625 27.296875
Q 45.40625 37.203125 41.296875 42.84375
Q 37.203125 48.484375 30.078125 48.484375
Q 22.953125 48.484375 18.875 42.84375
Q 14.796875 37.203125 14.796875 27.296875
z
" id="DejaVuSans-100"/>
       <path d="M 56.203125 29.59375
L 56.203125 25.203125
L 14.890625 25.203125
Q 15.484375 15.921875 20.484375 11.0625
Q 25.484375 6.203125 34.421875 6.203125
Q 39.59375 6.203125 44.453125 7.46875
Q 49.3125 8.734375 54.109375 11.28125
L 54.109375 2.78125
Q 49.265625 0.734375 44.1875 -0.34375
Q 39.109375 -1.421875 33.890625 -1.421875
Q 20.796875 -1.421875 13.15625 6.1875
Q 5.515625 13.8125 5.515625 26.8125
Q 5.515625 40.234375 12.765625 48.109375
Q 20.015625 56 32.328125 56
Q 43.359375 56 49.78125 48.890625
Q 56.203125 41.796875 56.203125 29.59375
z
M 47.21875 32.234375
Q 47.125 39.59375 43.09375 43.984375
Q 39.0625 48.390625 32.421875 48.390625
Q 24.90625 48.390625 20.390625 44.140625
Q 15.875 39.890625 15.1875 32.171875
z
" id="DejaVuSans-101"/>
       <path id="DejaVuSans-32"/>
       <path d="M 19.1875 8.296875
L 53.609375 8.296875
L 53.609375 0
L 7.328125 0
L 7.328125 8.296875
Q 12.9375 14.109375 22.625 23.890625
Q 32.328125 33.6875 34.8125 36.53125
Q 39.546875 41.84375 41.421875 45.53125
Q 43.3125 49.21875 43.3125 52.78125
Q 43.3125 58.59375 39.234375 62.25
Q 35.15625 65.921875 28.609375 65.921875
Q 23.96875 65.921875 18.8125 64.3125
Q 13.671875 62.703125 7.8125 59.421875
L 7.8125 69.390625
Q 13.765625 71.78125 18.9375 73
Q 24.125 74.21875 28.421875 74.21875
Q 39.75 74.21875 46.484375 68.546875
Q 53.21875 62.890625 53.21875 53.421875
Q 53.21875 48.921875 51.53125 44.890625
Q 49.859375 40.875 45.40625 35.40625
Q 44.1875 33.984375 37.640625 27.21875
Q 31.109375 20.453125 19.1875 8.296875
z
" id="DejaVuSans-50"/>
       <path d="M 31.78125 66.40625
Q 24.171875 66.40625 20.328125 58.90625
Q 16.5 51.421875 16.5 36.375
Q 16.5 21.390625 20.328125 13.890625
Q 24.171875 6.390625 31.78125 6.390625
Q 39.453125 6.390625 43.28125 13.890625
Q 47.125 21.390625 47.125 36.375
Q 47.125 51.421875 43.28125 58.90625
Q 39.453125 66.40625 31.78125 66.40625
z
M 31.78125 74.21875
Q 44.046875 74.21875 50.515625 64.515625
Q 56.984375 54.828125 56.984375 36.375
Q 56.984375 17.96875 50.515625 8.265625
Q 44.046875 -1.421875 31.78125 -1.421875
Q 19.53125 -1.421875 13.0625 8.265625
Q 6.59375 17.96875 6.59375 36.375
Q 6.59375 54.828125 13.0625 64.515625
Q 19.53125 74.21875 31.78125 74.21875
z
" id="DejaVuSans-48"/>
       <path d="M 11.71875 12.40625
L 22.015625 12.40625
L 22.015625 4
L 14.015625 -11.625
L 7.71875 -11.625
L 11.71875 4
z
" id="DejaVuSans-44"/>
       <path d="M 12.40625 8.296875
L 28.515625 8.296875
L 28.515625 63.921875
L 10.984375 60.40625
L 10.984375 69.390625
L 28.421875 72.90625
L 38.28125 72.90625
L 38.28125 8.296875
L 54.390625 8.296875
L 54.390625 0
L 12.40625 0
z
" id="DejaVuSans-49"/>
       <path d="M 40.578125 39.3125
Q 47.65625 37.796875 51.625 33
Q 55.609375 28.21875 55.609375 21.1875
Q 55.609375 10.40625 48.1875 4.484375
Q 40.765625 -1.421875 27.09375 -1.421875
Q 22.515625 -1.421875 17.65625 -0.515625
Q 12.796875 0.390625 7.625 2.203125
L 7.625 11.71875
Q 11.71875 9.328125 16.59375 8.109375
Q 21.484375 6.890625 26.8125 6.890625
Q 36.078125 6.890625 40.9375 10.546875
Q 45.796875 14.203125 45.796875 21.1875
Q 45.796875 27.640625 41.28125 31.265625
Q 36.765625 34.90625 28.71875 34.90625
L 20.21875 34.90625
L 20.21875 43.015625
L 29.109375 43.015625
Q 36.375 43.015625 40.234375 45.921875
Q 44.09375 48.828125 44.09375 54.296875
Q 44.09375 59.90625 40.109375 62.90625
Q 36.140625 65.921875 28.71875 65.921875
Q 24.65625 65.921875 20.015625 65.03125
Q 15.375 64.15625 9.8125 62.3125
L 9.8125 71.09375
Q 15.4375 72.65625 20.34375 73.4375
Q 25.25 74.21875 29.59375 74.21875
Q 40.828125 74.21875 47.359375 69.109375
Q 53.90625 64.015625 53.90625 55.328125
Q 53.90625 49.265625 50.4375 45.09375
Q 46.96875 40.921875 40.578125 39.3125
z
" id="DejaVuSans-51"/>
       <path d="M 37.796875 64.3125
L 12.890625 25.390625
L 37.796875 25.390625
z
M 35.203125 72.90625
L 47.609375 72.90625
L 47.609375 25.390625
L 58.015625 25.390625
L 58.015625 17.1875
L 47.609375 17.1875
L 47.609375 0
L 37.796875 0
L 37.796875 17.1875
L 4.890625 17.1875
L 4.890625 26.703125
z
" id="DejaVuSans-52"/>
      </defs>
      <use xlink:href="#DejaVuSans-79"/>
      <use x="78.710938" xlink:href="#DejaVuSans-114"/>
      <use x="118.074219" xlink:href="#DejaVuSans-100"/>
      <use x="181.550781" xlink:href="#DejaVuSans-101"/>
      <use x="243.074219" xlink:href="#DejaVuSans-114"/>
      <use x="284.1875" xlink:href="#DejaVuSans-32"/>
      <use x="315.974609" xlink:href="#DejaVuSans-50"/>
      <use x="379.597656" xlink:href="#DejaVuSans-48"/>
      <use x="443.220703" xlink:href="#DejaVuSans-48"/>
      <use x="506.84375" xlink:href="#DejaVuSans-48"/>
      <use x="570.466797" xlink:href="#DejaVuSans-44"/>
      <use x="602.253906" xlink:href="#DejaVuSans-32"/>
      <use x="634.041016" xlink:href="#DejaVuSans-50"/>
      <use x="697.664062" xlink:href="#DejaVuSans-48"/>
      <use x="761.287109" xlink:href="#DejaVuSans-48"/>
      <use x="824.910156" xlink:href="#DejaVuSans-49"/>
      <use x="888.533203" xlink:href="#DejaVuSans-44"/>
      <use x="920.320312" xlink:href="#DejaVuSans-32"/>
      <use x="952.107422" xlink:href="#DejaVuSans-50"/>
      <use x="1015.730469" xlink:href="#DejaVuSans-48"/>
      <use x="1079.353516" xlink:href="#DejaVuSans-48"/>
      <use x="1142.976562" xlink:href="#DejaVuSans-50"/>
      <use x="1206.599609" xlink:href="#DejaVuSans-44"/>
      <use x="1238.386719" xlink:href="#DejaVuSans-32"/>
      <use x="1270.173828" xlink:href="#DejaVuSans-50"/>
      <use x="1333.796875" xlink:href="#DejaVuSans-48"/>
      <use x="1397.419922" xlink:href="#DejaVuSans-48"/>
      <use x="1461.042969" xlink:href="#DejaVuSans-51"/>
      <use x="1524.666016" xlink:href="#DejaVuSans-44"/>
      <use x="1556.453125" xlink:href="#DejaVuSans-32"/>
      <use x="1588.240234" xlink:href="#DejaVuSans-50"/>
      <use x="1651.863281" xlink:href="#DejaVuSans-48"/>
      <use x="1715.486328" xlink:href="#DejaVuSans-48"/>
      <use x="1779.109375" xlink:href="#DejaVuSans-52"/>
     </g>
    </g>
   </g>
   <g id="matplotlib.axis_2">
    <g id="ytick_1"/>
    <g id="ytick_2"/>
    <g id="ytick_3"/>
    <g id="ytick_4"/>
    <g id="ytick_5"/>
    <g id="ytick_6"/>
    <g id="ytick_7"/>
    <g id="ytick_8"/>
    <g id="ytick_9"/>
    <g id="ytick_10"/>
    <g id="ytick_11"/>
    <g id="ytick_12"/>
    <g id="ytick_13"/>
    <g id="ytick_14"/>
    <g id="ytick_15"/>
    <g id="ytick_16"/>
    <g id="ytick_17"/>
    <g id="ytick_18"/>
    <g id="ytick_19"/>
    <g id="ytick_20"/>
    <g id="ytick_21"/>
    <g id="ytick_22"/>
    <g id="ytick_23"/>
    <g id="ytick_24"/>
    <g id="ytick_25"/>
    <g id="ytick_26"/>
    <g id="ytick_27"/>
    <g id="ytick_28"/>
    <g id="ytick_29"/>
    <g id="ytick_30"/>
    <g id="ytick_31"/>
    <g id="ytick_32"/>
    <g id="ytick_33"/>
    <g id="ytick_34"/>
    <g id="ytick_35"/>
   </g>
  </g>
  <g id="axes_2">
   <g id="matplotlib.axis_3">
    <g id="ytick_36">
     <g id="line2d_1"/>
     <g id="text_2">
      <!-- 1999 -->
      <g transform="translate(252.939157 936.526909)scale(0.1 -0.1)">
       <defs>
        <path d="M 10.984375 1.515625
L 10.984375 10.5
Q 14.703125 8.734375 18.5 7.8125
Q 22.3125 6.890625 25.984375 6.890625
Q 35.75 6.890625 40.890625 13.453125
Q 46.046875 20.015625 46.78125 33.40625
Q 43.953125 29.203125 39.59375 26.953125
Q 35.25 24.703125 29.984375 24.703125
Q 19.046875 24.703125 12.671875 31.3125
Q 6.296875 37.9375 6.296875 49.421875
Q 6.296875 60.640625 12.9375 67.421875
Q 19.578125 74.21875 30.609375 74.21875
Q 43.265625 74.21875 49.921875 64.515625
Q 56.59375 54.828125 56.59375 36.375
Q 56.59375 19.140625 48.40625 8.859375
Q 40.234375 -1.421875 26.421875 -1.421875
Q 22.703125 -1.421875 18.890625 -0.6875
Q 15.09375 0.046875 10.984375 1.515625
z
M 30.609375 32.421875
Q 37.25 32.421875 41.125 36.953125
Q 45.015625 41.5 45.015625 49.421875
Q 45.015625 57.28125 41.125 61.84375
Q 37.25 66.40625 30.609375 66.40625
Q 23.96875 66.40625 20.09375 61.84375
Q 16.21875 57.28125 16.21875 49.421875
Q 16.21875 41.5 20.09375 36.953125
Q 23.96875 32.421875 30.609375 32.421875
z
" id="DejaVuSans-57"/>
       </defs>
       <use xlink:href="#DejaVuSans-49"/>
       <use x="63.623047" xlink:href="#DejaVuSans-57"/>
       <use x="127.246094" xlink:href="#DejaVuSans-57"/>
       <use x="190.869141" xlink:href="#DejaVuSans-57"/>
      </g>
     </g>
    </g>
    <g id="ytick_37">
     <g id="line2d_2"/>
     <g id="text_3">
      <!-- 1996 -->
      <g transform="translate(252.939157 914.437045)scale(0.1 -0.1)">
       <defs>
        <path d="M 33.015625 40.375
Q 26.375 40.375 22.484375 35.828125
Q 18.609375 31.296875 18.609375 23.390625
Q 18.609375 15.53125 22.484375 10.953125
Q 26.375 6.390625 33.015625 6.390625
Q 39.65625 6.390625 43.53125 10.953125
Q 47.40625 15.53125 47.40625 23.390625
Q 47.40625 31.296875 43.53125 35.828125
Q 39.65625 40.375 33.015625 40.375
z
M 52.59375 71.296875
L 52.59375 62.3125
Q 48.875 64.0625 45.09375 64.984375
Q 41.3125 65.921875 37.59375 65.921875
Q 27.828125 65.921875 22.671875 59.328125
Q 17.53125 52.734375 16.796875 39.40625
Q 19.671875 43.65625 24.015625 45.921875
Q 28.375 48.1875 33.59375 48.1875
Q 44.578125 48.1875 50.953125 41.515625
Q 57.328125 34.859375 57.328125 23.390625
Q 57.328125 12.15625 50.6875 5.359375
Q 44.046875 -1.421875 33.015625 -1.421875
Q 20.359375 -1.421875 13.671875 8.265625
Q 6.984375 17.96875 6.984375 36.375
Q 6.984375 53.65625 15.1875 63.9375
Q 23.390625 74.21875 37.203125 74.21875
Q 40.921875 74.21875 44.703125 73.484375
Q 48.484375 72.75 52.59375 71.296875
z
" id="DejaVuSans-54"/>
       </defs>
       <use xlink:href="#DejaVuSans-49"/>
       <use x="63.623047" xlink:href="#DejaVuSans-57"/>
       <use x="127.246094" xlink:href="#DejaVuSans-57"/>
       <use x="190.869141" xlink:href="#DejaVuSans-54"/>
      </g>
     </g>
    </g>
    <g id="ytick_38">
     <g id="line2d_3"/>
     <g id="text_4">
      <!-- 1998 -->
      <g transform="translate(252.939157 892.347181)scale(0.1 -0.1)">
       <defs>
        <path d="M 31.78125 34.625
Q 24.75 34.625 20.71875 30.859375
Q 16.703125 27.09375 16.703125 20.515625
Q 16.703125 13.921875 20.71875 10.15625
Q 24.75 6.390625 31.78125 6.390625
Q 38.8125 6.390625 42.859375 10.171875
Q 46.921875 13.96875 46.921875 20.515625
Q 46.921875 27.09375 42.890625 30.859375
Q 38.875 34.625 31.78125 34.625
z
M 21.921875 38.8125
Q 15.578125 40.375 12.03125 44.71875
Q 8.5 49.078125 8.5 55.328125
Q 8.5 64.0625 14.71875 69.140625
Q 20.953125 74.21875 31.78125 74.21875
Q 42.671875 74.21875 48.875 69.140625
Q 55.078125 64.0625 55.078125 55.328125
Q 55.078125 49.078125 51.53125 44.71875
Q 48 40.375 41.703125 38.8125
Q 48.828125 37.15625 52.796875 32.3125
Q 56.78125 27.484375 56.78125 20.515625
Q 56.78125 9.90625 50.3125 4.234375
Q 43.84375 -1.421875 31.78125 -1.421875
Q 19.734375 -1.421875 13.25 4.234375
Q 6.78125 9.90625 6.78125 20.515625
Q 6.78125 27.484375 10.78125 32.3125
Q 14.796875 37.15625 21.921875 38.8125
z
M 18.3125 54.390625
Q 18.3125 48.734375 21.84375 45.5625
Q 25.390625 42.390625 31.78125 42.390625
Q 38.140625 42.390625 41.71875 45.5625
Q 45.3125 48.734375 45.3125 54.390625
Q 45.3125 60.0625 41.71875 63.234375
Q 38.140625 66.40625 31.78125 66.40625
Q 25.390625 66.40625 21.84375 63.234375
Q 18.3125 60.0625 18.3125 54.390625
z
" id="DejaVuSans-56"/>
       </defs>
       <use xlink:href="#DejaVuSans-49"/>
       <use x="63.623047" xlink:href="#DejaVuSans-57"/>
       <use x="127.246094" xlink:href="#DejaVuSans-57"/>
       <use x="190.869141" xlink:href="#DejaVuSans-56"/>
      </g>
     </g>
    </g>
    <g id="ytick_39">
     <g id="line2d_4"/>
     <g id="text_5">
      <!-- 2000 -->
      <g transform="translate(252.939157 870.257317)scale(0.1 -0.1)">
       <use xlink:href="#DejaVuSans-50"/>
       <use x="63.623047" xlink:href="#DejaVuSans-48"/>
       <use x="127.246094" xlink:href="#DejaVuSans-48"/>
       <use x="190.869141" xlink:href="#DejaVuSans-48"/>
      </g>
     </g>
    </g>
    <g id="ytick_40">
     <g id="line2d_5"/>
     <g id="text_6">
      <!-- october -->
      <g transform="translate(240.120407 848.167453)scale(0.1 -0.1)">
       <defs>
        <path d="M 30.609375 48.390625
Q 23.390625 48.390625 19.1875 42.75
Q 14.984375 37.109375 14.984375 27.296875
Q 14.984375 17.484375 19.15625 11.84375
Q 23.34375 6.203125 30.609375 6.203125
Q 37.796875 6.203125 41.984375 11.859375
Q 46.1875 17.53125 46.1875 27.296875
Q 46.1875 37.015625 41.984375 42.703125
Q 37.796875 48.390625 30.609375 48.390625
z
M 30.609375 56
Q 42.328125 56 49.015625 48.375
Q 55.71875 40.765625 55.71875 27.296875
Q 55.71875 13.875 49.015625 6.21875
Q 42.328125 -1.421875 30.609375 -1.421875
Q 18.84375 -1.421875 12.171875 6.21875
Q 5.515625 13.875 5.515625 27.296875
Q 5.515625 40.765625 12.171875 48.375
Q 18.84375 56 30.609375 56
z
" id="DejaVuSans-111"/>
        <path d="M 48.78125 52.59375
L 48.78125 44.1875
Q 44.96875 46.296875 41.140625 47.34375
Q 37.3125 48.390625 33.40625 48.390625
Q 24.65625 48.390625 19.8125 42.84375
Q 14.984375 37.3125 14.984375 27.296875
Q 14.984375 17.28125 19.8125 11.734375
Q 24.65625 6.203125 33.40625 6.203125
Q 37.3125 6.203125 41.140625 7.25
Q 44.96875 8.296875 48.78125 10.40625
L 48.78125 2.09375
Q 45.015625 0.34375 40.984375 -0.53125
Q 36.96875 -1.421875 32.421875 -1.421875
Q 20.0625 -1.421875 12.78125 6.34375
Q 5.515625 14.109375 5.515625 27.296875
Q 5.515625 40.671875 12.859375 48.328125
Q 20.21875 56 33.015625 56
Q 37.15625 56 41.109375 55.140625
Q 45.0625 54.296875 48.78125 52.59375
z
" id="DejaVuSans-99"/>
        <path d="M 18.3125 70.21875
L 18.3125 54.6875
L 36.8125 54.6875
L 36.8125 47.703125
L 18.3125 47.703125
L 18.3125 18.015625
Q 18.3125 11.328125 20.140625 9.421875
Q 21.96875 7.515625 27.59375 7.515625
L 36.8125 7.515625
L 36.8125 0
L 27.59375 0
Q 17.1875 0 13.234375 3.875
Q 9.28125 7.765625 9.28125 18.015625
L 9.28125 47.703125
L 2.6875 47.703125
L 2.6875 54.6875
L 9.28125 54.6875
L 9.28125 70.21875
z
" id="DejaVuSans-116"/>
        <path d="M 48.6875 27.296875
Q 48.6875 37.203125 44.609375 42.84375
Q 40.53125 48.484375 33.40625 48.484375
Q 26.265625 48.484375 22.1875 42.84375
Q 18.109375 37.203125 18.109375 27.296875
Q 18.109375 17.390625 22.1875 11.75
Q 26.265625 6.109375 33.40625 6.109375
Q 40.53125 6.109375 44.609375 11.75
Q 48.6875 17.390625 48.6875 27.296875
z
M 18.109375 46.390625
Q 20.953125 51.265625 25.265625 53.625
Q 29.59375 56 35.59375 56
Q 45.5625 56 51.78125 48.09375
Q 58.015625 40.1875 58.015625 27.296875
Q 58.015625 14.40625 51.78125 6.484375
Q 45.5625 -1.421875 35.59375 -1.421875
Q 29.59375 -1.421875 25.265625 0.953125
Q 20.953125 3.328125 18.109375 8.203125
L 18.109375 0
L 9.078125 0
L 9.078125 75.984375
L 18.109375 75.984375
z
" id="DejaVuSans-98"/>
       </defs>
       <use xlink:href="#DejaVuSans-111"/>
       <use x="61.181641" xlink:href="#DejaVuSans-99"/>
       <use x="116.162109" xlink:href="#DejaVuSans-116"/>
       <use x="155.371094" xlink:href="#DejaVuSans-111"/>
       <use x="216.552734" xlink:href="#DejaVuSans-98"/>
       <use x="280.029297" xlink:href="#DejaVuSans-101"/>
       <use x="341.552734" xlink:href="#DejaVuSans-114"/>
      </g>
     </g>
    </g>
    <g id="ytick_41">
     <g id="line2d_6"/>
     <g id="text_7">
      <!-- 1995 -->
      <g transform="translate(252.939157 826.077589)scale(0.1 -0.1)">
       <defs>
        <path d="M 10.796875 72.90625
L 49.515625 72.90625
L 49.515625 64.59375
L 19.828125 64.59375
L 19.828125 46.734375
Q 21.96875 47.46875 24.109375 47.828125
Q 26.265625 48.1875 28.421875 48.1875
Q 40.625 48.1875 47.75 41.5
Q 54.890625 34.8125 54.890625 23.390625
Q 54.890625 11.625 47.5625 5.09375
Q 40.234375 -1.421875 26.90625 -1.421875
Q 22.3125 -1.421875 17.546875 -0.640625
Q 12.796875 0.140625 7.71875 1.703125
L 7.71875 11.625
Q 12.109375 9.234375 16.796875 8.0625
Q 21.484375 6.890625 26.703125 6.890625
Q 35.15625 6.890625 40.078125 11.328125
Q 45.015625 15.765625 45.015625 23.390625
Q 45.015625 31 40.078125 35.4375
Q 35.15625 39.890625 26.703125 39.890625
Q 22.75 39.890625 18.8125 39.015625
Q 14.890625 38.140625 10.796875 36.28125
z
" id="DejaVuSans-53"/>
       </defs>
       <use xlink:href="#DejaVuSans-49"/>
       <use x="63.623047" xlink:href="#DejaVuSans-57"/>
       <use x="127.246094" xlink:href="#DejaVuSans-57"/>
       <use x="190.869141" xlink:href="#DejaVuSans-53"/>
      </g>
     </g>
    </g>
    <g id="ytick_42">
     <g id="line2d_7"/>
     <g id="text_8">
      <!-- 1997 -->
      <g transform="translate(252.939157 803.987724)scale(0.1 -0.1)">
       <defs>
        <path d="M 8.203125 72.90625
L 55.078125 72.90625
L 55.078125 68.703125
L 28.609375 0
L 18.3125 0
L 43.21875 64.59375
L 8.203125 64.59375
z
" id="DejaVuSans-55"/>
       </defs>
       <use xlink:href="#DejaVuSans-49"/>
       <use x="63.623047" xlink:href="#DejaVuSans-57"/>
       <use x="127.246094" xlink:href="#DejaVuSans-57"/>
       <use x="190.869141" xlink:href="#DejaVuSans-55"/>
      </g>
     </g>
    </g>
    <g id="ytick_43">
     <g id="line2d_8"/>
     <g id="text_9">
      <!-- 2002 -->
      <g transform="translate(252.939157 781.89786)scale(0.1 -0.1)">
       <use xlink:href="#DejaVuSans-50"/>
       <use x="63.623047" xlink:href="#DejaVuSans-48"/>
       <use x="127.246094" xlink:href="#DejaVuSans-48"/>
       <use x="190.869141" xlink:href="#DejaVuSans-50"/>
      </g>
     </g>
    </g>
    <g id="ytick_44">
     <g id="line2d_9"/>
     <g id="text_10">
      <!-- june -->
      <g transform="translate(256.782907 759.807996)scale(0.1 -0.1)">
       <defs>
        <path d="M 9.421875 54.6875
L 18.40625 54.6875
L 18.40625 -0.984375
Q 18.40625 -11.421875 14.421875 -16.109375
Q 10.453125 -20.796875 1.609375 -20.796875
L -1.8125 -20.796875
L -1.8125 -13.1875
L 0.59375 -13.1875
Q 5.71875 -13.1875 7.5625 -10.8125
Q 9.421875 -8.453125 9.421875 -0.984375
z
M 9.421875 75.984375
L 18.40625 75.984375
L 18.40625 64.59375
L 9.421875 64.59375
z
" id="DejaVuSans-106"/>
        <path d="M 8.5 21.578125
L 8.5 54.6875
L 17.484375 54.6875
L 17.484375 21.921875
Q 17.484375 14.15625 20.5 10.265625
Q 23.53125 6.390625 29.59375 6.390625
Q 36.859375 6.390625 41.078125 11.03125
Q 45.3125 15.671875 45.3125 23.6875
L 45.3125 54.6875
L 54.296875 54.6875
L 54.296875 0
L 45.3125 0
L 45.3125 8.40625
Q 42.046875 3.421875 37.71875 1
Q 33.40625 -1.421875 27.6875 -1.421875
Q 18.265625 -1.421875 13.375 4.4375
Q 8.5 10.296875 8.5 21.578125
z
M 31.109375 56
z
" id="DejaVuSans-117"/>
        <path d="M 54.890625 33.015625
L 54.890625 0
L 45.90625 0
L 45.90625 32.71875
Q 45.90625 40.484375 42.875 44.328125
Q 39.84375 48.1875 33.796875 48.1875
Q 26.515625 48.1875 22.3125 43.546875
Q 18.109375 38.921875 18.109375 30.90625
L 18.109375 0
L 9.078125 0
L 9.078125 54.6875
L 18.109375 54.6875
L 18.109375 46.1875
Q 21.34375 51.125 25.703125 53.5625
Q 30.078125 56 35.796875 56
Q 45.21875 56 50.046875 50.171875
Q 54.890625 44.34375 54.890625 33.015625
z
" id="DejaVuSans-110"/>
       </defs>
       <use xlink:href="#DejaVuSans-106"/>
       <use x="27.783203" xlink:href="#DejaVuSans-117"/>
       <use x="91.162109" xlink:href="#DejaVuSans-110"/>
       <use x="154.541016" xlink:href="#DejaVuSans-101"/>
      </g>
     </g>
    </g>
    <g id="ytick_45">
     <g id="line2d_10"/>
     <g id="text_11">
      <!-- september -->
      <g transform="translate(224.251657 737.718132)scale(0.1 -0.1)">
       <defs>
        <path d="M 44.28125 53.078125
L 44.28125 44.578125
Q 40.484375 46.53125 36.375 47.5
Q 32.28125 48.484375 27.875 48.484375
Q 21.1875 48.484375 17.84375 46.4375
Q 14.5 44.390625 14.5 40.28125
Q 14.5 37.15625 16.890625 35.375
Q 19.28125 33.59375 26.515625 31.984375
L 29.59375 31.296875
Q 39.15625 29.25 43.1875 25.515625
Q 47.21875 21.78125 47.21875 15.09375
Q 47.21875 7.46875 41.1875 3.015625
Q 35.15625 -1.421875 24.609375 -1.421875
Q 20.21875 -1.421875 15.453125 -0.5625
Q 10.6875 0.296875 5.421875 2
L 5.421875 11.28125
Q 10.40625 8.6875 15.234375 7.390625
Q 20.0625 6.109375 24.8125 6.109375
Q 31.15625 6.109375 34.5625 8.28125
Q 37.984375 10.453125 37.984375 14.40625
Q 37.984375 18.0625 35.515625 20.015625
Q 33.0625 21.96875 24.703125 23.78125
L 21.578125 24.515625
Q 13.234375 26.265625 9.515625 29.90625
Q 5.8125 33.546875 5.8125 39.890625
Q 5.8125 47.609375 11.28125 51.796875
Q 16.75 56 26.8125 56
Q 31.78125 56 36.171875 55.265625
Q 40.578125 54.546875 44.28125 53.078125
z
" id="DejaVuSans-115"/>
        <path d="M 18.109375 8.203125
L 18.109375 -20.796875
L 9.078125 -20.796875
L 9.078125 54.6875
L 18.109375 54.6875
L 18.109375 46.390625
Q 20.953125 51.265625 25.265625 53.625
Q 29.59375 56 35.59375 56
Q 45.5625 56 51.78125 48.09375
Q 58.015625 40.1875 58.015625 27.296875
Q 58.015625 14.40625 51.78125 6.484375
Q 45.5625 -1.421875 35.59375 -1.421875
Q 29.59375 -1.421875 25.265625 0.953125
Q 20.953125 3.328125 18.109375 8.203125
z
M 48.6875 27.296875
Q 48.6875 37.203125 44.609375 42.84375
Q 40.53125 48.484375 33.40625 48.484375
Q 26.265625 48.484375 22.1875 42.84375
Q 18.109375 37.203125 18.109375 27.296875
Q 18.109375 17.390625 22.1875 11.75
Q 26.265625 6.109375 33.40625 6.109375
Q 40.53125 6.109375 44.609375 11.75
Q 48.6875 17.390625 48.6875 27.296875
z
" id="DejaVuSans-112"/>
        <path d="M 52 44.1875
Q 55.375 50.25 60.0625 53.125
Q 64.75 56 71.09375 56
Q 79.640625 56 84.28125 50.015625
Q 88.921875 44.046875 88.921875 33.015625
L 88.921875 0
L 79.890625 0
L 79.890625 32.71875
Q 79.890625 40.578125 77.09375 44.375
Q 74.3125 48.1875 68.609375 48.1875
Q 61.625 48.1875 57.5625 43.546875
Q 53.515625 38.921875 53.515625 30.90625
L 53.515625 0
L 44.484375 0
L 44.484375 32.71875
Q 44.484375 40.625 41.703125 44.40625
Q 38.921875 48.1875 33.109375 48.1875
Q 26.21875 48.1875 22.15625 43.53125
Q 18.109375 38.875 18.109375 30.90625
L 18.109375 0
L 9.078125 0
L 9.078125 54.6875
L 18.109375 54.6875
L 18.109375 46.1875
Q 21.1875 51.21875 25.484375 53.609375
Q 29.78125 56 35.6875 56
Q 41.65625 56 45.828125 52.96875
Q 50 49.953125 52 44.1875
z
" id="DejaVuSans-109"/>
       </defs>
       <use xlink:href="#DejaVuSans-115"/>
       <use x="52.099609" xlink:href="#DejaVuSans-101"/>
       <use x="113.623047" xlink:href="#DejaVuSans-112"/>
       <use x="177.099609" xlink:href="#DejaVuSans-116"/>
       <use x="216.308594" xlink:href="#DejaVuSans-101"/>
       <use x="277.832031" xlink:href="#DejaVuSans-109"/>
       <use x="375.244141" xlink:href="#DejaVuSans-98"/>
       <use x="438.720703" xlink:href="#DejaVuSans-101"/>
       <use x="500.244141" xlink:href="#DejaVuSans-114"/>
      </g>
     </g>
    </g>
    <g id="ytick_46">
     <g id="line2d_11"/>
     <g id="text_12">
      <!-- &amp; -->
      <g transform="translate(270.590719 715.628268)scale(0.1 -0.1)">
       <defs>
        <path d="M 24.3125 39.203125
Q 19.875 35.25 17.796875 31.3125
Q 15.71875 27.390625 15.71875 23.09375
Q 15.71875 15.96875 20.890625 11.234375
Q 26.078125 6.5 33.890625 6.5
Q 38.53125 6.5 42.578125 8.03125
Q 46.625 9.578125 50.203125 12.703125
z
M 31.203125 44.671875
L 56 19.28125
Q 58.890625 23.640625 60.5 28.59375
Q 62.109375 33.546875 62.40625 39.109375
L 71.484375 39.109375
Q 70.90625 32.671875 68.359375 26.359375
Q 65.828125 20.0625 61.28125 13.921875
L 74.90625 0
L 62.59375 0
L 55.609375 7.171875
Q 50.53125 2.828125 44.96875 0.703125
Q 39.40625 -1.421875 33.015625 -1.421875
Q 21.234375 -1.421875 13.765625 5.296875
Q 6.296875 12.015625 6.296875 22.515625
Q 6.296875 28.765625 9.5625 34.25
Q 12.84375 39.75 19.390625 44.578125
Q 17.046875 47.65625 15.8125 50.703125
Q 14.59375 53.765625 14.59375 56.6875
Q 14.59375 64.59375 20.015625 69.40625
Q 25.4375 74.21875 34.421875 74.21875
Q 38.484375 74.21875 42.5 73.34375
Q 46.53125 72.46875 50.6875 70.703125
L 50.6875 61.8125
Q 46.4375 64.109375 42.578125 65.296875
Q 38.71875 66.5 35.40625 66.5
Q 30.28125 66.5 27.078125 63.78125
Q 23.875 61.078125 23.875 56.78125
Q 23.875 54.296875 25.3125 51.78125
Q 26.765625 49.265625 31.203125 44.671875
z
" id="DejaVuSans-38"/>
       </defs>
       <use xlink:href="#DejaVuSans-38"/>
      </g>
     </g>
    </g>
    <g id="ytick_47">
     <g id="line2d_12"/>
     <g id="text_13">
      <!-- july -->
      <g transform="translate(260.576657 693.538404)scale(0.1 -0.1)">
       <defs>
        <path d="M 9.421875 75.984375
L 18.40625 75.984375
L 18.40625 0
L 9.421875 0
z
" id="DejaVuSans-108"/>
        <path d="M 32.171875 -5.078125
Q 28.375 -14.84375 24.75 -17.8125
Q 21.140625 -20.796875 15.09375 -20.796875
L 7.90625 -20.796875
L 7.90625 -13.28125
L 13.1875 -13.28125
Q 16.890625 -13.28125 18.9375 -11.515625
Q 21 -9.765625 23.484375 -3.21875
L 25.09375 0.875
L 2.984375 54.6875
L 12.5 54.6875
L 29.59375 11.921875
L 46.6875 54.6875
L 56.203125 54.6875
z
" id="DejaVuSans-121"/>
       </defs>
       <use xlink:href="#DejaVuSans-106"/>
       <use x="27.783203" xlink:href="#DejaVuSans-117"/>
       <use x="91.162109" xlink:href="#DejaVuSans-108"/>
       <use x="118.945312" xlink:href="#DejaVuSans-121"/>
      </g>
     </g>
    </g>
    <g id="ytick_48">
     <g id="line2d_13"/>
     <g id="text_14">
      <!-- materials -->
      <g transform="translate(231.442282 671.44854)scale(0.1 -0.1)">
       <defs>
        <path d="M 34.28125 27.484375
Q 23.390625 27.484375 19.1875 25
Q 14.984375 22.515625 14.984375 16.5
Q 14.984375 11.71875 18.140625 8.90625
Q 21.296875 6.109375 26.703125 6.109375
Q 34.1875 6.109375 38.703125 11.40625
Q 43.21875 16.703125 43.21875 25.484375
L 43.21875 27.484375
z
M 52.203125 31.203125
L 52.203125 0
L 43.21875 0
L 43.21875 8.296875
Q 40.140625 3.328125 35.546875 0.953125
Q 30.953125 -1.421875 24.3125 -1.421875
Q 15.921875 -1.421875 10.953125 3.296875
Q 6 8.015625 6 15.921875
Q 6 25.140625 12.171875 29.828125
Q 18.359375 34.515625 30.609375 34.515625
L 43.21875 34.515625
L 43.21875 35.40625
Q 43.21875 41.609375 39.140625 45
Q 35.0625 48.390625 27.6875 48.390625
Q 23 48.390625 18.546875 47.265625
Q 14.109375 46.140625 10.015625 43.890625
L 10.015625 52.203125
Q 14.9375 54.109375 19.578125 55.046875
Q 24.21875 56 28.609375 56
Q 40.484375 56 46.34375 49.84375
Q 52.203125 43.703125 52.203125 31.203125
z
" id="DejaVuSans-97"/>
        <path d="M 9.421875 54.6875
L 18.40625 54.6875
L 18.40625 0
L 9.421875 0
z
M 9.421875 75.984375
L 18.40625 75.984375
L 18.40625 64.59375
L 9.421875 64.59375
z
" id="DejaVuSans-105"/>
       </defs>
       <use xlink:href="#DejaVuSans-109"/>
       <use x="97.412109" xlink:href="#DejaVuSans-97"/>
       <use x="158.691406" xlink:href="#DejaVuSans-116"/>
       <use x="197.900391" xlink:href="#DejaVuSans-101"/>
       <use x="259.423828" xlink:href="#DejaVuSans-114"/>
       <use x="300.537109" xlink:href="#DejaVuSans-105"/>
       <use x="328.320312" xlink:href="#DejaVuSans-97"/>
       <use x="389.599609" xlink:href="#DejaVuSans-108"/>
       <use x="417.382812" xlink:href="#DejaVuSans-115"/>
      </g>
     </g>
    </g>
    <g id="ytick_49">
     <g id="line2d_14"/>
     <g id="text_15">
      <!-- mixed -->
      <g transform="translate(247.762594 649.358675)scale(0.1 -0.1)">
       <defs>
        <path d="M 54.890625 54.6875
L 35.109375 28.078125
L 55.90625 0
L 45.3125 0
L 29.390625 21.484375
L 13.484375 0
L 2.875 0
L 24.125 28.609375
L 4.6875 54.6875
L 15.28125 54.6875
L 29.78125 35.203125
L 44.28125 54.6875
z
" id="DejaVuSans-120"/>
       </defs>
       <use xlink:href="#DejaVuSans-109"/>
       <use x="97.412109" xlink:href="#DejaVuSans-105"/>
       <use x="125.195312" xlink:href="#DejaVuSans-120"/>
       <use x="181.25" xlink:href="#DejaVuSans-101"/>
       <use x="242.773438" xlink:href="#DejaVuSans-100"/>
      </g>
     </g>
    </g>
    <g id="ytick_50">
     <g id="line2d_15"/>
     <g id="text_16">
      <!-- stroke -->
      <g transform="translate(247.673532 627.268811)scale(0.1 -0.1)">
       <defs>
        <path d="M 9.078125 75.984375
L 18.109375 75.984375
L 18.109375 31.109375
L 44.921875 54.6875
L 56.390625 54.6875
L 27.390625 29.109375
L 57.625 0
L 45.90625 0
L 18.109375 26.703125
L 18.109375 0
L 9.078125 0
z
" id="DejaVuSans-107"/>
       </defs>
       <use xlink:href="#DejaVuSans-115"/>
       <use x="52.099609" xlink:href="#DejaVuSans-116"/>
       <use x="91.308594" xlink:href="#DejaVuSans-114"/>
       <use x="130.171875" xlink:href="#DejaVuSans-111"/>
       <use x="191.353516" xlink:href="#DejaVuSans-107"/>
       <use x="245.638672" xlink:href="#DejaVuSans-101"/>
      </g>
     </g>
    </g>
    <g id="ytick_51">
     <g id="line2d_16"/>
     <g id="text_17">
      <!-- research -->
      <g transform="translate(235.137594 605.178947)scale(0.1 -0.1)">
       <defs>
        <path d="M 54.890625 33.015625
L 54.890625 0
L 45.90625 0
L 45.90625 32.71875
Q 45.90625 40.484375 42.875 44.328125
Q 39.84375 48.1875 33.796875 48.1875
Q 26.515625 48.1875 22.3125 43.546875
Q 18.109375 38.921875 18.109375 30.90625
L 18.109375 0
L 9.078125 0
L 9.078125 75.984375
L 18.109375 75.984375
L 18.109375 46.1875
Q 21.34375 51.125 25.703125 53.5625
Q 30.078125 56 35.796875 56
Q 45.21875 56 50.046875 50.171875
Q 54.890625 44.34375 54.890625 33.015625
z
" id="DejaVuSans-104"/>
       </defs>
       <use xlink:href="#DejaVuSans-114"/>
       <use x="38.863281" xlink:href="#DejaVuSans-101"/>
       <use x="100.386719" xlink:href="#DejaVuSans-115"/>
       <use x="152.486328" xlink:href="#DejaVuSans-101"/>
       <use x="214.009766" xlink:href="#DejaVuSans-97"/>
       <use x="275.289062" xlink:href="#DejaVuSans-114"/>
       <use x="314.152344" xlink:href="#DejaVuSans-99"/>
       <use x="369.132812" xlink:href="#DejaVuSans-104"/>
      </g>
     </g>
    </g>
    <g id="ytick_52">
     <g id="line2d_17"/>
     <g id="text_18">
      <!-- saudi -->
      <g transform="translate(251.587594 583.089083)scale(0.1 -0.1)">
       <use xlink:href="#DejaVuSans-115"/>
       <use x="52.099609" xlink:href="#DejaVuSans-97"/>
       <use x="113.378906" xlink:href="#DejaVuSans-117"/>
       <use x="176.757812" xlink:href="#DejaVuSans-100"/>
       <use x="240.234375" xlink:href="#DejaVuSans-105"/>
      </g>
     </g>
    </g>
    <g id="ytick_53">
     <g id="line2d_18"/>
     <g id="text_19">
      <!-- standardized -->
      <g transform="translate(213.504782 560.999219)scale(0.1 -0.1)">
       <defs>
        <path d="M 5.515625 54.6875
L 48.1875 54.6875
L 48.1875 46.484375
L 14.40625 7.171875
L 48.1875 7.171875
L 48.1875 0
L 4.296875 0
L 4.296875 8.203125
L 38.09375 47.515625
L 5.515625 47.515625
z
" id="DejaVuSans-122"/>
       </defs>
       <use xlink:href="#DejaVuSans-115"/>
       <use x="52.099609" xlink:href="#DejaVuSans-116"/>
       <use x="91.308594" xlink:href="#DejaVuSans-97"/>
       <use x="152.587891" xlink:href="#DejaVuSans-110"/>
       <use x="215.966797" xlink:href="#DejaVuSans-100"/>
       <use x="279.443359" xlink:href="#DejaVuSans-97"/>
       <use x="340.722656" xlink:href="#DejaVuSans-114"/>
       <use x="380.085938" xlink:href="#DejaVuSans-100"/>
       <use x="443.5625" xlink:href="#DejaVuSans-105"/>
       <use x="471.345703" xlink:href="#DejaVuSans-122"/>
       <use x="523.835938" xlink:href="#DejaVuSans-101"/>
       <use x="585.359375" xlink:href="#DejaVuSans-100"/>
      </g>
     </g>
    </g>
    <g id="ytick_54">
     <g id="line2d_19"/>
     <g id="text_20">
      <!-- der -->
      <g transform="translate(261.776657 538.909355)scale(0.1 -0.1)">
       <use xlink:href="#DejaVuSans-100"/>
       <use x="63.476562" xlink:href="#DejaVuSans-101"/>
       <use x="125" xlink:href="#DejaVuSans-114"/>
      </g>
     </g>
    </g>
    <g id="ytick_55">
     <g id="line2d_20"/>
     <g id="text_21">
      <!-- uk -->
      <g transform="translate(266.261032 516.81949)scale(0.1 -0.1)">
       <use xlink:href="#DejaVuSans-117"/>
       <use x="63.378906" xlink:href="#DejaVuSans-107"/>
      </g>
     </g>
    </g>
    <g id="ytick_56">
     <g id="line2d_21"/>
     <g id="text_22">
      <!-- http://www.bjcancer.com -->
      <g transform="translate(154.479782 494.729626)scale(0.1 -0.1)">
       <defs>
        <path d="M 11.71875 12.40625
L 22.015625 12.40625
L 22.015625 0
L 11.71875 0
z
M 11.71875 51.703125
L 22.015625 51.703125
L 22.015625 39.3125
L 11.71875 39.3125
z
" id="DejaVuSans-58"/>
        <path d="M 25.390625 72.90625
L 33.6875 72.90625
L 8.296875 -9.28125
L 0 -9.28125
z
" id="DejaVuSans-47"/>
        <path d="M 4.203125 54.6875
L 13.1875 54.6875
L 24.421875 12.015625
L 35.59375 54.6875
L 46.1875 54.6875
L 57.421875 12.015625
L 68.609375 54.6875
L 77.59375 54.6875
L 63.28125 0
L 52.6875 0
L 40.921875 44.828125
L 29.109375 0
L 18.5 0
z
" id="DejaVuSans-119"/>
        <path d="M 10.6875 12.40625
L 21 12.40625
L 21 0
L 10.6875 0
z
" id="DejaVuSans-46"/>
       </defs>
       <use xlink:href="#DejaVuSans-104"/>
       <use x="63.378906" xlink:href="#DejaVuSans-116"/>
       <use x="102.587891" xlink:href="#DejaVuSans-116"/>
       <use x="141.796875" xlink:href="#DejaVuSans-112"/>
       <use x="205.273438" xlink:href="#DejaVuSans-58"/>
       <use x="238.964844" xlink:href="#DejaVuSans-47"/>
       <use x="272.65625" xlink:href="#DejaVuSans-47"/>
       <use x="306.347656" xlink:href="#DejaVuSans-119"/>
       <use x="388.134766" xlink:href="#DejaVuSans-119"/>
       <use x="469.921875" xlink:href="#DejaVuSans-119"/>
       <use x="542.583984" xlink:href="#DejaVuSans-46"/>
       <use x="574.371094" xlink:href="#DejaVuSans-98"/>
       <use x="637.847656" xlink:href="#DejaVuSans-106"/>
       <use x="665.630859" xlink:href="#DejaVuSans-99"/>
       <use x="720.611328" xlink:href="#DejaVuSans-97"/>
       <use x="781.890625" xlink:href="#DejaVuSans-110"/>
       <use x="845.269531" xlink:href="#DejaVuSans-99"/>
       <use x="900.25" xlink:href="#DejaVuSans-101"/>
       <use x="961.773438" xlink:href="#DejaVuSans-114"/>
       <use x="993.761719" xlink:href="#DejaVuSans-46"/>
       <use x="1025.548828" xlink:href="#DejaVuSans-99"/>
       <use x="1080.529297" xlink:href="#DejaVuSans-111"/>
       <use x="1141.710938" xlink:href="#DejaVuSans-109"/>
      </g>
     </g>
    </g>
    <g id="ytick_57">
     <g id="line2d_22"/>
     <g id="text_23">
      <!-- cancer -->
      <g transform="translate(244.662594 472.639762)scale(0.1 -0.1)">
       <use xlink:href="#DejaVuSans-99"/>
       <use x="54.980469" xlink:href="#DejaVuSans-97"/>
       <use x="116.259766" xlink:href="#DejaVuSans-110"/>
       <use x="179.638672" xlink:href="#DejaVuSans-99"/>
       <use x="234.619141" xlink:href="#DejaVuSans-101"/>
       <use x="296.142578" xlink:href="#DejaVuSans-114"/>
      </g>
     </g>
    </g>
    <g id="ytick_58">
     <g id="line2d_23"/>
     <g id="text_24">
      <!-- december -->
      <g transform="translate(227.882907 450.549898)scale(0.1 -0.1)">
       <use xlink:href="#DejaVuSans-100"/>
       <use x="63.476562" xlink:href="#DejaVuSans-101"/>
       <use x="125" xlink:href="#DejaVuSans-99"/>
       <use x="179.980469" xlink:href="#DejaVuSans-101"/>
       <use x="241.503906" xlink:href="#DejaVuSans-109"/>
       <use x="338.916016" xlink:href="#DejaVuSans-98"/>
       <use x="402.392578" xlink:href="#DejaVuSans-101"/>
       <use x="463.916016" xlink:href="#DejaVuSans-114"/>
      </g>
     </g>
    </g>
    <g id="ytick_59">
     <g id="line2d_24"/>
     <g id="text_25">
      <!-- de -->
      <g transform="translate(265.887594 428.460034)scale(0.1 -0.1)">
       <use xlink:href="#DejaVuSans-100"/>
       <use x="63.476562" xlink:href="#DejaVuSans-101"/>
      </g>
     </g>
    </g>
    <g id="ytick_60">
     <g id="line2d_25"/>
     <g id="text_26">
      <!-- city -->
      <g transform="translate(260.273532 406.37017)scale(0.1 -0.1)">
       <use xlink:href="#DejaVuSans-99"/>
       <use x="54.980469" xlink:href="#DejaVuSans-105"/>
       <use x="82.763672" xlink:href="#DejaVuSans-116"/>
       <use x="121.972656" xlink:href="#DejaVuSans-121"/>
      </g>
     </g>
    </g>
    <g id="ytick_61">
     <g id="line2d_26"/>
     <g id="text_27">
      <!-- 1992 -->
      <g transform="translate(252.939157 384.280305)scale(0.1 -0.1)">
       <use xlink:href="#DejaVuSans-49"/>
       <use x="63.623047" xlink:href="#DejaVuSans-57"/>
       <use x="127.246094" xlink:href="#DejaVuSans-57"/>
       <use x="190.869141" xlink:href="#DejaVuSans-50"/>
      </g>
     </g>
    </g>
    <g id="ytick_62">
     <g id="line2d_27"/>
     <g id="text_28">
      <!-- canada -->
      <g transform="translate(241.820407 362.190441)scale(0.1 -0.1)">
       <use xlink:href="#DejaVuSans-99"/>
       <use x="54.980469" xlink:href="#DejaVuSans-97"/>
       <use x="116.259766" xlink:href="#DejaVuSans-110"/>
       <use x="179.638672" xlink:href="#DejaVuSans-97"/>
       <use x="240.917969" xlink:href="#DejaVuSans-100"/>
       <use x="304.394531" xlink:href="#DejaVuSans-97"/>
      </g>
     </g>
    </g>
    <g id="ytick_63">
     <g id="line2d_28"/>
     <g id="text_29">
      <!-- campaignhttp://www.bjcancer.com -->
      <g transform="translate(105.171969 340.100577)scale(0.1 -0.1)">
       <defs>
        <path d="M 45.40625 27.984375
Q 45.40625 37.75 41.375 43.109375
Q 37.359375 48.484375 30.078125 48.484375
Q 22.859375 48.484375 18.828125 43.109375
Q 14.796875 37.75 14.796875 27.984375
Q 14.796875 18.265625 18.828125 12.890625
Q 22.859375 7.515625 30.078125 7.515625
Q 37.359375 7.515625 41.375 12.890625
Q 45.40625 18.265625 45.40625 27.984375
z
M 54.390625 6.78125
Q 54.390625 -7.171875 48.1875 -13.984375
Q 42 -20.796875 29.203125 -20.796875
Q 24.46875 -20.796875 20.265625 -20.09375
Q 16.0625 -19.390625 12.109375 -17.921875
L 12.109375 -9.1875
Q 16.0625 -11.328125 19.921875 -12.34375
Q 23.78125 -13.375 27.78125 -13.375
Q 36.625 -13.375 41.015625 -8.765625
Q 45.40625 -4.15625 45.40625 5.171875
L 45.40625 9.625
Q 42.625 4.78125 38.28125 2.390625
Q 33.9375 0 27.875 0
Q 17.828125 0 11.671875 7.65625
Q 5.515625 15.328125 5.515625 27.984375
Q 5.515625 40.671875 11.671875 48.328125
Q 17.828125 56 27.875 56
Q 33.9375 56 38.28125 53.609375
Q 42.625 51.21875 45.40625 46.390625
L 45.40625 54.6875
L 54.390625 54.6875
z
" id="DejaVuSans-103"/>
       </defs>
       <use xlink:href="#DejaVuSans-99"/>
       <use x="54.980469" xlink:href="#DejaVuSans-97"/>
       <use x="116.259766" xlink:href="#DejaVuSans-109"/>
       <use x="213.671875" xlink:href="#DejaVuSans-112"/>
       <use x="277.148438" xlink:href="#DejaVuSans-97"/>
       <use x="338.427734" xlink:href="#DejaVuSans-105"/>
       <use x="366.210938" xlink:href="#DejaVuSans-103"/>
       <use x="429.6875" xlink:href="#DejaVuSans-110"/>
       <use x="493.066406" xlink:href="#DejaVuSans-104"/>
       <use x="556.445312" xlink:href="#DejaVuSans-116"/>
       <use x="595.654297" xlink:href="#DejaVuSans-116"/>
       <use x="634.863281" xlink:href="#DejaVuSans-112"/>
       <use x="698.339844" xlink:href="#DejaVuSans-58"/>
       <use x="732.03125" xlink:href="#DejaVuSans-47"/>
       <use x="765.722656" xlink:href="#DejaVuSans-47"/>
       <use x="799.414062" xlink:href="#DejaVuSans-119"/>
       <use x="881.201172" xlink:href="#DejaVuSans-119"/>
       <use x="962.988281" xlink:href="#DejaVuSans-119"/>
       <use x="1035.650391" xlink:href="#DejaVuSans-46"/>
       <use x="1067.4375" xlink:href="#DejaVuSans-98"/>
       <use x="1130.914062" xlink:href="#DejaVuSans-106"/>
       <use x="1158.697266" xlink:href="#DejaVuSans-99"/>
       <use x="1213.677734" xlink:href="#DejaVuSans-97"/>
       <use x="1274.957031" xlink:href="#DejaVuSans-110"/>
       <use x="1338.335938" xlink:href="#DejaVuSans-99"/>
       <use x="1393.316406" xlink:href="#DejaVuSans-101"/>
       <use x="1454.839844" xlink:href="#DejaVuSans-114"/>
       <use x="1486.828125" xlink:href="#DejaVuSans-46"/>
       <use x="1518.615234" xlink:href="#DejaVuSans-99"/>
       <use x="1573.595703" xlink:href="#DejaVuSans-111"/>
       <use x="1634.777344" xlink:href="#DejaVuSans-109"/>
      </g>
     </g>
    </g>
    <g id="ytick_64">
     <g id="line2d_29"/>
     <g id="text_30">
      <!-- campaign -->
      <g transform="translate(229.081344 318.010713)scale(0.1 -0.1)">
       <use xlink:href="#DejaVuSans-99"/>
       <use x="54.980469" xlink:href="#DejaVuSans-97"/>
       <use x="116.259766" xlink:href="#DejaVuSans-109"/>
       <use x="213.671875" xlink:href="#DejaVuSans-112"/>
       <use x="277.148438" xlink:href="#DejaVuSans-97"/>
       <use x="338.427734" xlink:href="#DejaVuSans-105"/>
       <use x="366.210938" xlink:href="#DejaVuSans-103"/>
       <use x="429.6875" xlink:href="#DejaVuSans-110"/>
      </g>
     </g>
    </g>
    <g id="ytick_65">
     <g id="line2d_30"/>
     <g id="text_31">
      <!-- c. -->
      <g transform="translate(269.712594 295.920849)scale(0.1 -0.1)">
       <use xlink:href="#DejaVuSans-99"/>
       <use x="54.980469" xlink:href="#DejaVuSans-46"/>
      </g>
     </g>
    </g>
    <g id="ytick_66">
     <g id="line2d_31"/>
     <g id="text_32">
      <!-- breast_cancer -->
      <g transform="translate(208.017282 273.830985)scale(0.1 -0.1)">
       <defs>
        <path d="M 50.984375 -16.609375
L 50.984375 -23.578125
L -0.984375 -23.578125
L -0.984375 -16.609375
z
" id="DejaVuSans-95"/>
       </defs>
       <use xlink:href="#DejaVuSans-98"/>
       <use x="63.476562" xlink:href="#DejaVuSans-114"/>
       <use x="102.339844" xlink:href="#DejaVuSans-101"/>
       <use x="163.863281" xlink:href="#DejaVuSans-97"/>
       <use x="225.142578" xlink:href="#DejaVuSans-115"/>
       <use x="277.242188" xlink:href="#DejaVuSans-116"/>
       <use x="316.451172" xlink:href="#DejaVuSans-95"/>
       <use x="366.451172" xlink:href="#DejaVuSans-99"/>
       <use x="421.431641" xlink:href="#DejaVuSans-97"/>
       <use x="482.710938" xlink:href="#DejaVuSans-110"/>
       <use x="546.089844" xlink:href="#DejaVuSans-99"/>
       <use x="601.070312" xlink:href="#DejaVuSans-101"/>
       <use x="662.59375" xlink:href="#DejaVuSans-114"/>
      </g>
     </g>
    </g>
    <g id="ytick_67">
     <g id="line2d_32"/>
     <g id="text_33">
      <!-- april -->
      <g transform="translate(256.245407 251.741121)scale(0.1 -0.1)">
       <use xlink:href="#DejaVuSans-97"/>
       <use x="61.279297" xlink:href="#DejaVuSans-112"/>
       <use x="124.755859" xlink:href="#DejaVuSans-114"/>
       <use x="165.869141" xlink:href="#DejaVuSans-105"/>
       <use x="193.652344" xlink:href="#DejaVuSans-108"/>
      </g>
     </g>
    </g>
    <g id="ytick_68">
     <g id="line2d_33"/>
     <g id="text_34">
      <!-- a. -->
      <g transform="translate(269.082907 229.651256)scale(0.1 -0.1)">
       <use xlink:href="#DejaVuSans-97"/>
       <use x="61.279297" xlink:href="#DejaVuSans-46"/>
      </g>
     </g>
    </g>
    <g id="ytick_69">
     <g id="line2d_34"/>
     <g id="text_35">
      <!-- 1993 -->
      <g transform="translate(252.939157 207.561392)scale(0.1 -0.1)">
       <use xlink:href="#DejaVuSans-49"/>
       <use x="63.623047" xlink:href="#DejaVuSans-57"/>
       <use x="127.246094" xlink:href="#DejaVuSans-57"/>
       <use x="190.869141" xlink:href="#DejaVuSans-51"/>
      </g>
     </g>
    </g>
    <g id="ytick_70">
     <g id="line2d_35"/>
     <g id="text_36">
      <!-- usa -->
      <g transform="translate(260.714157 185.471528)scale(0.1 -0.1)">
       <use xlink:href="#DejaVuSans-117"/>
       <use x="63.378906" xlink:href="#DejaVuSans-115"/>
       <use x="115.478516" xlink:href="#DejaVuSans-97"/>
      </g>
     </g>
    </g>
   </g>
   <g id="PathCollection_1">
    <defs>
     <path d="M 0 5.6
C 1.485137 5.6 2.909647 5.009949 3.959798 3.959798
C 5.009949 2.909647 5.6 1.485137 5.6 -0
C 5.6 -1.485137 5.009949 -2.909647 3.959798 -3.959798
C 2.909647 -5.009949 1.485137 -5.6 0 -5.6
C -1.485137 -5.6 -2.909647 -5.009949 -3.959798 -3.959798
C -5.009949 -2.909647 -5.6 -1.485137 -5.6 0
C -5.6 1.485137 -5.009949 2.909647 -3.959798 3.959798
C -2.909647 5.009949 -1.485137 5.6 0 5.6
z
" id="C0_0_161e3192ad"/>
    </defs>
    <g clip-path="url(#p64e45d4dd5)">
     <use style="stroke:#000000;" x="294.020241" xlink:href="#C0_0_161e3192ad" y="932.727691"/>
    </g>
    <g clip-path="url(#p64e45d4dd5)">
     <use style="fill-opacity:0.180392;" x="294.020241" xlink:href="#C0_0_161e3192ad" y="910.637827"/>
    </g>
    <g clip-path="url(#p64e45d4dd5)">
     <use style="fill-opacity:0.180392;" x="294.020241" xlink:href="#C0_0_161e3192ad" y="888.547962"/>
    </g>
    <g clip-path="url(#p64e45d4dd5)">
     <use style="fill-opacity:0.180392;" x="294.020241" xlink:href="#C0_0_161e3192ad" y="866.458098"/>
    </g>
    <g clip-path="url(#p64e45d4dd5)">
     <use style="fill-opacity:0.180392;" x="294.020241" xlink:href="#C0_0_161e3192ad" y="844.368234"/>
    </g>
    <g clip-path="url(#p64e45d4dd5)">
     <use style="fill-opacity:0.180392;" x="294.020241" xlink:href="#C0_0_161e3192ad" y="822.27837"/>
    </g>
    <g clip-path="url(#p64e45d4dd5)">
     <use style="fill-opacity:0.180392;" x="294.020241" xlink:href="#C0_0_161e3192ad" y="800.188506"/>
    </g>
    <g clip-path="url(#p64e45d4dd5)">
     <use style="fill-opacity:0.180392;" x="294.020241" xlink:href="#C0_0_161e3192ad" y="778.098642"/>
    </g>
    <g clip-path="url(#p64e45d4dd5)">
     <use style="fill-opacity:0.180392;" x="294.020241" xlink:href="#C0_0_161e3192ad" y="756.008777"/>
    </g>
    <g clip-path="url(#p64e45d4dd5)">
     <use style="fill-opacity:0.180392;" x="294.020241" xlink:href="#C0_0_161e3192ad" y="733.918913"/>
    </g>
    <g clip-path="url(#p64e45d4dd5)">
     <use style="fill-opacity:0.180392;" x="294.020241" xlink:href="#C0_0_161e3192ad" y="711.829049"/>
    </g>
    <g clip-path="url(#p64e45d4dd5)">
     <use style="fill-opacity:0.180392;" x="294.020241" xlink:href="#C0_0_161e3192ad" y="689.739185"/>
    </g>
    <g clip-path="url(#p64e45d4dd5)">
     <use style="stroke:#000000;" x="294.020241" xlink:href="#C0_0_161e3192ad" y="667.649321"/>
    </g>
    <g clip-path="url(#p64e45d4dd5)">
     <use style="stroke:#000000;" x="294.020241" xlink:href="#C0_0_161e3192ad" y="645.559457"/>
    </g>
    <g clip-path="url(#p64e45d4dd5)">
     <use style="fill-opacity:0.180392;" x="294.020241" xlink:href="#C0_0_161e3192ad" y="623.469592"/>
    </g>
    <g clip-path="url(#p64e45d4dd5)">
     <use style="fill-opacity:0.180392;" x="294.020241" xlink:href="#C0_0_161e3192ad" y="601.379728"/>
    </g>
    <g clip-path="url(#p64e45d4dd5)">
     <use style="stroke:#000000;" x="294.020241" xlink:href="#C0_0_161e3192ad" y="579.289864"/>
    </g>
    <g clip-path="url(#p64e45d4dd5)">
     <use style="stroke:#000000;" x="294.020241" xlink:href="#C0_0_161e3192ad" y="557.2"/>
    </g>
    <g clip-path="url(#p64e45d4dd5)">
     <use style="stroke:#000000;" x="294.020241" xlink:href="#C0_0_161e3192ad" y="535.110136"/>
    </g>
    <g clip-path="url(#p64e45d4dd5)">
     <use style="fill-opacity:0.180392;" x="294.020241" xlink:href="#C0_0_161e3192ad" y="513.020272"/>
    </g>
    <g clip-path="url(#p64e45d4dd5)">
     <use style="fill-opacity:0.180392;" x="294.020241" xlink:href="#C0_0_161e3192ad" y="490.930408"/>
    </g>
    <g clip-path="url(#p64e45d4dd5)">
     <use style="fill-opacity:0.180392;" x="294.020241" xlink:href="#C0_0_161e3192ad" y="468.840543"/>
    </g>
    <g clip-path="url(#p64e45d4dd5)">
     <use style="fill-opacity:0.180392;" x="294.020241" xlink:href="#C0_0_161e3192ad" y="446.750679"/>
    </g>
    <g clip-path="url(#p64e45d4dd5)">
     <use style="stroke:#000000;" x="294.020241" xlink:href="#C0_0_161e3192ad" y="424.660815"/>
    </g>
    <g clip-path="url(#p64e45d4dd5)">
     <use style="stroke:#000000;" x="294.020241" xlink:href="#C0_0_161e3192ad" y="402.570951"/>
    </g>
    <g clip-path="url(#p64e45d4dd5)">
     <use style="fill-opacity:0.180392;" x="294.020241" xlink:href="#C0_0_161e3192ad" y="380.481087"/>
    </g>
    <g clip-path="url(#p64e45d4dd5)">
     <use style="fill-opacity:0.180392;" x="294.020241" xlink:href="#C0_0_161e3192ad" y="358.391223"/>
    </g>
    <g clip-path="url(#p64e45d4dd5)">
     <use style="fill-opacity:0.180392;" x="294.020241" xlink:href="#C0_0_161e3192ad" y="336.301358"/>
    </g>
    <g clip-path="url(#p64e45d4dd5)">
     <use style="fill-opacity:0.180392;" x="294.020241" xlink:href="#C0_0_161e3192ad" y="314.211494"/>
    </g>
    <g clip-path="url(#p64e45d4dd5)">
     <use style="stroke:#000000;" x="294.020241" xlink:href="#C0_0_161e3192ad" y="292.12163"/>
    </g>
    <g clip-path="url(#p64e45d4dd5)">
     <use style="fill-opacity:0.180392;" x="294.020241" xlink:href="#C0_0_161e3192ad" y="270.031766"/>
    </g>
    <g clip-path="url(#p64e45d4dd5)">
     <use style="fill-opacity:0.180392;" x="294.020241" xlink:href="#C0_0_161e3192ad" y="247.941902"/>
    </g>
    <g clip-path="url(#p64e45d4dd5)">
     <use style="stroke:#000000;" x="294.020241" xlink:href="#C0_0_161e3192ad" y="225.852038"/>
    </g>
    <g clip-path="url(#p64e45d4dd5)">
     <use style="fill-opacity:0.180392;" x="294.020241" xlink:href="#C0_0_161e3192ad" y="203.762173"/>
    </g>
    <g clip-path="url(#p64e45d4dd5)">
     <use style="fill-opacity:0.180392;" x="294.020241" xlink:href="#C0_0_161e3192ad" y="181.672309"/>
    </g>
    <g clip-path="url(#p64e45d4dd5)">
     <use style="fill-opacity:0.180392;" x="318.28241" xlink:href="#C0_0_161e3192ad" y="932.727691"/>
    </g>
    <g clip-path="url(#p64e45d4dd5)">
     <use style="fill-opacity:0.180392;" x="318.28241" xlink:href="#C0_0_161e3192ad" y="910.637827"/>
    </g>
    <g clip-path="url(#p64e45d4dd5)">
     <use style="fill-opacity:0.180392;" x="318.28241" xlink:href="#C0_0_161e3192ad" y="888.547962"/>
    </g>
    <g clip-path="url(#p64e45d4dd5)">
     <use style="fill-opacity:0.180392;" x="318.28241" xlink:href="#C0_0_161e3192ad" y="866.458098"/>
    </g>
    <g clip-path="url(#p64e45d4dd5)">
     <use style="fill-opacity:0.180392;" x="318.28241" xlink:href="#C0_0_161e3192ad" y="844.368234"/>
    </g>
    <g clip-path="url(#p64e45d4dd5)">
     <use style="fill-opacity:0.180392;" x="318.28241" xlink:href="#C0_0_161e3192ad" y="822.27837"/>
    </g>
    <g clip-path="url(#p64e45d4dd5)">
     <use style="fill-opacity:0.180392;" x="318.28241" xlink:href="#C0_0_161e3192ad" y="800.188506"/>
    </g>
    <g clip-path="url(#p64e45d4dd5)">
     <use style="fill-opacity:0.180392;" x="318.28241" xlink:href="#C0_0_161e3192ad" y="778.098642"/>
    </g>
    <g clip-path="url(#p64e45d4dd5)">
     <use style="fill-opacity:0.180392;" x="318.28241" xlink:href="#C0_0_161e3192ad" y="756.008777"/>
    </g>
    <g clip-path="url(#p64e45d4dd5)">
     <use style="fill:#1b9e77;stroke:#1b9e77;" x="318.28241" xlink:href="#C0_0_161e3192ad" y="733.918913"/>
    </g>
    <g clip-path="url(#p64e45d4dd5)">
     <use style="fill:#1b9e77;stroke:#1b9e77;" x="318.28241" xlink:href="#C0_0_161e3192ad" y="711.829049"/>
    </g>
    <g clip-path="url(#p64e45d4dd5)">
     <use style="fill-opacity:0.180392;" x="318.28241" xlink:href="#C0_0_161e3192ad" y="689.739185"/>
    </g>
    <g clip-path="url(#p64e45d4dd5)">
     <use style="fill-opacity:0.180392;" x="318.28241" xlink:href="#C0_0_161e3192ad" y="667.649321"/>
    </g>
    <g clip-path="url(#p64e45d4dd5)">
     <use style="fill-opacity:0.180392;" x="318.28241" xlink:href="#C0_0_161e3192ad" y="645.559457"/>
    </g>
    <g clip-path="url(#p64e45d4dd5)">
     <use style="fill:#1b9e77;stroke:#1b9e77;" x="318.28241" xlink:href="#C0_0_161e3192ad" y="623.469592"/>
    </g>
    <g clip-path="url(#p64e45d4dd5)">
     <use style="fill:#1b9e77;stroke:#1b9e77;" x="318.28241" xlink:href="#C0_0_161e3192ad" y="601.379728"/>
    </g>
    <g clip-path="url(#p64e45d4dd5)">
     <use style="fill-opacity:0.180392;" x="318.28241" xlink:href="#C0_0_161e3192ad" y="579.289864"/>
    </g>
    <g clip-path="url(#p64e45d4dd5)">
     <use style="fill-opacity:0.180392;" x="318.28241" xlink:href="#C0_0_161e3192ad" y="557.2"/>
    </g>
    <g clip-path="url(#p64e45d4dd5)">
     <use style="fill-opacity:0.180392;" x="318.28241" xlink:href="#C0_0_161e3192ad" y="535.110136"/>
    </g>
    <g clip-path="url(#p64e45d4dd5)">
     <use style="fill:#1b9e77;stroke:#1b9e77;" x="318.28241" xlink:href="#C0_0_161e3192ad" y="513.020272"/>
    </g>
    <g clip-path="url(#p64e45d4dd5)">
     <use style="fill:#1b9e77;stroke:#1b9e77;" x="318.28241" xlink:href="#C0_0_161e3192ad" y="490.930408"/>
    </g>
    <g clip-path="url(#p64e45d4dd5)">
     <use style="fill:#1b9e77;stroke:#1b9e77;" x="318.28241" xlink:href="#C0_0_161e3192ad" y="468.840543"/>
    </g>
    <g clip-path="url(#p64e45d4dd5)">
     <use style="fill-opacity:0.180392;" x="318.28241" xlink:href="#C0_0_161e3192ad" y="446.750679"/>
    </g>
    <g clip-path="url(#p64e45d4dd5)">
     <use style="fill-opacity:0.180392;" x="318.28241" xlink:href="#C0_0_161e3192ad" y="424.660815"/>
    </g>
    <g clip-path="url(#p64e45d4dd5)">
     <use style="fill-opacity:0.180392;" x="318.28241" xlink:href="#C0_0_161e3192ad" y="402.570951"/>
    </g>
    <g clip-path="url(#p64e45d4dd5)">
     <use style="fill-opacity:0.180392;" x="318.28241" xlink:href="#C0_0_161e3192ad" y="380.481087"/>
    </g>
    <g clip-path="url(#p64e45d4dd5)">
     <use style="fill-opacity:0.180392;" x="318.28241" xlink:href="#C0_0_161e3192ad" y="358.391223"/>
    </g>
    <g clip-path="url(#p64e45d4dd5)">
     <use style="fill:#1b9e77;stroke:#1b9e77;" x="318.28241" xlink:href="#C0_0_161e3192ad" y="336.301358"/>
    </g>
    <g clip-path="url(#p64e45d4dd5)">
     <use style="fill:#1b9e77;stroke:#1b9e77;" x="318.28241" xlink:href="#C0_0_161e3192ad" y="314.211494"/>
    </g>
    <g clip-path="url(#p64e45d4dd5)">
     <use style="fill-opacity:0.180392;" x="318.28241" xlink:href="#C0_0_161e3192ad" y="292.12163"/>
    </g>
    <g clip-path="url(#p64e45d4dd5)">
     <use style="fill:#1b9e77;stroke:#1b9e77;" x="318.28241" xlink:href="#C0_0_161e3192ad" y="270.031766"/>
    </g>
    <g clip-path="url(#p64e45d4dd5)">
     <use style="fill-opacity:0.180392;" x="318.28241" xlink:href="#C0_0_161e3192ad" y="247.941902"/>
    </g>
    <g clip-path="url(#p64e45d4dd5)">
     <use style="fill-opacity:0.180392;" x="318.28241" xlink:href="#C0_0_161e3192ad" y="225.852038"/>
    </g>
    <g clip-path="url(#p64e45d4dd5)">
     <use style="fill-opacity:0.180392;" x="318.28241" xlink:href="#C0_0_161e3192ad" y="203.762173"/>
    </g>
    <g clip-path="url(#p64e45d4dd5)">
     <use style="fill-opacity:0.180392;" x="318.28241" xlink:href="#C0_0_161e3192ad" y="181.672309"/>
    </g>
    <g clip-path="url(#p64e45d4dd5)">
     <use style="fill:#7570b3;stroke:#7570b3;" x="342.544578" xlink:href="#C0_0_161e3192ad" y="932.727691"/>
    </g>
    <g clip-path="url(#p64e45d4dd5)">
     <use style="fill:#7570b3;stroke:#7570b3;" x="342.544578" xlink:href="#C0_0_161e3192ad" y="910.637827"/>
    </g>
    <g clip-path="url(#p64e45d4dd5)">
     <use style="fill:#7570b3;stroke:#7570b3;" x="342.544578" xlink:href="#C0_0_161e3192ad" y="888.547962"/>
    </g>
    <g clip-path="url(#p64e45d4dd5)">
     <use style="fill:#7570b3;stroke:#7570b3;" x="342.544578" xlink:href="#C0_0_161e3192ad" y="866.458098"/>
    </g>
    <g clip-path="url(#p64e45d4dd5)">
     <use style="fill:#7570b3;stroke:#7570b3;" x="342.544578" xlink:href="#C0_0_161e3192ad" y="844.368234"/>
    </g>
    <g clip-path="url(#p64e45d4dd5)">
     <use style="fill-opacity:0.180392;" x="342.544578" xlink:href="#C0_0_161e3192ad" y="822.27837"/>
    </g>
    <g clip-path="url(#p64e45d4dd5)">
     <use style="fill-opacity:0.180392;" x="342.544578" xlink:href="#C0_0_161e3192ad" y="800.188506"/>
    </g>
    <g clip-path="url(#p64e45d4dd5)">
     <use style="fill-opacity:0.180392;" x="342.544578" xlink:href="#C0_0_161e3192ad" y="778.098642"/>
    </g>
    <g clip-path="url(#p64e45d4dd5)">
     <use style="fill:#7570b3;stroke:#7570b3;" x="342.544578" xlink:href="#C0_0_161e3192ad" y="756.008777"/>
    </g>
    <g clip-path="url(#p64e45d4dd5)">
     <use style="fill:#7570b3;stroke:#7570b3;" x="342.544578" xlink:href="#C0_0_161e3192ad" y="733.918913"/>
    </g>
    <g clip-path="url(#p64e45d4dd5)">
     <use style="fill-opacity:0.180392;" x="342.544578" xlink:href="#C0_0_161e3192ad" y="711.829049"/>
    </g>
    <g clip-path="url(#p64e45d4dd5)">
     <use style="fill:#7570b3;stroke:#7570b3;" x="342.544578" xlink:href="#C0_0_161e3192ad" y="689.739185"/>
    </g>
    <g clip-path="url(#p64e45d4dd5)">
     <use style="fill-opacity:0.180392;" x="342.544578" xlink:href="#C0_0_161e3192ad" y="667.649321"/>
    </g>
    <g clip-path="url(#p64e45d4dd5)">
     <use style="fill-opacity:0.180392;" x="342.544578" xlink:href="#C0_0_161e3192ad" y="645.559457"/>
    </g>
    <g clip-path="url(#p64e45d4dd5)">
     <use style="fill-opacity:0.180392;" x="342.544578" xlink:href="#C0_0_161e3192ad" y="623.469592"/>
    </g>
    <g clip-path="url(#p64e45d4dd5)">
     <use style="fill-opacity:0.180392;" x="342.544578" xlink:href="#C0_0_161e3192ad" y="601.379728"/>
    </g>
    <g clip-path="url(#p64e45d4dd5)">
     <use style="fill-opacity:0.180392;" x="342.544578" xlink:href="#C0_0_161e3192ad" y="579.289864"/>
    </g>
    <g clip-path="url(#p64e45d4dd5)">
     <use style="fill-opacity:0.180392;" x="342.544578" xlink:href="#C0_0_161e3192ad" y="557.2"/>
    </g>
    <g clip-path="url(#p64e45d4dd5)">
     <use style="fill-opacity:0.180392;" x="342.544578" xlink:href="#C0_0_161e3192ad" y="535.110136"/>
    </g>
    <g clip-path="url(#p64e45d4dd5)">
     <use style="fill-opacity:0.180392;" x="342.544578" xlink:href="#C0_0_161e3192ad" y="513.020272"/>
    </g>
    <g clip-path="url(#p64e45d4dd5)">
     <use style="fill-opacity:0.180392;" x="342.544578" xlink:href="#C0_0_161e3192ad" y="490.930408"/>
    </g>
    <g clip-path="url(#p64e45d4dd5)">
     <use style="fill-opacity:0.180392;" x="342.544578" xlink:href="#C0_0_161e3192ad" y="468.840543"/>
    </g>
    <g clip-path="url(#p64e45d4dd5)">
     <use style="fill-opacity:0.180392;" x="342.544578" xlink:href="#C0_0_161e3192ad" y="446.750679"/>
    </g>
    <g clip-path="url(#p64e45d4dd5)">
     <use style="fill-opacity:0.180392;" x="342.544578" xlink:href="#C0_0_161e3192ad" y="424.660815"/>
    </g>
    <g clip-path="url(#p64e45d4dd5)">
     <use style="fill-opacity:0.180392;" x="342.544578" xlink:href="#C0_0_161e3192ad" y="402.570951"/>
    </g>
    <g clip-path="url(#p64e45d4dd5)">
     <use style="fill-opacity:0.180392;" x="342.544578" xlink:href="#C0_0_161e3192ad" y="380.481087"/>
    </g>
    <g clip-path="url(#p64e45d4dd5)">
     <use style="fill:#7570b3;stroke:#7570b3;" x="342.544578" xlink:href="#C0_0_161e3192ad" y="358.391223"/>
    </g>
    <g clip-path="url(#p64e45d4dd5)">
     <use style="fill-opacity:0.180392;" x="342.544578" xlink:href="#C0_0_161e3192ad" y="336.301358"/>
    </g>
    <g clip-path="url(#p64e45d4dd5)">
     <use style="fill-opacity:0.180392;" x="342.544578" xlink:href="#C0_0_161e3192ad" y="314.211494"/>
    </g>
    <g clip-path="url(#p64e45d4dd5)">
     <use style="fill-opacity:0.180392;" x="342.544578" xlink:href="#C0_0_161e3192ad" y="292.12163"/>
    </g>
    <g clip-path="url(#p64e45d4dd5)">
     <use style="fill-opacity:0.180392;" x="342.544578" xlink:href="#C0_0_161e3192ad" y="270.031766"/>
    </g>
    <g clip-path="url(#p64e45d4dd5)">
     <use style="fill-opacity:0.180392;" x="342.544578" xlink:href="#C0_0_161e3192ad" y="247.941902"/>
    </g>
    <g clip-path="url(#p64e45d4dd5)">
     <use style="fill-opacity:0.180392;" x="342.544578" xlink:href="#C0_0_161e3192ad" y="225.852038"/>
    </g>
    <g clip-path="url(#p64e45d4dd5)">
     <use style="fill-opacity:0.180392;" x="342.544578" xlink:href="#C0_0_161e3192ad" y="203.762173"/>
    </g>
    <g clip-path="url(#p64e45d4dd5)">
     <use style="fill:#7570b3;stroke:#7570b3;" x="342.544578" xlink:href="#C0_0_161e3192ad" y="181.672309"/>
    </g>
    <g clip-path="url(#p64e45d4dd5)">
     <use style="stroke:#000000;" x="366.806747" xlink:href="#C0_0_161e3192ad" y="932.727691"/>
    </g>
    <g clip-path="url(#p64e45d4dd5)">
     <use style="stroke:#000000;" x="366.806747" xlink:href="#C0_0_161e3192ad" y="910.637827"/>
    </g>
    <g clip-path="url(#p64e45d4dd5)">
     <use style="stroke:#000000;" x="366.806747" xlink:href="#C0_0_161e3192ad" y="888.547962"/>
    </g>
    <g clip-path="url(#p64e45d4dd5)">
     <use style="stroke:#000000;" x="366.806747" xlink:href="#C0_0_161e3192ad" y="866.458098"/>
    </g>
    <g clip-path="url(#p64e45d4dd5)">
     <use style="fill-opacity:0.180392;" x="366.806747" xlink:href="#C0_0_161e3192ad" y="844.368234"/>
    </g>
    <g clip-path="url(#p64e45d4dd5)">
     <use style="stroke:#000000;" x="366.806747" xlink:href="#C0_0_161e3192ad" y="822.27837"/>
    </g>
    <g clip-path="url(#p64e45d4dd5)">
     <use style="stroke:#000000;" x="366.806747" xlink:href="#C0_0_161e3192ad" y="800.188506"/>
    </g>
    <g clip-path="url(#p64e45d4dd5)">
     <use style="stroke:#000000;" x="366.806747" xlink:href="#C0_0_161e3192ad" y="778.098642"/>
    </g>
    <g clip-path="url(#p64e45d4dd5)">
     <use style="fill-opacity:0.180392;" x="366.806747" xlink:href="#C0_0_161e3192ad" y="756.008777"/>
    </g>
    <g clip-path="url(#p64e45d4dd5)">
     <use style="fill-opacity:0.180392;" x="366.806747" xlink:href="#C0_0_161e3192ad" y="733.918913"/>
    </g>
    <g clip-path="url(#p64e45d4dd5)">
     <use style="fill-opacity:0.180392;" x="366.806747" xlink:href="#C0_0_161e3192ad" y="711.829049"/>
    </g>
    <g clip-path="url(#p64e45d4dd5)">
     <use style="fill-opacity:0.180392;" x="366.806747" xlink:href="#C0_0_161e3192ad" y="689.739185"/>
    </g>
    <g clip-path="url(#p64e45d4dd5)">
     <use style="fill-opacity:0.180392;" x="366.806747" xlink:href="#C0_0_161e3192ad" y="667.649321"/>
    </g>
    <g clip-path="url(#p64e45d4dd5)">
     <use style="fill-opacity:0.180392;" x="366.806747" xlink:href="#C0_0_161e3192ad" y="645.559457"/>
    </g>
    <g clip-path="url(#p64e45d4dd5)">
     <use style="fill-opacity:0.180392;" x="366.806747" xlink:href="#C0_0_161e3192ad" y="623.469592"/>
    </g>
    <g clip-path="url(#p64e45d4dd5)">
     <use style="fill-opacity:0.180392;" x="366.806747" xlink:href="#C0_0_161e3192ad" y="601.379728"/>
    </g>
    <g clip-path="url(#p64e45d4dd5)">
     <use style="fill-opacity:0.180392;" x="366.806747" xlink:href="#C0_0_161e3192ad" y="579.289864"/>
    </g>
    <g clip-path="url(#p64e45d4dd5)">
     <use style="fill-opacity:0.180392;" x="366.806747" xlink:href="#C0_0_161e3192ad" y="557.2"/>
    </g>
    <g clip-path="url(#p64e45d4dd5)">
     <use style="fill-opacity:0.180392;" x="366.806747" xlink:href="#C0_0_161e3192ad" y="535.110136"/>
    </g>
    <g clip-path="url(#p64e45d4dd5)">
     <use style="fill-opacity:0.180392;" x="366.806747" xlink:href="#C0_0_161e3192ad" y="513.020272"/>
    </g>
    <g clip-path="url(#p64e45d4dd5)">
     <use style="fill-opacity:0.180392;" x="366.806747" xlink:href="#C0_0_161e3192ad" y="490.930408"/>
    </g>
    <g clip-path="url(#p64e45d4dd5)">
     <use style="fill-opacity:0.180392;" x="366.806747" xlink:href="#C0_0_161e3192ad" y="468.840543"/>
    </g>
    <g clip-path="url(#p64e45d4dd5)">
     <use style="stroke:#000000;" x="366.806747" xlink:href="#C0_0_161e3192ad" y="446.750679"/>
    </g>
    <g clip-path="url(#p64e45d4dd5)">
     <use style="fill-opacity:0.180392;" x="366.806747" xlink:href="#C0_0_161e3192ad" y="424.660815"/>
    </g>
    <g clip-path="url(#p64e45d4dd5)">
     <use style="fill-opacity:0.180392;" x="366.806747" xlink:href="#C0_0_161e3192ad" y="402.570951"/>
    </g>
    <g clip-path="url(#p64e45d4dd5)">
     <use style="stroke:#000000;" x="366.806747" xlink:href="#C0_0_161e3192ad" y="380.481087"/>
    </g>
    <g clip-path="url(#p64e45d4dd5)">
     <use style="fill-opacity:0.180392;" x="366.806747" xlink:href="#C0_0_161e3192ad" y="358.391223"/>
    </g>
    <g clip-path="url(#p64e45d4dd5)">
     <use style="fill-opacity:0.180392;" x="366.806747" xlink:href="#C0_0_161e3192ad" y="336.301358"/>
    </g>
    <g clip-path="url(#p64e45d4dd5)">
     <use style="fill-opacity:0.180392;" x="366.806747" xlink:href="#C0_0_161e3192ad" y="314.211494"/>
    </g>
    <g clip-path="url(#p64e45d4dd5)">
     <use style="fill-opacity:0.180392;" x="366.806747" xlink:href="#C0_0_161e3192ad" y="292.12163"/>
    </g>
    <g clip-path="url(#p64e45d4dd5)">
     <use style="fill-opacity:0.180392;" x="366.806747" xlink:href="#C0_0_161e3192ad" y="270.031766"/>
    </g>
    <g clip-path="url(#p64e45d4dd5)">
     <use style="stroke:#000000;" x="366.806747" xlink:href="#C0_0_161e3192ad" y="247.941902"/>
    </g>
    <g clip-path="url(#p64e45d4dd5)">
     <use style="fill-opacity:0.180392;" x="366.806747" xlink:href="#C0_0_161e3192ad" y="225.852038"/>
    </g>
    <g clip-path="url(#p64e45d4dd5)">
     <use style="fill-opacity:0.180392;" x="366.806747" xlink:href="#C0_0_161e3192ad" y="203.762173"/>
    </g>
    <g clip-path="url(#p64e45d4dd5)">
     <use style="fill-opacity:0.180392;" x="366.806747" xlink:href="#C0_0_161e3192ad" y="181.672309"/>
    </g>
    <g clip-path="url(#p64e45d4dd5)">
     <use style="stroke:#000000;" x="391.068916" xlink:href="#C0_0_161e3192ad" y="932.727691"/>
    </g>
    <g clip-path="url(#p64e45d4dd5)">
     <use style="stroke:#000000;" x="391.068916" xlink:href="#C0_0_161e3192ad" y="910.637827"/>
    </g>
    <g clip-path="url(#p64e45d4dd5)">
     <use style="stroke:#000000;" x="391.068916" xlink:href="#C0_0_161e3192ad" y="888.547962"/>
    </g>
    <g clip-path="url(#p64e45d4dd5)">
     <use style="stroke:#000000;" x="391.068916" xlink:href="#C0_0_161e3192ad" y="866.458098"/>
    </g>
    <g clip-path="url(#p64e45d4dd5)">
     <use style="stroke:#000000;" x="391.068916" xlink:href="#C0_0_161e3192ad" y="844.368234"/>
    </g>
    <g clip-path="url(#p64e45d4dd5)">
     <use style="stroke:#000000;" x="391.068916" xlink:href="#C0_0_161e3192ad" y="822.27837"/>
    </g>
    <g clip-path="url(#p64e45d4dd5)">
     <use style="stroke:#000000;" x="391.068916" xlink:href="#C0_0_161e3192ad" y="800.188506"/>
    </g>
    <g clip-path="url(#p64e45d4dd5)">
     <use style="stroke:#000000;" x="391.068916" xlink:href="#C0_0_161e3192ad" y="778.098642"/>
    </g>
    <g clip-path="url(#p64e45d4dd5)">
     <use style="stroke:#000000;" x="391.068916" xlink:href="#C0_0_161e3192ad" y="756.008777"/>
    </g>
    <g clip-path="url(#p64e45d4dd5)">
     <use style="fill-opacity:0.180392;" x="391.068916" xlink:href="#C0_0_161e3192ad" y="733.918913"/>
    </g>
    <g clip-path="url(#p64e45d4dd5)">
     <use style="fill-opacity:0.180392;" x="391.068916" xlink:href="#C0_0_161e3192ad" y="711.829049"/>
    </g>
    <g clip-path="url(#p64e45d4dd5)">
     <use style="fill-opacity:0.180392;" x="391.068916" xlink:href="#C0_0_161e3192ad" y="689.739185"/>
    </g>
    <g clip-path="url(#p64e45d4dd5)">
     <use style="fill-opacity:0.180392;" x="391.068916" xlink:href="#C0_0_161e3192ad" y="667.649321"/>
    </g>
    <g clip-path="url(#p64e45d4dd5)">
     <use style="fill-opacity:0.180392;" x="391.068916" xlink:href="#C0_0_161e3192ad" y="645.559457"/>
    </g>
    <g clip-path="url(#p64e45d4dd5)">
     <use style="fill-opacity:0.180392;" x="391.068916" xlink:href="#C0_0_161e3192ad" y="623.469592"/>
    </g>
    <g clip-path="url(#p64e45d4dd5)">
     <use style="fill-opacity:0.180392;" x="391.068916" xlink:href="#C0_0_161e3192ad" y="601.379728"/>
    </g>
    <g clip-path="url(#p64e45d4dd5)">
     <use style="fill-opacity:0.180392;" x="391.068916" xlink:href="#C0_0_161e3192ad" y="579.289864"/>
    </g>
    <g clip-path="url(#p64e45d4dd5)">
     <use style="fill-opacity:0.180392;" x="391.068916" xlink:href="#C0_0_161e3192ad" y="557.2"/>
    </g>
    <g clip-path="url(#p64e45d4dd5)">
     <use style="fill-opacity:0.180392;" x="391.068916" xlink:href="#C0_0_161e3192ad" y="535.110136"/>
    </g>
    <g clip-path="url(#p64e45d4dd5)">
     <use style="fill-opacity:0.180392;" x="391.068916" xlink:href="#C0_0_161e3192ad" y="513.020272"/>
    </g>
    <g clip-path="url(#p64e45d4dd5)">
     <use style="fill-opacity:0.180392;" x="391.068916" xlink:href="#C0_0_161e3192ad" y="490.930408"/>
    </g>
    <g clip-path="url(#p64e45d4dd5)">
     <use style="fill-opacity:0.180392;" x="391.068916" xlink:href="#C0_0_161e3192ad" y="468.840543"/>
    </g>
    <g clip-path="url(#p64e45d4dd5)">
     <use style="fill-opacity:0.180392;" x="391.068916" xlink:href="#C0_0_161e3192ad" y="446.750679"/>
    </g>
    <g clip-path="url(#p64e45d4dd5)">
     <use style="fill-opacity:0.180392;" x="391.068916" xlink:href="#C0_0_161e3192ad" y="424.660815"/>
    </g>
    <g clip-path="url(#p64e45d4dd5)">
     <use style="fill-opacity:0.180392;" x="391.068916" xlink:href="#C0_0_161e3192ad" y="402.570951"/>
    </g>
    <g clip-path="url(#p64e45d4dd5)">
     <use style="fill-opacity:0.180392;" x="391.068916" xlink:href="#C0_0_161e3192ad" y="380.481087"/>
    </g>
    <g clip-path="url(#p64e45d4dd5)">
     <use style="fill-opacity:0.180392;" x="391.068916" xlink:href="#C0_0_161e3192ad" y="358.391223"/>
    </g>
    <g clip-path="url(#p64e45d4dd5)">
     <use style="fill-opacity:0.180392;" x="391.068916" xlink:href="#C0_0_161e3192ad" y="336.301358"/>
    </g>
    <g clip-path="url(#p64e45d4dd5)">
     <use style="fill-opacity:0.180392;" x="391.068916" xlink:href="#C0_0_161e3192ad" y="314.211494"/>
    </g>
    <g clip-path="url(#p64e45d4dd5)">
     <use style="fill-opacity:0.180392;" x="391.068916" xlink:href="#C0_0_161e3192ad" y="292.12163"/>
    </g>
    <g clip-path="url(#p64e45d4dd5)">
     <use style="fill-opacity:0.180392;" x="391.068916" xlink:href="#C0_0_161e3192ad" y="270.031766"/>
    </g>
    <g clip-path="url(#p64e45d4dd5)">
     <use style="fill-opacity:0.180392;" x="391.068916" xlink:href="#C0_0_161e3192ad" y="247.941902"/>
    </g>
    <g clip-path="url(#p64e45d4dd5)">
     <use style="fill-opacity:0.180392;" x="391.068916" xlink:href="#C0_0_161e3192ad" y="225.852038"/>
    </g>
    <g clip-path="url(#p64e45d4dd5)">
     <use style="stroke:#000000;" x="391.068916" xlink:href="#C0_0_161e3192ad" y="203.762173"/>
    </g>
    <g clip-path="url(#p64e45d4dd5)">
     <use style="fill-opacity:0.180392;" x="391.068916" xlink:href="#C0_0_161e3192ad" y="181.672309"/>
    </g>
   </g>
  </g>
  <g id="axes_3">
   <g id="patch_20">
    <path clip-path="url(#p3f28283661)" d="M 102.014458 938.250157
L 56 938.250157
L 56 927.205225
L 102.014458 927.205225
z
"/>
   </g>
   <g id="patch_21">
    <path clip-path="url(#p3f28283661)" d="M 102.014458 916.160293
L 67.503614 916.160293
L 67.503614 905.115361
L 102.014458 905.115361
z
"/>
   </g>
   <g id="patch_22">
    <path clip-path="url(#p3f28283661)" d="M 102.014458 894.070428
L 67.503614 894.070428
L 67.503614 883.025496
L 102.014458 883.025496
z
"/>
   </g>
   <g id="patch_23">
    <path clip-path="url(#p3f28283661)" d="M 102.014458 871.980564
L 67.503614 871.980564
L 67.503614 860.935632
L 102.014458 860.935632
z
"/>
   </g>
   <g id="patch_24">
    <path clip-path="url(#p3f28283661)" d="M 102.014458 849.8907
L 79.007229 849.8907
L 79.007229 838.845768
L 102.014458 838.845768
z
"/>
   </g>
   <g id="patch_25">
    <path clip-path="url(#p3f28283661)" d="M 102.014458 827.800836
L 79.007229 827.800836
L 79.007229 816.755904
L 102.014458 816.755904
z
"/>
   </g>
   <g id="patch_26">
    <path clip-path="url(#p3f28283661)" d="M 102.014458 805.710972
L 79.007229 805.710972
L 79.007229 794.66604
L 102.014458 794.66604
z
"/>
   </g>
   <g id="patch_27">
    <path clip-path="url(#p3f28283661)" d="M 102.014458 783.621108
L 79.007229 783.621108
L 79.007229 772.576176
L 102.014458 772.576176
z
"/>
   </g>
   <g id="patch_28">
    <path clip-path="url(#p3f28283661)" d="M 102.014458 761.531243
L 79.007229 761.531243
L 79.007229 750.486311
L 102.014458 750.486311
z
"/>
   </g>
   <g id="patch_29">
    <path clip-path="url(#p3f28283661)" d="M 102.014458 739.441379
L 79.007229 739.441379
L 79.007229 728.396447
L 102.014458 728.396447
z
"/>
   </g>
   <g id="patch_30">
    <path clip-path="url(#p3f28283661)" d="M 102.014458 717.351515
L 90.510843 717.351515
L 90.510843 706.306583
L 102.014458 706.306583
z
"/>
   </g>
   <g id="patch_31">
    <path clip-path="url(#p3f28283661)" d="M 102.014458 695.261651
L 90.510843 695.261651
L 90.510843 684.216719
L 102.014458 684.216719
z
"/>
   </g>
   <g id="patch_32">
    <path clip-path="url(#p3f28283661)" d="M 102.014458 673.171787
L 90.510843 673.171787
L 90.510843 662.126855
L 102.014458 662.126855
z
"/>
   </g>
   <g id="patch_33">
    <path clip-path="url(#p3f28283661)" d="M 102.014458 651.081923
L 90.510843 651.081923
L 90.510843 640.036991
L 102.014458 640.036991
z
"/>
   </g>
   <g id="patch_34">
    <path clip-path="url(#p3f28283661)" d="M 102.014458 628.992059
L 90.510843 628.992059
L 90.510843 617.947126
L 102.014458 617.947126
z
"/>
   </g>
   <g id="patch_35">
    <path clip-path="url(#p3f28283661)" d="M 102.014458 606.902194
L 90.510843 606.902194
L 90.510843 595.857262
L 102.014458 595.857262
z
"/>
   </g>
   <g id="patch_36">
    <path clip-path="url(#p3f28283661)" d="M 102.014458 584.81233
L 90.510843 584.81233
L 90.510843 573.767398
L 102.014458 573.767398
z
"/>
   </g>
   <g id="patch_37">
    <path clip-path="url(#p3f28283661)" d="M 102.014458 562.722466
L 90.510843 562.722466
L 90.510843 551.677534
L 102.014458 551.677534
z
"/>
   </g>
   <g id="patch_38">
    <path clip-path="url(#p3f28283661)" d="M 102.014458 540.632602
L 90.510843 540.632602
L 90.510843 529.58767
L 102.014458 529.58767
z
"/>
   </g>
   <g id="patch_39">
    <path clip-path="url(#p3f28283661)" d="M 102.014458 518.542738
L 90.510843 518.542738
L 90.510843 507.497806
L 102.014458 507.497806
z
"/>
   </g>
   <g id="patch_40">
    <path clip-path="url(#p3f28283661)" d="M 102.014458 496.452874
L 90.510843 496.452874
L 90.510843 485.407941
L 102.014458 485.407941
z
"/>
   </g>
   <g id="patch_41">
    <path clip-path="url(#p3f28283661)" d="M 102.014458 474.363009
L 90.510843 474.363009
L 90.510843 463.318077
L 102.014458 463.318077
z
"/>
   </g>
   <g id="patch_42">
    <path clip-path="url(#p3f28283661)" d="M 102.014458 452.273145
L 90.510843 452.273145
L 90.510843 441.228213
L 102.014458 441.228213
z
"/>
   </g>
   <g id="patch_43">
    <path clip-path="url(#p3f28283661)" d="M 102.014458 430.183281
L 90.510843 430.183281
L 90.510843 419.138349
L 102.014458 419.138349
z
"/>
   </g>
   <g id="patch_44">
    <path clip-path="url(#p3f28283661)" d="M 102.014458 408.093417
L 90.510843 408.093417
L 90.510843 397.048485
L 102.014458 397.048485
z
"/>
   </g>
   <g id="patch_45">
    <path clip-path="url(#p3f28283661)" d="M 102.014458 386.003553
L 90.510843 386.003553
L 90.510843 374.958621
L 102.014458 374.958621
z
"/>
   </g>
   <g id="patch_46">
    <path clip-path="url(#p3f28283661)" d="M 102.014458 363.913689
L 90.510843 363.913689
L 90.510843 352.868757
L 102.014458 352.868757
z
"/>
   </g>
   <g id="patch_47">
    <path clip-path="url(#p3f28283661)" d="M 102.014458 341.823824
L 90.510843 341.823824
L 90.510843 330.778892
L 102.014458 330.778892
z
"/>
   </g>
   <g id="patch_48">
    <path clip-path="url(#p3f28283661)" d="M 102.014458 319.73396
L 90.510843 319.73396
L 90.510843 308.689028
L 102.014458 308.689028
z
"/>
   </g>
   <g id="patch_49">
    <path clip-path="url(#p3f28283661)" d="M 102.014458 297.644096
L 90.510843 297.644096
L 90.510843 286.599164
L 102.014458 286.599164
z
"/>
   </g>
   <g id="patch_50">
    <path clip-path="url(#p3f28283661)" d="M 102.014458 275.554232
L 90.510843 275.554232
L 90.510843 264.5093
L 102.014458 264.5093
z
"/>
   </g>
   <g id="patch_51">
    <path clip-path="url(#p3f28283661)" d="M 102.014458 253.464368
L 90.510843 253.464368
L 90.510843 242.419436
L 102.014458 242.419436
z
"/>
   </g>
   <g id="patch_52">
    <path clip-path="url(#p3f28283661)" d="M 102.014458 231.374504
L 90.510843 231.374504
L 90.510843 220.329572
L 102.014458 220.329572
z
"/>
   </g>
   <g id="patch_53">
    <path clip-path="url(#p3f28283661)" d="M 102.014458 209.284639
L 90.510843 209.284639
L 90.510843 198.239707
L 102.014458 198.239707
z
"/>
   </g>
   <g id="patch_54">
    <path clip-path="url(#p3f28283661)" d="M 102.014458 187.194775
L 90.510843 187.194775
L 90.510843 176.149843
L 102.014458 176.149843
z
"/>
   </g>
   <g id="matplotlib.axis_4">
    <g id="xtick_1">
     <g id="line2d_36">
      <path clip-path="url(#p3f28283661)" d="M 102.014458 980
L 102.014458 134.4
" style="fill:none;stroke:#b0b0b0;stroke-linecap:square;stroke-width:0.8;"/>
     </g>
     <g id="line2d_37">
      <defs>
       <path d="M 0 0
L 0 3.5
" id="m2f1f7e6100" style="stroke:#000000;stroke-width:0.8;"/>
      </defs>
      <g>
       <use style="stroke:#000000;stroke-width:0.8;" x="102.014458" xlink:href="#m2f1f7e6100" y="980"/>
      </g>
     </g>
     <g id="text_37">
      <!-- 0.0 -->
      <g transform="translate(94.062895 994.598437)scale(0.1 -0.1)">
       <use xlink:href="#DejaVuSans-48"/>
       <use x="63.623047" xlink:href="#DejaVuSans-46"/>
       <use x="95.410156" xlink:href="#DejaVuSans-48"/>
      </g>
     </g>
    </g>
    <g id="xtick_2">
     <g id="line2d_38">
      <path clip-path="url(#p3f28283661)" d="M 73.255422 980
L 73.255422 134.4
" style="fill:none;stroke:#b0b0b0;stroke-linecap:square;stroke-width:0.8;"/>
     </g>
     <g id="line2d_39">
      <g>
       <use style="stroke:#000000;stroke-width:0.8;" x="73.255422" xlink:href="#m2f1f7e6100" y="980"/>
      </g>
     </g>
     <g id="text_38">
      <!-- 2.5 -->
      <g transform="translate(65.303859 994.598437)scale(0.1 -0.1)">
       <use xlink:href="#DejaVuSans-50"/>
       <use x="63.623047" xlink:href="#DejaVuSans-46"/>
       <use x="95.410156" xlink:href="#DejaVuSans-53"/>
      </g>
     </g>
    </g>
   </g>
   <g id="patch_55">
    <path d="M 56 980
L 102.014458 980
" style="fill:none;stroke:#000000;stroke-linecap:square;stroke-linejoin:miter;stroke-width:0.8;"/>
   </g>
  </g>
 </g>
 <defs>
  <clipPath id="p6df9e1bab2">
   <rect height="845.6" width="347.2" x="56" y="134.4"/>
  </clipPath>
  <clipPath id="p64e45d4dd5">
   <rect height="845.6" width="121.310843" x="281.889157" y="134.4"/>
  </clipPath>
  <clipPath id="p3f28283661">
   <rect height="845.6" width="46.014458" x="56" y="134.4"/>
  </clipPath>
 </defs>
</svg>
