<?xml version="1.0" encoding="utf-8" standalone="no"?>
<!DOCTYPE svg PUBLIC "-//W3C//DTD SVG 1.1//EN"
  "http://www.w3.org/Graphics/SVG/1.1/DTD/svg11.dtd">
<!-- Created with matplotlib (https://matplotlib.org/) -->
<svg height="800pt" version="1.1" viewBox="0 0 384 800" width="384pt" xmlns="http://www.w3.org/2000/svg" xmlns:xlink="http://www.w3.org/1999/xlink">
 <metadata>
  <rdf:RDF xmlns:cc="http://creativecommons.org/ns#" xmlns:dc="http://purl.org/dc/elements/1.1/" xmlns:rdf="http://www.w3.org/1999/02/22-rdf-syntax-ns#">
   <cc:Work>
    <dc:type rdf:resource="http://purl.org/dc/dcmitype/StillImage"/>
    <dc:date>2022-01-09T15:48:59.857524</dc:date>
    <dc:format>image/svg+xml</dc:format>
    <dc:creator>
     <cc:Agent>
      <dc:title>Matplotlib v3.3.3, https://matplotlib.org/</dc:title>
     </cc:Agent>
    </dc:creator>
   </cc:Work>
  </rdf:RDF>
 </metadata>
 <defs>
  <style type="text/css">*{stroke-linecap:butt;stroke-linejoin:round;}</style>
 </defs>
 <g id="figure_1">
  <g id="patch_1">
   <path d="M 0 800
L 384 800
L 384 0
L 0 0
z
" style="fill:none;"/>
  </g>
  <g id="axes_1">
   <g id="patch_2">
    <path clip-path="url(#p5dcb3c7ea2)" d="M 48 672.545455
L 345.6 672.545455
L 345.6 654.832845
L 48 654.832845
z
" style="fill-opacity:0.05098;"/>
   </g>
   <g id="patch_3">
    <path clip-path="url(#p5dcb3c7ea2)" d="M 48 628.26393
L 345.6 628.26393
L 345.6 610.55132
L 48 610.55132
z
" style="fill-opacity:0.05098;"/>
   </g>
   <g id="patch_4">
    <path clip-path="url(#p5dcb3c7ea2)" d="M 48 583.982405
L 345.6 583.982405
L 345.6 566.269795
L 48 566.269795
z
" style="fill-opacity:0.05098;"/>
   </g>
   <g id="patch_5">
    <path clip-path="url(#p5dcb3c7ea2)" d="M 48 539.70088
L 345.6 539.70088
L 345.6 521.98827
L 48 521.98827
z
" style="fill-opacity:0.05098;"/>
   </g>
   <g id="patch_6">
    <path clip-path="url(#p5dcb3c7ea2)" d="M 48 495.419355
L 345.6 495.419355
L 345.6 477.706745
L 48 477.706745
z
" style="fill-opacity:0.05098;"/>
   </g>
   <g id="patch_7">
    <path clip-path="url(#p5dcb3c7ea2)" d="M 48 451.13783
L 345.6 451.13783
L 345.6 433.42522
L 48 433.42522
z
" style="fill-opacity:0.05098;"/>
   </g>
   <g id="patch_8">
    <path clip-path="url(#p5dcb3c7ea2)" d="M 48 406.856305
L 345.6 406.856305
L 345.6 389.143695
L 48 389.143695
z
" style="fill-opacity:0.05098;"/>
   </g>
   <g id="patch_9">
    <path clip-path="url(#p5dcb3c7ea2)" d="M 48 362.57478
L 345.6 362.57478
L 345.6 344.86217
L 48 344.86217
z
" style="fill-opacity:0.05098;"/>
   </g>
   <g id="patch_10">
    <path clip-path="url(#p5dcb3c7ea2)" d="M 48 318.293255
L 345.6 318.293255
L 345.6 300.580645
L 48 300.580645
z
" style="fill-opacity:0.05098;"/>
   </g>
   <g id="patch_11">
    <path clip-path="url(#p5dcb3c7ea2)" d="M 48 274.01173
L 345.6 274.01173
L 345.6 256.29912
L 48 256.29912
z
" style="fill-opacity:0.05098;"/>
   </g>
   <g id="patch_12">
    <path clip-path="url(#p5dcb3c7ea2)" d="M 48 229.730205
L 345.6 229.730205
L 345.6 212.017595
L 48 212.017595
z
" style="fill-opacity:0.05098;"/>
   </g>
   <g id="patch_13">
    <path clip-path="url(#p5dcb3c7ea2)" d="M 48 185.44868
L 345.6 185.44868
L 345.6 167.73607
L 48 167.73607
z
" style="fill-opacity:0.05098;"/>
   </g>
   <g id="patch_14">
    <path clip-path="url(#p5dcb3c7ea2)" d="M 48 141.167155
L 345.6 141.167155
L 345.6 123.454545
L 48 123.454545
z
" style="fill-opacity:0.05098;"/>
   </g>
   <g id="matplotlib.axis_1">
    <g id="text_1">
     <!-- Order 2006, 2007, 2008, 2009, 2010, 2011 -->
     <g transform="translate(88.760156 711.598438)scale(0.1 -0.1)">
      <defs>
       <path d="M 39.40625 66.21875
Q 28.65625 66.21875 22.328125 58.203125
Q 16.015625 50.203125 16.015625 36.375
Q 16.015625 22.609375 22.328125 14.59375
Q 28.65625 6.59375 39.40625 6.59375
Q 50.140625 6.59375 56.421875 14.59375
Q 62.703125 22.609375 62.703125 36.375
Q 62.703125 50.203125 56.421875 58.203125
Q 50.140625 66.21875 39.40625 66.21875
z
M 39.40625 74.21875
Q 54.734375 74.21875 63.90625 63.9375
Q 73.09375 53.65625 73.09375 36.375
Q 73.09375 19.140625 63.90625 8.859375
Q 54.734375 -1.421875 39.40625 -1.421875
Q 24.03125 -1.421875 14.8125 8.828125
Q 5.609375 19.09375 5.609375 36.375
Q 5.609375 53.65625 14.8125 63.9375
Q 24.03125 74.21875 39.40625 74.21875
z
" id="DejaVuSans-79"/>
       <path d="M 41.109375 46.296875
Q 39.59375 47.171875 37.8125 47.578125
Q 36.03125 48 33.890625 48
Q 26.265625 48 22.1875 43.046875
Q 18.109375 38.09375 18.109375 28.8125
L 18.109375 0
L 9.078125 0
L 9.078125 54.6875
L 18.109375 54.6875
L 18.109375 46.1875
Q 20.953125 51.171875 25.484375 53.578125
Q 30.03125 56 36.53125 56
Q 37.453125 56 38.578125 55.875
Q 39.703125 55.765625 41.0625 55.515625
z
" id="DejaVuSans-114"/>
       <path d="M 45.40625 46.390625
L 45.40625 75.984375
L 54.390625 75.984375
L 54.390625 0
L 45.40625 0
L 45.40625 8.203125
Q 42.578125 3.328125 38.25 0.953125
Q 33.9375 -1.421875 27.875 -1.421875
Q 17.96875 -1.421875 11.734375 6.484375
Q 5.515625 14.40625 5.515625 27.296875
Q 5.515625 40.1875 11.734375 48.09375
Q 17.96875 56 27.875 56
Q 33.9375 56 38.25 53.625
Q 42.578125 51.265625 45.40625 46.390625
z
M 14.796875 27.296875
Q 14.796875 17.390625 18.875 11.75
Q 22.953125 6.109375 30.078125 6.109375
Q 37.203125 6.109375 41.296875 11.75
Q 45.40625 17.390625 45.40625 27.296875
Q 45.40625 37.203125 41.296875 42.84375
Q 37.203125 48.484375 30.078125 48.484375
Q 22.953125 48.484375 18.875 42.84375
Q 14.796875 37.203125 14.796875 27.296875
z
" id="DejaVuSans-100"/>
       <path d="M 56.203125 29.59375
L 56.203125 25.203125
L 14.890625 25.203125
Q 15.484375 15.921875 20.484375 11.0625
Q 25.484375 6.203125 34.421875 6.203125
Q 39.59375 6.203125 44.453125 7.46875
Q 49.3125 8.734375 54.109375 11.28125
L 54.109375 2.78125
Q 49.265625 0.734375 44.1875 -0.34375
Q 39.109375 -1.421875 33.890625 -1.421875
Q 20.796875 -1.421875 13.15625 6.1875
Q 5.515625 13.8125 5.515625 26.8125
Q 5.515625 40.234375 12.765625 48.109375
Q 20.015625 56 32.328125 56
Q 43.359375 56 49.78125 48.890625
Q 56.203125 41.796875 56.203125 29.59375
z
M 47.21875 32.234375
Q 47.125 39.59375 43.09375 43.984375
Q 39.0625 48.390625 32.421875 48.390625
Q 24.90625 48.390625 20.390625 44.140625
Q 15.875 39.890625 15.1875 32.171875
z
" id="DejaVuSans-101"/>
       <path id="DejaVuSans-32"/>
       <path d="M 19.1875 8.296875
L 53.609375 8.296875
L 53.609375 0
L 7.328125 0
L 7.328125 8.296875
Q 12.9375 14.109375 22.625 23.890625
Q 32.328125 33.6875 34.8125 36.53125
Q 39.546875 41.84375 41.421875 45.53125
Q 43.3125 49.21875 43.3125 52.78125
Q 43.3125 58.59375 39.234375 62.25
Q 35.15625 65.921875 28.609375 65.921875
Q 23.96875 65.921875 18.8125 64.3125
Q 13.671875 62.703125 7.8125 59.421875
L 7.8125 69.390625
Q 13.765625 71.78125 18.9375 73
Q 24.125 74.21875 28.421875 74.21875
Q 39.75 74.21875 46.484375 68.546875
Q 53.21875 62.890625 53.21875 53.421875
Q 53.21875 48.921875 51.53125 44.890625
Q 49.859375 40.875 45.40625 35.40625
Q 44.1875 33.984375 37.640625 27.21875
Q 31.109375 20.453125 19.1875 8.296875
z
" id="DejaVuSans-50"/>
       <path d="M 31.78125 66.40625
Q 24.171875 66.40625 20.328125 58.90625
Q 16.5 51.421875 16.5 36.375
Q 16.5 21.390625 20.328125 13.890625
Q 24.171875 6.390625 31.78125 6.390625
Q 39.453125 6.390625 43.28125 13.890625
Q 47.125 21.390625 47.125 36.375
Q 47.125 51.421875 43.28125 58.90625
Q 39.453125 66.40625 31.78125 66.40625
z
M 31.78125 74.21875
Q 44.046875 74.21875 50.515625 64.515625
Q 56.984375 54.828125 56.984375 36.375
Q 56.984375 17.96875 50.515625 8.265625
Q 44.046875 -1.421875 31.78125 -1.421875
Q 19.53125 -1.421875 13.0625 8.265625
Q 6.59375 17.96875 6.59375 36.375
Q 6.59375 54.828125 13.0625 64.515625
Q 19.53125 74.21875 31.78125 74.21875
z
" id="DejaVuSans-48"/>
       <path d="M 33.015625 40.375
Q 26.375 40.375 22.484375 35.828125
Q 18.609375 31.296875 18.609375 23.390625
Q 18.609375 15.53125 22.484375 10.953125
Q 26.375 6.390625 33.015625 6.390625
Q 39.65625 6.390625 43.53125 10.953125
Q 47.40625 15.53125 47.40625 23.390625
Q 47.40625 31.296875 43.53125 35.828125
Q 39.65625 40.375 33.015625 40.375
z
M 52.59375 71.296875
L 52.59375 62.3125
Q 48.875 64.0625 45.09375 64.984375
Q 41.3125 65.921875 37.59375 65.921875
Q 27.828125 65.921875 22.671875 59.328125
Q 17.53125 52.734375 16.796875 39.40625
Q 19.671875 43.65625 24.015625 45.921875
Q 28.375 48.1875 33.59375 48.1875
Q 44.578125 48.1875 50.953125 41.515625
Q 57.328125 34.859375 57.328125 23.390625
Q 57.328125 12.15625 50.6875 5.359375
Q 44.046875 -1.421875 33.015625 -1.421875
Q 20.359375 -1.421875 13.671875 8.265625
Q 6.984375 17.96875 6.984375 36.375
Q 6.984375 53.65625 15.1875 63.9375
Q 23.390625 74.21875 37.203125 74.21875
Q 40.921875 74.21875 44.703125 73.484375
Q 48.484375 72.75 52.59375 71.296875
z
" id="DejaVuSans-54"/>
       <path d="M 11.71875 12.40625
L 22.015625 12.40625
L 22.015625 4
L 14.015625 -11.625
L 7.71875 -11.625
L 11.71875 4
z
" id="DejaVuSans-44"/>
       <path d="M 8.203125 72.90625
L 55.078125 72.90625
L 55.078125 68.703125
L 28.609375 0
L 18.3125 0
L 43.21875 64.59375
L 8.203125 64.59375
z
" id="DejaVuSans-55"/>
       <path d="M 31.78125 34.625
Q 24.75 34.625 20.71875 30.859375
Q 16.703125 27.09375 16.703125 20.515625
Q 16.703125 13.921875 20.71875 10.15625
Q 24.75 6.390625 31.78125 6.390625
Q 38.8125 6.390625 42.859375 10.171875
Q 46.921875 13.96875 46.921875 20.515625
Q 46.921875 27.09375 42.890625 30.859375
Q 38.875 34.625 31.78125 34.625
z
M 21.921875 38.8125
Q 15.578125 40.375 12.03125 44.71875
Q 8.5 49.078125 8.5 55.328125
Q 8.5 64.0625 14.71875 69.140625
Q 20.953125 74.21875 31.78125 74.21875
Q 42.671875 74.21875 48.875 69.140625
Q 55.078125 64.0625 55.078125 55.328125
Q 55.078125 49.078125 51.53125 44.71875
Q 48 40.375 41.703125 38.8125
Q 48.828125 37.15625 52.796875 32.3125
Q 56.78125 27.484375 56.78125 20.515625
Q 56.78125 9.90625 50.3125 4.234375
Q 43.84375 -1.421875 31.78125 -1.421875
Q 19.734375 -1.421875 13.25 4.234375
Q 6.78125 9.90625 6.78125 20.515625
Q 6.78125 27.484375 10.78125 32.3125
Q 14.796875 37.15625 21.921875 38.8125
z
M 18.3125 54.390625
Q 18.3125 48.734375 21.84375 45.5625
Q 25.390625 42.390625 31.78125 42.390625
Q 38.140625 42.390625 41.71875 45.5625
Q 45.3125 48.734375 45.3125 54.390625
Q 45.3125 60.0625 41.71875 63.234375
Q 38.140625 66.40625 31.78125 66.40625
Q 25.390625 66.40625 21.84375 63.234375
Q 18.3125 60.0625 18.3125 54.390625
z
" id="DejaVuSans-56"/>
       <path d="M 10.984375 1.515625
L 10.984375 10.5
Q 14.703125 8.734375 18.5 7.8125
Q 22.3125 6.890625 25.984375 6.890625
Q 35.75 6.890625 40.890625 13.453125
Q 46.046875 20.015625 46.78125 33.40625
Q 43.953125 29.203125 39.59375 26.953125
Q 35.25 24.703125 29.984375 24.703125
Q 19.046875 24.703125 12.671875 31.3125
Q 6.296875 37.9375 6.296875 49.421875
Q 6.296875 60.640625 12.9375 67.421875
Q 19.578125 74.21875 30.609375 74.21875
Q 43.265625 74.21875 49.921875 64.515625
Q 56.59375 54.828125 56.59375 36.375
Q 56.59375 19.140625 48.40625 8.859375
Q 40.234375 -1.421875 26.421875 -1.421875
Q 22.703125 -1.421875 18.890625 -0.6875
Q 15.09375 0.046875 10.984375 1.515625
z
M 30.609375 32.421875
Q 37.25 32.421875 41.125 36.953125
Q 45.015625 41.5 45.015625 49.421875
Q 45.015625 57.28125 41.125 61.84375
Q 37.25 66.40625 30.609375 66.40625
Q 23.96875 66.40625 20.09375 61.84375
Q 16.21875 57.28125 16.21875 49.421875
Q 16.21875 41.5 20.09375 36.953125
Q 23.96875 32.421875 30.609375 32.421875
z
" id="DejaVuSans-57"/>
       <path d="M 12.40625 8.296875
L 28.515625 8.296875
L 28.515625 63.921875
L 10.984375 60.40625
L 10.984375 69.390625
L 28.421875 72.90625
L 38.28125 72.90625
L 38.28125 8.296875
L 54.390625 8.296875
L 54.390625 0
L 12.40625 0
z
" id="DejaVuSans-49"/>
      </defs>
      <use xlink:href="#DejaVuSans-79"/>
      <use x="78.710938" xlink:href="#DejaVuSans-114"/>
      <use x="118.074219" xlink:href="#DejaVuSans-100"/>
      <use x="181.550781" xlink:href="#DejaVuSans-101"/>
      <use x="243.074219" xlink:href="#DejaVuSans-114"/>
      <use x="284.1875" xlink:href="#DejaVuSans-32"/>
      <use x="315.974609" xlink:href="#DejaVuSans-50"/>
      <use x="379.597656" xlink:href="#DejaVuSans-48"/>
      <use x="443.220703" xlink:href="#DejaVuSans-48"/>
      <use x="506.84375" xlink:href="#DejaVuSans-54"/>
      <use x="570.466797" xlink:href="#DejaVuSans-44"/>
      <use x="602.253906" xlink:href="#DejaVuSans-32"/>
      <use x="634.041016" xlink:href="#DejaVuSans-50"/>
      <use x="697.664062" xlink:href="#DejaVuSans-48"/>
      <use x="761.287109" xlink:href="#DejaVuSans-48"/>
      <use x="824.910156" xlink:href="#DejaVuSans-55"/>
      <use x="888.533203" xlink:href="#DejaVuSans-44"/>
      <use x="920.320312" xlink:href="#DejaVuSans-32"/>
      <use x="952.107422" xlink:href="#DejaVuSans-50"/>
      <use x="1015.730469" xlink:href="#DejaVuSans-48"/>
      <use x="1079.353516" xlink:href="#DejaVuSans-48"/>
      <use x="1142.976562" xlink:href="#DejaVuSans-56"/>
      <use x="1206.599609" xlink:href="#DejaVuSans-44"/>
      <use x="1238.386719" xlink:href="#DejaVuSans-32"/>
      <use x="1270.173828" xlink:href="#DejaVuSans-50"/>
      <use x="1333.796875" xlink:href="#DejaVuSans-48"/>
      <use x="1397.419922" xlink:href="#DejaVuSans-48"/>
      <use x="1461.042969" xlink:href="#DejaVuSans-57"/>
      <use x="1524.666016" xlink:href="#DejaVuSans-44"/>
      <use x="1556.453125" xlink:href="#DejaVuSans-32"/>
      <use x="1588.240234" xlink:href="#DejaVuSans-50"/>
      <use x="1651.863281" xlink:href="#DejaVuSans-48"/>
      <use x="1715.486328" xlink:href="#DejaVuSans-49"/>
      <use x="1779.109375" xlink:href="#DejaVuSans-48"/>
      <use x="1842.732422" xlink:href="#DejaVuSans-44"/>
      <use x="1874.519531" xlink:href="#DejaVuSans-32"/>
      <use x="1906.306641" xlink:href="#DejaVuSans-50"/>
      <use x="1969.929688" xlink:href="#DejaVuSans-48"/>
      <use x="2033.552734" xlink:href="#DejaVuSans-49"/>
      <use x="2097.175781" xlink:href="#DejaVuSans-49"/>
     </g>
    </g>
   </g>
   <g id="matplotlib.axis_2">
    <g id="ytick_1"/>
    <g id="ytick_2"/>
    <g id="ytick_3"/>
    <g id="ytick_4"/>
    <g id="ytick_5"/>
    <g id="ytick_6"/>
    <g id="ytick_7"/>
    <g id="ytick_8"/>
    <g id="ytick_9"/>
    <g id="ytick_10"/>
    <g id="ytick_11"/>
    <g id="ytick_12"/>
    <g id="ytick_13"/>
    <g id="ytick_14"/>
    <g id="ytick_15"/>
    <g id="ytick_16"/>
    <g id="ytick_17"/>
    <g id="ytick_18"/>
    <g id="ytick_19"/>
    <g id="ytick_20"/>
    <g id="ytick_21"/>
    <g id="ytick_22"/>
    <g id="ytick_23"/>
    <g id="ytick_24"/>
    <g id="ytick_25"/>
   </g>
  </g>
  <g id="axes_2">
   <g id="matplotlib.axis_3">
    <g id="ytick_26">
     <g id="line2d_1"/>
     <g id="text_2">
      <!-- government -->
      <g transform="translate(134.431712 667.488368)scale(0.1 -0.1)">
       <defs>
        <path d="M 45.40625 27.984375
Q 45.40625 37.75 41.375 43.109375
Q 37.359375 48.484375 30.078125 48.484375
Q 22.859375 48.484375 18.828125 43.109375
Q 14.796875 37.75 14.796875 27.984375
Q 14.796875 18.265625 18.828125 12.890625
Q 22.859375 7.515625 30.078125 7.515625
Q 37.359375 7.515625 41.375 12.890625
Q 45.40625 18.265625 45.40625 27.984375
z
M 54.390625 6.78125
Q 54.390625 -7.171875 48.1875 -13.984375
Q 42 -20.796875 29.203125 -20.796875
Q 24.46875 -20.796875 20.265625 -20.09375
Q 16.0625 -19.390625 12.109375 -17.921875
L 12.109375 -9.1875
Q 16.0625 -11.328125 19.921875 -12.34375
Q 23.78125 -13.375 27.78125 -13.375
Q 36.625 -13.375 41.015625 -8.765625
Q 45.40625 -4.15625 45.40625 5.171875
L 45.40625 9.625
Q 42.625 4.78125 38.28125 2.390625
Q 33.9375 0 27.875 0
Q 17.828125 0 11.671875 7.65625
Q 5.515625 15.328125 5.515625 27.984375
Q 5.515625 40.671875 11.671875 48.328125
Q 17.828125 56 27.875 56
Q 33.9375 56 38.28125 53.609375
Q 42.625 51.21875 45.40625 46.390625
L 45.40625 54.6875
L 54.390625 54.6875
z
" id="DejaVuSans-103"/>
        <path d="M 30.609375 48.390625
Q 23.390625 48.390625 19.1875 42.75
Q 14.984375 37.109375 14.984375 27.296875
Q 14.984375 17.484375 19.15625 11.84375
Q 23.34375 6.203125 30.609375 6.203125
Q 37.796875 6.203125 41.984375 11.859375
Q 46.1875 17.53125 46.1875 27.296875
Q 46.1875 37.015625 41.984375 42.703125
Q 37.796875 48.390625 30.609375 48.390625
z
M 30.609375 56
Q 42.328125 56 49.015625 48.375
Q 55.71875 40.765625 55.71875 27.296875
Q 55.71875 13.875 49.015625 6.21875
Q 42.328125 -1.421875 30.609375 -1.421875
Q 18.84375 -1.421875 12.171875 6.21875
Q 5.515625 13.875 5.515625 27.296875
Q 5.515625 40.765625 12.171875 48.375
Q 18.84375 56 30.609375 56
z
" id="DejaVuSans-111"/>
        <path d="M 2.984375 54.6875
L 12.5 54.6875
L 29.59375 8.796875
L 46.6875 54.6875
L 56.203125 54.6875
L 35.6875 0
L 23.484375 0
z
" id="DejaVuSans-118"/>
        <path d="M 54.890625 33.015625
L 54.890625 0
L 45.90625 0
L 45.90625 32.71875
Q 45.90625 40.484375 42.875 44.328125
Q 39.84375 48.1875 33.796875 48.1875
Q 26.515625 48.1875 22.3125 43.546875
Q 18.109375 38.921875 18.109375 30.90625
L 18.109375 0
L 9.078125 0
L 9.078125 54.6875
L 18.109375 54.6875
L 18.109375 46.1875
Q 21.34375 51.125 25.703125 53.5625
Q 30.078125 56 35.796875 56
Q 45.21875 56 50.046875 50.171875
Q 54.890625 44.34375 54.890625 33.015625
z
" id="DejaVuSans-110"/>
        <path d="M 52 44.1875
Q 55.375 50.25 60.0625 53.125
Q 64.75 56 71.09375 56
Q 79.640625 56 84.28125 50.015625
Q 88.921875 44.046875 88.921875 33.015625
L 88.921875 0
L 79.890625 0
L 79.890625 32.71875
Q 79.890625 40.578125 77.09375 44.375
Q 74.3125 48.1875 68.609375 48.1875
Q 61.625 48.1875 57.5625 43.546875
Q 53.515625 38.921875 53.515625 30.90625
L 53.515625 0
L 44.484375 0
L 44.484375 32.71875
Q 44.484375 40.625 41.703125 44.40625
Q 38.921875 48.1875 33.109375 48.1875
Q 26.21875 48.1875 22.15625 43.53125
Q 18.109375 38.875 18.109375 30.90625
L 18.109375 0
L 9.078125 0
L 9.078125 54.6875
L 18.109375 54.6875
L 18.109375 46.1875
Q 21.1875 51.21875 25.484375 53.609375
Q 29.78125 56 35.6875 56
Q 41.65625 56 45.828125 52.96875
Q 50 49.953125 52 44.1875
z
" id="DejaVuSans-109"/>
        <path d="M 18.3125 70.21875
L 18.3125 54.6875
L 36.8125 54.6875
L 36.8125 47.703125
L 18.3125 47.703125
L 18.3125 18.015625
Q 18.3125 11.328125 20.140625 9.421875
Q 21.96875 7.515625 27.59375 7.515625
L 36.8125 7.515625
L 36.8125 0
L 27.59375 0
Q 17.1875 0 13.234375 3.875
Q 9.28125 7.765625 9.28125 18.015625
L 9.28125 47.703125
L 2.6875 47.703125
L 2.6875 54.6875
L 9.28125 54.6875
L 9.28125 70.21875
z
" id="DejaVuSans-116"/>
       </defs>
       <use xlink:href="#DejaVuSans-103"/>
       <use x="63.476562" xlink:href="#DejaVuSans-111"/>
       <use x="124.658203" xlink:href="#DejaVuSans-118"/>
       <use x="183.837891" xlink:href="#DejaVuSans-101"/>
       <use x="245.361328" xlink:href="#DejaVuSans-114"/>
       <use x="284.724609" xlink:href="#DejaVuSans-110"/>
       <use x="348.103516" xlink:href="#DejaVuSans-109"/>
       <use x="445.515625" xlink:href="#DejaVuSans-101"/>
       <use x="507.039062" xlink:href="#DejaVuSans-110"/>
       <use x="570.417969" xlink:href="#DejaVuSans-116"/>
      </g>
     </g>
    </g>
    <g id="ytick_27">
     <g id="line2d_2"/>
     <g id="text_3">
      <!-- 2009 -->
      <g transform="translate(169.945775 645.347606)scale(0.1 -0.1)">
       <use xlink:href="#DejaVuSans-50"/>
       <use x="63.623047" xlink:href="#DejaVuSans-48"/>
       <use x="127.246094" xlink:href="#DejaVuSans-48"/>
       <use x="190.869141" xlink:href="#DejaVuSans-57"/>
      </g>
     </g>
    </g>
    <g id="ytick_28">
     <g id="line2d_3"/>
     <g id="text_4">
      <!-- 2020 -->
      <g transform="translate(169.945775 623.206843)scale(0.1 -0.1)">
       <use xlink:href="#DejaVuSans-50"/>
       <use x="63.623047" xlink:href="#DejaVuSans-48"/>
       <use x="127.246094" xlink:href="#DejaVuSans-50"/>
       <use x="190.869141" xlink:href="#DejaVuSans-48"/>
      </g>
     </g>
    </g>
    <g id="ytick_29">
     <g id="line2d_4"/>
     <g id="text_5">
      <!-- sponsored -->
      <g transform="translate(143.666087 601.066081)scale(0.1 -0.1)">
       <defs>
        <path d="M 44.28125 53.078125
L 44.28125 44.578125
Q 40.484375 46.53125 36.375 47.5
Q 32.28125 48.484375 27.875 48.484375
Q 21.1875 48.484375 17.84375 46.4375
Q 14.5 44.390625 14.5 40.28125
Q 14.5 37.15625 16.890625 35.375
Q 19.28125 33.59375 26.515625 31.984375
L 29.59375 31.296875
Q 39.15625 29.25 43.1875 25.515625
Q 47.21875 21.78125 47.21875 15.09375
Q 47.21875 7.46875 41.1875 3.015625
Q 35.15625 -1.421875 24.609375 -1.421875
Q 20.21875 -1.421875 15.453125 -0.5625
Q 10.6875 0.296875 5.421875 2
L 5.421875 11.28125
Q 10.40625 8.6875 15.234375 7.390625
Q 20.0625 6.109375 24.8125 6.109375
Q 31.15625 6.109375 34.5625 8.28125
Q 37.984375 10.453125 37.984375 14.40625
Q 37.984375 18.0625 35.515625 20.015625
Q 33.0625 21.96875 24.703125 23.78125
L 21.578125 24.515625
Q 13.234375 26.265625 9.515625 29.90625
Q 5.8125 33.546875 5.8125 39.890625
Q 5.8125 47.609375 11.28125 51.796875
Q 16.75 56 26.8125 56
Q 31.78125 56 36.171875 55.265625
Q 40.578125 54.546875 44.28125 53.078125
z
" id="DejaVuSans-115"/>
        <path d="M 18.109375 8.203125
L 18.109375 -20.796875
L 9.078125 -20.796875
L 9.078125 54.6875
L 18.109375 54.6875
L 18.109375 46.390625
Q 20.953125 51.265625 25.265625 53.625
Q 29.59375 56 35.59375 56
Q 45.5625 56 51.78125 48.09375
Q 58.015625 40.1875 58.015625 27.296875
Q 58.015625 14.40625 51.78125 6.484375
Q 45.5625 -1.421875 35.59375 -1.421875
Q 29.59375 -1.421875 25.265625 0.953125
Q 20.953125 3.328125 18.109375 8.203125
z
M 48.6875 27.296875
Q 48.6875 37.203125 44.609375 42.84375
Q 40.53125 48.484375 33.40625 48.484375
Q 26.265625 48.484375 22.1875 42.84375
Q 18.109375 37.203125 18.109375 27.296875
Q 18.109375 17.390625 22.1875 11.75
Q 26.265625 6.109375 33.40625 6.109375
Q 40.53125 6.109375 44.609375 11.75
Q 48.6875 17.390625 48.6875 27.296875
z
" id="DejaVuSans-112"/>
       </defs>
       <use xlink:href="#DejaVuSans-115"/>
       <use x="52.099609" xlink:href="#DejaVuSans-112"/>
       <use x="115.576172" xlink:href="#DejaVuSans-111"/>
       <use x="176.757812" xlink:href="#DejaVuSans-110"/>
       <use x="240.136719" xlink:href="#DejaVuSans-115"/>
       <use x="292.236328" xlink:href="#DejaVuSans-111"/>
       <use x="353.417969" xlink:href="#DejaVuSans-114"/>
       <use x="392.28125" xlink:href="#DejaVuSans-101"/>
       <use x="453.804688" xlink:href="#DejaVuSans-100"/>
      </g>
     </g>
    </g>
    <g id="ytick_30">
     <g id="line2d_5"/>
     <g id="text_6">
      <!-- 2007 -->
      <g transform="translate(169.945775 578.925318)scale(0.1 -0.1)">
       <use xlink:href="#DejaVuSans-50"/>
       <use x="63.623047" xlink:href="#DejaVuSans-48"/>
       <use x="127.246094" xlink:href="#DejaVuSans-48"/>
       <use x="190.869141" xlink:href="#DejaVuSans-55"/>
      </g>
     </g>
    </g>
    <g id="ytick_31">
     <g id="line2d_6"/>
     <g id="text_7">
      <!-- legislation -->
      <g transform="translate(144.06765 556.784556)scale(0.1 -0.1)">
       <defs>
        <path d="M 9.421875 75.984375
L 18.40625 75.984375
L 18.40625 0
L 9.421875 0
z
" id="DejaVuSans-108"/>
        <path d="M 9.421875 54.6875
L 18.40625 54.6875
L 18.40625 0
L 9.421875 0
z
M 9.421875 75.984375
L 18.40625 75.984375
L 18.40625 64.59375
L 9.421875 64.59375
z
" id="DejaVuSans-105"/>
        <path d="M 34.28125 27.484375
Q 23.390625 27.484375 19.1875 25
Q 14.984375 22.515625 14.984375 16.5
Q 14.984375 11.71875 18.140625 8.90625
Q 21.296875 6.109375 26.703125 6.109375
Q 34.1875 6.109375 38.703125 11.40625
Q 43.21875 16.703125 43.21875 25.484375
L 43.21875 27.484375
z
M 52.203125 31.203125
L 52.203125 0
L 43.21875 0
L 43.21875 8.296875
Q 40.140625 3.328125 35.546875 0.953125
Q 30.953125 -1.421875 24.3125 -1.421875
Q 15.921875 -1.421875 10.953125 3.296875
Q 6 8.015625 6 15.921875
Q 6 25.140625 12.171875 29.828125
Q 18.359375 34.515625 30.609375 34.515625
L 43.21875 34.515625
L 43.21875 35.40625
Q 43.21875 41.609375 39.140625 45
Q 35.0625 48.390625 27.6875 48.390625
Q 23 48.390625 18.546875 47.265625
Q 14.109375 46.140625 10.015625 43.890625
L 10.015625 52.203125
Q 14.9375 54.109375 19.578125 55.046875
Q 24.21875 56 28.609375 56
Q 40.484375 56 46.34375 49.84375
Q 52.203125 43.703125 52.203125 31.203125
z
" id="DejaVuSans-97"/>
       </defs>
       <use xlink:href="#DejaVuSans-108"/>
       <use x="27.783203" xlink:href="#DejaVuSans-101"/>
       <use x="89.306641" xlink:href="#DejaVuSans-103"/>
       <use x="152.783203" xlink:href="#DejaVuSans-105"/>
       <use x="180.566406" xlink:href="#DejaVuSans-115"/>
       <use x="232.666016" xlink:href="#DejaVuSans-108"/>
       <use x="260.449219" xlink:href="#DejaVuSans-97"/>
       <use x="321.728516" xlink:href="#DejaVuSans-116"/>
       <use x="360.9375" xlink:href="#DejaVuSans-105"/>
       <use x="388.720703" xlink:href="#DejaVuSans-111"/>
       <use x="449.902344" xlink:href="#DejaVuSans-110"/>
      </g>
     </g>
    </g>
    <g id="ytick_32">
     <g id="line2d_7"/>
     <g id="text_8">
      <!-- us$ -->
      <g transform="translate(177.4864 534.643794)scale(0.1 -0.1)">
       <defs>
        <path d="M 8.5 21.578125
L 8.5 54.6875
L 17.484375 54.6875
L 17.484375 21.921875
Q 17.484375 14.15625 20.5 10.265625
Q 23.53125 6.390625 29.59375 6.390625
Q 36.859375 6.390625 41.078125 11.03125
Q 45.3125 15.671875 45.3125 23.6875
L 45.3125 54.6875
L 54.296875 54.6875
L 54.296875 0
L 45.3125 0
L 45.3125 8.40625
Q 42.046875 3.421875 37.71875 1
Q 33.40625 -1.421875 27.6875 -1.421875
Q 18.265625 -1.421875 13.375 4.4375
Q 8.5 10.296875 8.5 21.578125
z
M 31.109375 56
z
" id="DejaVuSans-117"/>
        <path d="M 33.796875 -14.703125
L 28.90625 -14.703125
L 28.859375 0
Q 23.734375 0.09375 18.609375 1.1875
Q 13.484375 2.296875 8.296875 4.5
L 8.296875 13.28125
Q 13.28125 10.15625 18.375 8.5625
Q 23.484375 6.984375 28.90625 6.9375
L 28.90625 29.203125
Q 18.109375 30.953125 13.203125 35.15625
Q 8.296875 39.359375 8.296875 46.6875
Q 8.296875 54.640625 13.625 59.21875
Q 18.953125 63.8125 28.90625 64.5
L 28.90625 75.984375
L 33.796875 75.984375
L 33.796875 64.65625
Q 38.328125 64.453125 42.578125 63.6875
Q 46.828125 62.9375 50.875 61.625
L 50.875 53.078125
Q 46.828125 55.125 42.546875 56.25
Q 38.28125 57.375 33.796875 57.5625
L 33.796875 36.71875
Q 44.875 35.015625 50.09375 30.609375
Q 55.328125 26.21875 55.328125 18.609375
Q 55.328125 10.359375 49.78125 5.59375
Q 44.234375 0.828125 33.796875 0.09375
z
M 28.90625 37.59375
L 28.90625 57.625
Q 23.25 56.984375 20.265625 54.390625
Q 17.28125 51.8125 17.28125 47.515625
Q 17.28125 43.3125 20.03125 40.96875
Q 22.796875 38.625 28.90625 37.59375
z
M 33.796875 28.21875
L 33.796875 7.078125
Q 39.984375 7.90625 43.140625 10.59375
Q 46.296875 13.28125 46.296875 17.671875
Q 46.296875 21.96875 43.28125 24.5
Q 40.28125 27.046875 33.796875 28.21875
z
" id="DejaVuSans-36"/>
       </defs>
       <use xlink:href="#DejaVuSans-117"/>
       <use x="63.378906" xlink:href="#DejaVuSans-115"/>
       <use x="115.478516" xlink:href="#DejaVuSans-36"/>
      </g>
     </g>
    </g>
    <g id="ytick_33">
     <g id="line2d_8"/>
     <g id="text_9">
      <!-- u.s -->
      <g transform="translate(180.670775 512.503031)scale(0.1 -0.1)">
       <defs>
        <path d="M 10.6875 12.40625
L 21 12.40625
L 21 0
L 10.6875 0
z
" id="DejaVuSans-46"/>
       </defs>
       <use xlink:href="#DejaVuSans-117"/>
       <use x="63.378906" xlink:href="#DejaVuSans-46"/>
       <use x="95.166016" xlink:href="#DejaVuSans-115"/>
      </g>
     </g>
    </g>
    <g id="ytick_34">
     <g id="line2d_9"/>
     <g id="text_10">
      <!-- september -->
      <g transform="translate(141.258275 490.362269)scale(0.1 -0.1)">
       <defs>
        <path d="M 48.6875 27.296875
Q 48.6875 37.203125 44.609375 42.84375
Q 40.53125 48.484375 33.40625 48.484375
Q 26.265625 48.484375 22.1875 42.84375
Q 18.109375 37.203125 18.109375 27.296875
Q 18.109375 17.390625 22.1875 11.75
Q 26.265625 6.109375 33.40625 6.109375
Q 40.53125 6.109375 44.609375 11.75
Q 48.6875 17.390625 48.6875 27.296875
z
M 18.109375 46.390625
Q 20.953125 51.265625 25.265625 53.625
Q 29.59375 56 35.59375 56
Q 45.5625 56 51.78125 48.09375
Q 58.015625 40.1875 58.015625 27.296875
Q 58.015625 14.40625 51.78125 6.484375
Q 45.5625 -1.421875 35.59375 -1.421875
Q 29.59375 -1.421875 25.265625 0.953125
Q 20.953125 3.328125 18.109375 8.203125
L 18.109375 0
L 9.078125 0
L 9.078125 75.984375
L 18.109375 75.984375
z
" id="DejaVuSans-98"/>
       </defs>
       <use xlink:href="#DejaVuSans-115"/>
       <use x="52.099609" xlink:href="#DejaVuSans-101"/>
       <use x="113.623047" xlink:href="#DejaVuSans-112"/>
       <use x="177.099609" xlink:href="#DejaVuSans-116"/>
       <use x="216.308594" xlink:href="#DejaVuSans-101"/>
       <use x="277.832031" xlink:href="#DejaVuSans-109"/>
       <use x="375.244141" xlink:href="#DejaVuSans-98"/>
       <use x="438.720703" xlink:href="#DejaVuSans-101"/>
       <use x="500.244141" xlink:href="#DejaVuSans-114"/>
      </g>
     </g>
    </g>
    <g id="ytick_35">
     <g id="line2d_10"/>
     <g id="text_11">
      <!-- projected -->
      <g transform="translate(148.191087 468.221506)scale(0.1 -0.1)">
       <defs>
        <path d="M 9.421875 54.6875
L 18.40625 54.6875
L 18.40625 -0.984375
Q 18.40625 -11.421875 14.421875 -16.109375
Q 10.453125 -20.796875 1.609375 -20.796875
L -1.8125 -20.796875
L -1.8125 -13.1875
L 0.59375 -13.1875
Q 5.71875 -13.1875 7.5625 -10.8125
Q 9.421875 -8.453125 9.421875 -0.984375
z
M 9.421875 75.984375
L 18.40625 75.984375
L 18.40625 64.59375
L 9.421875 64.59375
z
" id="DejaVuSans-106"/>
        <path d="M 48.78125 52.59375
L 48.78125 44.1875
Q 44.96875 46.296875 41.140625 47.34375
Q 37.3125 48.390625 33.40625 48.390625
Q 24.65625 48.390625 19.8125 42.84375
Q 14.984375 37.3125 14.984375 27.296875
Q 14.984375 17.28125 19.8125 11.734375
Q 24.65625 6.203125 33.40625 6.203125
Q 37.3125 6.203125 41.140625 7.25
Q 44.96875 8.296875 48.78125 10.40625
L 48.78125 2.09375
Q 45.015625 0.34375 40.984375 -0.53125
Q 36.96875 -1.421875 32.421875 -1.421875
Q 20.0625 -1.421875 12.78125 6.34375
Q 5.515625 14.109375 5.515625 27.296875
Q 5.515625 40.671875 12.859375 48.328125
Q 20.21875 56 33.015625 56
Q 37.15625 56 41.109375 55.140625
Q 45.0625 54.296875 48.78125 52.59375
z
" id="DejaVuSans-99"/>
       </defs>
       <use xlink:href="#DejaVuSans-112"/>
       <use x="63.476562" xlink:href="#DejaVuSans-114"/>
       <use x="102.339844" xlink:href="#DejaVuSans-111"/>
       <use x="163.521484" xlink:href="#DejaVuSans-106"/>
       <use x="191.304688" xlink:href="#DejaVuSans-101"/>
       <use x="252.828125" xlink:href="#DejaVuSans-99"/>
       <use x="307.808594" xlink:href="#DejaVuSans-116"/>
       <use x="347.017578" xlink:href="#DejaVuSans-101"/>
       <use x="408.541016" xlink:href="#DejaVuSans-100"/>
      </g>
     </g>
    </g>
    <g id="ytick_36">
     <g id="line2d_11"/>
     <g id="text_12">
      <!-- millennium -->
      <g transform="translate(139.6364 446.080744)scale(0.1 -0.1)">
       <use xlink:href="#DejaVuSans-109"/>
       <use x="97.412109" xlink:href="#DejaVuSans-105"/>
       <use x="125.195312" xlink:href="#DejaVuSans-108"/>
       <use x="152.978516" xlink:href="#DejaVuSans-108"/>
       <use x="180.761719" xlink:href="#DejaVuSans-101"/>
       <use x="242.285156" xlink:href="#DejaVuSans-110"/>
       <use x="305.664062" xlink:href="#DejaVuSans-110"/>
       <use x="369.042969" xlink:href="#DejaVuSans-105"/>
       <use x="396.826172" xlink:href="#DejaVuSans-117"/>
       <use x="460.205078" xlink:href="#DejaVuSans-109"/>
      </g>
     </g>
    </g>
    <g id="ytick_37">
     <g id="line2d_12"/>
     <g id="text_13">
      <!-- med -->
      <g transform="translate(173.153587 423.939981)scale(0.1 -0.1)">
       <use xlink:href="#DejaVuSans-109"/>
       <use x="97.412109" xlink:href="#DejaVuSans-101"/>
       <use x="158.935547" xlink:href="#DejaVuSans-100"/>
      </g>
     </g>
    </g>
    <g id="ytick_38">
     <g id="line2d_13"/>
     <g id="text_14">
      <!-- london -->
      <g transform="translate(161.356712 401.799219)scale(0.1 -0.1)">
       <use xlink:href="#DejaVuSans-108"/>
       <use x="27.783203" xlink:href="#DejaVuSans-111"/>
       <use x="88.964844" xlink:href="#DejaVuSans-110"/>
       <use x="152.34375" xlink:href="#DejaVuSans-100"/>
       <use x="215.820312" xlink:href="#DejaVuSans-111"/>
       <use x="277.001953" xlink:href="#DejaVuSans-110"/>
      </g>
     </g>
    </g>
    <g id="ytick_39">
     <g id="line2d_14"/>
     <g id="text_15">
      <!-- liss -->
      <g transform="translate(179.420775 379.658456)scale(0.1 -0.1)">
       <use xlink:href="#DejaVuSans-108"/>
       <use x="27.783203" xlink:href="#DejaVuSans-105"/>
       <use x="55.566406" xlink:href="#DejaVuSans-115"/>
       <use x="107.666016" xlink:href="#DejaVuSans-115"/>
      </g>
     </g>
    </g>
    <g id="ytick_40">
     <g id="line2d_15"/>
     <g id="text_16">
      <!-- international -->
      <g transform="translate(131.744212 357.517694)scale(0.1 -0.1)">
       <use xlink:href="#DejaVuSans-105"/>
       <use x="27.783203" xlink:href="#DejaVuSans-110"/>
       <use x="91.162109" xlink:href="#DejaVuSans-116"/>
       <use x="130.371094" xlink:href="#DejaVuSans-101"/>
       <use x="191.894531" xlink:href="#DejaVuSans-114"/>
       <use x="231.257812" xlink:href="#DejaVuSans-110"/>
       <use x="294.636719" xlink:href="#DejaVuSans-97"/>
       <use x="355.916016" xlink:href="#DejaVuSans-116"/>
       <use x="395.125" xlink:href="#DejaVuSans-105"/>
       <use x="422.908203" xlink:href="#DejaVuSans-111"/>
       <use x="484.089844" xlink:href="#DejaVuSans-110"/>
       <use x="547.46875" xlink:href="#DejaVuSans-97"/>
       <use x="608.748047" xlink:href="#DejaVuSans-108"/>
      </g>
     </g>
    </g>
    <g id="ytick_41">
     <g id="line2d_16"/>
     <g id="text_17">
      <!-- issued -->
      <g transform="translate(163.359837 335.376931)scale(0.1 -0.1)">
       <use xlink:href="#DejaVuSans-105"/>
       <use x="27.783203" xlink:href="#DejaVuSans-115"/>
       <use x="79.882812" xlink:href="#DejaVuSans-115"/>
       <use x="131.982422" xlink:href="#DejaVuSans-117"/>
       <use x="195.361328" xlink:href="#DejaVuSans-101"/>
       <use x="256.884766" xlink:href="#DejaVuSans-100"/>
      </g>
     </g>
    </g>
    <g id="ytick_42">
     <g id="line2d_17"/>
     <g id="text_18">
      <!-- 2008 -->
      <g transform="translate(169.945775 313.236169)scale(0.1 -0.1)">
       <use xlink:href="#DejaVuSans-50"/>
       <use x="63.623047" xlink:href="#DejaVuSans-48"/>
       <use x="127.246094" xlink:href="#DejaVuSans-48"/>
       <use x="190.869141" xlink:href="#DejaVuSans-56"/>
      </g>
     </g>
    </g>
    <g id="ytick_43">
     <g id="line2d_18"/>
     <g id="text_19">
      <!-- funded -->
      <g transform="translate(160.350462 291.095406)scale(0.1 -0.1)">
       <defs>
        <path d="M 37.109375 75.984375
L 37.109375 68.5
L 28.515625 68.5
Q 23.6875 68.5 21.796875 66.546875
Q 19.921875 64.59375 19.921875 59.515625
L 19.921875 54.6875
L 34.71875 54.6875
L 34.71875 47.703125
L 19.921875 47.703125
L 19.921875 0
L 10.890625 0
L 10.890625 47.703125
L 2.296875 47.703125
L 2.296875 54.6875
L 10.890625 54.6875
L 10.890625 58.5
Q 10.890625 67.625 15.140625 71.796875
Q 19.390625 75.984375 28.609375 75.984375
z
" id="DejaVuSans-102"/>
       </defs>
       <use xlink:href="#DejaVuSans-102"/>
       <use x="35.205078" xlink:href="#DejaVuSans-117"/>
       <use x="98.583984" xlink:href="#DejaVuSans-110"/>
       <use x="161.962891" xlink:href="#DejaVuSans-100"/>
       <use x="225.439453" xlink:href="#DejaVuSans-101"/>
       <use x="286.962891" xlink:href="#DejaVuSans-100"/>
      </g>
     </g>
    </g>
    <g id="ytick_44">
     <g id="line2d_19"/>
     <g id="text_20">
      <!-- fund -->
      <g transform="translate(172.852025 268.954644)scale(0.1 -0.1)">
       <use xlink:href="#DejaVuSans-102"/>
       <use x="35.205078" xlink:href="#DejaVuSans-117"/>
       <use x="98.583984" xlink:href="#DejaVuSans-110"/>
       <use x="161.962891" xlink:href="#DejaVuSans-100"/>
      </g>
     </g>
    </g>
    <g id="ytick_45">
     <g id="line2d_20"/>
     <g id="text_21">
      <!-- federal -->
      <g transform="translate(160.203587 246.813882)scale(0.1 -0.1)">
       <use xlink:href="#DejaVuSans-102"/>
       <use x="35.205078" xlink:href="#DejaVuSans-101"/>
       <use x="96.728516" xlink:href="#DejaVuSans-100"/>
       <use x="160.205078" xlink:href="#DejaVuSans-101"/>
       <use x="221.728516" xlink:href="#DejaVuSans-114"/>
       <use x="262.841797" xlink:href="#DejaVuSans-97"/>
       <use x="324.121094" xlink:href="#DejaVuSans-108"/>
      </g>
     </g>
    </g>
    <g id="ytick_46">
     <g id="line2d_21"/>
     <g id="text_22">
      <!-- cdc -->
      <g transform="translate(178.050462 224.673119)scale(0.1 -0.1)">
       <use xlink:href="#DejaVuSans-99"/>
       <use x="54.980469" xlink:href="#DejaVuSans-100"/>
       <use x="118.457031" xlink:href="#DejaVuSans-99"/>
      </g>
     </g>
    </g>
    <g id="ytick_47">
     <g id="line2d_22"/>
     <g id="text_23">
      <!-- august -->
      <g transform="translate(161.114525 202.532357)scale(0.1 -0.1)">
       <use xlink:href="#DejaVuSans-97"/>
       <use x="61.279297" xlink:href="#DejaVuSans-117"/>
       <use x="124.658203" xlink:href="#DejaVuSans-103"/>
       <use x="188.134766" xlink:href="#DejaVuSans-117"/>
       <use x="251.513672" xlink:href="#DejaVuSans-115"/>
       <use x="303.613281" xlink:href="#DejaVuSans-116"/>
      </g>
     </g>
    </g>
    <g id="ytick_48">
     <g id="line2d_23"/>
     <g id="text_24">
      <!-- annually -->
      <g transform="translate(152.652025 180.391594)scale(0.1 -0.1)">
       <defs>
        <path d="M 32.171875 -5.078125
Q 28.375 -14.84375 24.75 -17.8125
Q 21.140625 -20.796875 15.09375 -20.796875
L 7.90625 -20.796875
L 7.90625 -13.28125
L 13.1875 -13.28125
Q 16.890625 -13.28125 18.9375 -11.515625
Q 21 -9.765625 23.484375 -3.21875
L 25.09375 0.875
L 2.984375 54.6875
L 12.5 54.6875
L 29.59375 11.921875
L 46.6875 54.6875
L 56.203125 54.6875
z
" id="DejaVuSans-121"/>
       </defs>
       <use xlink:href="#DejaVuSans-97"/>
       <use x="61.279297" xlink:href="#DejaVuSans-110"/>
       <use x="124.658203" xlink:href="#DejaVuSans-110"/>
       <use x="188.037109" xlink:href="#DejaVuSans-117"/>
       <use x="251.416016" xlink:href="#DejaVuSans-97"/>
       <use x="312.695312" xlink:href="#DejaVuSans-108"/>
       <use x="340.478516" xlink:href="#DejaVuSans-108"/>
       <use x="368.261719" xlink:href="#DejaVuSans-121"/>
      </g>
     </g>
    </g>
    <g id="ytick_49">
     <g id="line2d_24"/>
     <g id="text_25">
      <!-- 2011 -->
      <g transform="translate(169.945775 158.250832)scale(0.1 -0.1)">
       <use xlink:href="#DejaVuSans-50"/>
       <use x="63.623047" xlink:href="#DejaVuSans-48"/>
       <use x="127.246094" xlink:href="#DejaVuSans-49"/>
       <use x="190.869141" xlink:href="#DejaVuSans-49"/>
      </g>
     </g>
    </g>
    <g id="ytick_50">
     <g id="line2d_25"/>
     <g id="text_26">
      <!-- wiley -->
      <g transform="translate(169.589525 136.110069)scale(0.1 -0.1)">
       <defs>
        <path d="M 4.203125 54.6875
L 13.1875 54.6875
L 24.421875 12.015625
L 35.59375 54.6875
L 46.1875 54.6875
L 57.421875 12.015625
L 68.609375 54.6875
L 77.59375 54.6875
L 63.28125 0
L 52.6875 0
L 40.921875 44.828125
L 29.109375 0
L 18.5 0
z
" id="DejaVuSans-119"/>
       </defs>
       <use xlink:href="#DejaVuSans-119"/>
       <use x="81.787109" xlink:href="#DejaVuSans-105"/>
       <use x="109.570312" xlink:href="#DejaVuSans-108"/>
       <use x="137.353516" xlink:href="#DejaVuSans-101"/>
       <use x="198.876953" xlink:href="#DejaVuSans-121"/>
      </g>
     </g>
    </g>
   </g>
   <g id="PathCollection_1">
    <defs>
     <path d="M 0 5.6
C 1.485137 5.6 2.909647 5.009949 3.959798 3.959798
C 5.009949 2.909647 5.6 1.485137 5.6 -0
C 5.6 -1.485137 5.009949 -2.909647 3.959798 -3.959798
C 2.909647 -5.009949 1.485137 -5.6 0 -5.6
C -1.485137 -5.6 -2.909647 -5.009949 -3.959798 -3.959798
C -5.009949 -2.909647 -5.6 -1.485137 -5.6 0
C -5.6 1.485137 -5.009949 2.909647 -3.959798 3.959798
C -2.909647 5.009949 -1.485137 5.6 0 5.6
z
" id="C0_0_def1c0c54b"/>
    </defs>
    <g clip-path="url(#p30264dceb3)">
     <use style="stroke:#000000;" x="211.121127" xlink:href="#C0_0_def1c0c54b" y="663.68915"/>
    </g>
    <g clip-path="url(#p30264dceb3)">
     <use style="fill-opacity:0.180392;" x="211.121127" xlink:href="#C0_0_def1c0c54b" y="641.548387"/>
    </g>
    <g clip-path="url(#p30264dceb3)">
     <use style="fill-opacity:0.180392;" x="211.121127" xlink:href="#C0_0_def1c0c54b" y="619.407625"/>
    </g>
    <g clip-path="url(#p30264dceb3)">
     <use style="fill-opacity:0.180392;" x="211.121127" xlink:href="#C0_0_def1c0c54b" y="597.266862"/>
    </g>
    <g clip-path="url(#p30264dceb3)">
     <use style="fill-opacity:0.180392;" x="211.121127" xlink:href="#C0_0_def1c0c54b" y="575.1261"/>
    </g>
    <g clip-path="url(#p30264dceb3)">
     <use style="fill-opacity:0.180392;" x="211.121127" xlink:href="#C0_0_def1c0c54b" y="552.985337"/>
    </g>
    <g clip-path="url(#p30264dceb3)">
     <use style="stroke:#000000;" x="211.121127" xlink:href="#C0_0_def1c0c54b" y="530.844575"/>
    </g>
    <g clip-path="url(#p30264dceb3)">
     <use style="fill-opacity:0.180392;" x="211.121127" xlink:href="#C0_0_def1c0c54b" y="508.703812"/>
    </g>
    <g clip-path="url(#p30264dceb3)">
     <use style="fill-opacity:0.180392;" x="211.121127" xlink:href="#C0_0_def1c0c54b" y="486.56305"/>
    </g>
    <g clip-path="url(#p30264dceb3)">
     <use style="stroke:#000000;" x="211.121127" xlink:href="#C0_0_def1c0c54b" y="464.422287"/>
    </g>
    <g clip-path="url(#p30264dceb3)">
     <use style="fill-opacity:0.180392;" x="211.121127" xlink:href="#C0_0_def1c0c54b" y="442.281525"/>
    </g>
    <g clip-path="url(#p30264dceb3)">
     <use style="fill-opacity:0.180392;" x="211.121127" xlink:href="#C0_0_def1c0c54b" y="420.140762"/>
    </g>
    <g clip-path="url(#p30264dceb3)">
     <use style="fill-opacity:0.180392;" x="211.121127" xlink:href="#C0_0_def1c0c54b" y="398"/>
    </g>
    <g clip-path="url(#p30264dceb3)">
     <use style="fill-opacity:0.180392;" x="211.121127" xlink:href="#C0_0_def1c0c54b" y="375.859238"/>
    </g>
    <g clip-path="url(#p30264dceb3)">
     <use style="fill-opacity:0.180392;" x="211.121127" xlink:href="#C0_0_def1c0c54b" y="353.718475"/>
    </g>
    <g clip-path="url(#p30264dceb3)">
     <use style="fill-opacity:0.180392;" x="211.121127" xlink:href="#C0_0_def1c0c54b" y="331.577713"/>
    </g>
    <g clip-path="url(#p30264dceb3)">
     <use style="fill-opacity:0.180392;" x="211.121127" xlink:href="#C0_0_def1c0c54b" y="309.43695"/>
    </g>
    <g clip-path="url(#p30264dceb3)">
     <use style="fill-opacity:0.180392;" x="211.121127" xlink:href="#C0_0_def1c0c54b" y="287.296188"/>
    </g>
    <g clip-path="url(#p30264dceb3)">
     <use style="fill-opacity:0.180392;" x="211.121127" xlink:href="#C0_0_def1c0c54b" y="265.155425"/>
    </g>
    <g clip-path="url(#p30264dceb3)">
     <use style="stroke:#000000;" x="211.121127" xlink:href="#C0_0_def1c0c54b" y="243.014663"/>
    </g>
    <g clip-path="url(#p30264dceb3)">
     <use style="fill-opacity:0.180392;" x="211.121127" xlink:href="#C0_0_def1c0c54b" y="220.8739"/>
    </g>
    <g clip-path="url(#p30264dceb3)">
     <use style="fill-opacity:0.180392;" x="211.121127" xlink:href="#C0_0_def1c0c54b" y="198.733138"/>
    </g>
    <g clip-path="url(#p30264dceb3)">
     <use style="stroke:#000000;" x="211.121127" xlink:href="#C0_0_def1c0c54b" y="176.592375"/>
    </g>
    <g clip-path="url(#p30264dceb3)">
     <use style="fill-opacity:0.180392;" x="211.121127" xlink:href="#C0_0_def1c0c54b" y="154.451613"/>
    </g>
    <g clip-path="url(#p30264dceb3)">
     <use style="fill-opacity:0.180392;" x="211.121127" xlink:href="#C0_0_def1c0c54b" y="132.31085"/>
    </g>
    <g clip-path="url(#p30264dceb3)">
     <use style="stroke:#000000;" x="235.571831" xlink:href="#C0_0_def1c0c54b" y="663.68915"/>
    </g>
    <g clip-path="url(#p30264dceb3)">
     <use style="fill-opacity:0.180392;" x="235.571831" xlink:href="#C0_0_def1c0c54b" y="641.548387"/>
    </g>
    <g clip-path="url(#p30264dceb3)">
     <use style="fill-opacity:0.180392;" x="235.571831" xlink:href="#C0_0_def1c0c54b" y="619.407625"/>
    </g>
    <g clip-path="url(#p30264dceb3)">
     <use style="fill-opacity:0.180392;" x="235.571831" xlink:href="#C0_0_def1c0c54b" y="597.266862"/>
    </g>
    <g clip-path="url(#p30264dceb3)">
     <use style="fill-opacity:0.180392;" x="235.571831" xlink:href="#C0_0_def1c0c54b" y="575.1261"/>
    </g>
    <g clip-path="url(#p30264dceb3)">
     <use style="stroke:#000000;" x="235.571831" xlink:href="#C0_0_def1c0c54b" y="552.985337"/>
    </g>
    <g clip-path="url(#p30264dceb3)">
     <use style="fill-opacity:0.180392;" x="235.571831" xlink:href="#C0_0_def1c0c54b" y="530.844575"/>
    </g>
    <g clip-path="url(#p30264dceb3)">
     <use style="fill-opacity:0.180392;" x="235.571831" xlink:href="#C0_0_def1c0c54b" y="508.703812"/>
    </g>
    <g clip-path="url(#p30264dceb3)">
     <use style="fill-opacity:0.180392;" x="235.571831" xlink:href="#C0_0_def1c0c54b" y="486.56305"/>
    </g>
    <g clip-path="url(#p30264dceb3)">
     <use style="fill-opacity:0.180392;" x="235.571831" xlink:href="#C0_0_def1c0c54b" y="464.422287"/>
    </g>
    <g clip-path="url(#p30264dceb3)">
     <use style="stroke:#000000;" x="235.571831" xlink:href="#C0_0_def1c0c54b" y="442.281525"/>
    </g>
    <g clip-path="url(#p30264dceb3)">
     <use style="fill-opacity:0.180392;" x="235.571831" xlink:href="#C0_0_def1c0c54b" y="420.140762"/>
    </g>
    <g clip-path="url(#p30264dceb3)">
     <use style="fill-opacity:0.180392;" x="235.571831" xlink:href="#C0_0_def1c0c54b" y="398"/>
    </g>
    <g clip-path="url(#p30264dceb3)">
     <use style="fill-opacity:0.180392;" x="235.571831" xlink:href="#C0_0_def1c0c54b" y="375.859238"/>
    </g>
    <g clip-path="url(#p30264dceb3)">
     <use style="stroke:#000000;" x="235.571831" xlink:href="#C0_0_def1c0c54b" y="353.718475"/>
    </g>
    <g clip-path="url(#p30264dceb3)">
     <use style="fill-opacity:0.180392;" x="235.571831" xlink:href="#C0_0_def1c0c54b" y="331.577713"/>
    </g>
    <g clip-path="url(#p30264dceb3)">
     <use style="fill-opacity:0.180392;" x="235.571831" xlink:href="#C0_0_def1c0c54b" y="309.43695"/>
    </g>
    <g clip-path="url(#p30264dceb3)">
     <use style="fill-opacity:0.180392;" x="235.571831" xlink:href="#C0_0_def1c0c54b" y="287.296188"/>
    </g>
    <g clip-path="url(#p30264dceb3)">
     <use style="fill-opacity:0.180392;" x="235.571831" xlink:href="#C0_0_def1c0c54b" y="265.155425"/>
    </g>
    <g clip-path="url(#p30264dceb3)">
     <use style="fill-opacity:0.180392;" x="235.571831" xlink:href="#C0_0_def1c0c54b" y="243.014663"/>
    </g>
    <g clip-path="url(#p30264dceb3)">
     <use style="stroke:#000000;" x="235.571831" xlink:href="#C0_0_def1c0c54b" y="220.8739"/>
    </g>
    <g clip-path="url(#p30264dceb3)">
     <use style="fill-opacity:0.180392;" x="235.571831" xlink:href="#C0_0_def1c0c54b" y="198.733138"/>
    </g>
    <g clip-path="url(#p30264dceb3)">
     <use style="fill-opacity:0.180392;" x="235.571831" xlink:href="#C0_0_def1c0c54b" y="176.592375"/>
    </g>
    <g clip-path="url(#p30264dceb3)">
     <use style="fill-opacity:0.180392;" x="235.571831" xlink:href="#C0_0_def1c0c54b" y="154.451613"/>
    </g>
    <g clip-path="url(#p30264dceb3)">
     <use style="fill-opacity:0.180392;" x="235.571831" xlink:href="#C0_0_def1c0c54b" y="132.31085"/>
    </g>
    <g clip-path="url(#p30264dceb3)">
     <use style="fill-opacity:0.180392;" x="260.022535" xlink:href="#C0_0_def1c0c54b" y="663.68915"/>
    </g>
    <g clip-path="url(#p30264dceb3)">
     <use style="fill-opacity:0.180392;" x="260.022535" xlink:href="#C0_0_def1c0c54b" y="641.548387"/>
    </g>
    <g clip-path="url(#p30264dceb3)">
     <use style="stroke:#000000;" x="260.022535" xlink:href="#C0_0_def1c0c54b" y="619.407625"/>
    </g>
    <g clip-path="url(#p30264dceb3)">
     <use style="stroke:#000000;" x="260.022535" xlink:href="#C0_0_def1c0c54b" y="597.266862"/>
    </g>
    <g clip-path="url(#p30264dceb3)">
     <use style="fill-opacity:0.180392;" x="260.022535" xlink:href="#C0_0_def1c0c54b" y="575.1261"/>
    </g>
    <g clip-path="url(#p30264dceb3)">
     <use style="fill-opacity:0.180392;" x="260.022535" xlink:href="#C0_0_def1c0c54b" y="552.985337"/>
    </g>
    <g clip-path="url(#p30264dceb3)">
     <use style="fill-opacity:0.180392;" x="260.022535" xlink:href="#C0_0_def1c0c54b" y="530.844575"/>
    </g>
    <g clip-path="url(#p30264dceb3)">
     <use style="stroke:#000000;" x="260.022535" xlink:href="#C0_0_def1c0c54b" y="508.703812"/>
    </g>
    <g clip-path="url(#p30264dceb3)">
     <use style="fill-opacity:0.180392;" x="260.022535" xlink:href="#C0_0_def1c0c54b" y="486.56305"/>
    </g>
    <g clip-path="url(#p30264dceb3)">
     <use style="fill-opacity:0.180392;" x="260.022535" xlink:href="#C0_0_def1c0c54b" y="464.422287"/>
    </g>
    <g clip-path="url(#p30264dceb3)">
     <use style="fill-opacity:0.180392;" x="260.022535" xlink:href="#C0_0_def1c0c54b" y="442.281525"/>
    </g>
    <g clip-path="url(#p30264dceb3)">
     <use style="fill-opacity:0.180392;" x="260.022535" xlink:href="#C0_0_def1c0c54b" y="420.140762"/>
    </g>
    <g clip-path="url(#p30264dceb3)">
     <use style="fill-opacity:0.180392;" x="260.022535" xlink:href="#C0_0_def1c0c54b" y="398"/>
    </g>
    <g clip-path="url(#p30264dceb3)">
     <use style="fill-opacity:0.180392;" x="260.022535" xlink:href="#C0_0_def1c0c54b" y="375.859238"/>
    </g>
    <g clip-path="url(#p30264dceb3)">
     <use style="fill-opacity:0.180392;" x="260.022535" xlink:href="#C0_0_def1c0c54b" y="353.718475"/>
    </g>
    <g clip-path="url(#p30264dceb3)">
     <use style="stroke:#000000;" x="260.022535" xlink:href="#C0_0_def1c0c54b" y="331.577713"/>
    </g>
    <g clip-path="url(#p30264dceb3)">
     <use style="fill-opacity:0.180392;" x="260.022535" xlink:href="#C0_0_def1c0c54b" y="309.43695"/>
    </g>
    <g clip-path="url(#p30264dceb3)">
     <use style="stroke:#000000;" x="260.022535" xlink:href="#C0_0_def1c0c54b" y="287.296188"/>
    </g>
    <g clip-path="url(#p30264dceb3)">
     <use style="fill-opacity:0.180392;" x="260.022535" xlink:href="#C0_0_def1c0c54b" y="265.155425"/>
    </g>
    <g clip-path="url(#p30264dceb3)">
     <use style="fill-opacity:0.180392;" x="260.022535" xlink:href="#C0_0_def1c0c54b" y="243.014663"/>
    </g>
    <g clip-path="url(#p30264dceb3)">
     <use style="fill-opacity:0.180392;" x="260.022535" xlink:href="#C0_0_def1c0c54b" y="220.8739"/>
    </g>
    <g clip-path="url(#p30264dceb3)">
     <use style="fill-opacity:0.180392;" x="260.022535" xlink:href="#C0_0_def1c0c54b" y="198.733138"/>
    </g>
    <g clip-path="url(#p30264dceb3)">
     <use style="fill-opacity:0.180392;" x="260.022535" xlink:href="#C0_0_def1c0c54b" y="176.592375"/>
    </g>
    <g clip-path="url(#p30264dceb3)">
     <use style="fill-opacity:0.180392;" x="260.022535" xlink:href="#C0_0_def1c0c54b" y="154.451613"/>
    </g>
    <g clip-path="url(#p30264dceb3)">
     <use style="fill-opacity:0.180392;" x="260.022535" xlink:href="#C0_0_def1c0c54b" y="132.31085"/>
    </g>
    <g clip-path="url(#p30264dceb3)">
     <use style="fill:#1b9e77;stroke:#1b9e77;" x="284.473239" xlink:href="#C0_0_def1c0c54b" y="663.68915"/>
    </g>
    <g clip-path="url(#p30264dceb3)">
     <use style="fill-opacity:0.180392;" x="284.473239" xlink:href="#C0_0_def1c0c54b" y="641.548387"/>
    </g>
    <g clip-path="url(#p30264dceb3)">
     <use style="fill:#1b9e77;stroke:#1b9e77;" x="284.473239" xlink:href="#C0_0_def1c0c54b" y="619.407625"/>
    </g>
    <g clip-path="url(#p30264dceb3)">
     <use style="fill:#1b9e77;stroke:#1b9e77;" x="284.473239" xlink:href="#C0_0_def1c0c54b" y="597.266862"/>
    </g>
    <g clip-path="url(#p30264dceb3)">
     <use style="fill-opacity:0.180392;" x="284.473239" xlink:href="#C0_0_def1c0c54b" y="575.1261"/>
    </g>
    <g clip-path="url(#p30264dceb3)">
     <use style="fill-opacity:0.180392;" x="284.473239" xlink:href="#C0_0_def1c0c54b" y="552.985337"/>
    </g>
    <g clip-path="url(#p30264dceb3)">
     <use style="fill-opacity:0.180392;" x="284.473239" xlink:href="#C0_0_def1c0c54b" y="530.844575"/>
    </g>
    <g clip-path="url(#p30264dceb3)">
     <use style="fill-opacity:0.180392;" x="284.473239" xlink:href="#C0_0_def1c0c54b" y="508.703812"/>
    </g>
    <g clip-path="url(#p30264dceb3)">
     <use style="fill-opacity:0.180392;" x="284.473239" xlink:href="#C0_0_def1c0c54b" y="486.56305"/>
    </g>
    <g clip-path="url(#p30264dceb3)">
     <use style="fill-opacity:0.180392;" x="284.473239" xlink:href="#C0_0_def1c0c54b" y="464.422287"/>
    </g>
    <g clip-path="url(#p30264dceb3)">
     <use style="fill-opacity:0.180392;" x="284.473239" xlink:href="#C0_0_def1c0c54b" y="442.281525"/>
    </g>
    <g clip-path="url(#p30264dceb3)">
     <use style="fill-opacity:0.180392;" x="284.473239" xlink:href="#C0_0_def1c0c54b" y="420.140762"/>
    </g>
    <g clip-path="url(#p30264dceb3)">
     <use style="fill:#1b9e77;stroke:#1b9e77;" x="284.473239" xlink:href="#C0_0_def1c0c54b" y="398"/>
    </g>
    <g clip-path="url(#p30264dceb3)">
     <use style="fill-opacity:0.180392;" x="284.473239" xlink:href="#C0_0_def1c0c54b" y="375.859238"/>
    </g>
    <g clip-path="url(#p30264dceb3)">
     <use style="fill-opacity:0.180392;" x="284.473239" xlink:href="#C0_0_def1c0c54b" y="353.718475"/>
    </g>
    <g clip-path="url(#p30264dceb3)">
     <use style="fill-opacity:0.180392;" x="284.473239" xlink:href="#C0_0_def1c0c54b" y="331.577713"/>
    </g>
    <g clip-path="url(#p30264dceb3)">
     <use style="fill-opacity:0.180392;" x="284.473239" xlink:href="#C0_0_def1c0c54b" y="309.43695"/>
    </g>
    <g clip-path="url(#p30264dceb3)">
     <use style="fill-opacity:0.180392;" x="284.473239" xlink:href="#C0_0_def1c0c54b" y="287.296188"/>
    </g>
    <g clip-path="url(#p30264dceb3)">
     <use style="fill:#1b9e77;stroke:#1b9e77;" x="284.473239" xlink:href="#C0_0_def1c0c54b" y="265.155425"/>
    </g>
    <g clip-path="url(#p30264dceb3)">
     <use style="fill-opacity:0.180392;" x="284.473239" xlink:href="#C0_0_def1c0c54b" y="243.014663"/>
    </g>
    <g clip-path="url(#p30264dceb3)">
     <use style="fill-opacity:0.180392;" x="284.473239" xlink:href="#C0_0_def1c0c54b" y="220.8739"/>
    </g>
    <g clip-path="url(#p30264dceb3)">
     <use style="fill-opacity:0.180392;" x="284.473239" xlink:href="#C0_0_def1c0c54b" y="198.733138"/>
    </g>
    <g clip-path="url(#p30264dceb3)">
     <use style="fill-opacity:0.180392;" x="284.473239" xlink:href="#C0_0_def1c0c54b" y="176.592375"/>
    </g>
    <g clip-path="url(#p30264dceb3)">
     <use style="fill-opacity:0.180392;" x="284.473239" xlink:href="#C0_0_def1c0c54b" y="154.451613"/>
    </g>
    <g clip-path="url(#p30264dceb3)">
     <use style="fill-opacity:0.180392;" x="284.473239" xlink:href="#C0_0_def1c0c54b" y="132.31085"/>
    </g>
    <g clip-path="url(#p30264dceb3)">
     <use style="fill-opacity:0.180392;" x="308.923944" xlink:href="#C0_0_def1c0c54b" y="663.68915"/>
    </g>
    <g clip-path="url(#p30264dceb3)">
     <use style="fill:#7570b3;stroke:#7570b3;" x="308.923944" xlink:href="#C0_0_def1c0c54b" y="641.548387"/>
    </g>
    <g clip-path="url(#p30264dceb3)">
     <use style="fill-opacity:0.180392;" x="308.923944" xlink:href="#C0_0_def1c0c54b" y="619.407625"/>
    </g>
    <g clip-path="url(#p30264dceb3)">
     <use style="fill-opacity:0.180392;" x="308.923944" xlink:href="#C0_0_def1c0c54b" y="597.266862"/>
    </g>
    <g clip-path="url(#p30264dceb3)">
     <use style="fill-opacity:0.180392;" x="308.923944" xlink:href="#C0_0_def1c0c54b" y="575.1261"/>
    </g>
    <g clip-path="url(#p30264dceb3)">
     <use style="fill-opacity:0.180392;" x="308.923944" xlink:href="#C0_0_def1c0c54b" y="552.985337"/>
    </g>
    <g clip-path="url(#p30264dceb3)">
     <use style="fill-opacity:0.180392;" x="308.923944" xlink:href="#C0_0_def1c0c54b" y="530.844575"/>
    </g>
    <g clip-path="url(#p30264dceb3)">
     <use style="fill-opacity:0.180392;" x="308.923944" xlink:href="#C0_0_def1c0c54b" y="508.703812"/>
    </g>
    <g clip-path="url(#p30264dceb3)">
     <use style="fill-opacity:0.180392;" x="308.923944" xlink:href="#C0_0_def1c0c54b" y="486.56305"/>
    </g>
    <g clip-path="url(#p30264dceb3)">
     <use style="fill-opacity:0.180392;" x="308.923944" xlink:href="#C0_0_def1c0c54b" y="464.422287"/>
    </g>
    <g clip-path="url(#p30264dceb3)">
     <use style="fill-opacity:0.180392;" x="308.923944" xlink:href="#C0_0_def1c0c54b" y="442.281525"/>
    </g>
    <g clip-path="url(#p30264dceb3)">
     <use style="fill:#7570b3;stroke:#7570b3;" x="308.923944" xlink:href="#C0_0_def1c0c54b" y="420.140762"/>
    </g>
    <g clip-path="url(#p30264dceb3)">
     <use style="fill-opacity:0.180392;" x="308.923944" xlink:href="#C0_0_def1c0c54b" y="398"/>
    </g>
    <g clip-path="url(#p30264dceb3)">
     <use style="fill:#7570b3;stroke:#7570b3;" x="308.923944" xlink:href="#C0_0_def1c0c54b" y="375.859238"/>
    </g>
    <g clip-path="url(#p30264dceb3)">
     <use style="fill-opacity:0.180392;" x="308.923944" xlink:href="#C0_0_def1c0c54b" y="353.718475"/>
    </g>
    <g clip-path="url(#p30264dceb3)">
     <use style="fill-opacity:0.180392;" x="308.923944" xlink:href="#C0_0_def1c0c54b" y="331.577713"/>
    </g>
    <g clip-path="url(#p30264dceb3)">
     <use style="fill-opacity:0.180392;" x="308.923944" xlink:href="#C0_0_def1c0c54b" y="309.43695"/>
    </g>
    <g clip-path="url(#p30264dceb3)">
     <use style="fill-opacity:0.180392;" x="308.923944" xlink:href="#C0_0_def1c0c54b" y="287.296188"/>
    </g>
    <g clip-path="url(#p30264dceb3)">
     <use style="fill-opacity:0.180392;" x="308.923944" xlink:href="#C0_0_def1c0c54b" y="265.155425"/>
    </g>
    <g clip-path="url(#p30264dceb3)">
     <use style="fill-opacity:0.180392;" x="308.923944" xlink:href="#C0_0_def1c0c54b" y="243.014663"/>
    </g>
    <g clip-path="url(#p30264dceb3)">
     <use style="fill-opacity:0.180392;" x="308.923944" xlink:href="#C0_0_def1c0c54b" y="220.8739"/>
    </g>
    <g clip-path="url(#p30264dceb3)">
     <use style="fill-opacity:0.180392;" x="308.923944" xlink:href="#C0_0_def1c0c54b" y="198.733138"/>
    </g>
    <g clip-path="url(#p30264dceb3)">
     <use style="fill-opacity:0.180392;" x="308.923944" xlink:href="#C0_0_def1c0c54b" y="176.592375"/>
    </g>
    <g clip-path="url(#p30264dceb3)">
     <use style="fill:#7570b3;stroke:#7570b3;" x="308.923944" xlink:href="#C0_0_def1c0c54b" y="154.451613"/>
    </g>
    <g clip-path="url(#p30264dceb3)">
     <use style="fill:#7570b3;stroke:#7570b3;" x="308.923944" xlink:href="#C0_0_def1c0c54b" y="132.31085"/>
    </g>
    <g clip-path="url(#p30264dceb3)">
     <use style="fill-opacity:0.180392;" x="333.374648" xlink:href="#C0_0_def1c0c54b" y="663.68915"/>
    </g>
    <g clip-path="url(#p30264dceb3)">
     <use style="stroke:#000000;" x="333.374648" xlink:href="#C0_0_def1c0c54b" y="641.548387"/>
    </g>
    <g clip-path="url(#p30264dceb3)">
     <use style="fill-opacity:0.180392;" x="333.374648" xlink:href="#C0_0_def1c0c54b" y="619.407625"/>
    </g>
    <g clip-path="url(#p30264dceb3)">
     <use style="fill-opacity:0.180392;" x="333.374648" xlink:href="#C0_0_def1c0c54b" y="597.266862"/>
    </g>
    <g clip-path="url(#p30264dceb3)">
     <use style="stroke:#000000;" x="333.374648" xlink:href="#C0_0_def1c0c54b" y="575.1261"/>
    </g>
    <g clip-path="url(#p30264dceb3)">
     <use style="fill-opacity:0.180392;" x="333.374648" xlink:href="#C0_0_def1c0c54b" y="552.985337"/>
    </g>
    <g clip-path="url(#p30264dceb3)">
     <use style="fill-opacity:0.180392;" x="333.374648" xlink:href="#C0_0_def1c0c54b" y="530.844575"/>
    </g>
    <g clip-path="url(#p30264dceb3)">
     <use style="fill-opacity:0.180392;" x="333.374648" xlink:href="#C0_0_def1c0c54b" y="508.703812"/>
    </g>
    <g clip-path="url(#p30264dceb3)">
     <use style="stroke:#000000;" x="333.374648" xlink:href="#C0_0_def1c0c54b" y="486.56305"/>
    </g>
    <g clip-path="url(#p30264dceb3)">
     <use style="fill-opacity:0.180392;" x="333.374648" xlink:href="#C0_0_def1c0c54b" y="464.422287"/>
    </g>
    <g clip-path="url(#p30264dceb3)">
     <use style="fill-opacity:0.180392;" x="333.374648" xlink:href="#C0_0_def1c0c54b" y="442.281525"/>
    </g>
    <g clip-path="url(#p30264dceb3)">
     <use style="fill-opacity:0.180392;" x="333.374648" xlink:href="#C0_0_def1c0c54b" y="420.140762"/>
    </g>
    <g clip-path="url(#p30264dceb3)">
     <use style="fill-opacity:0.180392;" x="333.374648" xlink:href="#C0_0_def1c0c54b" y="398"/>
    </g>
    <g clip-path="url(#p30264dceb3)">
     <use style="fill-opacity:0.180392;" x="333.374648" xlink:href="#C0_0_def1c0c54b" y="375.859238"/>
    </g>
    <g clip-path="url(#p30264dceb3)">
     <use style="fill-opacity:0.180392;" x="333.374648" xlink:href="#C0_0_def1c0c54b" y="353.718475"/>
    </g>
    <g clip-path="url(#p30264dceb3)">
     <use style="fill-opacity:0.180392;" x="333.374648" xlink:href="#C0_0_def1c0c54b" y="331.577713"/>
    </g>
    <g clip-path="url(#p30264dceb3)">
     <use style="stroke:#000000;" x="333.374648" xlink:href="#C0_0_def1c0c54b" y="309.43695"/>
    </g>
    <g clip-path="url(#p30264dceb3)">
     <use style="fill-opacity:0.180392;" x="333.374648" xlink:href="#C0_0_def1c0c54b" y="287.296188"/>
    </g>
    <g clip-path="url(#p30264dceb3)">
     <use style="fill-opacity:0.180392;" x="333.374648" xlink:href="#C0_0_def1c0c54b" y="265.155425"/>
    </g>
    <g clip-path="url(#p30264dceb3)">
     <use style="fill-opacity:0.180392;" x="333.374648" xlink:href="#C0_0_def1c0c54b" y="243.014663"/>
    </g>
    <g clip-path="url(#p30264dceb3)">
     <use style="fill-opacity:0.180392;" x="333.374648" xlink:href="#C0_0_def1c0c54b" y="220.8739"/>
    </g>
    <g clip-path="url(#p30264dceb3)">
     <use style="stroke:#000000;" x="333.374648" xlink:href="#C0_0_def1c0c54b" y="198.733138"/>
    </g>
    <g clip-path="url(#p30264dceb3)">
     <use style="fill-opacity:0.180392;" x="333.374648" xlink:href="#C0_0_def1c0c54b" y="176.592375"/>
    </g>
    <g clip-path="url(#p30264dceb3)">
     <use style="fill-opacity:0.180392;" x="333.374648" xlink:href="#C0_0_def1c0c54b" y="154.451613"/>
    </g>
    <g clip-path="url(#p30264dceb3)">
     <use style="fill-opacity:0.180392;" x="333.374648" xlink:href="#C0_0_def1c0c54b" y="132.31085"/>
    </g>
   </g>
  </g>
  <g id="axes_3">
   <g id="patch_15">
    <path clip-path="url(#pf65048de3d)" d="M 94.107042 669.22434
L 48 669.22434
L 48 658.153959
L 94.107042 658.153959
z
"/>
   </g>
   <g id="patch_16">
    <path clip-path="url(#pf65048de3d)" d="M 94.107042 647.083578
L 63.369014 647.083578
L 63.369014 636.013196
L 94.107042 636.013196
z
"/>
   </g>
   <g id="patch_17">
    <path clip-path="url(#pf65048de3d)" d="M 94.107042 624.942815
L 63.369014 624.942815
L 63.369014 613.872434
L 94.107042 613.872434
z
"/>
   </g>
   <g id="patch_18">
    <path clip-path="url(#pf65048de3d)" d="M 94.107042 602.802053
L 63.369014 602.802053
L 63.369014 591.731672
L 94.107042 591.731672
z
"/>
   </g>
   <g id="patch_19">
    <path clip-path="url(#pf65048de3d)" d="M 94.107042 580.66129
L 78.738028 580.66129
L 78.738028 569.590909
L 94.107042 569.590909
z
"/>
   </g>
   <g id="patch_20">
    <path clip-path="url(#pf65048de3d)" d="M 94.107042 558.520528
L 78.738028 558.520528
L 78.738028 547.450147
L 94.107042 547.450147
z
"/>
   </g>
   <g id="patch_21">
    <path clip-path="url(#pf65048de3d)" d="M 94.107042 536.379765
L 78.738028 536.379765
L 78.738028 525.309384
L 94.107042 525.309384
z
"/>
   </g>
   <g id="patch_22">
    <path clip-path="url(#pf65048de3d)" d="M 94.107042 514.239003
L 78.738028 514.239003
L 78.738028 503.168622
L 94.107042 503.168622
z
"/>
   </g>
   <g id="patch_23">
    <path clip-path="url(#pf65048de3d)" d="M 94.107042 492.09824
L 78.738028 492.09824
L 78.738028 481.027859
L 94.107042 481.027859
z
"/>
   </g>
   <g id="patch_24">
    <path clip-path="url(#pf65048de3d)" d="M 94.107042 469.957478
L 78.738028 469.957478
L 78.738028 458.887097
L 94.107042 458.887097
z
"/>
   </g>
   <g id="patch_25">
    <path clip-path="url(#pf65048de3d)" d="M 94.107042 447.816716
L 78.738028 447.816716
L 78.738028 436.746334
L 94.107042 436.746334
z
"/>
   </g>
   <g id="patch_26">
    <path clip-path="url(#pf65048de3d)" d="M 94.107042 425.675953
L 78.738028 425.675953
L 78.738028 414.605572
L 94.107042 414.605572
z
"/>
   </g>
   <g id="patch_27">
    <path clip-path="url(#pf65048de3d)" d="M 94.107042 403.535191
L 78.738028 403.535191
L 78.738028 392.464809
L 94.107042 392.464809
z
"/>
   </g>
   <g id="patch_28">
    <path clip-path="url(#pf65048de3d)" d="M 94.107042 381.394428
L 78.738028 381.394428
L 78.738028 370.324047
L 94.107042 370.324047
z
"/>
   </g>
   <g id="patch_29">
    <path clip-path="url(#pf65048de3d)" d="M 94.107042 359.253666
L 78.738028 359.253666
L 78.738028 348.183284
L 94.107042 348.183284
z
"/>
   </g>
   <g id="patch_30">
    <path clip-path="url(#pf65048de3d)" d="M 94.107042 337.112903
L 78.738028 337.112903
L 78.738028 326.042522
L 94.107042 326.042522
z
"/>
   </g>
   <g id="patch_31">
    <path clip-path="url(#pf65048de3d)" d="M 94.107042 314.972141
L 78.738028 314.972141
L 78.738028 303.90176
L 94.107042 303.90176
z
"/>
   </g>
   <g id="patch_32">
    <path clip-path="url(#pf65048de3d)" d="M 94.107042 292.831378
L 78.738028 292.831378
L 78.738028 281.760997
L 94.107042 281.760997
z
"/>
   </g>
   <g id="patch_33">
    <path clip-path="url(#pf65048de3d)" d="M 94.107042 270.690616
L 78.738028 270.690616
L 78.738028 259.620235
L 94.107042 259.620235
z
"/>
   </g>
   <g id="patch_34">
    <path clip-path="url(#pf65048de3d)" d="M 94.107042 248.549853
L 78.738028 248.549853
L 78.738028 237.479472
L 94.107042 237.479472
z
"/>
   </g>
   <g id="patch_35">
    <path clip-path="url(#pf65048de3d)" d="M 94.107042 226.409091
L 78.738028 226.409091
L 78.738028 215.33871
L 94.107042 215.33871
z
"/>
   </g>
   <g id="patch_36">
    <path clip-path="url(#pf65048de3d)" d="M 94.107042 204.268328
L 78.738028 204.268328
L 78.738028 193.197947
L 94.107042 193.197947
z
"/>
   </g>
   <g id="patch_37">
    <path clip-path="url(#pf65048de3d)" d="M 94.107042 182.127566
L 78.738028 182.127566
L 78.738028 171.057185
L 94.107042 171.057185
z
"/>
   </g>
   <g id="patch_38">
    <path clip-path="url(#pf65048de3d)" d="M 94.107042 159.986804
L 78.738028 159.986804
L 78.738028 148.916422
L 94.107042 148.916422
z
"/>
   </g>
   <g id="patch_39">
    <path clip-path="url(#pf65048de3d)" d="M 94.107042 137.846041
L 78.738028 137.846041
L 78.738028 126.77566
L 94.107042 126.77566
z
"/>
   </g>
   <g id="matplotlib.axis_4">
    <g id="xtick_1">
     <g id="line2d_26">
      <path clip-path="url(#pf65048de3d)" d="M 94.107042 700
L 94.107042 96
" style="fill:none;stroke:#b0b0b0;stroke-linecap:square;stroke-width:0.8;"/>
     </g>
     <g id="line2d_27">
      <defs>
       <path d="M 0 0
L 0 3.5
" id="md054b56da9" style="stroke:#000000;stroke-width:0.8;"/>
      </defs>
      <g>
       <use style="stroke:#000000;stroke-width:0.8;" x="94.107042" xlink:href="#md054b56da9" y="700"/>
      </g>
     </g>
     <g id="text_27">
      <!-- 0.0 -->
      <g transform="translate(86.15548 714.598438)scale(0.1 -0.1)">
       <use xlink:href="#DejaVuSans-48"/>
       <use x="63.623047" xlink:href="#DejaVuSans-46"/>
       <use x="95.410156" xlink:href="#DejaVuSans-48"/>
      </g>
     </g>
    </g>
    <g id="xtick_2">
     <g id="line2d_28">
      <path clip-path="url(#pf65048de3d)" d="M 55.684507 700
L 55.684507 96
" style="fill:none;stroke:#b0b0b0;stroke-linecap:square;stroke-width:0.8;"/>
     </g>
     <g id="line2d_29">
      <g>
       <use style="stroke:#000000;stroke-width:0.8;" x="55.684507" xlink:href="#md054b56da9" y="700"/>
      </g>
     </g>
     <g id="text_28">
      <!-- 2.5 -->
      <g transform="translate(47.732945 714.598438)scale(0.1 -0.1)">
       <defs>
        <path d="M 10.796875 72.90625
L 49.515625 72.90625
L 49.515625 64.59375
L 19.828125 64.59375
L 19.828125 46.734375
Q 21.96875 47.46875 24.109375 47.828125
Q 26.265625 48.1875 28.421875 48.1875
Q 40.625 48.1875 47.75 41.5
Q 54.890625 34.8125 54.890625 23.390625
Q 54.890625 11.625 47.5625 5.09375
Q 40.234375 -1.421875 26.90625 -1.421875
Q 22.3125 -1.421875 17.546875 -0.640625
Q 12.796875 0.140625 7.71875 1.703125
L 7.71875 11.625
Q 12.109375 9.234375 16.796875 8.0625
Q 21.484375 6.890625 26.703125 6.890625
Q 35.15625 6.890625 40.078125 11.328125
Q 45.015625 15.765625 45.015625 23.390625
Q 45.015625 31 40.078125 35.4375
Q 35.15625 39.890625 26.703125 39.890625
Q 22.75 39.890625 18.8125 39.015625
Q 14.890625 38.140625 10.796875 36.28125
z
" id="DejaVuSans-53"/>
       </defs>
       <use xlink:href="#DejaVuSans-50"/>
       <use x="63.623047" xlink:href="#DejaVuSans-46"/>
       <use x="95.410156" xlink:href="#DejaVuSans-53"/>
      </g>
     </g>
    </g>
   </g>
   <g id="patch_40">
    <path d="M 48 700
L 94.107042 700
" style="fill:none;stroke:#000000;stroke-linecap:square;stroke-linejoin:miter;stroke-width:0.8;"/>
   </g>
  </g>
 </g>
 <defs>
  <clipPath id="p5dcb3c7ea2">
   <rect height="604" width="297.6" x="48" y="96"/>
  </clipPath>
  <clipPath id="p30264dceb3">
   <rect height="604" width="146.704225" x="198.895775" y="96"/>
  </clipPath>
  <clipPath id="pf65048de3d">
   <rect height="604" width="46.107042" x="48" y="96"/>
  </clipPath>
 </defs>
</svg>
