<?xml version="1.0" encoding="utf-8" standalone="no"?>
<!DOCTYPE svg PUBLIC "-//W3C//DTD SVG 1.1//EN"
  "http://www.w3.org/Graphics/SVG/1.1/DTD/svg11.dtd">
<!-- Created with matplotlib (https://matplotlib.org/) -->
<svg height="736pt" version="1.1" viewBox="0 0 448 736" width="448pt" xmlns="http://www.w3.org/2000/svg" xmlns:xlink="http://www.w3.org/1999/xlink">
 <metadata>
  <rdf:RDF xmlns:cc="http://creativecommons.org/ns#" xmlns:dc="http://purl.org/dc/elements/1.1/" xmlns:rdf="http://www.w3.org/1999/02/22-rdf-syntax-ns#">
   <cc:Work>
    <dc:type rdf:resource="http://purl.org/dc/dcmitype/StillImage"/>
    <dc:date>2021-11-12T14:06:05.966245</dc:date>
    <dc:format>image/svg+xml</dc:format>
    <dc:creator>
     <cc:Agent>
      <dc:title>Matplotlib v3.3.3, https://matplotlib.org/</dc:title>
     </cc:Agent>
    </dc:creator>
   </cc:Work>
  </rdf:RDF>
 </metadata>
 <defs>
  <style type="text/css">*{stroke-linecap:butt;stroke-linejoin:round;}</style>
 </defs>
 <g id="figure_1">
  <g id="patch_1">
   <path d="M 0 736
L 448 736
L 448 0
L 0 0
z
" style="fill:none;"/>
  </g>
  <g id="axes_1">
   <g id="patch_2">
    <path clip-path="url(#p785ed67c2c)" d="M 56 618.741818
L 403.2 618.741818
L 403.2 601.016778
L 56 601.016778
z
" style="fill-opacity:0.05098;"/>
   </g>
   <g id="patch_3">
    <path clip-path="url(#p785ed67c2c)" d="M 56 574.429219
L 403.2 574.429219
L 403.2 556.704179
L 56 556.704179
z
" style="fill-opacity:0.05098;"/>
   </g>
   <g id="patch_4">
    <path clip-path="url(#p785ed67c2c)" d="M 56 530.116619
L 403.2 530.116619
L 403.2 512.391579
L 56 512.391579
z
" style="fill-opacity:0.05098;"/>
   </g>
   <g id="patch_5">
    <path clip-path="url(#p785ed67c2c)" d="M 56 485.804019
L 403.2 485.804019
L 403.2 468.078979
L 56 468.078979
z
" style="fill-opacity:0.05098;"/>
   </g>
   <g id="patch_6">
    <path clip-path="url(#p785ed67c2c)" d="M 56 441.491419
L 403.2 441.491419
L 403.2 423.76638
L 56 423.76638
z
" style="fill-opacity:0.05098;"/>
   </g>
   <g id="patch_7">
    <path clip-path="url(#p785ed67c2c)" d="M 56 397.17882
L 403.2 397.17882
L 403.2 379.45378
L 56 379.45378
z
" style="fill-opacity:0.05098;"/>
   </g>
   <g id="patch_8">
    <path clip-path="url(#p785ed67c2c)" d="M 56 352.86622
L 403.2 352.86622
L 403.2 335.14118
L 56 335.14118
z
" style="fill-opacity:0.05098;"/>
   </g>
   <g id="patch_9">
    <path clip-path="url(#p785ed67c2c)" d="M 56 308.55362
L 403.2 308.55362
L 403.2 290.828581
L 56 290.828581
z
" style="fill-opacity:0.05098;"/>
   </g>
   <g id="patch_10">
    <path clip-path="url(#p785ed67c2c)" d="M 56 264.241021
L 403.2 264.241021
L 403.2 246.515981
L 56 246.515981
z
" style="fill-opacity:0.05098;"/>
   </g>
   <g id="patch_11">
    <path clip-path="url(#p785ed67c2c)" d="M 56 219.928421
L 403.2 219.928421
L 403.2 202.203381
L 56 202.203381
z
" style="fill-opacity:0.05098;"/>
   </g>
   <g id="patch_12">
    <path clip-path="url(#p785ed67c2c)" d="M 56 175.615821
L 403.2 175.615821
L 403.2 157.890781
L 56 157.890781
z
" style="fill-opacity:0.05098;"/>
   </g>
   <g id="patch_13">
    <path clip-path="url(#p785ed67c2c)" d="M 56 131.303222
L 403.2 131.303222
L 403.2 113.578182
L 56 113.578182
z
" style="fill-opacity:0.05098;"/>
   </g>
   <g id="matplotlib.axis_1">
    <g id="text_1">
     <!-- Order 2003, 2004, 2005, 2006, 2007 -->
     <g transform="translate(137.463281 655.598438)scale(0.1 -0.1)">
      <defs>
       <path d="M 39.40625 66.21875
Q 28.65625 66.21875 22.328125 58.203125
Q 16.015625 50.203125 16.015625 36.375
Q 16.015625 22.609375 22.328125 14.59375
Q 28.65625 6.59375 39.40625 6.59375
Q 50.140625 6.59375 56.421875 14.59375
Q 62.703125 22.609375 62.703125 36.375
Q 62.703125 50.203125 56.421875 58.203125
Q 50.140625 66.21875 39.40625 66.21875
z
M 39.40625 74.21875
Q 54.734375 74.21875 63.90625 63.9375
Q 73.09375 53.65625 73.09375 36.375
Q 73.09375 19.140625 63.90625 8.859375
Q 54.734375 -1.421875 39.40625 -1.421875
Q 24.03125 -1.421875 14.8125 8.828125
Q 5.609375 19.09375 5.609375 36.375
Q 5.609375 53.65625 14.8125 63.9375
Q 24.03125 74.21875 39.40625 74.21875
z
" id="DejaVuSans-79"/>
       <path d="M 41.109375 46.296875
Q 39.59375 47.171875 37.8125 47.578125
Q 36.03125 48 33.890625 48
Q 26.265625 48 22.1875 43.046875
Q 18.109375 38.09375 18.109375 28.8125
L 18.109375 0
L 9.078125 0
L 9.078125 54.6875
L 18.109375 54.6875
L 18.109375 46.1875
Q 20.953125 51.171875 25.484375 53.578125
Q 30.03125 56 36.53125 56
Q 37.453125 56 38.578125 55.875
Q 39.703125 55.765625 41.0625 55.515625
z
" id="DejaVuSans-114"/>
       <path d="M 45.40625 46.390625
L 45.40625 75.984375
L 54.390625 75.984375
L 54.390625 0
L 45.40625 0
L 45.40625 8.203125
Q 42.578125 3.328125 38.25 0.953125
Q 33.9375 -1.421875 27.875 -1.421875
Q 17.96875 -1.421875 11.734375 6.484375
Q 5.515625 14.40625 5.515625 27.296875
Q 5.515625 40.1875 11.734375 48.09375
Q 17.96875 56 27.875 56
Q 33.9375 56 38.25 53.625
Q 42.578125 51.265625 45.40625 46.390625
z
M 14.796875 27.296875
Q 14.796875 17.390625 18.875 11.75
Q 22.953125 6.109375 30.078125 6.109375
Q 37.203125 6.109375 41.296875 11.75
Q 45.40625 17.390625 45.40625 27.296875
Q 45.40625 37.203125 41.296875 42.84375
Q 37.203125 48.484375 30.078125 48.484375
Q 22.953125 48.484375 18.875 42.84375
Q 14.796875 37.203125 14.796875 27.296875
z
" id="DejaVuSans-100"/>
       <path d="M 56.203125 29.59375
L 56.203125 25.203125
L 14.890625 25.203125
Q 15.484375 15.921875 20.484375 11.0625
Q 25.484375 6.203125 34.421875 6.203125
Q 39.59375 6.203125 44.453125 7.46875
Q 49.3125 8.734375 54.109375 11.28125
L 54.109375 2.78125
Q 49.265625 0.734375 44.1875 -0.34375
Q 39.109375 -1.421875 33.890625 -1.421875
Q 20.796875 -1.421875 13.15625 6.1875
Q 5.515625 13.8125 5.515625 26.8125
Q 5.515625 40.234375 12.765625 48.109375
Q 20.015625 56 32.328125 56
Q 43.359375 56 49.78125 48.890625
Q 56.203125 41.796875 56.203125 29.59375
z
M 47.21875 32.234375
Q 47.125 39.59375 43.09375 43.984375
Q 39.0625 48.390625 32.421875 48.390625
Q 24.90625 48.390625 20.390625 44.140625
Q 15.875 39.890625 15.1875 32.171875
z
" id="DejaVuSans-101"/>
       <path id="DejaVuSans-32"/>
       <path d="M 19.1875 8.296875
L 53.609375 8.296875
L 53.609375 0
L 7.328125 0
L 7.328125 8.296875
Q 12.9375 14.109375 22.625 23.890625
Q 32.328125 33.6875 34.8125 36.53125
Q 39.546875 41.84375 41.421875 45.53125
Q 43.3125 49.21875 43.3125 52.78125
Q 43.3125 58.59375 39.234375 62.25
Q 35.15625 65.921875 28.609375 65.921875
Q 23.96875 65.921875 18.8125 64.3125
Q 13.671875 62.703125 7.8125 59.421875
L 7.8125 69.390625
Q 13.765625 71.78125 18.9375 73
Q 24.125 74.21875 28.421875 74.21875
Q 39.75 74.21875 46.484375 68.546875
Q 53.21875 62.890625 53.21875 53.421875
Q 53.21875 48.921875 51.53125 44.890625
Q 49.859375 40.875 45.40625 35.40625
Q 44.1875 33.984375 37.640625 27.21875
Q 31.109375 20.453125 19.1875 8.296875
z
" id="DejaVuSans-50"/>
       <path d="M 31.78125 66.40625
Q 24.171875 66.40625 20.328125 58.90625
Q 16.5 51.421875 16.5 36.375
Q 16.5 21.390625 20.328125 13.890625
Q 24.171875 6.390625 31.78125 6.390625
Q 39.453125 6.390625 43.28125 13.890625
Q 47.125 21.390625 47.125 36.375
Q 47.125 51.421875 43.28125 58.90625
Q 39.453125 66.40625 31.78125 66.40625
z
M 31.78125 74.21875
Q 44.046875 74.21875 50.515625 64.515625
Q 56.984375 54.828125 56.984375 36.375
Q 56.984375 17.96875 50.515625 8.265625
Q 44.046875 -1.421875 31.78125 -1.421875
Q 19.53125 -1.421875 13.0625 8.265625
Q 6.59375 17.96875 6.59375 36.375
Q 6.59375 54.828125 13.0625 64.515625
Q 19.53125 74.21875 31.78125 74.21875
z
" id="DejaVuSans-48"/>
       <path d="M 40.578125 39.3125
Q 47.65625 37.796875 51.625 33
Q 55.609375 28.21875 55.609375 21.1875
Q 55.609375 10.40625 48.1875 4.484375
Q 40.765625 -1.421875 27.09375 -1.421875
Q 22.515625 -1.421875 17.65625 -0.515625
Q 12.796875 0.390625 7.625 2.203125
L 7.625 11.71875
Q 11.71875 9.328125 16.59375 8.109375
Q 21.484375 6.890625 26.8125 6.890625
Q 36.078125 6.890625 40.9375 10.546875
Q 45.796875 14.203125 45.796875 21.1875
Q 45.796875 27.640625 41.28125 31.265625
Q 36.765625 34.90625 28.71875 34.90625
L 20.21875 34.90625
L 20.21875 43.015625
L 29.109375 43.015625
Q 36.375 43.015625 40.234375 45.921875
Q 44.09375 48.828125 44.09375 54.296875
Q 44.09375 59.90625 40.109375 62.90625
Q 36.140625 65.921875 28.71875 65.921875
Q 24.65625 65.921875 20.015625 65.03125
Q 15.375 64.15625 9.8125 62.3125
L 9.8125 71.09375
Q 15.4375 72.65625 20.34375 73.4375
Q 25.25 74.21875 29.59375 74.21875
Q 40.828125 74.21875 47.359375 69.109375
Q 53.90625 64.015625 53.90625 55.328125
Q 53.90625 49.265625 50.4375 45.09375
Q 46.96875 40.921875 40.578125 39.3125
z
" id="DejaVuSans-51"/>
       <path d="M 11.71875 12.40625
L 22.015625 12.40625
L 22.015625 4
L 14.015625 -11.625
L 7.71875 -11.625
L 11.71875 4
z
" id="DejaVuSans-44"/>
       <path d="M 37.796875 64.3125
L 12.890625 25.390625
L 37.796875 25.390625
z
M 35.203125 72.90625
L 47.609375 72.90625
L 47.609375 25.390625
L 58.015625 25.390625
L 58.015625 17.1875
L 47.609375 17.1875
L 47.609375 0
L 37.796875 0
L 37.796875 17.1875
L 4.890625 17.1875
L 4.890625 26.703125
z
" id="DejaVuSans-52"/>
       <path d="M 10.796875 72.90625
L 49.515625 72.90625
L 49.515625 64.59375
L 19.828125 64.59375
L 19.828125 46.734375
Q 21.96875 47.46875 24.109375 47.828125
Q 26.265625 48.1875 28.421875 48.1875
Q 40.625 48.1875 47.75 41.5
Q 54.890625 34.8125 54.890625 23.390625
Q 54.890625 11.625 47.5625 5.09375
Q 40.234375 -1.421875 26.90625 -1.421875
Q 22.3125 -1.421875 17.546875 -0.640625
Q 12.796875 0.140625 7.71875 1.703125
L 7.71875 11.625
Q 12.109375 9.234375 16.796875 8.0625
Q 21.484375 6.890625 26.703125 6.890625
Q 35.15625 6.890625 40.078125 11.328125
Q 45.015625 15.765625 45.015625 23.390625
Q 45.015625 31 40.078125 35.4375
Q 35.15625 39.890625 26.703125 39.890625
Q 22.75 39.890625 18.8125 39.015625
Q 14.890625 38.140625 10.796875 36.28125
z
" id="DejaVuSans-53"/>
       <path d="M 33.015625 40.375
Q 26.375 40.375 22.484375 35.828125
Q 18.609375 31.296875 18.609375 23.390625
Q 18.609375 15.53125 22.484375 10.953125
Q 26.375 6.390625 33.015625 6.390625
Q 39.65625 6.390625 43.53125 10.953125
Q 47.40625 15.53125 47.40625 23.390625
Q 47.40625 31.296875 43.53125 35.828125
Q 39.65625 40.375 33.015625 40.375
z
M 52.59375 71.296875
L 52.59375 62.3125
Q 48.875 64.0625 45.09375 64.984375
Q 41.3125 65.921875 37.59375 65.921875
Q 27.828125 65.921875 22.671875 59.328125
Q 17.53125 52.734375 16.796875 39.40625
Q 19.671875 43.65625 24.015625 45.921875
Q 28.375 48.1875 33.59375 48.1875
Q 44.578125 48.1875 50.953125 41.515625
Q 57.328125 34.859375 57.328125 23.390625
Q 57.328125 12.15625 50.6875 5.359375
Q 44.046875 -1.421875 33.015625 -1.421875
Q 20.359375 -1.421875 13.671875 8.265625
Q 6.984375 17.96875 6.984375 36.375
Q 6.984375 53.65625 15.1875 63.9375
Q 23.390625 74.21875 37.203125 74.21875
Q 40.921875 74.21875 44.703125 73.484375
Q 48.484375 72.75 52.59375 71.296875
z
" id="DejaVuSans-54"/>
       <path d="M 8.203125 72.90625
L 55.078125 72.90625
L 55.078125 68.703125
L 28.609375 0
L 18.3125 0
L 43.21875 64.59375
L 8.203125 64.59375
z
" id="DejaVuSans-55"/>
      </defs>
      <use xlink:href="#DejaVuSans-79"/>
      <use x="78.710938" xlink:href="#DejaVuSans-114"/>
      <use x="118.074219" xlink:href="#DejaVuSans-100"/>
      <use x="181.550781" xlink:href="#DejaVuSans-101"/>
      <use x="243.074219" xlink:href="#DejaVuSans-114"/>
      <use x="284.1875" xlink:href="#DejaVuSans-32"/>
      <use x="315.974609" xlink:href="#DejaVuSans-50"/>
      <use x="379.597656" xlink:href="#DejaVuSans-48"/>
      <use x="443.220703" xlink:href="#DejaVuSans-48"/>
      <use x="506.84375" xlink:href="#DejaVuSans-51"/>
      <use x="570.466797" xlink:href="#DejaVuSans-44"/>
      <use x="602.253906" xlink:href="#DejaVuSans-32"/>
      <use x="634.041016" xlink:href="#DejaVuSans-50"/>
      <use x="697.664062" xlink:href="#DejaVuSans-48"/>
      <use x="761.287109" xlink:href="#DejaVuSans-48"/>
      <use x="824.910156" xlink:href="#DejaVuSans-52"/>
      <use x="888.533203" xlink:href="#DejaVuSans-44"/>
      <use x="920.320312" xlink:href="#DejaVuSans-32"/>
      <use x="952.107422" xlink:href="#DejaVuSans-50"/>
      <use x="1015.730469" xlink:href="#DejaVuSans-48"/>
      <use x="1079.353516" xlink:href="#DejaVuSans-48"/>
      <use x="1142.976562" xlink:href="#DejaVuSans-53"/>
      <use x="1206.599609" xlink:href="#DejaVuSans-44"/>
      <use x="1238.386719" xlink:href="#DejaVuSans-32"/>
      <use x="1270.173828" xlink:href="#DejaVuSans-50"/>
      <use x="1333.796875" xlink:href="#DejaVuSans-48"/>
      <use x="1397.419922" xlink:href="#DejaVuSans-48"/>
      <use x="1461.042969" xlink:href="#DejaVuSans-54"/>
      <use x="1524.666016" xlink:href="#DejaVuSans-44"/>
      <use x="1556.453125" xlink:href="#DejaVuSans-32"/>
      <use x="1588.240234" xlink:href="#DejaVuSans-50"/>
      <use x="1651.863281" xlink:href="#DejaVuSans-48"/>
      <use x="1715.486328" xlink:href="#DejaVuSans-48"/>
      <use x="1779.109375" xlink:href="#DejaVuSans-55"/>
     </g>
    </g>
   </g>
   <g id="matplotlib.axis_2">
    <g id="ytick_1"/>
    <g id="ytick_2"/>
    <g id="ytick_3"/>
    <g id="ytick_4"/>
    <g id="ytick_5"/>
    <g id="ytick_6"/>
    <g id="ytick_7"/>
    <g id="ytick_8"/>
    <g id="ytick_9"/>
    <g id="ytick_10"/>
    <g id="ytick_11"/>
    <g id="ytick_12"/>
    <g id="ytick_13"/>
    <g id="ytick_14"/>
    <g id="ytick_15"/>
    <g id="ytick_16"/>
    <g id="ytick_17"/>
    <g id="ytick_18"/>
    <g id="ytick_19"/>
    <g id="ytick_20"/>
    <g id="ytick_21"/>
    <g id="ytick_22"/>
    <g id="ytick_23"/>
   </g>
  </g>
  <g id="axes_2">
   <g id="matplotlib.axis_3">
    <g id="ytick_24">
     <g id="line2d_1"/>
     <g id="text_2">
      <!-- refractory -->
      <g transform="translate(229.023532 613.678517)scale(0.1 -0.1)">
       <defs>
        <path d="M 37.109375 75.984375
L 37.109375 68.5
L 28.515625 68.5
Q 23.6875 68.5 21.796875 66.546875
Q 19.921875 64.59375 19.921875 59.515625
L 19.921875 54.6875
L 34.71875 54.6875
L 34.71875 47.703125
L 19.921875 47.703125
L 19.921875 0
L 10.890625 0
L 10.890625 47.703125
L 2.296875 47.703125
L 2.296875 54.6875
L 10.890625 54.6875
L 10.890625 58.5
Q 10.890625 67.625 15.140625 71.796875
Q 19.390625 75.984375 28.609375 75.984375
z
" id="DejaVuSans-102"/>
        <path d="M 34.28125 27.484375
Q 23.390625 27.484375 19.1875 25
Q 14.984375 22.515625 14.984375 16.5
Q 14.984375 11.71875 18.140625 8.90625
Q 21.296875 6.109375 26.703125 6.109375
Q 34.1875 6.109375 38.703125 11.40625
Q 43.21875 16.703125 43.21875 25.484375
L 43.21875 27.484375
z
M 52.203125 31.203125
L 52.203125 0
L 43.21875 0
L 43.21875 8.296875
Q 40.140625 3.328125 35.546875 0.953125
Q 30.953125 -1.421875 24.3125 -1.421875
Q 15.921875 -1.421875 10.953125 3.296875
Q 6 8.015625 6 15.921875
Q 6 25.140625 12.171875 29.828125
Q 18.359375 34.515625 30.609375 34.515625
L 43.21875 34.515625
L 43.21875 35.40625
Q 43.21875 41.609375 39.140625 45
Q 35.0625 48.390625 27.6875 48.390625
Q 23 48.390625 18.546875 47.265625
Q 14.109375 46.140625 10.015625 43.890625
L 10.015625 52.203125
Q 14.9375 54.109375 19.578125 55.046875
Q 24.21875 56 28.609375 56
Q 40.484375 56 46.34375 49.84375
Q 52.203125 43.703125 52.203125 31.203125
z
" id="DejaVuSans-97"/>
        <path d="M 48.78125 52.59375
L 48.78125 44.1875
Q 44.96875 46.296875 41.140625 47.34375
Q 37.3125 48.390625 33.40625 48.390625
Q 24.65625 48.390625 19.8125 42.84375
Q 14.984375 37.3125 14.984375 27.296875
Q 14.984375 17.28125 19.8125 11.734375
Q 24.65625 6.203125 33.40625 6.203125
Q 37.3125 6.203125 41.140625 7.25
Q 44.96875 8.296875 48.78125 10.40625
L 48.78125 2.09375
Q 45.015625 0.34375 40.984375 -0.53125
Q 36.96875 -1.421875 32.421875 -1.421875
Q 20.0625 -1.421875 12.78125 6.34375
Q 5.515625 14.109375 5.515625 27.296875
Q 5.515625 40.671875 12.859375 48.328125
Q 20.21875 56 33.015625 56
Q 37.15625 56 41.109375 55.140625
Q 45.0625 54.296875 48.78125 52.59375
z
" id="DejaVuSans-99"/>
        <path d="M 18.3125 70.21875
L 18.3125 54.6875
L 36.8125 54.6875
L 36.8125 47.703125
L 18.3125 47.703125
L 18.3125 18.015625
Q 18.3125 11.328125 20.140625 9.421875
Q 21.96875 7.515625 27.59375 7.515625
L 36.8125 7.515625
L 36.8125 0
L 27.59375 0
Q 17.1875 0 13.234375 3.875
Q 9.28125 7.765625 9.28125 18.015625
L 9.28125 47.703125
L 2.6875 47.703125
L 2.6875 54.6875
L 9.28125 54.6875
L 9.28125 70.21875
z
" id="DejaVuSans-116"/>
        <path d="M 30.609375 48.390625
Q 23.390625 48.390625 19.1875 42.75
Q 14.984375 37.109375 14.984375 27.296875
Q 14.984375 17.484375 19.15625 11.84375
Q 23.34375 6.203125 30.609375 6.203125
Q 37.796875 6.203125 41.984375 11.859375
Q 46.1875 17.53125 46.1875 27.296875
Q 46.1875 37.015625 41.984375 42.703125
Q 37.796875 48.390625 30.609375 48.390625
z
M 30.609375 56
Q 42.328125 56 49.015625 48.375
Q 55.71875 40.765625 55.71875 27.296875
Q 55.71875 13.875 49.015625 6.21875
Q 42.328125 -1.421875 30.609375 -1.421875
Q 18.84375 -1.421875 12.171875 6.21875
Q 5.515625 13.875 5.515625 27.296875
Q 5.515625 40.765625 12.171875 48.375
Q 18.84375 56 30.609375 56
z
" id="DejaVuSans-111"/>
        <path d="M 32.171875 -5.078125
Q 28.375 -14.84375 24.75 -17.8125
Q 21.140625 -20.796875 15.09375 -20.796875
L 7.90625 -20.796875
L 7.90625 -13.28125
L 13.1875 -13.28125
Q 16.890625 -13.28125 18.9375 -11.515625
Q 21 -9.765625 23.484375 -3.21875
L 25.09375 0.875
L 2.984375 54.6875
L 12.5 54.6875
L 29.59375 11.921875
L 46.6875 54.6875
L 56.203125 54.6875
z
" id="DejaVuSans-121"/>
       </defs>
       <use xlink:href="#DejaVuSans-114"/>
       <use x="38.863281" xlink:href="#DejaVuSans-101"/>
       <use x="100.386719" xlink:href="#DejaVuSans-102"/>
       <use x="135.591797" xlink:href="#DejaVuSans-114"/>
       <use x="176.705078" xlink:href="#DejaVuSans-97"/>
       <use x="237.984375" xlink:href="#DejaVuSans-99"/>
       <use x="292.964844" xlink:href="#DejaVuSans-116"/>
       <use x="332.173828" xlink:href="#DejaVuSans-111"/>
       <use x="393.355469" xlink:href="#DejaVuSans-114"/>
       <use x="434.46875" xlink:href="#DejaVuSans-121"/>
      </g>
     </g>
    </g>
    <g id="ytick_25">
     <g id="line2d_2"/>
     <g id="text_3">
      <!-- -associated -->
      <g transform="translate(221.289157 591.522217)scale(0.1 -0.1)">
       <defs>
        <path d="M 4.890625 31.390625
L 31.203125 31.390625
L 31.203125 23.390625
L 4.890625 23.390625
z
" id="DejaVuSans-45"/>
        <path d="M 44.28125 53.078125
L 44.28125 44.578125
Q 40.484375 46.53125 36.375 47.5
Q 32.28125 48.484375 27.875 48.484375
Q 21.1875 48.484375 17.84375 46.4375
Q 14.5 44.390625 14.5 40.28125
Q 14.5 37.15625 16.890625 35.375
Q 19.28125 33.59375 26.515625 31.984375
L 29.59375 31.296875
Q 39.15625 29.25 43.1875 25.515625
Q 47.21875 21.78125 47.21875 15.09375
Q 47.21875 7.46875 41.1875 3.015625
Q 35.15625 -1.421875 24.609375 -1.421875
Q 20.21875 -1.421875 15.453125 -0.5625
Q 10.6875 0.296875 5.421875 2
L 5.421875 11.28125
Q 10.40625 8.6875 15.234375 7.390625
Q 20.0625 6.109375 24.8125 6.109375
Q 31.15625 6.109375 34.5625 8.28125
Q 37.984375 10.453125 37.984375 14.40625
Q 37.984375 18.0625 35.515625 20.015625
Q 33.0625 21.96875 24.703125 23.78125
L 21.578125 24.515625
Q 13.234375 26.265625 9.515625 29.90625
Q 5.8125 33.546875 5.8125 39.890625
Q 5.8125 47.609375 11.28125 51.796875
Q 16.75 56 26.8125 56
Q 31.78125 56 36.171875 55.265625
Q 40.578125 54.546875 44.28125 53.078125
z
" id="DejaVuSans-115"/>
        <path d="M 9.421875 54.6875
L 18.40625 54.6875
L 18.40625 0
L 9.421875 0
z
M 9.421875 75.984375
L 18.40625 75.984375
L 18.40625 64.59375
L 9.421875 64.59375
z
" id="DejaVuSans-105"/>
       </defs>
       <use xlink:href="#DejaVuSans-45"/>
       <use x="36.083984" xlink:href="#DejaVuSans-97"/>
       <use x="97.363281" xlink:href="#DejaVuSans-115"/>
       <use x="149.462891" xlink:href="#DejaVuSans-115"/>
       <use x="201.5625" xlink:href="#DejaVuSans-111"/>
       <use x="262.744141" xlink:href="#DejaVuSans-99"/>
       <use x="317.724609" xlink:href="#DejaVuSans-105"/>
       <use x="345.507812" xlink:href="#DejaVuSans-97"/>
       <use x="406.787109" xlink:href="#DejaVuSans-116"/>
       <use x="445.996094" xlink:href="#DejaVuSans-101"/>
       <use x="507.519531" xlink:href="#DejaVuSans-100"/>
      </g>
     </g>
    </g>
    <g id="ytick_26">
     <g id="line2d_3"/>
     <g id="text_4">
      <!-- pacs -->
      <g transform="translate(255.204782 569.365917)scale(0.1 -0.1)">
       <defs>
        <path d="M 18.109375 8.203125
L 18.109375 -20.796875
L 9.078125 -20.796875
L 9.078125 54.6875
L 18.109375 54.6875
L 18.109375 46.390625
Q 20.953125 51.265625 25.265625 53.625
Q 29.59375 56 35.59375 56
Q 45.5625 56 51.78125 48.09375
Q 58.015625 40.1875 58.015625 27.296875
Q 58.015625 14.40625 51.78125 6.484375
Q 45.5625 -1.421875 35.59375 -1.421875
Q 29.59375 -1.421875 25.265625 0.953125
Q 20.953125 3.328125 18.109375 8.203125
z
M 48.6875 27.296875
Q 48.6875 37.203125 44.609375 42.84375
Q 40.53125 48.484375 33.40625 48.484375
Q 26.265625 48.484375 22.1875 42.84375
Q 18.109375 37.203125 18.109375 27.296875
Q 18.109375 17.390625 22.1875 11.75
Q 26.265625 6.109375 33.40625 6.109375
Q 40.53125 6.109375 44.609375 11.75
Q 48.6875 17.390625 48.6875 27.296875
z
" id="DejaVuSans-112"/>
       </defs>
       <use xlink:href="#DejaVuSans-112"/>
       <use x="63.476562" xlink:href="#DejaVuSans-97"/>
       <use x="124.755859" xlink:href="#DejaVuSans-99"/>
       <use x="179.736328" xlink:href="#DejaVuSans-115"/>
      </g>
     </g>
    </g>
    <g id="ytick_27">
     <g id="line2d_4"/>
     <g id="text_5">
      <!-- systemic_lupus_erythematosus -->
      <g transform="translate(121.692282 547.209617)scale(0.1 -0.1)">
       <defs>
        <path d="M 52 44.1875
Q 55.375 50.25 60.0625 53.125
Q 64.75 56 71.09375 56
Q 79.640625 56 84.28125 50.015625
Q 88.921875 44.046875 88.921875 33.015625
L 88.921875 0
L 79.890625 0
L 79.890625 32.71875
Q 79.890625 40.578125 77.09375 44.375
Q 74.3125 48.1875 68.609375 48.1875
Q 61.625 48.1875 57.5625 43.546875
Q 53.515625 38.921875 53.515625 30.90625
L 53.515625 0
L 44.484375 0
L 44.484375 32.71875
Q 44.484375 40.625 41.703125 44.40625
Q 38.921875 48.1875 33.109375 48.1875
Q 26.21875 48.1875 22.15625 43.53125
Q 18.109375 38.875 18.109375 30.90625
L 18.109375 0
L 9.078125 0
L 9.078125 54.6875
L 18.109375 54.6875
L 18.109375 46.1875
Q 21.1875 51.21875 25.484375 53.609375
Q 29.78125 56 35.6875 56
Q 41.65625 56 45.828125 52.96875
Q 50 49.953125 52 44.1875
z
" id="DejaVuSans-109"/>
        <path d="M 50.984375 -16.609375
L 50.984375 -23.578125
L -0.984375 -23.578125
L -0.984375 -16.609375
z
" id="DejaVuSans-95"/>
        <path d="M 9.421875 75.984375
L 18.40625 75.984375
L 18.40625 0
L 9.421875 0
z
" id="DejaVuSans-108"/>
        <path d="M 8.5 21.578125
L 8.5 54.6875
L 17.484375 54.6875
L 17.484375 21.921875
Q 17.484375 14.15625 20.5 10.265625
Q 23.53125 6.390625 29.59375 6.390625
Q 36.859375 6.390625 41.078125 11.03125
Q 45.3125 15.671875 45.3125 23.6875
L 45.3125 54.6875
L 54.296875 54.6875
L 54.296875 0
L 45.3125 0
L 45.3125 8.40625
Q 42.046875 3.421875 37.71875 1
Q 33.40625 -1.421875 27.6875 -1.421875
Q 18.265625 -1.421875 13.375 4.4375
Q 8.5 10.296875 8.5 21.578125
z
M 31.109375 56
z
" id="DejaVuSans-117"/>
        <path d="M 54.890625 33.015625
L 54.890625 0
L 45.90625 0
L 45.90625 32.71875
Q 45.90625 40.484375 42.875 44.328125
Q 39.84375 48.1875 33.796875 48.1875
Q 26.515625 48.1875 22.3125 43.546875
Q 18.109375 38.921875 18.109375 30.90625
L 18.109375 0
L 9.078125 0
L 9.078125 75.984375
L 18.109375 75.984375
L 18.109375 46.1875
Q 21.34375 51.125 25.703125 53.5625
Q 30.078125 56 35.796875 56
Q 45.21875 56 50.046875 50.171875
Q 54.890625 44.34375 54.890625 33.015625
z
" id="DejaVuSans-104"/>
       </defs>
       <use xlink:href="#DejaVuSans-115"/>
       <use x="52.099609" xlink:href="#DejaVuSans-121"/>
       <use x="111.279297" xlink:href="#DejaVuSans-115"/>
       <use x="163.378906" xlink:href="#DejaVuSans-116"/>
       <use x="202.587891" xlink:href="#DejaVuSans-101"/>
       <use x="264.111328" xlink:href="#DejaVuSans-109"/>
       <use x="361.523438" xlink:href="#DejaVuSans-105"/>
       <use x="389.306641" xlink:href="#DejaVuSans-99"/>
       <use x="444.287109" xlink:href="#DejaVuSans-95"/>
       <use x="494.287109" xlink:href="#DejaVuSans-108"/>
       <use x="522.070312" xlink:href="#DejaVuSans-117"/>
       <use x="585.449219" xlink:href="#DejaVuSans-112"/>
       <use x="648.925781" xlink:href="#DejaVuSans-117"/>
       <use x="712.304688" xlink:href="#DejaVuSans-115"/>
       <use x="764.404297" xlink:href="#DejaVuSans-95"/>
       <use x="814.404297" xlink:href="#DejaVuSans-101"/>
       <use x="875.927734" xlink:href="#DejaVuSans-114"/>
       <use x="917.041016" xlink:href="#DejaVuSans-121"/>
       <use x="976.220703" xlink:href="#DejaVuSans-116"/>
       <use x="1015.429688" xlink:href="#DejaVuSans-104"/>
       <use x="1078.808594" xlink:href="#DejaVuSans-101"/>
       <use x="1140.332031" xlink:href="#DejaVuSans-109"/>
       <use x="1237.744141" xlink:href="#DejaVuSans-97"/>
       <use x="1299.023438" xlink:href="#DejaVuSans-116"/>
       <use x="1338.232422" xlink:href="#DejaVuSans-111"/>
       <use x="1399.414062" xlink:href="#DejaVuSans-115"/>
       <use x="1451.513672" xlink:href="#DejaVuSans-117"/>
       <use x="1514.892578" xlink:href="#DejaVuSans-115"/>
      </g>
     </g>
    </g>
    <g id="ytick_28">
     <g id="line2d_5"/>
     <g id="text_6">
      <!-- symptomatic -->
      <g transform="translate(213.067282 525.053318)scale(0.1 -0.1)">
       <use xlink:href="#DejaVuSans-115"/>
       <use x="52.099609" xlink:href="#DejaVuSans-121"/>
       <use x="111.279297" xlink:href="#DejaVuSans-109"/>
       <use x="208.691406" xlink:href="#DejaVuSans-112"/>
       <use x="272.167969" xlink:href="#DejaVuSans-116"/>
       <use x="311.376953" xlink:href="#DejaVuSans-111"/>
       <use x="372.558594" xlink:href="#DejaVuSans-109"/>
       <use x="469.970703" xlink:href="#DejaVuSans-97"/>
       <use x="531.25" xlink:href="#DejaVuSans-116"/>
       <use x="570.458984" xlink:href="#DejaVuSans-105"/>
       <use x="598.242188" xlink:href="#DejaVuSans-99"/>
      </g>
     </g>
    </g>
    <g id="ytick_29">
     <g id="line2d_6"/>
     <g id="text_7">
      <!-- rheumatoid_arthritis -->
      <g transform="translate(176.296969 502.897018)scale(0.1 -0.1)">
       <use xlink:href="#DejaVuSans-114"/>
       <use x="39.363281" xlink:href="#DejaVuSans-104"/>
       <use x="102.742188" xlink:href="#DejaVuSans-101"/>
       <use x="164.265625" xlink:href="#DejaVuSans-117"/>
       <use x="227.644531" xlink:href="#DejaVuSans-109"/>
       <use x="325.056641" xlink:href="#DejaVuSans-97"/>
       <use x="386.335938" xlink:href="#DejaVuSans-116"/>
       <use x="425.544922" xlink:href="#DejaVuSans-111"/>
       <use x="486.726562" xlink:href="#DejaVuSans-105"/>
       <use x="514.509766" xlink:href="#DejaVuSans-100"/>
       <use x="577.986328" xlink:href="#DejaVuSans-95"/>
       <use x="627.986328" xlink:href="#DejaVuSans-97"/>
       <use x="689.265625" xlink:href="#DejaVuSans-114"/>
       <use x="730.378906" xlink:href="#DejaVuSans-116"/>
       <use x="769.587891" xlink:href="#DejaVuSans-104"/>
       <use x="832.966797" xlink:href="#DejaVuSans-114"/>
       <use x="874.080078" xlink:href="#DejaVuSans-105"/>
       <use x="901.863281" xlink:href="#DejaVuSans-116"/>
       <use x="941.072266" xlink:href="#DejaVuSans-105"/>
       <use x="968.855469" xlink:href="#DejaVuSans-115"/>
      </g>
     </g>
    </g>
    <g id="ytick_30">
     <g id="line2d_7"/>
     <g id="text_8">
      <!-- relapsed -->
      <g transform="translate(235.384469 480.740718)scale(0.1 -0.1)">
       <use xlink:href="#DejaVuSans-114"/>
       <use x="38.863281" xlink:href="#DejaVuSans-101"/>
       <use x="100.386719" xlink:href="#DejaVuSans-108"/>
       <use x="128.169922" xlink:href="#DejaVuSans-97"/>
       <use x="189.449219" xlink:href="#DejaVuSans-112"/>
       <use x="252.925781" xlink:href="#DejaVuSans-115"/>
       <use x="305.025391" xlink:href="#DejaVuSans-101"/>
       <use x="366.548828" xlink:href="#DejaVuSans-100"/>
      </g>
     </g>
    </g>
    <g id="ytick_31">
     <g id="line2d_8"/>
     <g id="text_9">
      <!-- prophylactic -->
      <g transform="translate(216.829782 458.584418)scale(0.1 -0.1)">
       <use xlink:href="#DejaVuSans-112"/>
       <use x="63.476562" xlink:href="#DejaVuSans-114"/>
       <use x="102.339844" xlink:href="#DejaVuSans-111"/>
       <use x="163.521484" xlink:href="#DejaVuSans-112"/>
       <use x="226.998047" xlink:href="#DejaVuSans-104"/>
       <use x="290.376953" xlink:href="#DejaVuSans-121"/>
       <use x="349.556641" xlink:href="#DejaVuSans-108"/>
       <use x="377.339844" xlink:href="#DejaVuSans-97"/>
       <use x="438.619141" xlink:href="#DejaVuSans-99"/>
       <use x="493.599609" xlink:href="#DejaVuSans-116"/>
       <use x="532.808594" xlink:href="#DejaVuSans-105"/>
       <use x="560.591797" xlink:href="#DejaVuSans-99"/>
      </g>
     </g>
    </g>
    <g id="ytick_32">
     <g id="line2d_9"/>
     <g id="text_10">
      <!-- priming -->
      <g transform="translate(239.946969 436.428118)scale(0.1 -0.1)">
       <defs>
        <path d="M 54.890625 33.015625
L 54.890625 0
L 45.90625 0
L 45.90625 32.71875
Q 45.90625 40.484375 42.875 44.328125
Q 39.84375 48.1875 33.796875 48.1875
Q 26.515625 48.1875 22.3125 43.546875
Q 18.109375 38.921875 18.109375 30.90625
L 18.109375 0
L 9.078125 0
L 9.078125 54.6875
L 18.109375 54.6875
L 18.109375 46.1875
Q 21.34375 51.125 25.703125 53.5625
Q 30.078125 56 35.796875 56
Q 45.21875 56 50.046875 50.171875
Q 54.890625 44.34375 54.890625 33.015625
z
" id="DejaVuSans-110"/>
        <path d="M 45.40625 27.984375
Q 45.40625 37.75 41.375 43.109375
Q 37.359375 48.484375 30.078125 48.484375
Q 22.859375 48.484375 18.828125 43.109375
Q 14.796875 37.75 14.796875 27.984375
Q 14.796875 18.265625 18.828125 12.890625
Q 22.859375 7.515625 30.078125 7.515625
Q 37.359375 7.515625 41.375 12.890625
Q 45.40625 18.265625 45.40625 27.984375
z
M 54.390625 6.78125
Q 54.390625 -7.171875 48.1875 -13.984375
Q 42 -20.796875 29.203125 -20.796875
Q 24.46875 -20.796875 20.265625 -20.09375
Q 16.0625 -19.390625 12.109375 -17.921875
L 12.109375 -9.1875
Q 16.0625 -11.328125 19.921875 -12.34375
Q 23.78125 -13.375 27.78125 -13.375
Q 36.625 -13.375 41.015625 -8.765625
Q 45.40625 -4.15625 45.40625 5.171875
L 45.40625 9.625
Q 42.625 4.78125 38.28125 2.390625
Q 33.9375 0 27.875 0
Q 17.828125 0 11.671875 7.65625
Q 5.515625 15.328125 5.515625 27.984375
Q 5.515625 40.671875 11.671875 48.328125
Q 17.828125 56 27.875 56
Q 33.9375 56 38.28125 53.609375
Q 42.625 51.21875 45.40625 46.390625
L 45.40625 54.6875
L 54.390625 54.6875
z
" id="DejaVuSans-103"/>
       </defs>
       <use xlink:href="#DejaVuSans-112"/>
       <use x="63.476562" xlink:href="#DejaVuSans-114"/>
       <use x="104.589844" xlink:href="#DejaVuSans-105"/>
       <use x="132.373047" xlink:href="#DejaVuSans-109"/>
       <use x="229.785156" xlink:href="#DejaVuSans-105"/>
       <use x="257.568359" xlink:href="#DejaVuSans-110"/>
       <use x="320.947266" xlink:href="#DejaVuSans-103"/>
      </g>
     </g>
    </g>
    <g id="ytick_33">
     <g id="line2d_10"/>
     <g id="text_11">
      <!-- pegylated -->
      <g transform="translate(228.292282 414.271818)scale(0.1 -0.1)">
       <use xlink:href="#DejaVuSans-112"/>
       <use x="63.476562" xlink:href="#DejaVuSans-101"/>
       <use x="125" xlink:href="#DejaVuSans-103"/>
       <use x="188.476562" xlink:href="#DejaVuSans-121"/>
       <use x="247.65625" xlink:href="#DejaVuSans-108"/>
       <use x="275.439453" xlink:href="#DejaVuSans-97"/>
       <use x="336.71875" xlink:href="#DejaVuSans-116"/>
       <use x="375.927734" xlink:href="#DejaVuSans-101"/>
       <use x="437.451172" xlink:href="#DejaVuSans-100"/>
      </g>
     </g>
    </g>
    <g id="ytick_34">
     <g id="line2d_11"/>
     <g id="text_12">
      <!-- pdt -->
      <g transform="translate(261.771969 392.115519)scale(0.1 -0.1)">
       <use xlink:href="#DejaVuSans-112"/>
       <use x="63.476562" xlink:href="#DejaVuSans-100"/>
       <use x="126.953125" xlink:href="#DejaVuSans-116"/>
      </g>
     </g>
    </g>
    <g id="ytick_35">
     <g id="line2d_12"/>
     <g id="text_13">
      <!-- methotrexate -->
      <g transform="translate(210.214157 369.959219)scale(0.1 -0.1)">
       <defs>
        <path d="M 54.890625 54.6875
L 35.109375 28.078125
L 55.90625 0
L 45.3125 0
L 29.390625 21.484375
L 13.484375 0
L 2.875 0
L 24.125 28.609375
L 4.6875 54.6875
L 15.28125 54.6875
L 29.78125 35.203125
L 44.28125 54.6875
z
" id="DejaVuSans-120"/>
       </defs>
       <use xlink:href="#DejaVuSans-109"/>
       <use x="97.412109" xlink:href="#DejaVuSans-101"/>
       <use x="158.935547" xlink:href="#DejaVuSans-116"/>
       <use x="198.144531" xlink:href="#DejaVuSans-104"/>
       <use x="261.523438" xlink:href="#DejaVuSans-111"/>
       <use x="322.705078" xlink:href="#DejaVuSans-116"/>
       <use x="361.914062" xlink:href="#DejaVuSans-114"/>
       <use x="400.777344" xlink:href="#DejaVuSans-101"/>
       <use x="460.550781" xlink:href="#DejaVuSans-120"/>
       <use x="519.730469" xlink:href="#DejaVuSans-97"/>
       <use x="581.009766" xlink:href="#DejaVuSans-116"/>
       <use x="620.21875" xlink:href="#DejaVuSans-101"/>
      </g>
     </g>
    </g>
    <g id="ytick_36">
     <g id="line2d_13"/>
     <g id="text_14">
      <!-- 5-fluorouracil -->
      <g transform="translate(212.028219 347.802919)scale(0.1 -0.1)">
       <use xlink:href="#DejaVuSans-53"/>
       <use x="63.623047" xlink:href="#DejaVuSans-45"/>
       <use x="99.707031" xlink:href="#DejaVuSans-102"/>
       <use x="134.912109" xlink:href="#DejaVuSans-108"/>
       <use x="162.695312" xlink:href="#DejaVuSans-117"/>
       <use x="226.074219" xlink:href="#DejaVuSans-111"/>
       <use x="287.255859" xlink:href="#DejaVuSans-114"/>
       <use x="326.119141" xlink:href="#DejaVuSans-111"/>
       <use x="387.300781" xlink:href="#DejaVuSans-117"/>
       <use x="450.679688" xlink:href="#DejaVuSans-114"/>
       <use x="491.792969" xlink:href="#DejaVuSans-97"/>
       <use x="553.072266" xlink:href="#DejaVuSans-99"/>
       <use x="608.052734" xlink:href="#DejaVuSans-105"/>
       <use x="635.835938" xlink:href="#DejaVuSans-108"/>
      </g>
     </g>
    </g>
    <g id="ytick_37">
     <g id="line2d_14"/>
     <g id="text_15">
      <!-- immunosuppressive -->
      <g transform="translate(177.784469 325.646619)scale(0.1 -0.1)">
       <defs>
        <path d="M 2.984375 54.6875
L 12.5 54.6875
L 29.59375 8.796875
L 46.6875 54.6875
L 56.203125 54.6875
L 35.6875 0
L 23.484375 0
z
" id="DejaVuSans-118"/>
       </defs>
       <use xlink:href="#DejaVuSans-105"/>
       <use x="27.783203" xlink:href="#DejaVuSans-109"/>
       <use x="125.195312" xlink:href="#DejaVuSans-109"/>
       <use x="222.607422" xlink:href="#DejaVuSans-117"/>
       <use x="285.986328" xlink:href="#DejaVuSans-110"/>
       <use x="349.365234" xlink:href="#DejaVuSans-111"/>
       <use x="410.546875" xlink:href="#DejaVuSans-115"/>
       <use x="462.646484" xlink:href="#DejaVuSans-117"/>
       <use x="526.025391" xlink:href="#DejaVuSans-112"/>
       <use x="589.501953" xlink:href="#DejaVuSans-112"/>
       <use x="652.978516" xlink:href="#DejaVuSans-114"/>
       <use x="691.841797" xlink:href="#DejaVuSans-101"/>
       <use x="753.365234" xlink:href="#DejaVuSans-115"/>
       <use x="805.464844" xlink:href="#DejaVuSans-115"/>
       <use x="857.564453" xlink:href="#DejaVuSans-105"/>
       <use x="885.347656" xlink:href="#DejaVuSans-118"/>
       <use x="944.527344" xlink:href="#DejaVuSans-101"/>
      </g>
     </g>
    </g>
    <g id="ytick_38">
     <g id="line2d_15"/>
     <g id="text_16">
      <!-- i. -->
      <g transform="translate(272.432907 303.490319)scale(0.1 -0.1)">
       <defs>
        <path d="M 10.6875 12.40625
L 21 12.40625
L 21 0
L 10.6875 0
z
" id="DejaVuSans-46"/>
       </defs>
       <use xlink:href="#DejaVuSans-105"/>
       <use x="27.783203" xlink:href="#DejaVuSans-46"/>
      </g>
     </g>
    </g>
    <g id="ytick_39">
     <g id="line2d_16"/>
     <g id="text_17">
      <!-- hepatitis -->
      <g transform="translate(234.815719 281.334019)scale(0.1 -0.1)">
       <use xlink:href="#DejaVuSans-104"/>
       <use x="63.378906" xlink:href="#DejaVuSans-101"/>
       <use x="124.902344" xlink:href="#DejaVuSans-112"/>
       <use x="188.378906" xlink:href="#DejaVuSans-97"/>
       <use x="249.658203" xlink:href="#DejaVuSans-116"/>
       <use x="288.867188" xlink:href="#DejaVuSans-105"/>
       <use x="316.650391" xlink:href="#DejaVuSans-116"/>
       <use x="355.859375" xlink:href="#DejaVuSans-105"/>
       <use x="383.642578" xlink:href="#DejaVuSans-115"/>
      </g>
     </g>
    </g>
    <g id="ytick_40">
     <g id="line2d_17"/>
     <g id="text_18">
      <!-- cytotoxic -->
      <g transform="translate(233.011032 259.17772)scale(0.1 -0.1)">
       <use xlink:href="#DejaVuSans-99"/>
       <use x="54.980469" xlink:href="#DejaVuSans-121"/>
       <use x="114.160156" xlink:href="#DejaVuSans-116"/>
       <use x="153.369141" xlink:href="#DejaVuSans-111"/>
       <use x="214.550781" xlink:href="#DejaVuSans-116"/>
       <use x="253.759766" xlink:href="#DejaVuSans-111"/>
       <use x="311.816406" xlink:href="#DejaVuSans-120"/>
       <use x="370.996094" xlink:href="#DejaVuSans-105"/>
       <use x="398.779297" xlink:href="#DejaVuSans-99"/>
      </g>
     </g>
    </g>
    <g id="ytick_41">
     <g id="line2d_18"/>
     <g id="text_19">
      <!-- cyclophosphamide -->
      <g transform="translate(184.728219 237.02142)scale(0.1 -0.1)">
       <use xlink:href="#DejaVuSans-99"/>
       <use x="54.980469" xlink:href="#DejaVuSans-121"/>
       <use x="114.160156" xlink:href="#DejaVuSans-99"/>
       <use x="169.140625" xlink:href="#DejaVuSans-108"/>
       <use x="196.923828" xlink:href="#DejaVuSans-111"/>
       <use x="258.105469" xlink:href="#DejaVuSans-112"/>
       <use x="321.582031" xlink:href="#DejaVuSans-104"/>
       <use x="384.960938" xlink:href="#DejaVuSans-111"/>
       <use x="446.142578" xlink:href="#DejaVuSans-115"/>
       <use x="498.242188" xlink:href="#DejaVuSans-112"/>
       <use x="561.71875" xlink:href="#DejaVuSans-104"/>
       <use x="625.097656" xlink:href="#DejaVuSans-97"/>
       <use x="686.376953" xlink:href="#DejaVuSans-109"/>
       <use x="783.789062" xlink:href="#DejaVuSans-105"/>
       <use x="811.572266" xlink:href="#DejaVuSans-100"/>
       <use x="875.048828" xlink:href="#DejaVuSans-101"/>
      </g>
     </g>
    </g>
    <g id="ytick_42">
     <g id="line2d_19"/>
     <g id="text_20">
      <!-- chemotherapy -->
      <g transform="translate(205.623532 214.86512)scale(0.1 -0.1)">
       <use xlink:href="#DejaVuSans-99"/>
       <use x="54.980469" xlink:href="#DejaVuSans-104"/>
       <use x="118.359375" xlink:href="#DejaVuSans-101"/>
       <use x="179.882812" xlink:href="#DejaVuSans-109"/>
       <use x="277.294922" xlink:href="#DejaVuSans-111"/>
       <use x="338.476562" xlink:href="#DejaVuSans-116"/>
       <use x="377.685547" xlink:href="#DejaVuSans-104"/>
       <use x="441.064453" xlink:href="#DejaVuSans-101"/>
       <use x="502.587891" xlink:href="#DejaVuSans-114"/>
       <use x="543.701172" xlink:href="#DejaVuSans-97"/>
       <use x="604.980469" xlink:href="#DejaVuSans-112"/>
       <use x="668.457031" xlink:href="#DejaVuSans-121"/>
      </g>
     </g>
    </g>
    <g id="ytick_43">
     <g id="line2d_20"/>
     <g id="text_21">
      <!-- chemotherapeutic -->
      <g transform="translate(186.854782 192.70882)scale(0.1 -0.1)">
       <use xlink:href="#DejaVuSans-99"/>
       <use x="54.980469" xlink:href="#DejaVuSans-104"/>
       <use x="118.359375" xlink:href="#DejaVuSans-101"/>
       <use x="179.882812" xlink:href="#DejaVuSans-109"/>
       <use x="277.294922" xlink:href="#DejaVuSans-111"/>
       <use x="338.476562" xlink:href="#DejaVuSans-116"/>
       <use x="377.685547" xlink:href="#DejaVuSans-104"/>
       <use x="441.064453" xlink:href="#DejaVuSans-101"/>
       <use x="502.587891" xlink:href="#DejaVuSans-114"/>
       <use x="543.701172" xlink:href="#DejaVuSans-97"/>
       <use x="604.980469" xlink:href="#DejaVuSans-112"/>
       <use x="668.457031" xlink:href="#DejaVuSans-101"/>
       <use x="729.980469" xlink:href="#DejaVuSans-117"/>
       <use x="793.359375" xlink:href="#DejaVuSans-116"/>
       <use x="832.568359" xlink:href="#DejaVuSans-105"/>
       <use x="860.351562" xlink:href="#DejaVuSans-99"/>
      </g>
     </g>
    </g>
    <g id="ytick_44">
     <g id="line2d_21"/>
     <g id="text_22">
      <!-- canine -->
      <g transform="translate(245.156344 170.55252)scale(0.1 -0.1)">
       <use xlink:href="#DejaVuSans-99"/>
       <use x="54.980469" xlink:href="#DejaVuSans-97"/>
       <use x="116.259766" xlink:href="#DejaVuSans-110"/>
       <use x="179.638672" xlink:href="#DejaVuSans-105"/>
       <use x="207.421875" xlink:href="#DejaVuSans-110"/>
       <use x="270.800781" xlink:href="#DejaVuSans-101"/>
      </g>
     </g>
    </g>
    <g id="ytick_45">
     <g id="line2d_22"/>
     <g id="text_23">
      <!-- advanced -->
      <g transform="translate(229.528219 148.39622)scale(0.1 -0.1)">
       <use xlink:href="#DejaVuSans-97"/>
       <use x="61.279297" xlink:href="#DejaVuSans-100"/>
       <use x="124.755859" xlink:href="#DejaVuSans-118"/>
       <use x="183.935547" xlink:href="#DejaVuSans-97"/>
       <use x="245.214844" xlink:href="#DejaVuSans-110"/>
       <use x="308.59375" xlink:href="#DejaVuSans-99"/>
       <use x="363.574219" xlink:href="#DejaVuSans-101"/>
       <use x="425.097656" xlink:href="#DejaVuSans-100"/>
      </g>
     </g>
    </g>
    <g id="ytick_46">
     <g id="line2d_23"/>
     <g id="text_24">
      <!-- triglyceride -->
      <g transform="translate(221.492282 126.239921)scale(0.1 -0.1)">
       <use xlink:href="#DejaVuSans-116"/>
       <use x="39.208984" xlink:href="#DejaVuSans-114"/>
       <use x="80.322266" xlink:href="#DejaVuSans-105"/>
       <use x="108.105469" xlink:href="#DejaVuSans-103"/>
       <use x="171.582031" xlink:href="#DejaVuSans-108"/>
       <use x="199.365234" xlink:href="#DejaVuSans-121"/>
       <use x="258.544922" xlink:href="#DejaVuSans-99"/>
       <use x="313.525391" xlink:href="#DejaVuSans-101"/>
       <use x="375.048828" xlink:href="#DejaVuSans-114"/>
       <use x="416.162109" xlink:href="#DejaVuSans-105"/>
       <use x="443.945312" xlink:href="#DejaVuSans-100"/>
       <use x="507.421875" xlink:href="#DejaVuSans-101"/>
      </g>
     </g>
    </g>
   </g>
   <g id="PathCollection_1">
    <defs>
     <path d="M 0 5.6
C 1.485137 5.6 2.909647 5.009949 3.959798 3.959798
C 5.009949 2.909647 5.6 1.485137 5.6 -0
C 5.6 -1.485137 5.009949 -2.909647 3.959798 -3.959798
C 2.909647 -5.009949 1.485137 -5.6 0 -5.6
C -1.485137 -5.6 -2.909647 -5.009949 -3.959798 -3.959798
C -5.009949 -2.909647 -5.6 -1.485137 -5.6 0
C -5.6 1.485137 -5.009949 2.909647 -3.959798 3.959798
C -2.909647 5.009949 -1.485137 5.6 0 5.6
z
" id="C0_0_6968ff5669"/>
    </defs>
    <g clip-path="url(#pb8e5eca4b6)">
     <use style="fill-opacity:0.180392;" x="294.020241" xlink:href="#C0_0_6968ff5669" y="609.879298"/>
    </g>
    <g clip-path="url(#pb8e5eca4b6)">
     <use style="stroke:#000000;" x="294.020241" xlink:href="#C0_0_6968ff5669" y="587.722998"/>
    </g>
    <g clip-path="url(#pb8e5eca4b6)">
     <use style="fill-opacity:0.180392;" x="294.020241" xlink:href="#C0_0_6968ff5669" y="565.566699"/>
    </g>
    <g clip-path="url(#pb8e5eca4b6)">
     <use style="stroke:#000000;" x="294.020241" xlink:href="#C0_0_6968ff5669" y="543.410399"/>
    </g>
    <g clip-path="url(#pb8e5eca4b6)">
     <use style="fill-opacity:0.180392;" x="294.020241" xlink:href="#C0_0_6968ff5669" y="521.254099"/>
    </g>
    <g clip-path="url(#pb8e5eca4b6)">
     <use style="stroke:#000000;" x="294.020241" xlink:href="#C0_0_6968ff5669" y="499.097799"/>
    </g>
    <g clip-path="url(#pb8e5eca4b6)">
     <use style="fill-opacity:0.180392;" x="294.020241" xlink:href="#C0_0_6968ff5669" y="476.941499"/>
    </g>
    <g clip-path="url(#pb8e5eca4b6)">
     <use style="fill-opacity:0.180392;" x="294.020241" xlink:href="#C0_0_6968ff5669" y="454.785199"/>
    </g>
    <g clip-path="url(#pb8e5eca4b6)">
     <use style="fill-opacity:0.180392;" x="294.020241" xlink:href="#C0_0_6968ff5669" y="432.6289"/>
    </g>
    <g clip-path="url(#pb8e5eca4b6)">
     <use style="fill-opacity:0.180392;" x="294.020241" xlink:href="#C0_0_6968ff5669" y="410.4726"/>
    </g>
    <g clip-path="url(#pb8e5eca4b6)">
     <use style="fill-opacity:0.180392;" x="294.020241" xlink:href="#C0_0_6968ff5669" y="388.3163"/>
    </g>
    <g clip-path="url(#pb8e5eca4b6)">
     <use style="fill-opacity:0.180392;" x="294.020241" xlink:href="#C0_0_6968ff5669" y="366.16"/>
    </g>
    <g clip-path="url(#pb8e5eca4b6)">
     <use style="fill-opacity:0.180392;" x="294.020241" xlink:href="#C0_0_6968ff5669" y="344.0037"/>
    </g>
    <g clip-path="url(#pb8e5eca4b6)">
     <use style="fill-opacity:0.180392;" x="294.020241" xlink:href="#C0_0_6968ff5669" y="321.8474"/>
    </g>
    <g clip-path="url(#pb8e5eca4b6)">
     <use style="fill-opacity:0.180392;" x="294.020241" xlink:href="#C0_0_6968ff5669" y="299.6911"/>
    </g>
    <g clip-path="url(#pb8e5eca4b6)">
     <use style="stroke:#000000;" x="294.020241" xlink:href="#C0_0_6968ff5669" y="277.534801"/>
    </g>
    <g clip-path="url(#pb8e5eca4b6)">
     <use style="fill-opacity:0.180392;" x="294.020241" xlink:href="#C0_0_6968ff5669" y="255.378501"/>
    </g>
    <g clip-path="url(#pb8e5eca4b6)">
     <use style="fill-opacity:0.180392;" x="294.020241" xlink:href="#C0_0_6968ff5669" y="233.222201"/>
    </g>
    <g clip-path="url(#pb8e5eca4b6)">
     <use style="fill-opacity:0.180392;" x="294.020241" xlink:href="#C0_0_6968ff5669" y="211.065901"/>
    </g>
    <g clip-path="url(#pb8e5eca4b6)">
     <use style="fill-opacity:0.180392;" x="294.020241" xlink:href="#C0_0_6968ff5669" y="188.909601"/>
    </g>
    <g clip-path="url(#pb8e5eca4b6)">
     <use style="fill-opacity:0.180392;" x="294.020241" xlink:href="#C0_0_6968ff5669" y="166.753301"/>
    </g>
    <g clip-path="url(#pb8e5eca4b6)">
     <use style="stroke:#000000;" x="294.020241" xlink:href="#C0_0_6968ff5669" y="144.597002"/>
    </g>
    <g clip-path="url(#pb8e5eca4b6)">
     <use style="fill-opacity:0.180392;" x="294.020241" xlink:href="#C0_0_6968ff5669" y="122.440702"/>
    </g>
    <g clip-path="url(#pb8e5eca4b6)">
     <use style="fill-opacity:0.180392;" x="318.28241" xlink:href="#C0_0_6968ff5669" y="609.879298"/>
    </g>
    <g clip-path="url(#pb8e5eca4b6)">
     <use style="fill-opacity:0.180392;" x="318.28241" xlink:href="#C0_0_6968ff5669" y="587.722998"/>
    </g>
    <g clip-path="url(#pb8e5eca4b6)">
     <use style="stroke:#000000;" x="318.28241" xlink:href="#C0_0_6968ff5669" y="565.566699"/>
    </g>
    <g clip-path="url(#pb8e5eca4b6)">
     <use style="fill-opacity:0.180392;" x="318.28241" xlink:href="#C0_0_6968ff5669" y="543.410399"/>
    </g>
    <g clip-path="url(#pb8e5eca4b6)">
     <use style="fill-opacity:0.180392;" x="318.28241" xlink:href="#C0_0_6968ff5669" y="521.254099"/>
    </g>
    <g clip-path="url(#pb8e5eca4b6)">
     <use style="fill-opacity:0.180392;" x="318.28241" xlink:href="#C0_0_6968ff5669" y="499.097799"/>
    </g>
    <g clip-path="url(#pb8e5eca4b6)">
     <use style="fill-opacity:0.180392;" x="318.28241" xlink:href="#C0_0_6968ff5669" y="476.941499"/>
    </g>
    <g clip-path="url(#pb8e5eca4b6)">
     <use style="fill-opacity:0.180392;" x="318.28241" xlink:href="#C0_0_6968ff5669" y="454.785199"/>
    </g>
    <g clip-path="url(#pb8e5eca4b6)">
     <use style="stroke:#000000;" x="318.28241" xlink:href="#C0_0_6968ff5669" y="432.6289"/>
    </g>
    <g clip-path="url(#pb8e5eca4b6)">
     <use style="fill-opacity:0.180392;" x="318.28241" xlink:href="#C0_0_6968ff5669" y="410.4726"/>
    </g>
    <g clip-path="url(#pb8e5eca4b6)">
     <use style="fill-opacity:0.180392;" x="318.28241" xlink:href="#C0_0_6968ff5669" y="388.3163"/>
    </g>
    <g clip-path="url(#pb8e5eca4b6)">
     <use style="fill-opacity:0.180392;" x="318.28241" xlink:href="#C0_0_6968ff5669" y="366.16"/>
    </g>
    <g clip-path="url(#pb8e5eca4b6)">
     <use style="fill-opacity:0.180392;" x="318.28241" xlink:href="#C0_0_6968ff5669" y="344.0037"/>
    </g>
    <g clip-path="url(#pb8e5eca4b6)">
     <use style="fill-opacity:0.180392;" x="318.28241" xlink:href="#C0_0_6968ff5669" y="321.8474"/>
    </g>
    <g clip-path="url(#pb8e5eca4b6)">
     <use style="stroke:#000000;" x="318.28241" xlink:href="#C0_0_6968ff5669" y="299.6911"/>
    </g>
    <g clip-path="url(#pb8e5eca4b6)">
     <use style="fill-opacity:0.180392;" x="318.28241" xlink:href="#C0_0_6968ff5669" y="277.534801"/>
    </g>
    <g clip-path="url(#pb8e5eca4b6)">
     <use style="fill-opacity:0.180392;" x="318.28241" xlink:href="#C0_0_6968ff5669" y="255.378501"/>
    </g>
    <g clip-path="url(#pb8e5eca4b6)">
     <use style="fill-opacity:0.180392;" x="318.28241" xlink:href="#C0_0_6968ff5669" y="233.222201"/>
    </g>
    <g clip-path="url(#pb8e5eca4b6)">
     <use style="fill-opacity:0.180392;" x="318.28241" xlink:href="#C0_0_6968ff5669" y="211.065901"/>
    </g>
    <g clip-path="url(#pb8e5eca4b6)">
     <use style="fill-opacity:0.180392;" x="318.28241" xlink:href="#C0_0_6968ff5669" y="188.909601"/>
    </g>
    <g clip-path="url(#pb8e5eca4b6)">
     <use style="stroke:#000000;" x="318.28241" xlink:href="#C0_0_6968ff5669" y="166.753301"/>
    </g>
    <g clip-path="url(#pb8e5eca4b6)">
     <use style="fill-opacity:0.180392;" x="318.28241" xlink:href="#C0_0_6968ff5669" y="144.597002"/>
    </g>
    <g clip-path="url(#pb8e5eca4b6)">
     <use style="stroke:#000000;" x="318.28241" xlink:href="#C0_0_6968ff5669" y="122.440702"/>
    </g>
    <g clip-path="url(#pb8e5eca4b6)">
     <use style="fill:#1b9e77;stroke:#1b9e77;" x="342.544578" xlink:href="#C0_0_6968ff5669" y="609.879298"/>
    </g>
    <g clip-path="url(#pb8e5eca4b6)">
     <use style="fill-opacity:0.180392;" x="342.544578" xlink:href="#C0_0_6968ff5669" y="587.722998"/>
    </g>
    <g clip-path="url(#pb8e5eca4b6)">
     <use style="fill-opacity:0.180392;" x="342.544578" xlink:href="#C0_0_6968ff5669" y="565.566699"/>
    </g>
    <g clip-path="url(#pb8e5eca4b6)">
     <use style="fill-opacity:0.180392;" x="342.544578" xlink:href="#C0_0_6968ff5669" y="543.410399"/>
    </g>
    <g clip-path="url(#pb8e5eca4b6)">
     <use style="fill:#1b9e77;stroke:#1b9e77;" x="342.544578" xlink:href="#C0_0_6968ff5669" y="521.254099"/>
    </g>
    <g clip-path="url(#pb8e5eca4b6)">
     <use style="fill-opacity:0.180392;" x="342.544578" xlink:href="#C0_0_6968ff5669" y="499.097799"/>
    </g>
    <g clip-path="url(#pb8e5eca4b6)">
     <use style="fill-opacity:0.180392;" x="342.544578" xlink:href="#C0_0_6968ff5669" y="476.941499"/>
    </g>
    <g clip-path="url(#pb8e5eca4b6)">
     <use style="fill:#1b9e77;stroke:#1b9e77;" x="342.544578" xlink:href="#C0_0_6968ff5669" y="454.785199"/>
    </g>
    <g clip-path="url(#pb8e5eca4b6)">
     <use style="fill-opacity:0.180392;" x="342.544578" xlink:href="#C0_0_6968ff5669" y="432.6289"/>
    </g>
    <g clip-path="url(#pb8e5eca4b6)">
     <use style="fill-opacity:0.180392;" x="342.544578" xlink:href="#C0_0_6968ff5669" y="410.4726"/>
    </g>
    <g clip-path="url(#pb8e5eca4b6)">
     <use style="fill-opacity:0.180392;" x="342.544578" xlink:href="#C0_0_6968ff5669" y="388.3163"/>
    </g>
    <g clip-path="url(#pb8e5eca4b6)">
     <use style="fill:#1b9e77;stroke:#1b9e77;" x="342.544578" xlink:href="#C0_0_6968ff5669" y="366.16"/>
    </g>
    <g clip-path="url(#pb8e5eca4b6)">
     <use style="fill-opacity:0.180392;" x="342.544578" xlink:href="#C0_0_6968ff5669" y="344.0037"/>
    </g>
    <g clip-path="url(#pb8e5eca4b6)">
     <use style="fill-opacity:0.180392;" x="342.544578" xlink:href="#C0_0_6968ff5669" y="321.8474"/>
    </g>
    <g clip-path="url(#pb8e5eca4b6)">
     <use style="fill-opacity:0.180392;" x="342.544578" xlink:href="#C0_0_6968ff5669" y="299.6911"/>
    </g>
    <g clip-path="url(#pb8e5eca4b6)">
     <use style="fill-opacity:0.180392;" x="342.544578" xlink:href="#C0_0_6968ff5669" y="277.534801"/>
    </g>
    <g clip-path="url(#pb8e5eca4b6)">
     <use style="fill-opacity:0.180392;" x="342.544578" xlink:href="#C0_0_6968ff5669" y="255.378501"/>
    </g>
    <g clip-path="url(#pb8e5eca4b6)">
     <use style="fill:#1b9e77;stroke:#1b9e77;" x="342.544578" xlink:href="#C0_0_6968ff5669" y="233.222201"/>
    </g>
    <g clip-path="url(#pb8e5eca4b6)">
     <use style="fill-opacity:0.180392;" x="342.544578" xlink:href="#C0_0_6968ff5669" y="211.065901"/>
    </g>
    <g clip-path="url(#pb8e5eca4b6)">
     <use style="fill-opacity:0.180392;" x="342.544578" xlink:href="#C0_0_6968ff5669" y="188.909601"/>
    </g>
    <g clip-path="url(#pb8e5eca4b6)">
     <use style="fill-opacity:0.180392;" x="342.544578" xlink:href="#C0_0_6968ff5669" y="166.753301"/>
    </g>
    <g clip-path="url(#pb8e5eca4b6)">
     <use style="fill-opacity:0.180392;" x="342.544578" xlink:href="#C0_0_6968ff5669" y="144.597002"/>
    </g>
    <g clip-path="url(#pb8e5eca4b6)">
     <use style="fill-opacity:0.180392;" x="342.544578" xlink:href="#C0_0_6968ff5669" y="122.440702"/>
    </g>
    <g clip-path="url(#pb8e5eca4b6)">
     <use style="fill:#7570b3;stroke:#7570b3;" x="366.806747" xlink:href="#C0_0_6968ff5669" y="609.879298"/>
    </g>
    <g clip-path="url(#pb8e5eca4b6)">
     <use style="fill-opacity:0.180392;" x="366.806747" xlink:href="#C0_0_6968ff5669" y="587.722998"/>
    </g>
    <g clip-path="url(#pb8e5eca4b6)">
     <use style="fill-opacity:0.180392;" x="366.806747" xlink:href="#C0_0_6968ff5669" y="565.566699"/>
    </g>
    <g clip-path="url(#pb8e5eca4b6)">
     <use style="fill-opacity:0.180392;" x="366.806747" xlink:href="#C0_0_6968ff5669" y="543.410399"/>
    </g>
    <g clip-path="url(#pb8e5eca4b6)">
     <use style="fill-opacity:0.180392;" x="366.806747" xlink:href="#C0_0_6968ff5669" y="521.254099"/>
    </g>
    <g clip-path="url(#pb8e5eca4b6)">
     <use style="fill-opacity:0.180392;" x="366.806747" xlink:href="#C0_0_6968ff5669" y="499.097799"/>
    </g>
    <g clip-path="url(#pb8e5eca4b6)">
     <use style="fill-opacity:0.180392;" x="366.806747" xlink:href="#C0_0_6968ff5669" y="476.941499"/>
    </g>
    <g clip-path="url(#pb8e5eca4b6)">
     <use style="fill-opacity:0.180392;" x="366.806747" xlink:href="#C0_0_6968ff5669" y="454.785199"/>
    </g>
    <g clip-path="url(#pb8e5eca4b6)">
     <use style="fill-opacity:0.180392;" x="366.806747" xlink:href="#C0_0_6968ff5669" y="432.6289"/>
    </g>
    <g clip-path="url(#pb8e5eca4b6)">
     <use style="fill:#7570b3;stroke:#7570b3;" x="366.806747" xlink:href="#C0_0_6968ff5669" y="410.4726"/>
    </g>
    <g clip-path="url(#pb8e5eca4b6)">
     <use style="fill-opacity:0.180392;" x="366.806747" xlink:href="#C0_0_6968ff5669" y="388.3163"/>
    </g>
    <g clip-path="url(#pb8e5eca4b6)">
     <use style="fill-opacity:0.180392;" x="366.806747" xlink:href="#C0_0_6968ff5669" y="366.16"/>
    </g>
    <g clip-path="url(#pb8e5eca4b6)">
     <use style="fill-opacity:0.180392;" x="366.806747" xlink:href="#C0_0_6968ff5669" y="344.0037"/>
    </g>
    <g clip-path="url(#pb8e5eca4b6)">
     <use style="fill:#7570b3;stroke:#7570b3;" x="366.806747" xlink:href="#C0_0_6968ff5669" y="321.8474"/>
    </g>
    <g clip-path="url(#pb8e5eca4b6)">
     <use style="fill-opacity:0.180392;" x="366.806747" xlink:href="#C0_0_6968ff5669" y="299.6911"/>
    </g>
    <g clip-path="url(#pb8e5eca4b6)">
     <use style="fill-opacity:0.180392;" x="366.806747" xlink:href="#C0_0_6968ff5669" y="277.534801"/>
    </g>
    <g clip-path="url(#pb8e5eca4b6)">
     <use style="fill:#7570b3;stroke:#7570b3;" x="366.806747" xlink:href="#C0_0_6968ff5669" y="255.378501"/>
    </g>
    <g clip-path="url(#pb8e5eca4b6)">
     <use style="fill-opacity:0.180392;" x="366.806747" xlink:href="#C0_0_6968ff5669" y="233.222201"/>
    </g>
    <g clip-path="url(#pb8e5eca4b6)">
     <use style="fill-opacity:0.180392;" x="366.806747" xlink:href="#C0_0_6968ff5669" y="211.065901"/>
    </g>
    <g clip-path="url(#pb8e5eca4b6)">
     <use style="fill:#7570b3;stroke:#7570b3;" x="366.806747" xlink:href="#C0_0_6968ff5669" y="188.909601"/>
    </g>
    <g clip-path="url(#pb8e5eca4b6)">
     <use style="fill-opacity:0.180392;" x="366.806747" xlink:href="#C0_0_6968ff5669" y="166.753301"/>
    </g>
    <g clip-path="url(#pb8e5eca4b6)">
     <use style="fill-opacity:0.180392;" x="366.806747" xlink:href="#C0_0_6968ff5669" y="144.597002"/>
    </g>
    <g clip-path="url(#pb8e5eca4b6)">
     <use style="fill-opacity:0.180392;" x="366.806747" xlink:href="#C0_0_6968ff5669" y="122.440702"/>
    </g>
    <g clip-path="url(#pb8e5eca4b6)">
     <use style="stroke:#000000;" x="391.068916" xlink:href="#C0_0_6968ff5669" y="609.879298"/>
    </g>
    <g clip-path="url(#pb8e5eca4b6)">
     <use style="fill-opacity:0.180392;" x="391.068916" xlink:href="#C0_0_6968ff5669" y="587.722998"/>
    </g>
    <g clip-path="url(#pb8e5eca4b6)">
     <use style="fill-opacity:0.180392;" x="391.068916" xlink:href="#C0_0_6968ff5669" y="565.566699"/>
    </g>
    <g clip-path="url(#pb8e5eca4b6)">
     <use style="fill-opacity:0.180392;" x="391.068916" xlink:href="#C0_0_6968ff5669" y="543.410399"/>
    </g>
    <g clip-path="url(#pb8e5eca4b6)">
     <use style="fill-opacity:0.180392;" x="391.068916" xlink:href="#C0_0_6968ff5669" y="521.254099"/>
    </g>
    <g clip-path="url(#pb8e5eca4b6)">
     <use style="fill-opacity:0.180392;" x="391.068916" xlink:href="#C0_0_6968ff5669" y="499.097799"/>
    </g>
    <g clip-path="url(#pb8e5eca4b6)">
     <use style="stroke:#000000;" x="391.068916" xlink:href="#C0_0_6968ff5669" y="476.941499"/>
    </g>
    <g clip-path="url(#pb8e5eca4b6)">
     <use style="fill-opacity:0.180392;" x="391.068916" xlink:href="#C0_0_6968ff5669" y="454.785199"/>
    </g>
    <g clip-path="url(#pb8e5eca4b6)">
     <use style="fill-opacity:0.180392;" x="391.068916" xlink:href="#C0_0_6968ff5669" y="432.6289"/>
    </g>
    <g clip-path="url(#pb8e5eca4b6)">
     <use style="fill-opacity:0.180392;" x="391.068916" xlink:href="#C0_0_6968ff5669" y="410.4726"/>
    </g>
    <g clip-path="url(#pb8e5eca4b6)">
     <use style="stroke:#000000;" x="391.068916" xlink:href="#C0_0_6968ff5669" y="388.3163"/>
    </g>
    <g clip-path="url(#pb8e5eca4b6)">
     <use style="fill-opacity:0.180392;" x="391.068916" xlink:href="#C0_0_6968ff5669" y="366.16"/>
    </g>
    <g clip-path="url(#pb8e5eca4b6)">
     <use style="stroke:#000000;" x="391.068916" xlink:href="#C0_0_6968ff5669" y="344.0037"/>
    </g>
    <g clip-path="url(#pb8e5eca4b6)">
     <use style="fill-opacity:0.180392;" x="391.068916" xlink:href="#C0_0_6968ff5669" y="321.8474"/>
    </g>
    <g clip-path="url(#pb8e5eca4b6)">
     <use style="fill-opacity:0.180392;" x="391.068916" xlink:href="#C0_0_6968ff5669" y="299.6911"/>
    </g>
    <g clip-path="url(#pb8e5eca4b6)">
     <use style="fill-opacity:0.180392;" x="391.068916" xlink:href="#C0_0_6968ff5669" y="277.534801"/>
    </g>
    <g clip-path="url(#pb8e5eca4b6)">
     <use style="fill-opacity:0.180392;" x="391.068916" xlink:href="#C0_0_6968ff5669" y="255.378501"/>
    </g>
    <g clip-path="url(#pb8e5eca4b6)">
     <use style="fill-opacity:0.180392;" x="391.068916" xlink:href="#C0_0_6968ff5669" y="233.222201"/>
    </g>
    <g clip-path="url(#pb8e5eca4b6)">
     <use style="stroke:#000000;" x="391.068916" xlink:href="#C0_0_6968ff5669" y="211.065901"/>
    </g>
    <g clip-path="url(#pb8e5eca4b6)">
     <use style="fill-opacity:0.180392;" x="391.068916" xlink:href="#C0_0_6968ff5669" y="188.909601"/>
    </g>
    <g clip-path="url(#pb8e5eca4b6)">
     <use style="fill-opacity:0.180392;" x="391.068916" xlink:href="#C0_0_6968ff5669" y="166.753301"/>
    </g>
    <g clip-path="url(#pb8e5eca4b6)">
     <use style="fill-opacity:0.180392;" x="391.068916" xlink:href="#C0_0_6968ff5669" y="144.597002"/>
    </g>
    <g clip-path="url(#pb8e5eca4b6)">
     <use style="fill-opacity:0.180392;" x="391.068916" xlink:href="#C0_0_6968ff5669" y="122.440702"/>
    </g>
   </g>
  </g>
  <g id="axes_3">
   <g id="patch_14">
    <path clip-path="url(#p996d2db36b)" d="M 102.014458 615.418373
L 56 615.418373
L 56 604.340223
L 102.014458 604.340223
z
"/>
   </g>
   <g id="patch_15">
    <path clip-path="url(#p996d2db36b)" d="M 102.014458 593.262073
L 86.676305 593.262073
L 86.676305 582.183923
L 102.014458 582.183923
z
"/>
   </g>
   <g id="patch_16">
    <path clip-path="url(#p996d2db36b)" d="M 102.014458 571.105774
L 86.676305 571.105774
L 86.676305 560.027624
L 102.014458 560.027624
z
"/>
   </g>
   <g id="patch_17">
    <path clip-path="url(#p996d2db36b)" d="M 102.014458 548.949474
L 86.676305 548.949474
L 86.676305 537.871324
L 102.014458 537.871324
z
"/>
   </g>
   <g id="patch_18">
    <path clip-path="url(#p996d2db36b)" d="M 102.014458 526.793174
L 86.676305 526.793174
L 86.676305 515.715024
L 102.014458 515.715024
z
"/>
   </g>
   <g id="patch_19">
    <path clip-path="url(#p996d2db36b)" d="M 102.014458 504.636874
L 86.676305 504.636874
L 86.676305 493.558724
L 102.014458 493.558724
z
"/>
   </g>
   <g id="patch_20">
    <path clip-path="url(#p996d2db36b)" d="M 102.014458 482.480574
L 86.676305 482.480574
L 86.676305 471.402424
L 102.014458 471.402424
z
"/>
   </g>
   <g id="patch_21">
    <path clip-path="url(#p996d2db36b)" d="M 102.014458 460.324274
L 86.676305 460.324274
L 86.676305 449.246124
L 102.014458 449.246124
z
"/>
   </g>
   <g id="patch_22">
    <path clip-path="url(#p996d2db36b)" d="M 102.014458 438.167974
L 86.676305 438.167974
L 86.676305 427.089825
L 102.014458 427.089825
z
"/>
   </g>
   <g id="patch_23">
    <path clip-path="url(#p996d2db36b)" d="M 102.014458 416.011675
L 86.676305 416.011675
L 86.676305 404.933525
L 102.014458 404.933525
z
"/>
   </g>
   <g id="patch_24">
    <path clip-path="url(#p996d2db36b)" d="M 102.014458 393.855375
L 86.676305 393.855375
L 86.676305 382.777225
L 102.014458 382.777225
z
"/>
   </g>
   <g id="patch_25">
    <path clip-path="url(#p996d2db36b)" d="M 102.014458 371.699075
L 86.676305 371.699075
L 86.676305 360.620925
L 102.014458 360.620925
z
"/>
   </g>
   <g id="patch_26">
    <path clip-path="url(#p996d2db36b)" d="M 102.014458 349.542775
L 86.676305 349.542775
L 86.676305 338.464625
L 102.014458 338.464625
z
"/>
   </g>
   <g id="patch_27">
    <path clip-path="url(#p996d2db36b)" d="M 102.014458 327.386475
L 86.676305 327.386475
L 86.676305 316.308325
L 102.014458 316.308325
z
"/>
   </g>
   <g id="patch_28">
    <path clip-path="url(#p996d2db36b)" d="M 102.014458 305.230175
L 86.676305 305.230175
L 86.676305 294.152026
L 102.014458 294.152026
z
"/>
   </g>
   <g id="patch_29">
    <path clip-path="url(#p996d2db36b)" d="M 102.014458 283.073876
L 86.676305 283.073876
L 86.676305 271.995726
L 102.014458 271.995726
z
"/>
   </g>
   <g id="patch_30">
    <path clip-path="url(#p996d2db36b)" d="M 102.014458 260.917576
L 86.676305 260.917576
L 86.676305 249.839426
L 102.014458 249.839426
z
"/>
   </g>
   <g id="patch_31">
    <path clip-path="url(#p996d2db36b)" d="M 102.014458 238.761276
L 86.676305 238.761276
L 86.676305 227.683126
L 102.014458 227.683126
z
"/>
   </g>
   <g id="patch_32">
    <path clip-path="url(#p996d2db36b)" d="M 102.014458 216.604976
L 86.676305 216.604976
L 86.676305 205.526826
L 102.014458 205.526826
z
"/>
   </g>
   <g id="patch_33">
    <path clip-path="url(#p996d2db36b)" d="M 102.014458 194.448676
L 86.676305 194.448676
L 86.676305 183.370526
L 102.014458 183.370526
z
"/>
   </g>
   <g id="patch_34">
    <path clip-path="url(#p996d2db36b)" d="M 102.014458 172.292376
L 86.676305 172.292376
L 86.676305 161.214226
L 102.014458 161.214226
z
"/>
   </g>
   <g id="patch_35">
    <path clip-path="url(#p996d2db36b)" d="M 102.014458 150.136077
L 86.676305 150.136077
L 86.676305 139.057927
L 102.014458 139.057927
z
"/>
   </g>
   <g id="patch_36">
    <path clip-path="url(#p996d2db36b)" d="M 102.014458 127.979777
L 86.676305 127.979777
L 86.676305 116.901627
L 102.014458 116.901627
z
"/>
   </g>
   <g id="matplotlib.axis_4">
    <g id="xtick_1">
     <g id="line2d_24">
      <path clip-path="url(#p996d2db36b)" d="M 102.014458 644
L 102.014458 88.32
" style="fill:none;stroke:#b0b0b0;stroke-linecap:square;stroke-width:0.8;"/>
     </g>
     <g id="line2d_25">
      <defs>
       <path d="M 0 0
L 0 3.5
" id="m480d0864bc" style="stroke:#000000;stroke-width:0.8;"/>
      </defs>
      <g>
       <use style="stroke:#000000;stroke-width:0.8;" x="102.014458" xlink:href="#m480d0864bc" y="644"/>
      </g>
     </g>
     <g id="text_25">
      <!-- 0.0 -->
      <g transform="translate(94.062895 658.598438)scale(0.1 -0.1)">
       <use xlink:href="#DejaVuSans-48"/>
       <use x="63.623047" xlink:href="#DejaVuSans-46"/>
       <use x="95.410156" xlink:href="#DejaVuSans-48"/>
      </g>
     </g>
    </g>
    <g id="xtick_2">
     <g id="line2d_26">
      <path clip-path="url(#p996d2db36b)" d="M 63.669076 644
L 63.669076 88.32
" style="fill:none;stroke:#b0b0b0;stroke-linecap:square;stroke-width:0.8;"/>
     </g>
     <g id="line2d_27">
      <g>
       <use style="stroke:#000000;stroke-width:0.8;" x="63.669076" xlink:href="#m480d0864bc" y="644"/>
      </g>
     </g>
     <g id="text_26">
      <!-- 2.5 -->
      <g transform="translate(55.717514 658.598438)scale(0.1 -0.1)">
       <use xlink:href="#DejaVuSans-50"/>
       <use x="63.623047" xlink:href="#DejaVuSans-46"/>
       <use x="95.410156" xlink:href="#DejaVuSans-53"/>
      </g>
     </g>
    </g>
   </g>
   <g id="patch_37">
    <path d="M 56 644
L 102.014458 644
" style="fill:none;stroke:#000000;stroke-linecap:square;stroke-linejoin:miter;stroke-width:0.8;"/>
   </g>
  </g>
 </g>
 <defs>
  <clipPath id="p785ed67c2c">
   <rect height="555.68" width="347.2" x="56" y="88.32"/>
  </clipPath>
  <clipPath id="pb8e5eca4b6">
   <rect height="555.68" width="121.310843" x="281.889157" y="88.32"/>
  </clipPath>
  <clipPath id="p996d2db36b">
   <rect height="555.68" width="46.014458" x="56" y="88.32"/>
  </clipPath>
 </defs>
</svg>
