<?xml version="1.0" encoding="utf-8" standalone="no"?>
<!DOCTYPE svg PUBLIC "-//W3C//DTD SVG 1.1//EN"
  "http://www.w3.org/Graphics/SVG/1.1/DTD/svg11.dtd">
<!-- Created with matplotlib (https://matplotlib.org/) -->
<svg height="334.086507pt" version="1.1" viewBox="0 0 608.731406 334.086507" width="608.731406pt" xmlns="http://www.w3.org/2000/svg" xmlns:xlink="http://www.w3.org/1999/xlink">
 <metadata>
  <rdf:RDF xmlns:cc="http://creativecommons.org/ns#" xmlns:dc="http://purl.org/dc/elements/1.1/" xmlns:rdf="http://www.w3.org/1999/02/22-rdf-syntax-ns#">
   <cc:Work>
    <dc:type rdf:resource="http://purl.org/dc/dcmitype/StillImage"/>
    <dc:date>2022-05-19T15:29:25.966319</dc:date>
    <dc:format>image/svg+xml</dc:format>
    <dc:creator>
     <cc:Agent>
      <dc:title>Matplotlib v3.3.3, https://matplotlib.org/</dc:title>
     </cc:Agent>
    </dc:creator>
   </cc:Work>
  </rdf:RDF>
 </metadata>
 <defs>
  <style type="text/css">*{stroke-linecap:butt;stroke-linejoin:round;}</style>
 </defs>
 <g id="figure_1">
  <g id="patch_1">
   <path d="M 0 334.086507
L 608.731406 334.086507
L 608.731406 0
L 0 0
z
" style="fill:#ffffff;"/>
  </g>
  <g id="axes_1">
   <g id="patch_2">
    <path d="M 84.173281 292.452288
L 441.293281 292.452288
L 441.293281 26.340288
L 84.173281 26.340288
z
" style="fill:#ffffff;"/>
   </g>
   <g id="matplotlib.axis_1">
    <g id="xtick_1">
     <g id="line2d_1">
      <defs>
       <path d="M 0 0
L 0 6
" id="mb8ca3e0e42" style="stroke:#262626;stroke-width:1.25;"/>
      </defs>
      <g>
       <use style="fill:#262626;stroke:#262626;stroke-width:1.25;" x="100.406009" xlink:href="#mb8ca3e0e42" y="292.452288"/>
      </g>
     </g>
     <g id="text_1">
      <!-- 0 -->
      <g style="fill:#262626;" transform="translate(97.347493 308.725882)scale(0.11 -0.11)">
       <defs>
        <path d="M 4.15625 35.296875
Q 4.15625 48 6.765625 55.734375
Q 9.375 63.484375 14.515625 67.671875
Q 19.671875 71.875 27.484375 71.875
Q 33.25 71.875 37.59375 69.546875
Q 41.9375 67.234375 44.765625 62.859375
Q 47.609375 58.5 49.21875 52.21875
Q 50.828125 45.953125 50.828125 35.296875
Q 50.828125 22.703125 48.234375 14.96875
Q 45.65625 7.234375 40.5 3
Q 35.359375 -1.21875 27.484375 -1.21875
Q 17.140625 -1.21875 11.234375 6.203125
Q 4.15625 15.140625 4.15625 35.296875
z
M 13.1875 35.296875
Q 13.1875 17.671875 17.3125 11.828125
Q 21.4375 6 27.484375 6
Q 33.546875 6 37.671875 11.859375
Q 41.796875 17.71875 41.796875 35.296875
Q 41.796875 52.984375 37.671875 58.78125
Q 33.546875 64.59375 27.390625 64.59375
Q 21.34375 64.59375 17.71875 59.46875
Q 13.1875 52.9375 13.1875 35.296875
z
" id="ArialMT-48"/>
       </defs>
       <use xlink:href="#ArialMT-48"/>
      </g>
     </g>
    </g>
    <g id="xtick_2">
     <g id="line2d_2">
      <g>
       <use style="fill:#262626;stroke:#262626;stroke-width:1.25;" x="169.079796" xlink:href="#mb8ca3e0e42" y="292.452288"/>
      </g>
     </g>
     <g id="text_2">
      <!-- 1 -->
      <g style="fill:#262626;" transform="translate(166.021281 308.725882)scale(0.11 -0.11)">
       <defs>
        <path d="M 37.25 0
L 28.46875 0
L 28.46875 56
Q 25.296875 52.984375 20.140625 49.953125
Q 14.984375 46.921875 10.890625 45.40625
L 10.890625 53.90625
Q 18.265625 57.375 23.78125 62.296875
Q 29.296875 67.234375 31.59375 71.875
L 37.25 71.875
z
" id="ArialMT-49"/>
       </defs>
       <use xlink:href="#ArialMT-49"/>
      </g>
     </g>
    </g>
    <g id="xtick_3">
     <g id="line2d_3">
      <g>
       <use style="fill:#262626;stroke:#262626;stroke-width:1.25;" x="237.753584" xlink:href="#mb8ca3e0e42" y="292.452288"/>
      </g>
     </g>
     <g id="text_3">
      <!-- 2 -->
      <g style="fill:#262626;" transform="translate(234.695069 308.725882)scale(0.11 -0.11)">
       <defs>
        <path d="M 50.34375 8.453125
L 50.34375 0
L 3.03125 0
Q 2.9375 3.171875 4.046875 6.109375
Q 5.859375 10.9375 9.828125 15.625
Q 13.8125 20.3125 21.34375 26.46875
Q 33.015625 36.03125 37.109375 41.625
Q 41.21875 47.21875 41.21875 52.203125
Q 41.21875 57.421875 37.46875 61
Q 33.734375 64.59375 27.734375 64.59375
Q 21.390625 64.59375 17.578125 60.78125
Q 13.765625 56.984375 13.71875 50.25
L 4.6875 51.171875
Q 5.609375 61.28125 11.65625 66.578125
Q 17.71875 71.875 27.9375 71.875
Q 38.234375 71.875 44.234375 66.15625
Q 50.25 60.453125 50.25 52
Q 50.25 47.703125 48.484375 43.546875
Q 46.734375 39.40625 42.65625 34.8125
Q 38.578125 30.21875 29.109375 22.21875
Q 21.1875 15.578125 18.9375 13.203125
Q 16.703125 10.84375 15.234375 8.453125
z
" id="ArialMT-50"/>
       </defs>
       <use xlink:href="#ArialMT-50"/>
      </g>
     </g>
    </g>
    <g id="xtick_4">
     <g id="line2d_4">
      <g>
       <use style="fill:#262626;stroke:#262626;stroke-width:1.25;" x="306.427372" xlink:href="#mb8ca3e0e42" y="292.452288"/>
      </g>
     </g>
     <g id="text_4">
      <!-- 3 -->
      <g style="fill:#262626;" transform="translate(303.368856 308.725882)scale(0.11 -0.11)">
       <defs>
        <path d="M 4.203125 18.890625
L 12.984375 20.0625
Q 14.5 12.59375 18.140625 9.296875
Q 21.78125 6 27 6
Q 33.203125 6 37.46875 10.296875
Q 41.75 14.59375 41.75 20.953125
Q 41.75 27 37.796875 30.921875
Q 33.84375 34.859375 27.734375 34.859375
Q 25.25 34.859375 21.53125 33.890625
L 22.515625 41.609375
Q 23.390625 41.5 23.921875 41.5
Q 29.546875 41.5 34.03125 44.421875
Q 38.53125 47.359375 38.53125 53.46875
Q 38.53125 58.296875 35.25 61.46875
Q 31.984375 64.65625 26.8125 64.65625
Q 21.6875 64.65625 18.265625 61.421875
Q 14.84375 58.203125 13.875 51.765625
L 5.078125 53.328125
Q 6.6875 62.15625 12.390625 67.015625
Q 18.109375 71.875 26.609375 71.875
Q 32.46875 71.875 37.390625 69.359375
Q 42.328125 66.84375 44.9375 62.5
Q 47.5625 58.15625 47.5625 53.265625
Q 47.5625 48.640625 45.0625 44.828125
Q 42.578125 41.015625 37.703125 38.765625
Q 44.046875 37.3125 47.5625 32.6875
Q 51.078125 28.078125 51.078125 21.140625
Q 51.078125 11.765625 44.234375 5.25
Q 37.40625 -1.265625 26.953125 -1.265625
Q 17.53125 -1.265625 11.296875 4.34375
Q 5.078125 9.96875 4.203125 18.890625
z
" id="ArialMT-51"/>
       </defs>
       <use xlink:href="#ArialMT-51"/>
      </g>
     </g>
    </g>
    <g id="xtick_5">
     <g id="line2d_5">
      <g>
       <use style="fill:#262626;stroke:#262626;stroke-width:1.25;" x="375.10116" xlink:href="#mb8ca3e0e42" y="292.452288"/>
      </g>
     </g>
     <g id="text_5">
      <!-- 4 -->
      <g style="fill:#262626;" transform="translate(372.042644 308.725882)scale(0.11 -0.11)">
       <defs>
        <path d="M 32.328125 0
L 32.328125 17.140625
L 1.265625 17.140625
L 1.265625 25.203125
L 33.9375 71.578125
L 41.109375 71.578125
L 41.109375 25.203125
L 50.78125 25.203125
L 50.78125 17.140625
L 41.109375 17.140625
L 41.109375 0
z
M 32.328125 25.203125
L 32.328125 57.46875
L 9.90625 25.203125
z
" id="ArialMT-52"/>
       </defs>
       <use xlink:href="#ArialMT-52"/>
      </g>
     </g>
    </g>
    <g id="xtick_6">
     <g id="line2d_6">
      <defs>
       <path d="M 0 0
L 0 4
" id="me54a424f19" style="stroke:#262626;"/>
      </defs>
      <g>
       <use style="fill:#262626;stroke:#262626;" x="134.742902" xlink:href="#me54a424f19" y="292.452288"/>
      </g>
     </g>
    </g>
    <g id="xtick_7">
     <g id="line2d_7">
      <g>
       <use style="fill:#262626;stroke:#262626;" x="203.41669" xlink:href="#me54a424f19" y="292.452288"/>
      </g>
     </g>
    </g>
    <g id="xtick_8">
     <g id="line2d_8">
      <g>
       <use style="fill:#262626;stroke:#262626;" x="272.090478" xlink:href="#me54a424f19" y="292.452288"/>
      </g>
     </g>
    </g>
    <g id="xtick_9">
     <g id="line2d_9">
      <g>
       <use style="fill:#262626;stroke:#262626;" x="340.764266" xlink:href="#me54a424f19" y="292.452288"/>
      </g>
     </g>
    </g>
    <g id="xtick_10">
     <g id="line2d_10">
      <g>
       <use style="fill:#262626;stroke:#262626;" x="409.438054" xlink:href="#me54a424f19" y="292.452288"/>
      </g>
     </g>
    </g>
    <g id="text_6">
     <!-- Percent Difference -->
     <g style="fill:#262626;" transform="translate(207.390781 324.501507)scale(0.12 -0.12)">
      <defs>
       <path d="M 7.71875 0
L 7.71875 71.578125
L 34.71875 71.578125
Q 41.84375 71.578125 45.609375 70.90625
Q 50.875 70.015625 54.4375 67.546875
Q 58.015625 65.09375 60.1875 60.640625
Q 62.359375 56.203125 62.359375 50.875
Q 62.359375 41.75 56.546875 35.421875
Q 50.734375 29.109375 35.546875 29.109375
L 17.1875 29.109375
L 17.1875 0
z
M 17.1875 37.546875
L 35.6875 37.546875
Q 44.875 37.546875 48.734375 40.96875
Q 52.59375 44.390625 52.59375 50.59375
Q 52.59375 55.078125 50.3125 58.265625
Q 48.046875 61.46875 44.34375 62.5
Q 41.9375 63.140625 35.5 63.140625
L 17.1875 63.140625
z
" id="ArialMT-80"/>
       <path d="M 42.09375 16.703125
L 51.171875 15.578125
Q 49.03125 7.625 43.21875 3.21875
Q 37.40625 -1.171875 28.375 -1.171875
Q 17 -1.171875 10.328125 5.828125
Q 3.65625 12.84375 3.65625 25.484375
Q 3.65625 38.578125 10.390625 45.796875
Q 17.140625 53.03125 27.875 53.03125
Q 38.28125 53.03125 44.875 45.953125
Q 51.46875 38.875 51.46875 26.03125
Q 51.46875 25.25 51.421875 23.6875
L 12.75 23.6875
Q 13.234375 15.140625 17.578125 10.59375
Q 21.921875 6.0625 28.421875 6.0625
Q 33.25 6.0625 36.671875 8.59375
Q 40.09375 11.140625 42.09375 16.703125
z
M 13.234375 30.90625
L 42.1875 30.90625
Q 41.609375 37.453125 38.875 40.71875
Q 34.671875 45.796875 27.984375 45.796875
Q 21.921875 45.796875 17.796875 41.75
Q 13.671875 37.703125 13.234375 30.90625
z
" id="ArialMT-101"/>
       <path d="M 6.5 0
L 6.5 51.859375
L 14.40625 51.859375
L 14.40625 44
Q 17.4375 49.515625 20 51.265625
Q 22.5625 53.03125 25.640625 53.03125
Q 30.078125 53.03125 34.671875 50.203125
L 31.640625 42.046875
Q 28.421875 43.953125 25.203125 43.953125
Q 22.3125 43.953125 20.015625 42.21875
Q 17.71875 40.484375 16.75 37.40625
Q 15.28125 32.71875 15.28125 27.15625
L 15.28125 0
z
" id="ArialMT-114"/>
       <path d="M 40.4375 19
L 49.078125 17.875
Q 47.65625 8.9375 41.8125 3.875
Q 35.984375 -1.171875 27.484375 -1.171875
Q 16.84375 -1.171875 10.375 5.78125
Q 3.90625 12.75 3.90625 25.734375
Q 3.90625 34.125 6.6875 40.421875
Q 9.46875 46.734375 15.15625 49.875
Q 20.84375 53.03125 27.546875 53.03125
Q 35.984375 53.03125 41.359375 48.75
Q 46.734375 44.484375 48.25 36.625
L 39.703125 35.296875
Q 38.484375 40.53125 35.375 43.15625
Q 32.28125 45.796875 27.875 45.796875
Q 21.234375 45.796875 17.078125 41.03125
Q 12.9375 36.28125 12.9375 25.984375
Q 12.9375 15.53125 16.9375 10.796875
Q 20.953125 6.0625 27.390625 6.0625
Q 32.5625 6.0625 36.03125 9.234375
Q 39.5 12.40625 40.4375 19
z
" id="ArialMT-99"/>
       <path d="M 6.59375 0
L 6.59375 51.859375
L 14.5 51.859375
L 14.5 44.484375
Q 20.21875 53.03125 31 53.03125
Q 35.6875 53.03125 39.625 51.34375
Q 43.5625 49.65625 45.515625 46.921875
Q 47.46875 44.1875 48.25 40.4375
Q 48.734375 37.984375 48.734375 31.890625
L 48.734375 0
L 39.9375 0
L 39.9375 31.546875
Q 39.9375 36.921875 38.90625 39.578125
Q 37.890625 42.234375 35.28125 43.8125
Q 32.671875 45.40625 29.15625 45.40625
Q 23.53125 45.40625 19.453125 41.84375
Q 15.375 38.28125 15.375 28.328125
L 15.375 0
z
" id="ArialMT-110"/>
       <path d="M 25.78125 7.859375
L 27.046875 0.09375
Q 23.34375 -0.6875 20.40625 -0.6875
Q 15.625 -0.6875 12.984375 0.828125
Q 10.359375 2.34375 9.28125 4.8125
Q 8.203125 7.28125 8.203125 15.1875
L 8.203125 45.015625
L 1.765625 45.015625
L 1.765625 51.859375
L 8.203125 51.859375
L 8.203125 64.703125
L 16.9375 69.96875
L 16.9375 51.859375
L 25.78125 51.859375
L 25.78125 45.015625
L 16.9375 45.015625
L 16.9375 14.703125
Q 16.9375 10.9375 17.40625 9.859375
Q 17.875 8.796875 18.921875 8.15625
Q 19.96875 7.515625 21.921875 7.515625
Q 23.390625 7.515625 25.78125 7.859375
z
" id="ArialMT-116"/>
       <path id="ArialMT-32"/>
       <path d="M 7.71875 0
L 7.71875 71.578125
L 32.375 71.578125
Q 40.71875 71.578125 45.125 70.5625
Q 51.265625 69.140625 55.609375 65.4375
Q 61.28125 60.640625 64.078125 53.1875
Q 66.890625 45.75 66.890625 36.1875
Q 66.890625 28.03125 64.984375 21.734375
Q 63.09375 15.4375 60.109375 11.296875
Q 57.125 7.171875 53.578125 4.796875
Q 50.046875 2.4375 45.046875 1.21875
Q 40.046875 0 33.546875 0
z
M 17.1875 8.453125
L 32.46875 8.453125
Q 39.546875 8.453125 43.578125 9.765625
Q 47.609375 11.078125 50 13.484375
Q 53.375 16.84375 55.25 22.53125
Q 57.125 28.21875 57.125 36.328125
Q 57.125 47.5625 53.4375 53.59375
Q 49.75 59.625 44.484375 61.671875
Q 40.671875 63.140625 32.234375 63.140625
L 17.1875 63.140625
z
" id="ArialMT-68"/>
       <path d="M 6.640625 61.46875
L 6.640625 71.578125
L 15.4375 71.578125
L 15.4375 61.46875
z
M 6.640625 0
L 6.640625 51.859375
L 15.4375 51.859375
L 15.4375 0
z
" id="ArialMT-105"/>
       <path d="M 8.6875 0
L 8.6875 45.015625
L 0.921875 45.015625
L 0.921875 51.859375
L 8.6875 51.859375
L 8.6875 57.375
Q 8.6875 62.59375 9.625 65.140625
Q 10.890625 68.5625 14.078125 70.671875
Q 17.28125 72.796875 23.046875 72.796875
Q 26.765625 72.796875 31.25 71.921875
L 29.9375 64.265625
Q 27.203125 64.75 24.75 64.75
Q 20.75 64.75 19.09375 63.03125
Q 17.4375 61.328125 17.4375 56.640625
L 17.4375 51.859375
L 27.546875 51.859375
L 27.546875 45.015625
L 17.4375 45.015625
L 17.4375 0
z
" id="ArialMT-102"/>
      </defs>
      <use xlink:href="#ArialMT-80"/>
      <use x="66.699219" xlink:href="#ArialMT-101"/>
      <use x="122.314453" xlink:href="#ArialMT-114"/>
      <use x="155.615234" xlink:href="#ArialMT-99"/>
      <use x="205.615234" xlink:href="#ArialMT-101"/>
      <use x="261.230469" xlink:href="#ArialMT-110"/>
      <use x="316.845703" xlink:href="#ArialMT-116"/>
      <use x="344.628906" xlink:href="#ArialMT-32"/>
      <use x="372.412109" xlink:href="#ArialMT-68"/>
      <use x="444.628906" xlink:href="#ArialMT-105"/>
      <use x="466.845703" xlink:href="#ArialMT-102"/>
      <use x="492.878906" xlink:href="#ArialMT-102"/>
      <use x="520.662109" xlink:href="#ArialMT-101"/>
      <use x="576.277344" xlink:href="#ArialMT-114"/>
      <use x="609.578125" xlink:href="#ArialMT-101"/>
      <use x="665.193359" xlink:href="#ArialMT-110"/>
      <use x="720.808594" xlink:href="#ArialMT-99"/>
      <use x="770.808594" xlink:href="#ArialMT-101"/>
     </g>
    </g>
   </g>
   <g id="matplotlib.axis_2">
    <g id="ytick_1">
     <g id="line2d_11">
      <defs>
       <path d="M 0 0
L -6 0
" id="mba44071fd3" style="stroke:#262626;stroke-width:1.25;"/>
      </defs>
      <g>
       <use style="fill:#262626;stroke:#262626;stroke-width:1.25;" x="84.173281" xlink:href="#mba44071fd3" y="284.920817"/>
      </g>
     </g>
     <g id="text_7">
      <!-- 2000-2001 -->
      <g style="fill:#262626;" transform="translate(23.174375 288.857614)scale(0.11 -0.11)">
       <defs>
        <path d="M 3.171875 21.484375
L 3.171875 30.328125
L 30.171875 30.328125
L 30.171875 21.484375
z
" id="ArialMT-45"/>
       </defs>
       <use xlink:href="#ArialMT-50"/>
       <use x="55.615234" xlink:href="#ArialMT-48"/>
       <use x="111.230469" xlink:href="#ArialMT-48"/>
       <use x="166.845703" xlink:href="#ArialMT-48"/>
       <use x="222.460938" xlink:href="#ArialMT-45"/>
       <use x="255.761719" xlink:href="#ArialMT-50"/>
       <use x="311.376953" xlink:href="#ArialMT-48"/>
       <use x="366.992188" xlink:href="#ArialMT-48"/>
       <use x="422.607422" xlink:href="#ArialMT-49"/>
      </g>
     </g>
    </g>
    <g id="ytick_2">
     <g id="line2d_12">
      <g>
       <use style="fill:#262626;stroke:#262626;stroke-width:1.25;" x="84.173281" xlink:href="#mba44071fd3" y="272.368364"/>
      </g>
     </g>
     <g id="text_8">
      <!-- 2001-2002 -->
      <g style="fill:#262626;" transform="translate(23.174375 276.305161)scale(0.11 -0.11)">
       <use xlink:href="#ArialMT-50"/>
       <use x="55.615234" xlink:href="#ArialMT-48"/>
       <use x="111.230469" xlink:href="#ArialMT-48"/>
       <use x="166.845703" xlink:href="#ArialMT-49"/>
       <use x="222.460938" xlink:href="#ArialMT-45"/>
       <use x="255.761719" xlink:href="#ArialMT-50"/>
       <use x="311.376953" xlink:href="#ArialMT-48"/>
       <use x="366.992188" xlink:href="#ArialMT-48"/>
       <use x="422.607422" xlink:href="#ArialMT-50"/>
      </g>
     </g>
    </g>
    <g id="ytick_3">
     <g id="line2d_13">
      <g>
       <use style="fill:#262626;stroke:#262626;stroke-width:1.25;" x="84.173281" xlink:href="#mba44071fd3" y="259.815911"/>
      </g>
     </g>
     <g id="text_9">
      <!-- 2002-2003 -->
      <g style="fill:#262626;" transform="translate(23.174375 263.752708)scale(0.11 -0.11)">
       <use xlink:href="#ArialMT-50"/>
       <use x="55.615234" xlink:href="#ArialMT-48"/>
       <use x="111.230469" xlink:href="#ArialMT-48"/>
       <use x="166.845703" xlink:href="#ArialMT-50"/>
       <use x="222.460938" xlink:href="#ArialMT-45"/>
       <use x="255.761719" xlink:href="#ArialMT-50"/>
       <use x="311.376953" xlink:href="#ArialMT-48"/>
       <use x="366.992188" xlink:href="#ArialMT-48"/>
       <use x="422.607422" xlink:href="#ArialMT-51"/>
      </g>
     </g>
    </g>
    <g id="ytick_4">
     <g id="line2d_14">
      <g>
       <use style="fill:#262626;stroke:#262626;stroke-width:1.25;" x="84.173281" xlink:href="#mba44071fd3" y="247.263458"/>
      </g>
     </g>
     <g id="text_10">
      <!-- 2003-2004 -->
      <g style="fill:#262626;" transform="translate(23.174375 251.200255)scale(0.11 -0.11)">
       <use xlink:href="#ArialMT-50"/>
       <use x="55.615234" xlink:href="#ArialMT-48"/>
       <use x="111.230469" xlink:href="#ArialMT-48"/>
       <use x="166.845703" xlink:href="#ArialMT-51"/>
       <use x="222.460938" xlink:href="#ArialMT-45"/>
       <use x="255.761719" xlink:href="#ArialMT-50"/>
       <use x="311.376953" xlink:href="#ArialMT-48"/>
       <use x="366.992188" xlink:href="#ArialMT-48"/>
       <use x="422.607422" xlink:href="#ArialMT-52"/>
      </g>
     </g>
    </g>
    <g id="ytick_5">
     <g id="line2d_15">
      <g>
       <use style="fill:#262626;stroke:#262626;stroke-width:1.25;" x="84.173281" xlink:href="#mba44071fd3" y="234.711005"/>
      </g>
     </g>
     <g id="text_11">
      <!-- 2004-2005 -->
      <g style="fill:#262626;" transform="translate(23.174375 238.647802)scale(0.11 -0.11)">
       <defs>
        <path d="M 4.15625 18.75
L 13.375 19.53125
Q 14.40625 12.796875 18.140625 9.390625
Q 21.875 6 27.15625 6
Q 33.5 6 37.890625 10.78125
Q 42.28125 15.578125 42.28125 23.484375
Q 42.28125 31 38.0625 35.34375
Q 33.84375 39.703125 27 39.703125
Q 22.75 39.703125 19.328125 37.765625
Q 15.921875 35.84375 13.96875 32.765625
L 5.71875 33.84375
L 12.640625 70.609375
L 48.25 70.609375
L 48.25 62.203125
L 19.671875 62.203125
L 15.828125 42.96875
Q 22.265625 47.46875 29.34375 47.46875
Q 38.71875 47.46875 45.15625 40.96875
Q 51.609375 34.46875 51.609375 24.265625
Q 51.609375 14.546875 45.953125 7.46875
Q 39.0625 -1.21875 27.15625 -1.21875
Q 17.390625 -1.21875 11.203125 4.25
Q 5.03125 9.71875 4.15625 18.75
z
" id="ArialMT-53"/>
       </defs>
       <use xlink:href="#ArialMT-50"/>
       <use x="55.615234" xlink:href="#ArialMT-48"/>
       <use x="111.230469" xlink:href="#ArialMT-48"/>
       <use x="166.845703" xlink:href="#ArialMT-52"/>
       <use x="222.460938" xlink:href="#ArialMT-45"/>
       <use x="255.761719" xlink:href="#ArialMT-50"/>
       <use x="311.376953" xlink:href="#ArialMT-48"/>
       <use x="366.992188" xlink:href="#ArialMT-48"/>
       <use x="422.607422" xlink:href="#ArialMT-53"/>
      </g>
     </g>
    </g>
    <g id="ytick_6">
     <g id="line2d_16">
      <g>
       <use style="fill:#262626;stroke:#262626;stroke-width:1.25;" x="84.173281" xlink:href="#mba44071fd3" y="222.158553"/>
      </g>
     </g>
     <g id="text_12">
      <!-- 2005-2006 -->
      <g style="fill:#262626;" transform="translate(23.174375 226.095349)scale(0.11 -0.11)">
       <defs>
        <path d="M 49.75 54.046875
L 41.015625 53.375
Q 39.84375 58.546875 37.703125 60.890625
Q 34.125 64.65625 28.90625 64.65625
Q 24.703125 64.65625 21.53125 62.3125
Q 17.390625 59.28125 14.984375 53.46875
Q 12.59375 47.65625 12.5 36.921875
Q 15.671875 41.75 20.265625 44.09375
Q 24.859375 46.4375 29.890625 46.4375
Q 38.671875 46.4375 44.84375 39.96875
Q 51.03125 33.5 51.03125 23.25
Q 51.03125 16.5 48.125 10.71875
Q 45.21875 4.9375 40.140625 1.859375
Q 35.0625 -1.21875 28.609375 -1.21875
Q 17.625 -1.21875 10.6875 6.859375
Q 3.765625 14.9375 3.765625 33.5
Q 3.765625 54.25 11.421875 63.671875
Q 18.109375 71.875 29.4375 71.875
Q 37.890625 71.875 43.28125 67.140625
Q 48.6875 62.40625 49.75 54.046875
z
M 13.875 23.1875
Q 13.875 18.65625 15.796875 14.5
Q 17.71875 10.359375 21.1875 8.171875
Q 24.65625 6 28.46875 6
Q 34.03125 6 38.03125 10.484375
Q 42.046875 14.984375 42.046875 22.703125
Q 42.046875 30.125 38.078125 34.390625
Q 34.125 38.671875 28.125 38.671875
Q 22.171875 38.671875 18.015625 34.390625
Q 13.875 30.125 13.875 23.1875
z
" id="ArialMT-54"/>
       </defs>
       <use xlink:href="#ArialMT-50"/>
       <use x="55.615234" xlink:href="#ArialMT-48"/>
       <use x="111.230469" xlink:href="#ArialMT-48"/>
       <use x="166.845703" xlink:href="#ArialMT-53"/>
       <use x="222.460938" xlink:href="#ArialMT-45"/>
       <use x="255.761719" xlink:href="#ArialMT-50"/>
       <use x="311.376953" xlink:href="#ArialMT-48"/>
       <use x="366.992188" xlink:href="#ArialMT-48"/>
       <use x="422.607422" xlink:href="#ArialMT-54"/>
      </g>
     </g>
    </g>
    <g id="ytick_7">
     <g id="line2d_17">
      <g>
       <use style="fill:#262626;stroke:#262626;stroke-width:1.25;" x="84.173281" xlink:href="#mba44071fd3" y="209.6061"/>
      </g>
     </g>
     <g id="text_13">
      <!-- 2006-2007 -->
      <g style="fill:#262626;" transform="translate(23.174375 213.542897)scale(0.11 -0.11)">
       <defs>
        <path d="M 4.734375 62.203125
L 4.734375 70.65625
L 51.078125 70.65625
L 51.078125 63.8125
Q 44.234375 56.546875 37.515625 44.484375
Q 30.8125 32.421875 27.15625 19.671875
Q 24.515625 10.6875 23.78125 0
L 14.75 0
Q 14.890625 8.453125 18.0625 20.40625
Q 21.234375 32.375 27.171875 43.484375
Q 33.109375 54.59375 39.796875 62.203125
z
" id="ArialMT-55"/>
       </defs>
       <use xlink:href="#ArialMT-50"/>
       <use x="55.615234" xlink:href="#ArialMT-48"/>
       <use x="111.230469" xlink:href="#ArialMT-48"/>
       <use x="166.845703" xlink:href="#ArialMT-54"/>
       <use x="222.460938" xlink:href="#ArialMT-45"/>
       <use x="255.761719" xlink:href="#ArialMT-50"/>
       <use x="311.376953" xlink:href="#ArialMT-48"/>
       <use x="366.992188" xlink:href="#ArialMT-48"/>
       <use x="422.607422" xlink:href="#ArialMT-55"/>
      </g>
     </g>
    </g>
    <g id="ytick_8">
     <g id="line2d_18">
      <g>
       <use style="fill:#262626;stroke:#262626;stroke-width:1.25;" x="84.173281" xlink:href="#mba44071fd3" y="197.053647"/>
      </g>
     </g>
     <g id="text_14">
      <!-- 2007-2008 -->
      <g style="fill:#262626;" transform="translate(23.174375 200.990444)scale(0.11 -0.11)">
       <defs>
        <path d="M 17.671875 38.8125
Q 12.203125 40.828125 9.5625 44.53125
Q 6.9375 48.25 6.9375 53.421875
Q 6.9375 61.234375 12.546875 66.546875
Q 18.171875 71.875 27.484375 71.875
Q 36.859375 71.875 42.578125 66.421875
Q 48.296875 60.984375 48.296875 53.171875
Q 48.296875 48.1875 45.671875 44.5
Q 43.0625 40.828125 37.75 38.8125
Q 44.34375 36.671875 47.78125 31.875
Q 51.21875 27.09375 51.21875 20.453125
Q 51.21875 11.28125 44.71875 5.03125
Q 38.234375 -1.21875 27.640625 -1.21875
Q 17.046875 -1.21875 10.546875 5.046875
Q 4.046875 11.328125 4.046875 20.703125
Q 4.046875 27.6875 7.59375 32.390625
Q 11.140625 37.109375 17.671875 38.8125
z
M 15.921875 53.71875
Q 15.921875 48.640625 19.1875 45.40625
Q 22.46875 42.1875 27.6875 42.1875
Q 32.765625 42.1875 36.015625 45.375
Q 39.265625 48.578125 39.265625 53.21875
Q 39.265625 58.0625 35.90625 61.359375
Q 32.5625 64.65625 27.59375 64.65625
Q 22.5625 64.65625 19.234375 61.421875
Q 15.921875 58.203125 15.921875 53.71875
z
M 13.09375 20.65625
Q 13.09375 16.890625 14.875 13.375
Q 16.65625 9.859375 20.171875 7.921875
Q 23.6875 6 27.734375 6
Q 34.03125 6 38.125 10.046875
Q 42.234375 14.109375 42.234375 20.359375
Q 42.234375 26.703125 38.015625 30.859375
Q 33.796875 35.015625 27.4375 35.015625
Q 21.234375 35.015625 17.15625 30.90625
Q 13.09375 26.8125 13.09375 20.65625
z
" id="ArialMT-56"/>
       </defs>
       <use xlink:href="#ArialMT-50"/>
       <use x="55.615234" xlink:href="#ArialMT-48"/>
       <use x="111.230469" xlink:href="#ArialMT-48"/>
       <use x="166.845703" xlink:href="#ArialMT-55"/>
       <use x="222.460938" xlink:href="#ArialMT-45"/>
       <use x="255.761719" xlink:href="#ArialMT-50"/>
       <use x="311.376953" xlink:href="#ArialMT-48"/>
       <use x="366.992188" xlink:href="#ArialMT-48"/>
       <use x="422.607422" xlink:href="#ArialMT-56"/>
      </g>
     </g>
    </g>
    <g id="ytick_9">
     <g id="line2d_19">
      <g>
       <use style="fill:#262626;stroke:#262626;stroke-width:1.25;" x="84.173281" xlink:href="#mba44071fd3" y="184.501194"/>
      </g>
     </g>
     <g id="text_15">
      <!-- 2008-2009 -->
      <g style="fill:#262626;" transform="translate(23.174375 188.437991)scale(0.11 -0.11)">
       <defs>
        <path d="M 5.46875 16.546875
L 13.921875 17.328125
Q 14.984375 11.375 18.015625 8.6875
Q 21.046875 6 25.78125 6
Q 29.828125 6 32.875 7.859375
Q 35.9375 9.71875 37.890625 12.8125
Q 39.84375 15.921875 41.15625 21.1875
Q 42.484375 26.46875 42.484375 31.9375
Q 42.484375 32.515625 42.4375 33.6875
Q 39.796875 29.5 35.234375 26.875
Q 30.671875 24.265625 25.34375 24.265625
Q 16.453125 24.265625 10.296875 30.703125
Q 4.15625 37.15625 4.15625 47.703125
Q 4.15625 58.59375 10.578125 65.234375
Q 17 71.875 26.65625 71.875
Q 33.640625 71.875 39.421875 68.109375
Q 45.21875 64.359375 48.21875 57.390625
Q 51.21875 50.4375 51.21875 37.25
Q 51.21875 23.53125 48.234375 15.40625
Q 45.265625 7.28125 39.375 3.03125
Q 33.5 -1.21875 25.59375 -1.21875
Q 17.1875 -1.21875 11.859375 3.4375
Q 6.546875 8.109375 5.46875 16.546875
z
M 41.453125 48.140625
Q 41.453125 55.71875 37.421875 60.15625
Q 33.40625 64.59375 27.734375 64.59375
Q 21.875 64.59375 17.53125 59.8125
Q 13.1875 55.03125 13.1875 47.40625
Q 13.1875 40.578125 17.3125 36.296875
Q 21.4375 32.03125 27.484375 32.03125
Q 33.59375 32.03125 37.515625 36.296875
Q 41.453125 40.578125 41.453125 48.140625
z
" id="ArialMT-57"/>
       </defs>
       <use xlink:href="#ArialMT-50"/>
       <use x="55.615234" xlink:href="#ArialMT-48"/>
       <use x="111.230469" xlink:href="#ArialMT-48"/>
       <use x="166.845703" xlink:href="#ArialMT-56"/>
       <use x="222.460938" xlink:href="#ArialMT-45"/>
       <use x="255.761719" xlink:href="#ArialMT-50"/>
       <use x="311.376953" xlink:href="#ArialMT-48"/>
       <use x="366.992188" xlink:href="#ArialMT-48"/>
       <use x="422.607422" xlink:href="#ArialMT-57"/>
      </g>
     </g>
    </g>
    <g id="ytick_10">
     <g id="line2d_20">
      <g>
       <use style="fill:#262626;stroke:#262626;stroke-width:1.25;" x="84.173281" xlink:href="#mba44071fd3" y="171.948741"/>
      </g>
     </g>
     <g id="text_16">
      <!-- 2009-2010 -->
      <g style="fill:#262626;" transform="translate(23.174375 175.885538)scale(0.11 -0.11)">
       <use xlink:href="#ArialMT-50"/>
       <use x="55.615234" xlink:href="#ArialMT-48"/>
       <use x="111.230469" xlink:href="#ArialMT-48"/>
       <use x="166.845703" xlink:href="#ArialMT-57"/>
       <use x="222.460938" xlink:href="#ArialMT-45"/>
       <use x="255.761719" xlink:href="#ArialMT-50"/>
       <use x="311.376953" xlink:href="#ArialMT-48"/>
       <use x="366.992188" xlink:href="#ArialMT-49"/>
       <use x="422.607422" xlink:href="#ArialMT-48"/>
      </g>
     </g>
    </g>
    <g id="ytick_11">
     <g id="line2d_21">
      <g>
       <use style="fill:#262626;stroke:#262626;stroke-width:1.25;" x="84.173281" xlink:href="#mba44071fd3" y="159.396288"/>
      </g>
     </g>
     <g id="text_17">
      <!-- 2010-2011 -->
      <g style="fill:#262626;" transform="translate(23.985625 163.333085)scale(0.11 -0.11)">
       <use xlink:href="#ArialMT-50"/>
       <use x="55.615234" xlink:href="#ArialMT-48"/>
       <use x="111.230469" xlink:href="#ArialMT-49"/>
       <use x="166.845703" xlink:href="#ArialMT-48"/>
       <use x="222.460938" xlink:href="#ArialMT-45"/>
       <use x="255.761719" xlink:href="#ArialMT-50"/>
       <use x="311.376953" xlink:href="#ArialMT-48"/>
       <use x="366.992188" xlink:href="#ArialMT-49"/>
       <use x="415.232422" xlink:href="#ArialMT-49"/>
      </g>
     </g>
    </g>
    <g id="ytick_12">
     <g id="line2d_22">
      <g>
       <use style="fill:#262626;stroke:#262626;stroke-width:1.25;" x="84.173281" xlink:href="#mba44071fd3" y="146.843836"/>
      </g>
     </g>
     <g id="text_18">
      <!-- 2011-2012 -->
      <g style="fill:#262626;" transform="translate(23.985625 150.780632)scale(0.11 -0.11)">
       <use xlink:href="#ArialMT-50"/>
       <use x="55.615234" xlink:href="#ArialMT-48"/>
       <use x="111.230469" xlink:href="#ArialMT-49"/>
       <use x="159.470703" xlink:href="#ArialMT-49"/>
       <use x="215.085938" xlink:href="#ArialMT-45"/>
       <use x="248.386719" xlink:href="#ArialMT-50"/>
       <use x="304.001953" xlink:href="#ArialMT-48"/>
       <use x="359.617188" xlink:href="#ArialMT-49"/>
       <use x="415.232422" xlink:href="#ArialMT-50"/>
      </g>
     </g>
    </g>
    <g id="ytick_13">
     <g id="line2d_23">
      <g>
       <use style="fill:#262626;stroke:#262626;stroke-width:1.25;" x="84.173281" xlink:href="#mba44071fd3" y="134.291383"/>
      </g>
     </g>
     <g id="text_19">
      <!-- 2012-2013 -->
      <g style="fill:#262626;" transform="translate(23.174375 138.22818)scale(0.11 -0.11)">
       <use xlink:href="#ArialMT-50"/>
       <use x="55.615234" xlink:href="#ArialMT-48"/>
       <use x="111.230469" xlink:href="#ArialMT-49"/>
       <use x="166.845703" xlink:href="#ArialMT-50"/>
       <use x="222.460938" xlink:href="#ArialMT-45"/>
       <use x="255.761719" xlink:href="#ArialMT-50"/>
       <use x="311.376953" xlink:href="#ArialMT-48"/>
       <use x="366.992188" xlink:href="#ArialMT-49"/>
       <use x="422.607422" xlink:href="#ArialMT-51"/>
      </g>
     </g>
    </g>
    <g id="ytick_14">
     <g id="line2d_24">
      <g>
       <use style="fill:#262626;stroke:#262626;stroke-width:1.25;" x="84.173281" xlink:href="#mba44071fd3" y="121.73893"/>
      </g>
     </g>
     <g id="text_20">
      <!-- 2013-2014 -->
      <g style="fill:#262626;" transform="translate(23.174375 125.675727)scale(0.11 -0.11)">
       <use xlink:href="#ArialMT-50"/>
       <use x="55.615234" xlink:href="#ArialMT-48"/>
       <use x="111.230469" xlink:href="#ArialMT-49"/>
       <use x="166.845703" xlink:href="#ArialMT-51"/>
       <use x="222.460938" xlink:href="#ArialMT-45"/>
       <use x="255.761719" xlink:href="#ArialMT-50"/>
       <use x="311.376953" xlink:href="#ArialMT-48"/>
       <use x="366.992188" xlink:href="#ArialMT-49"/>
       <use x="422.607422" xlink:href="#ArialMT-52"/>
      </g>
     </g>
    </g>
    <g id="ytick_15">
     <g id="line2d_25">
      <g>
       <use style="fill:#262626;stroke:#262626;stroke-width:1.25;" x="84.173281" xlink:href="#mba44071fd3" y="109.186477"/>
      </g>
     </g>
     <g id="text_21">
      <!-- 2014-2015 -->
      <g style="fill:#262626;" transform="translate(23.174375 113.123274)scale(0.11 -0.11)">
       <use xlink:href="#ArialMT-50"/>
       <use x="55.615234" xlink:href="#ArialMT-48"/>
       <use x="111.230469" xlink:href="#ArialMT-49"/>
       <use x="166.845703" xlink:href="#ArialMT-52"/>
       <use x="222.460938" xlink:href="#ArialMT-45"/>
       <use x="255.761719" xlink:href="#ArialMT-50"/>
       <use x="311.376953" xlink:href="#ArialMT-48"/>
       <use x="366.992188" xlink:href="#ArialMT-49"/>
       <use x="422.607422" xlink:href="#ArialMT-53"/>
      </g>
     </g>
    </g>
    <g id="ytick_16">
     <g id="line2d_26">
      <g>
       <use style="fill:#262626;stroke:#262626;stroke-width:1.25;" x="84.173281" xlink:href="#mba44071fd3" y="96.634024"/>
      </g>
     </g>
     <g id="text_22">
      <!-- 2015-2016 -->
      <g style="fill:#262626;" transform="translate(23.174375 100.570821)scale(0.11 -0.11)">
       <use xlink:href="#ArialMT-50"/>
       <use x="55.615234" xlink:href="#ArialMT-48"/>
       <use x="111.230469" xlink:href="#ArialMT-49"/>
       <use x="166.845703" xlink:href="#ArialMT-53"/>
       <use x="222.460938" xlink:href="#ArialMT-45"/>
       <use x="255.761719" xlink:href="#ArialMT-50"/>
       <use x="311.376953" xlink:href="#ArialMT-48"/>
       <use x="366.992188" xlink:href="#ArialMT-49"/>
       <use x="422.607422" xlink:href="#ArialMT-54"/>
      </g>
     </g>
    </g>
    <g id="ytick_17">
     <g id="line2d_27">
      <g>
       <use style="fill:#262626;stroke:#262626;stroke-width:1.25;" x="84.173281" xlink:href="#mba44071fd3" y="84.081571"/>
      </g>
     </g>
     <g id="text_23">
      <!-- 2016-2017 -->
      <g style="fill:#262626;" transform="translate(23.174375 88.018368)scale(0.11 -0.11)">
       <use xlink:href="#ArialMT-50"/>
       <use x="55.615234" xlink:href="#ArialMT-48"/>
       <use x="111.230469" xlink:href="#ArialMT-49"/>
       <use x="166.845703" xlink:href="#ArialMT-54"/>
       <use x="222.460938" xlink:href="#ArialMT-45"/>
       <use x="255.761719" xlink:href="#ArialMT-50"/>
       <use x="311.376953" xlink:href="#ArialMT-48"/>
       <use x="366.992188" xlink:href="#ArialMT-49"/>
       <use x="422.607422" xlink:href="#ArialMT-55"/>
      </g>
     </g>
    </g>
    <g id="ytick_18">
     <g id="line2d_28">
      <g>
       <use style="fill:#262626;stroke:#262626;stroke-width:1.25;" x="84.173281" xlink:href="#mba44071fd3" y="71.529119"/>
      </g>
     </g>
     <g id="text_24">
      <!-- 2017-2018 -->
      <g style="fill:#262626;" transform="translate(23.174375 75.465915)scale(0.11 -0.11)">
       <use xlink:href="#ArialMT-50"/>
       <use x="55.615234" xlink:href="#ArialMT-48"/>
       <use x="111.230469" xlink:href="#ArialMT-49"/>
       <use x="166.845703" xlink:href="#ArialMT-55"/>
       <use x="222.460938" xlink:href="#ArialMT-45"/>
       <use x="255.761719" xlink:href="#ArialMT-50"/>
       <use x="311.376953" xlink:href="#ArialMT-48"/>
       <use x="366.992188" xlink:href="#ArialMT-49"/>
       <use x="422.607422" xlink:href="#ArialMT-56"/>
      </g>
     </g>
    </g>
    <g id="ytick_19">
     <g id="line2d_29">
      <g>
       <use style="fill:#262626;stroke:#262626;stroke-width:1.25;" x="84.173281" xlink:href="#mba44071fd3" y="58.976666"/>
      </g>
     </g>
     <g id="text_25">
      <!-- 2018-2019 -->
      <g style="fill:#262626;" transform="translate(23.174375 62.913463)scale(0.11 -0.11)">
       <use xlink:href="#ArialMT-50"/>
       <use x="55.615234" xlink:href="#ArialMT-48"/>
       <use x="111.230469" xlink:href="#ArialMT-49"/>
       <use x="166.845703" xlink:href="#ArialMT-56"/>
       <use x="222.460938" xlink:href="#ArialMT-45"/>
       <use x="255.761719" xlink:href="#ArialMT-50"/>
       <use x="311.376953" xlink:href="#ArialMT-48"/>
       <use x="366.992188" xlink:href="#ArialMT-49"/>
       <use x="422.607422" xlink:href="#ArialMT-57"/>
      </g>
     </g>
    </g>
    <g id="ytick_20">
     <g id="line2d_30">
      <g>
       <use style="fill:#262626;stroke:#262626;stroke-width:1.25;" x="84.173281" xlink:href="#mba44071fd3" y="46.424213"/>
      </g>
     </g>
     <g id="text_26">
      <!-- 2019-2020 -->
      <g style="fill:#262626;" transform="translate(23.174375 50.36101)scale(0.11 -0.11)">
       <use xlink:href="#ArialMT-50"/>
       <use x="55.615234" xlink:href="#ArialMT-48"/>
       <use x="111.230469" xlink:href="#ArialMT-49"/>
       <use x="166.845703" xlink:href="#ArialMT-57"/>
       <use x="222.460938" xlink:href="#ArialMT-45"/>
       <use x="255.761719" xlink:href="#ArialMT-50"/>
       <use x="311.376953" xlink:href="#ArialMT-48"/>
       <use x="366.992188" xlink:href="#ArialMT-50"/>
       <use x="422.607422" xlink:href="#ArialMT-48"/>
      </g>
     </g>
    </g>
    <g id="ytick_21">
     <g id="line2d_31">
      <g>
       <use style="fill:#262626;stroke:#262626;stroke-width:1.25;" x="84.173281" xlink:href="#mba44071fd3" y="33.87176"/>
      </g>
     </g>
     <g id="text_27">
      <!-- 2020-2021 -->
      <g style="fill:#262626;" transform="translate(23.174375 37.808557)scale(0.11 -0.11)">
       <use xlink:href="#ArialMT-50"/>
       <use x="55.615234" xlink:href="#ArialMT-48"/>
       <use x="111.230469" xlink:href="#ArialMT-50"/>
       <use x="166.845703" xlink:href="#ArialMT-48"/>
       <use x="222.460938" xlink:href="#ArialMT-45"/>
       <use x="255.761719" xlink:href="#ArialMT-50"/>
       <use x="311.376953" xlink:href="#ArialMT-48"/>
       <use x="366.992188" xlink:href="#ArialMT-50"/>
       <use x="422.607422" xlink:href="#ArialMT-49"/>
      </g>
     </g>
    </g>
    <g id="text_28">
     <!-- Time Periods -->
     <g style="fill:#262626;" transform="translate(15.789375 192.785163)rotate(-90)scale(0.12 -0.12)">
      <defs>
       <path d="M 25.921875 0
L 25.921875 63.140625
L 2.34375 63.140625
L 2.34375 71.578125
L 59.078125 71.578125
L 59.078125 63.140625
L 35.40625 63.140625
L 35.40625 0
z
" id="ArialMT-84"/>
       <path d="M 6.59375 0
L 6.59375 51.859375
L 14.453125 51.859375
L 14.453125 44.578125
Q 16.890625 48.390625 20.9375 50.703125
Q 25 53.03125 30.171875 53.03125
Q 35.9375 53.03125 39.625 50.640625
Q 43.3125 48.25 44.828125 43.953125
Q 50.984375 53.03125 60.84375 53.03125
Q 68.5625 53.03125 72.703125 48.75
Q 76.859375 44.484375 76.859375 35.59375
L 76.859375 0
L 68.109375 0
L 68.109375 32.671875
Q 68.109375 37.9375 67.25 40.25
Q 66.40625 42.578125 64.15625 43.984375
Q 61.921875 45.40625 58.890625 45.40625
Q 53.421875 45.40625 49.796875 41.765625
Q 46.1875 38.140625 46.1875 30.125
L 46.1875 0
L 37.40625 0
L 37.40625 33.6875
Q 37.40625 39.546875 35.25 42.46875
Q 33.109375 45.40625 28.21875 45.40625
Q 24.515625 45.40625 21.359375 43.453125
Q 18.21875 41.5 16.796875 37.734375
Q 15.375 33.984375 15.375 26.90625
L 15.375 0
z
" id="ArialMT-109"/>
       <path d="M 3.328125 25.921875
Q 3.328125 40.328125 11.328125 47.265625
Q 18.015625 53.03125 27.640625 53.03125
Q 38.328125 53.03125 45.109375 46.015625
Q 51.90625 39.015625 51.90625 26.65625
Q 51.90625 16.65625 48.90625 10.90625
Q 45.90625 5.171875 40.15625 2
Q 34.421875 -1.171875 27.640625 -1.171875
Q 16.75 -1.171875 10.03125 5.8125
Q 3.328125 12.796875 3.328125 25.921875
z
M 12.359375 25.921875
Q 12.359375 15.96875 16.703125 11.015625
Q 21.046875 6.0625 27.640625 6.0625
Q 34.1875 6.0625 38.53125 11.03125
Q 42.875 16.015625 42.875 26.21875
Q 42.875 35.84375 38.5 40.796875
Q 34.125 45.75 27.640625 45.75
Q 21.046875 45.75 16.703125 40.8125
Q 12.359375 35.890625 12.359375 25.921875
z
" id="ArialMT-111"/>
       <path d="M 40.234375 0
L 40.234375 6.546875
Q 35.296875 -1.171875 25.734375 -1.171875
Q 19.53125 -1.171875 14.328125 2.25
Q 9.125 5.671875 6.265625 11.796875
Q 3.421875 17.921875 3.421875 25.875
Q 3.421875 33.640625 6 39.96875
Q 8.59375 46.296875 13.765625 49.65625
Q 18.953125 53.03125 25.34375 53.03125
Q 30.03125 53.03125 33.6875 51.046875
Q 37.359375 49.078125 39.65625 45.90625
L 39.65625 71.578125
L 48.390625 71.578125
L 48.390625 0
z
M 12.453125 25.875
Q 12.453125 15.921875 16.640625 10.984375
Q 20.84375 6.0625 26.5625 6.0625
Q 32.328125 6.0625 36.34375 10.765625
Q 40.375 15.484375 40.375 25.140625
Q 40.375 35.796875 36.265625 40.765625
Q 32.171875 45.75 26.171875 45.75
Q 20.3125 45.75 16.375 40.96875
Q 12.453125 36.1875 12.453125 25.875
z
" id="ArialMT-100"/>
       <path d="M 3.078125 15.484375
L 11.765625 16.84375
Q 12.5 11.625 15.84375 8.84375
Q 19.1875 6.0625 25.203125 6.0625
Q 31.25 6.0625 34.171875 8.515625
Q 37.109375 10.984375 37.109375 14.3125
Q 37.109375 17.28125 34.515625 19
Q 32.71875 20.171875 25.53125 21.96875
Q 15.875 24.421875 12.140625 26.203125
Q 8.40625 27.984375 6.46875 31.125
Q 4.546875 34.28125 4.546875 38.09375
Q 4.546875 41.546875 6.125 44.5
Q 7.71875 47.46875 10.453125 49.421875
Q 12.5 50.921875 16.03125 51.96875
Q 19.578125 53.03125 23.640625 53.03125
Q 29.734375 53.03125 34.34375 51.265625
Q 38.96875 49.515625 41.15625 46.5
Q 43.359375 43.5 44.1875 38.484375
L 35.59375 37.3125
Q 35.015625 41.3125 32.203125 43.546875
Q 29.390625 45.796875 24.265625 45.796875
Q 18.21875 45.796875 15.625 43.796875
Q 13.03125 41.796875 13.03125 39.109375
Q 13.03125 37.40625 14.109375 36.03125
Q 15.1875 34.625 17.484375 33.6875
Q 18.796875 33.203125 25.25 31.453125
Q 34.578125 28.953125 38.25 27.359375
Q 41.9375 25.78125 44.03125 22.75
Q 46.140625 19.734375 46.140625 15.234375
Q 46.140625 10.84375 43.578125 6.953125
Q 41.015625 3.078125 36.171875 0.953125
Q 31.34375 -1.171875 25.25 -1.171875
Q 15.140625 -1.171875 9.84375 3.03125
Q 4.546875 7.234375 3.078125 15.484375
z
" id="ArialMT-115"/>
      </defs>
      <use xlink:href="#ArialMT-84"/>
      <use x="57.333984" xlink:href="#ArialMT-105"/>
      <use x="79.550781" xlink:href="#ArialMT-109"/>
      <use x="162.851562" xlink:href="#ArialMT-101"/>
      <use x="218.466797" xlink:href="#ArialMT-32"/>
      <use x="246.25" xlink:href="#ArialMT-80"/>
      <use x="312.949219" xlink:href="#ArialMT-101"/>
      <use x="368.564453" xlink:href="#ArialMT-114"/>
      <use x="401.865234" xlink:href="#ArialMT-105"/>
      <use x="424.082031" xlink:href="#ArialMT-111"/>
      <use x="479.697266" xlink:href="#ArialMT-100"/>
      <use x="535.3125" xlink:href="#ArialMT-115"/>
     </g>
    </g>
   </g>
   <g id="PathCollection_1">
    <path clip-path="url(#p2448d71da6)" d="M 105.567483 286.693271
C 106.037544 286.693271 106.488415 286.506514 106.820798 286.174131
C 107.15318 285.841748 107.339937 285.390877 107.339937 284.920817
C 107.339937 284.450756 107.15318 283.999885 106.820798 283.667503
C 106.488415 283.33512 106.037544 283.148363 105.567483 283.148363
C 105.097423 283.148363 104.646552 283.33512 104.314169 283.667503
C 103.981787 283.999885 103.79503 284.450756 103.79503 284.920817
C 103.79503 285.390877 103.981787 285.841748 104.314169 286.174131
C 104.646552 286.506514 105.097423 286.693271 105.567483 286.693271
z
" style="fill:#1b9e77;stroke:#1b9e77;stroke-width:0.886227;"/>
    <path clip-path="url(#p2448d71da6)" d="M 105.597208 274.140818
C 106.067268 274.140818 106.518139 273.954061 106.850522 273.621678
C 107.182905 273.289295 107.369662 272.838424 107.369662 272.368364
C 107.369662 271.898304 107.182905 271.447433 106.850522 271.11505
C 106.518139 270.782667 106.067268 270.59591 105.597208 270.59591
C 105.127147 270.59591 104.676276 270.782667 104.343894 271.11505
C 104.011511 271.447433 103.824754 271.898304 103.824754 272.368364
C 103.824754 272.838424 104.011511 273.289295 104.343894 273.621678
C 104.676276 273.954061 105.127147 274.140818 105.597208 274.140818
z
" style="fill:#1b9e77;stroke:#1b9e77;stroke-width:0.886227;"/>
    <path clip-path="url(#p2448d71da6)" d="M 105.816655 261.588365
C 106.286715 261.588365 106.737586 261.401608 107.069969 261.069225
C 107.402352 260.736842 107.589109 260.285971 107.589109 259.815911
C 107.589109 259.345851 107.402352 258.89498 107.069969 258.562597
C 106.737586 258.230214 106.286715 258.043457 105.816655 258.043457
C 105.346595 258.043457 104.895723 258.230214 104.563341 258.562597
C 104.230958 258.89498 104.044201 259.345851 104.044201 259.815911
C 104.044201 260.285971 104.230958 260.736842 104.563341 261.069225
C 104.895723 261.401608 105.346595 261.588365 105.816655 261.588365
z
" style="fill:#1b9e77;stroke:#1b9e77;stroke-width:0.886227;"/>
    <path clip-path="url(#p2448d71da6)" d="M 105.886496 249.035912
C 106.356556 249.035912 106.807427 248.849155 107.13981 248.516772
C 107.472193 248.18439 107.65895 247.733518 107.65895 247.263458
C 107.65895 246.793398 107.472193 246.342527 107.13981 246.010144
C 106.807427 245.677761 106.356556 245.491004 105.886496 245.491004
C 105.416436 245.491004 104.965564 245.677761 104.633182 246.010144
C 104.300799 246.342527 104.114042 246.793398 104.114042 247.263458
C 104.114042 247.733518 104.300799 248.18439 104.633182 248.516772
C 104.965564 248.849155 105.416436 249.035912 105.886496 249.035912
z
" style="fill:#1b9e77;stroke:#1b9e77;stroke-width:0.886227;"/>
    <path clip-path="url(#p2448d71da6)" d="M 105.550434 236.483459
C 106.020494 236.483459 106.471365 236.296702 106.803748 235.964319
C 107.136131 235.631937 107.322888 235.181066 107.322888 234.711005
C 107.322888 234.240945 107.136131 233.790074 106.803748 233.457691
C 106.471365 233.125308 106.020494 232.938552 105.550434 232.938552
C 105.080374 232.938552 104.629503 233.125308 104.29712 233.457691
C 103.964737 233.790074 103.77798 234.240945 103.77798 234.711005
C 103.77798 235.181066 103.964737 235.631937 104.29712 235.964319
C 104.629503 236.296702 105.080374 236.483459 105.550434 236.483459
z
" style="fill:#1b9e77;stroke:#1b9e77;stroke-width:0.886227;"/>
    <path clip-path="url(#p2448d71da6)" d="M 105.497853 223.931006
C 105.967913 223.931006 106.418784 223.744249 106.751167 223.411867
C 107.083549 223.079484 107.270306 222.628613 107.270306 222.158553
C 107.270306 221.688492 107.083549 221.237621 106.751167 220.905238
C 106.418784 220.572856 105.967913 220.386099 105.497853 220.386099
C 105.027792 220.386099 104.576921 220.572856 104.244538 220.905238
C 103.912156 221.237621 103.725399 221.688492 103.725399 222.158553
C 103.725399 222.628613 103.912156 223.079484 104.244538 223.411867
C 104.576921 223.744249 105.027792 223.931006 105.497853 223.931006
z
" style="fill:#1b9e77;stroke:#1b9e77;stroke-width:0.886227;"/>
    <path clip-path="url(#p2448d71da6)" d="M 105.060617 211.378554
C 105.530678 211.378554 105.981549 211.191797 106.313932 210.859414
C 106.646314 210.527031 106.833071 210.07616 106.833071 209.6061
C 106.833071 209.136039 106.646314 208.685168 106.313932 208.352786
C 105.981549 208.020403 105.530678 207.833646 105.060617 207.833646
C 104.590557 207.833646 104.139686 208.020403 103.807303 208.352786
C 103.47492 208.685168 103.288164 209.136039 103.288164 209.6061
C 103.288164 210.07616 103.47492 210.527031 103.807303 210.859414
C 104.139686 211.191797 104.590557 211.378554 105.060617 211.378554
z
" style="fill:#1b9e77;stroke:#1b9e77;stroke-width:0.886227;"/>
    <path clip-path="url(#p2448d71da6)" d="M 102.359609 198.826101
C 102.82967 198.826101 103.280541 198.639344 103.612924 198.306961
C 103.945306 197.974578 104.132063 197.523707 104.132063 197.053647
C 104.132063 196.583587 103.945306 196.132716 103.612924 195.800333
C 103.280541 195.46795 102.82967 195.281193 102.359609 195.281193
C 101.889549 195.281193 101.438678 195.46795 101.106295 195.800333
C 100.773912 196.132716 100.587156 196.583587 100.587156 197.053647
C 100.587156 197.523707 100.773912 197.974578 101.106295 198.306961
C 101.438678 198.639344 101.889549 198.826101 102.359609 198.826101
z
" style="fill:#1b9e77;stroke:#1b9e77;stroke-width:0.886227;"/>
    <path clip-path="url(#p2448d71da6)" d="M 102.463207 186.273648
C 102.933267 186.273648 103.384139 186.086891 103.716521 185.754508
C 104.048904 185.422125 104.235661 184.971254 104.235661 184.501194
C 104.235661 184.031134 104.048904 183.580263 103.716521 183.24788
C 103.384139 182.915497 102.933267 182.72874 102.463207 182.72874
C 101.993147 182.72874 101.542276 182.915497 101.209893 183.24788
C 100.87751 183.580263 100.690753 184.031134 100.690753 184.501194
C 100.690753 184.971254 100.87751 185.422125 101.209893 185.754508
C 101.542276 186.086891 101.993147 186.273648 102.463207 186.273648
z
" style="fill:#1b9e77;stroke:#1b9e77;stroke-width:0.886227;"/>
    <path clip-path="url(#p2448d71da6)" d="M 103.611668 173.721195
C 104.081728 173.721195 104.532599 173.534438 104.864982 173.202055
C 105.197365 172.869673 105.384122 172.418801 105.384122 171.948741
C 105.384122 171.478681 105.197365 171.02781 104.864982 170.695427
C 104.532599 170.363044 104.081728 170.176287 103.611668 170.176287
C 103.141608 170.176287 102.690737 170.363044 102.358354 170.695427
C 102.025971 171.02781 101.839214 171.478681 101.839214 171.948741
C 101.839214 172.418801 102.025971 172.869673 102.358354 173.202055
C 102.690737 173.534438 103.141608 173.721195 103.611668 173.721195
z
" style="fill:#1b9e77;stroke:#1b9e77;stroke-width:0.886227;"/>
    <path clip-path="url(#p2448d71da6)" d="M 100.406009 161.168742
C 100.876069 161.168742 101.32694 160.981985 101.659323 160.649603
C 101.991705 160.31722 102.178462 159.866349 102.178462 159.396288
C 102.178462 158.926228 101.991705 158.475357 101.659323 158.142974
C 101.32694 157.810591 100.876069 157.623835 100.406009 157.623835
C 99.935948 157.623835 99.485077 157.810591 99.152694 158.142974
C 98.820312 158.475357 98.633555 158.926228 98.633555 159.396288
C 98.633555 159.866349 98.820312 160.31722 99.152694 160.649603
C 99.485077 160.981985 99.935948 161.168742 100.406009 161.168742
z
" style="fill:#1b9e77;stroke:#1b9e77;stroke-width:0.886227;"/>
    <path clip-path="url(#p2448d71da6)" d="M 100.414665 148.616289
C 100.884726 148.616289 101.335597 148.429532 101.66798 148.09715
C 102.000362 147.764767 102.187119 147.313896 102.187119 146.843836
C 102.187119 146.373775 102.000362 145.922904 101.66798 145.590521
C 101.335597 145.258139 100.884726 145.071382 100.414665 145.071382
C 99.944605 145.071382 99.493734 145.258139 99.161351 145.590521
C 98.828969 145.922904 98.642212 146.373775 98.642212 146.843836
C 98.642212 147.313896 98.828969 147.764767 99.161351 148.09715
C 99.493734 148.429532 99.944605 148.616289 100.414665 148.616289
z
" style="fill:#1b9e77;stroke:#1b9e77;stroke-width:0.886227;"/>
    <path clip-path="url(#p2448d71da6)" d="M 103.215426 136.063837
C 103.685486 136.063837 104.136357 135.87708 104.46874 135.544697
C 104.801123 135.212314 104.98788 134.761443 104.98788 134.291383
C 104.98788 133.821322 104.801123 133.370451 104.46874 133.038069
C 104.136357 132.705686 103.685486 132.518929 103.215426 132.518929
C 102.745366 132.518929 102.294494 132.705686 101.962112 133.038069
C 101.629729 133.370451 101.442972 133.821322 101.442972 134.291383
C 101.442972 134.761443 101.629729 135.212314 101.962112 135.544697
C 102.294494 135.87708 102.745366 136.063837 103.215426 136.063837
z
" style="fill:#1b9e77;stroke:#1b9e77;stroke-width:0.886227;"/>
    <path clip-path="url(#p2448d71da6)" d="M 103.312251 123.511384
C 103.782311 123.511384 104.233183 123.324627 104.565565 122.992244
C 104.897948 122.659861 105.084705 122.20899 105.084705 121.73893
C 105.084705 121.26887 104.897948 120.817999 104.565565 120.485616
C 104.233183 120.153233 103.782311 119.966476 103.312251 119.966476
C 102.842191 119.966476 102.39132 120.153233 102.058937 120.485616
C 101.726554 120.817999 101.539797 121.26887 101.539797 121.73893
C 101.539797 122.20899 101.726554 122.659861 102.058937 122.992244
C 102.39132 123.324627 102.842191 123.511384 103.312251 123.511384
z
" style="fill:#1b9e77;stroke:#1b9e77;stroke-width:0.886227;"/>
    <path clip-path="url(#p2448d71da6)" d="M 103.16633 110.958931
C 103.63639 110.958931 104.087261 110.772174 104.419644 110.439791
C 104.752027 110.107408 104.938783 109.656537 104.938783 109.186477
C 104.938783 108.716417 104.752027 108.265546 104.419644 107.933163
C 104.087261 107.60078 103.63639 107.414023 103.16633 107.414023
C 102.696269 107.414023 102.245398 107.60078 101.913015 107.933163
C 101.580633 108.265546 101.393876 108.716417 101.393876 109.186477
C 101.393876 109.656537 101.580633 110.107408 101.913015 110.439791
C 102.245398 110.772174 102.696269 110.958931 103.16633 110.958931
z
" style="fill:#1b9e77;stroke:#1b9e77;stroke-width:0.886227;"/>
    <path clip-path="url(#p2448d71da6)" d="M 103.018208 98.406478
C 103.488268 98.406478 103.939139 98.219721 104.271522 97.887338
C 104.603905 97.554956 104.790662 97.104084 104.790662 96.634024
C 104.790662 96.163964 104.603905 95.713093 104.271522 95.38071
C 103.939139 95.048327 103.488268 94.86157 103.018208 94.86157
C 102.548148 94.86157 102.097276 95.048327 101.764894 95.38071
C 101.432511 95.713093 101.245754 96.163964 101.245754 96.634024
C 101.245754 97.104084 101.432511 97.554956 101.764894 97.887338
C 102.097276 98.219721 102.548148 98.406478 103.018208 98.406478
z
" style="fill:#1b9e77;stroke:#1b9e77;stroke-width:0.886227;"/>
    <path clip-path="url(#p2448d71da6)" d="M 103.259208 85.854025
C 103.729269 85.854025 104.18014 85.667268 104.512523 85.334886
C 104.844905 85.002503 105.031662 84.551632 105.031662 84.081571
C 105.031662 83.611511 104.844905 83.16064 104.512523 82.828257
C 104.18014 82.495874 103.729269 82.309118 103.259208 82.309118
C 102.789148 82.309118 102.338277 82.495874 102.005894 82.828257
C 101.673511 83.16064 101.486755 83.611511 101.486755 84.081571
C 101.486755 84.551632 101.673511 85.002503 102.005894 85.334886
C 102.338277 85.667268 102.789148 85.854025 103.259208 85.854025
z
" style="fill:#1b9e77;stroke:#1b9e77;stroke-width:0.886227;"/>
    <path clip-path="url(#p2448d71da6)" d="M 103.470184 73.301572
C 103.940244 73.301572 104.391115 73.114815 104.723498 72.782433
C 105.055881 72.45005 105.242638 71.999179 105.242638 71.529119
C 105.242638 71.059058 105.055881 70.608187 104.723498 70.275804
C 104.391115 69.943422 103.940244 69.756665 103.470184 69.756665
C 103.000123 69.756665 102.549252 69.943422 102.21687 70.275804
C 101.884487 70.608187 101.69773 71.059058 101.69773 71.529119
C 101.69773 71.999179 101.884487 72.45005 102.21687 72.782433
C 102.549252 73.114815 103.000123 73.301572 103.470184 73.301572
z
" style="fill:#1b9e77;stroke:#1b9e77;stroke-width:0.886227;"/>
    <path clip-path="url(#p2448d71da6)" d="M 102.818122 60.74912
C 103.288183 60.74912 103.739054 60.562363 104.071436 60.22998
C 104.403819 59.897597 104.590576 59.446726 104.590576 58.976666
C 104.590576 58.506605 104.403819 58.055734 104.071436 57.723352
C 103.739054 57.390969 103.288183 57.204212 102.818122 57.204212
C 102.348062 57.204212 101.897191 57.390969 101.564808 57.723352
C 101.232425 58.055734 101.045669 58.506605 101.045669 58.976666
C 101.045669 59.446726 101.232425 59.897597 101.564808 60.22998
C 101.897191 60.562363 102.348062 60.74912 102.818122 60.74912
z
" style="fill:#1b9e77;stroke:#1b9e77;stroke-width:0.886227;"/>
    <path clip-path="url(#p2448d71da6)" d="M 102.102408 48.196667
C 102.572469 48.196667 103.02334 48.00991 103.355722 47.677527
C 103.688105 47.345144 103.874862 46.894273 103.874862 46.424213
C 103.874862 45.954153 103.688105 45.503282 103.355722 45.170899
C 103.02334 44.838516 102.572469 44.651759 102.102408 44.651759
C 101.632348 44.651759 101.181477 44.838516 100.849094 45.170899
C 100.516711 45.503282 100.329954 45.954153 100.329954 46.424213
C 100.329954 46.894273 100.516711 47.345144 100.849094 47.677527
C 101.181477 48.00991 101.632348 48.196667 102.102408 48.196667
z
" style="fill:#1b9e77;stroke:#1b9e77;stroke-width:0.886227;"/>
    <path clip-path="url(#p2448d71da6)" d="M 102.342481 35.644214
C 102.812542 35.644214 103.263413 35.457457 103.595796 35.125074
C 103.928178 34.792691 104.114935 34.34182 104.114935 33.87176
C 104.114935 33.4017 103.928178 32.950829 103.595796 32.618446
C 103.263413 32.286063 102.812542 32.099306 102.342481 32.099306
C 101.872421 32.099306 101.42155 32.286063 101.089167 32.618446
C 100.756784 32.950829 100.570028 33.4017 100.570028 33.87176
C 100.570028 34.34182 100.756784 34.792691 101.089167 35.125074
C 101.42155 35.457457 101.872421 35.644214 102.342481 35.644214
z
" style="fill:#1b9e77;stroke:#1b9e77;stroke-width:0.886227;"/>
    <path clip-path="url(#p2448d71da6)" d="M 123.32205 286.693271
C 123.79211 286.693271 124.242981 286.506514 124.575364 286.174131
C 124.907747 285.841748 125.094504 285.390877 125.094504 284.920817
C 125.094504 284.450756 124.907747 283.999885 124.575364 283.667503
C 124.242981 283.33512 123.79211 283.148363 123.32205 283.148363
C 122.85199 283.148363 122.401119 283.33512 122.068736 283.667503
C 121.736353 283.999885 121.549596 284.450756 121.549596 284.920817
C 121.549596 285.390877 121.736353 285.841748 122.068736 286.174131
C 122.401119 286.506514 122.85199 286.693271 123.32205 286.693271
z
" style="fill:#d95f02;stroke:#d95f02;stroke-width:0.886227;"/>
    <path clip-path="url(#p2448d71da6)" d="M 109.369348 274.140818
C 109.839408 274.140818 110.29028 273.954061 110.622662 273.621678
C 110.955045 273.289295 111.141802 272.838424 111.141802 272.368364
C 111.141802 271.898304 110.955045 271.447433 110.622662 271.11505
C 110.29028 270.782667 109.839408 270.59591 109.369348 270.59591
C 108.899288 270.59591 108.448417 270.782667 108.116034 271.11505
C 107.783651 271.447433 107.596894 271.898304 107.596894 272.368364
C 107.596894 272.838424 107.783651 273.289295 108.116034 273.621678
C 108.448417 273.954061 108.899288 274.140818 109.369348 274.140818
z
" style="fill:#d95f02;stroke:#d95f02;stroke-width:0.886227;"/>
    <path clip-path="url(#p2448d71da6)" d="M 112.152713 261.588365
C 112.622773 261.588365 113.073644 261.401608 113.406027 261.069225
C 113.73841 260.736842 113.925167 260.285971 113.925167 259.815911
C 113.925167 259.345851 113.73841 258.89498 113.406027 258.562597
C 113.073644 258.230214 112.622773 258.043457 112.152713 258.043457
C 111.682652 258.043457 111.231781 258.230214 110.899399 258.562597
C 110.567016 258.89498 110.380259 259.345851 110.380259 259.815911
C 110.380259 260.285971 110.567016 260.736842 110.899399 261.069225
C 111.231781 261.401608 111.682652 261.588365 112.152713 261.588365
z
" style="fill:#d95f02;stroke:#d95f02;stroke-width:0.886227;"/>
    <path clip-path="url(#p2448d71da6)" d="M 103.62812 249.035912
C 104.098181 249.035912 104.549052 248.849155 104.881435 248.516772
C 105.213817 248.18439 105.400574 247.733518 105.400574 247.263458
C 105.400574 246.793398 105.213817 246.342527 104.881435 246.010144
C 104.549052 245.677761 104.098181 245.491004 103.62812 245.491004
C 103.15806 245.491004 102.707189 245.677761 102.374806 246.010144
C 102.042423 246.342527 101.855667 246.793398 101.855667 247.263458
C 101.855667 247.733518 102.042423 248.18439 102.374806 248.516772
C 102.707189 248.849155 103.15806 249.035912 103.62812 249.035912
z
" style="fill:#d95f02;stroke:#d95f02;stroke-width:0.886227;"/>
    <path clip-path="url(#p2448d71da6)" d="M 105.061028 236.483459
C 105.531089 236.483459 105.98196 236.296702 106.314342 235.964319
C 106.646725 235.631937 106.833482 235.181066 106.833482 234.711005
C 106.833482 234.240945 106.646725 233.790074 106.314342 233.457691
C 105.98196 233.125308 105.531089 232.938552 105.061028 232.938552
C 104.590968 232.938552 104.140097 233.125308 103.807714 233.457691
C 103.475331 233.790074 103.288574 234.240945 103.288574 234.711005
C 103.288574 235.181066 103.475331 235.631937 103.807714 235.964319
C 104.140097 236.296702 104.590968 236.483459 105.061028 236.483459
z
" style="fill:#d95f02;stroke:#d95f02;stroke-width:0.886227;"/>
    <path clip-path="url(#p2448d71da6)" d="M 113.415747 223.931006
C 113.885808 223.931006 114.336679 223.744249 114.669061 223.411867
C 115.001444 223.079484 115.188201 222.628613 115.188201 222.158553
C 115.188201 221.688492 115.001444 221.237621 114.669061 220.905238
C 114.336679 220.572856 113.885808 220.386099 113.415747 220.386099
C 112.945687 220.386099 112.494816 220.572856 112.162433 220.905238
C 111.83005 221.237621 111.643293 221.688492 111.643293 222.158553
C 111.643293 222.628613 111.83005 223.079484 112.162433 223.411867
C 112.494816 223.744249 112.945687 223.931006 113.415747 223.931006
z
" style="fill:#d95f02;stroke:#d95f02;stroke-width:0.886227;"/>
    <path clip-path="url(#p2448d71da6)" d="M 102.590754 211.378554
C 103.060815 211.378554 103.511686 211.191797 103.844068 210.859414
C 104.176451 210.527031 104.363208 210.07616 104.363208 209.6061
C 104.363208 209.136039 104.176451 208.685168 103.844068 208.352786
C 103.511686 208.020403 103.060815 207.833646 102.590754 207.833646
C 102.120694 207.833646 101.669823 208.020403 101.33744 208.352786
C 101.005057 208.685168 100.8183 209.136039 100.8183 209.6061
C 100.8183 210.07616 101.005057 210.527031 101.33744 210.859414
C 101.669823 211.191797 102.120694 211.378554 102.590754 211.378554
z
" style="fill:#d95f02;stroke:#d95f02;stroke-width:0.886227;"/>
    <path clip-path="url(#p2448d71da6)" d="M 103.587154 198.826101
C 104.057214 198.826101 104.508085 198.639344 104.840468 198.306961
C 105.172851 197.974578 105.359608 197.523707 105.359608 197.053647
C 105.359608 196.583587 105.172851 196.132716 104.840468 195.800333
C 104.508085 195.46795 104.057214 195.281193 103.587154 195.281193
C 103.117093 195.281193 102.666222 195.46795 102.33384 195.800333
C 102.001457 196.132716 101.8147 196.583587 101.8147 197.053647
C 101.8147 197.523707 102.001457 197.974578 102.33384 198.306961
C 102.666222 198.639344 103.117093 198.826101 103.587154 198.826101
z
" style="fill:#d95f02;stroke:#d95f02;stroke-width:0.886227;"/>
    <path clip-path="url(#p2448d71da6)" d="M 104.374618 186.273648
C 104.844678 186.273648 105.295549 186.086891 105.627932 185.754508
C 105.960315 185.422125 106.147071 184.971254 106.147071 184.501194
C 106.147071 184.031134 105.960315 183.580263 105.627932 183.24788
C 105.295549 182.915497 104.844678 182.72874 104.374618 182.72874
C 103.904557 182.72874 103.453686 182.915497 103.121303 183.24788
C 102.788921 183.580263 102.602164 184.031134 102.602164 184.501194
C 102.602164 184.971254 102.788921 185.422125 103.121303 185.754508
C 103.453686 186.086891 103.904557 186.273648 104.374618 186.273648
z
" style="fill:#d95f02;stroke:#d95f02;stroke-width:0.886227;"/>
    <path clip-path="url(#p2448d71da6)" d="M 114.322668 173.721195
C 114.792728 173.721195 115.243599 173.534438 115.575982 173.202055
C 115.908365 172.869673 116.095122 172.418801 116.095122 171.948741
C 116.095122 171.478681 115.908365 171.02781 115.575982 170.695427
C 115.243599 170.363044 114.792728 170.176287 114.322668 170.176287
C 113.852608 170.176287 113.401737 170.363044 113.069354 170.695427
C 112.736971 171.02781 112.550214 171.478681 112.550214 171.948741
C 112.550214 172.418801 112.736971 172.869673 113.069354 173.202055
C 113.401737 173.534438 113.852608 173.721195 114.322668 173.721195
z
" style="fill:#d95f02;stroke:#d95f02;stroke-width:0.886227;"/>
    <path clip-path="url(#p2448d71da6)" d="M 100.406009 161.168742
C 100.876069 161.168742 101.32694 160.981985 101.659323 160.649603
C 101.991705 160.31722 102.178462 159.866349 102.178462 159.396288
C 102.178462 158.926228 101.991705 158.475357 101.659323 158.142974
C 101.32694 157.810591 100.876069 157.623835 100.406009 157.623835
C 99.935948 157.623835 99.485077 157.810591 99.152694 158.142974
C 98.820312 158.475357 98.633555 158.926228 98.633555 159.396288
C 98.633555 159.866349 98.820312 160.31722 99.152694 160.649603
C 99.485077 160.981985 99.935948 161.168742 100.406009 161.168742
z
" style="fill:#d95f02;stroke:#d95f02;stroke-width:0.886227;"/>
    <path clip-path="url(#p2448d71da6)" d="M 106.014095 148.616289
C 106.484156 148.616289 106.935027 148.429532 107.267409 148.09715
C 107.599792 147.764767 107.786549 147.313896 107.786549 146.843836
C 107.786549 146.373775 107.599792 145.922904 107.267409 145.590521
C 106.935027 145.258139 106.484156 145.071382 106.014095 145.071382
C 105.544035 145.071382 105.093164 145.258139 104.760781 145.590521
C 104.428398 145.922904 104.241641 146.373775 104.241641 146.843836
C 104.241641 147.313896 104.428398 147.764767 104.760781 148.09715
C 105.093164 148.429532 105.544035 148.616289 106.014095 148.616289
z
" style="fill:#d95f02;stroke:#d95f02;stroke-width:0.886227;"/>
    <path clip-path="url(#p2448d71da6)" d="M 103.586964 136.063837
C 104.057024 136.063837 104.507895 135.87708 104.840278 135.544697
C 105.172661 135.212314 105.359418 134.761443 105.359418 134.291383
C 105.359418 133.821322 105.172661 133.370451 104.840278 133.038069
C 104.507895 132.705686 104.057024 132.518929 103.586964 132.518929
C 103.116904 132.518929 102.666033 132.705686 102.33365 133.038069
C 102.001267 133.370451 101.81451 133.821322 101.81451 134.291383
C 101.81451 134.761443 102.001267 135.212314 102.33365 135.544697
C 102.666033 135.87708 103.116904 136.063837 103.586964 136.063837
z
" style="fill:#d95f02;stroke:#d95f02;stroke-width:0.886227;"/>
    <path clip-path="url(#p2448d71da6)" d="M 102.306922 123.511384
C 102.776982 123.511384 103.227853 123.324627 103.560236 122.992244
C 103.892619 122.659861 104.079376 122.20899 104.079376 121.73893
C 104.079376 121.26887 103.892619 120.817999 103.560236 120.485616
C 103.227853 120.153233 102.776982 119.966476 102.306922 119.966476
C 101.836862 119.966476 101.385991 120.153233 101.053608 120.485616
C 100.721225 120.817999 100.534468 121.26887 100.534468 121.73893
C 100.534468 122.20899 100.721225 122.659861 101.053608 122.992244
C 101.385991 123.324627 101.836862 123.511384 102.306922 123.511384
z
" style="fill:#d95f02;stroke:#d95f02;stroke-width:0.886227;"/>
    <path clip-path="url(#p2448d71da6)" d="M 101.746658 110.958931
C 102.216719 110.958931 102.66759 110.772174 102.999973 110.439791
C 103.332355 110.107408 103.519112 109.656537 103.519112 109.186477
C 103.519112 108.716417 103.332355 108.265546 102.999973 107.933163
C 102.66759 107.60078 102.216719 107.414023 101.746658 107.414023
C 101.276598 107.414023 100.825727 107.60078 100.493344 107.933163
C 100.160962 108.265546 99.974205 108.716417 99.974205 109.186477
C 99.974205 109.656537 100.160962 110.107408 100.493344 110.439791
C 100.825727 110.772174 101.276598 110.958931 101.746658 110.958931
z
" style="fill:#d95f02;stroke:#d95f02;stroke-width:0.886227;"/>
    <path clip-path="url(#p2448d71da6)" d="M 100.93506 98.406478
C 101.40512 98.406478 101.855991 98.219721 102.188374 97.887338
C 102.520757 97.554956 102.707514 97.104084 102.707514 96.634024
C 102.707514 96.163964 102.520757 95.713093 102.188374 95.38071
C 101.855991 95.048327 101.40512 94.86157 100.93506 94.86157
C 100.465 94.86157 100.014129 95.048327 99.681746 95.38071
C 99.349363 95.713093 99.162606 96.163964 99.162606 96.634024
C 99.162606 97.104084 99.349363 97.554956 99.681746 97.887338
C 100.014129 98.219721 100.465 98.406478 100.93506 98.406478
z
" style="fill:#d95f02;stroke:#d95f02;stroke-width:0.886227;"/>
    <path clip-path="url(#p2448d71da6)" d="M 104.628232 85.854025
C 105.098293 85.854025 105.549164 85.667268 105.881546 85.334886
C 106.213929 85.002503 106.400686 84.551632 106.400686 84.081571
C 106.400686 83.611511 106.213929 83.16064 105.881546 82.828257
C 105.549164 82.495874 105.098293 82.309118 104.628232 82.309118
C 104.158172 82.309118 103.707301 82.495874 103.374918 82.828257
C 103.042535 83.16064 102.855778 83.611511 102.855778 84.081571
C 102.855778 84.551632 103.042535 85.002503 103.374918 85.334886
C 103.707301 85.667268 104.158172 85.854025 104.628232 85.854025
z
" style="fill:#d95f02;stroke:#d95f02;stroke-width:0.886227;"/>
    <path clip-path="url(#p2448d71da6)" d="M 104.967018 73.301572
C 105.437079 73.301572 105.88795 73.114815 106.220333 72.782433
C 106.552715 72.45005 106.739472 71.999179 106.739472 71.529119
C 106.739472 71.059058 106.552715 70.608187 106.220333 70.275804
C 105.88795 69.943422 105.437079 69.756665 104.967018 69.756665
C 104.496958 69.756665 104.046087 69.943422 103.713704 70.275804
C 103.381322 70.608187 103.194565 71.059058 103.194565 71.529119
C 103.194565 71.999179 103.381322 72.45005 103.713704 72.782433
C 104.046087 73.114815 104.496958 73.301572 104.967018 73.301572
z
" style="fill:#d95f02;stroke:#d95f02;stroke-width:0.886227;"/>
    <path clip-path="url(#p2448d71da6)" d="M 101.658673 60.74912
C 102.128733 60.74912 102.579604 60.562363 102.911987 60.22998
C 103.24437 59.897597 103.431127 59.446726 103.431127 58.976666
C 103.431127 58.506605 103.24437 58.055734 102.911987 57.723352
C 102.579604 57.390969 102.128733 57.204212 101.658673 57.204212
C 101.188612 57.204212 100.737741 57.390969 100.405359 57.723352
C 100.072976 58.055734 99.886219 58.506605 99.886219 58.976666
C 99.886219 59.446726 100.072976 59.897597 100.405359 60.22998
C 100.737741 60.562363 101.188612 60.74912 101.658673 60.74912
z
" style="fill:#d95f02;stroke:#d95f02;stroke-width:0.886227;"/>
    <path clip-path="url(#p2448d71da6)" d="M 425.060554 48.196667
C 425.530614 48.196667 425.981485 48.00991 426.313868 47.677527
C 426.646251 47.345144 426.833008 46.894273 426.833008 46.424213
C 426.833008 45.954153 426.646251 45.503282 426.313868 45.170899
C 425.981485 44.838516 425.530614 44.651759 425.060554 44.651759
C 424.590494 44.651759 424.139623 44.838516 423.80724 45.170899
C 423.474857 45.503282 423.2881 45.954153 423.2881 46.424213
C 423.2881 46.894273 423.474857 47.345144 423.80724 47.677527
C 424.139623 48.00991 424.590494 48.196667 425.060554 48.196667
z
" style="fill:#d95f02;stroke:#d95f02;stroke-width:0.886227;"/>
    <path clip-path="url(#p2448d71da6)" d="M 130.408823 35.644214
C 130.878883 35.644214 131.329754 35.457457 131.662137 35.125074
C 131.994519 34.792691 132.181276 34.34182 132.181276 33.87176
C 132.181276 33.4017 131.994519 32.950829 131.662137 32.618446
C 131.329754 32.286063 130.878883 32.099306 130.408823 32.099306
C 129.938762 32.099306 129.487891 32.286063 129.155508 32.618446
C 128.823126 32.950829 128.636369 33.4017 128.636369 33.87176
C 128.636369 34.34182 128.823126 34.792691 129.155508 35.125074
C 129.487891 35.457457 129.938762 35.644214 130.408823 35.644214
z
" style="fill:#d95f02;stroke:#d95f02;stroke-width:0.886227;"/>
    <path clip-path="url(#p2448d71da6)" d="M 155.327957 148.616289
C 155.798017 148.616289 156.248888 148.429532 156.581271 148.09715
C 156.913654 147.764767 157.100411 147.313896 157.100411 146.843836
C 157.100411 146.373775 156.913654 145.922904 156.581271 145.590521
C 156.248888 145.258139 155.798017 145.071382 155.327957 145.071382
C 154.857897 145.071382 154.407026 145.258139 154.074643 145.590521
C 153.74226 145.922904 153.555503 146.373775 153.555503 146.843836
C 153.555503 147.313896 153.74226 147.764767 154.074643 148.09715
C 154.407026 148.429532 154.857897 148.616289 155.327957 148.616289
z
" style="fill:#7570b3;stroke:#7570b3;stroke-width:0.886227;"/>
    <path clip-path="url(#p2448d71da6)" d="M 250.677871 136.063837
C 251.147931 136.063837 251.598802 135.87708 251.931185 135.544697
C 252.263568 135.212314 252.450325 134.761443 252.450325 134.291383
C 252.450325 133.821322 252.263568 133.370451 251.931185 133.038069
C 251.598802 132.705686 251.147931 132.518929 250.677871 132.518929
C 250.20781 132.518929 249.756939 132.705686 249.424557 133.038069
C 249.092174 133.370451 248.905417 133.821322 248.905417 134.291383
C 248.905417 134.761443 249.092174 135.212314 249.424557 135.544697
C 249.756939 135.87708 250.20781 136.063837 250.677871 136.063837
z
" style="fill:#7570b3;stroke:#7570b3;stroke-width:0.886227;"/>
    <path clip-path="url(#p2448d71da6)" d="M 142.152959 123.511384
C 142.623019 123.511384 143.07389 123.324627 143.406273 122.992244
C 143.738656 122.659861 143.925413 122.20899 143.925413 121.73893
C 143.925413 121.26887 143.738656 120.817999 143.406273 120.485616
C 143.07389 120.153233 142.623019 119.966476 142.152959 119.966476
C 141.682899 119.966476 141.232028 120.153233 140.899645 120.485616
C 140.567262 120.817999 140.380505 121.26887 140.380505 121.73893
C 140.380505 122.20899 140.567262 122.659861 140.899645 122.992244
C 141.232028 123.324627 141.682899 123.511384 142.152959 123.511384
z
" style="fill:#7570b3;stroke:#7570b3;stroke-width:0.886227;"/>
    <path clip-path="url(#p2448d71da6)" d="M 113.869778 110.958931
C 114.339838 110.958931 114.790709 110.772174 115.123092 110.439791
C 115.455475 110.107408 115.642232 109.656537 115.642232 109.186477
C 115.642232 108.716417 115.455475 108.265546 115.123092 107.933163
C 114.790709 107.60078 114.339838 107.414023 113.869778 107.414023
C 113.399718 107.414023 112.948847 107.60078 112.616464 107.933163
C 112.284081 108.265546 112.097324 108.716417 112.097324 109.186477
C 112.097324 109.656537 112.284081 110.107408 112.616464 110.439791
C 112.948847 110.772174 113.399718 110.958931 113.869778 110.958931
z
" style="fill:#7570b3;stroke:#7570b3;stroke-width:0.886227;"/>
    <path clip-path="url(#p2448d71da6)" d="M 102.083481 98.406478
C 102.553541 98.406478 103.004412 98.219721 103.336795 97.887338
C 103.669178 97.554956 103.855935 97.104084 103.855935 96.634024
C 103.855935 96.163964 103.669178 95.713093 103.336795 95.38071
C 103.004412 95.048327 102.553541 94.86157 102.083481 94.86157
C 101.613421 94.86157 101.162549 95.048327 100.830167 95.38071
C 100.497784 95.713093 100.311027 96.163964 100.311027 96.634024
C 100.311027 97.104084 100.497784 97.554956 100.830167 97.887338
C 101.162549 98.219721 101.613421 98.406478 102.083481 98.406478
z
" style="fill:#7570b3;stroke:#7570b3;stroke-width:0.886227;"/>
    <path clip-path="url(#p2448d71da6)" d="M 100.406009 85.854025
C 100.876069 85.854025 101.32694 85.667268 101.659323 85.334886
C 101.991705 85.002503 102.178462 84.551632 102.178462 84.081571
C 102.178462 83.611511 101.991705 83.16064 101.659323 82.828257
C 101.32694 82.495874 100.876069 82.309118 100.406009 82.309118
C 99.935948 82.309118 99.485077 82.495874 99.152694 82.828257
C 98.820312 83.16064 98.633555 83.611511 98.633555 84.081571
C 98.633555 84.551632 98.820312 85.002503 99.152694 85.334886
C 99.485077 85.667268 99.935948 85.854025 100.406009 85.854025
z
" style="fill:#7570b3;stroke:#7570b3;stroke-width:0.886227;"/>
    <path clip-path="url(#p2448d71da6)" d="M 100.545846 73.301572
C 101.015907 73.301572 101.466778 73.114815 101.79916 72.782433
C 102.131543 72.45005 102.3183 71.999179 102.3183 71.529119
C 102.3183 71.059058 102.131543 70.608187 101.79916 70.275804
C 101.466778 69.943422 101.015907 69.756665 100.545846 69.756665
C 100.075786 69.756665 99.624915 69.943422 99.292532 70.275804
C 98.960149 70.608187 98.773392 71.059058 98.773392 71.529119
C 98.773392 71.999179 98.960149 72.45005 99.292532 72.782433
C 99.624915 73.114815 100.075786 73.301572 100.545846 73.301572
z
" style="fill:#7570b3;stroke:#7570b3;stroke-width:0.886227;"/>
    <path clip-path="url(#p2448d71da6)" d="M 100.517125 60.74912
C 100.987185 60.74912 101.438056 60.562363 101.770439 60.22998
C 102.102822 59.897597 102.289579 59.446726 102.289579 58.976666
C 102.289579 58.506605 102.102822 58.055734 101.770439 57.723352
C 101.438056 57.390969 100.987185 57.204212 100.517125 57.204212
C 100.047065 57.204212 99.596194 57.390969 99.263811 57.723352
C 98.931428 58.055734 98.744671 58.506605 98.744671 58.976666
C 98.744671 59.446726 98.931428 59.897597 99.263811 60.22998
C 99.596194 60.562363 100.047065 60.74912 100.517125 60.74912
z
" style="fill:#7570b3;stroke:#7570b3;stroke-width:0.886227;"/>
    <path clip-path="url(#p2448d71da6)" d="M 102.089235 48.196667
C 102.559295 48.196667 103.010166 48.00991 103.342549 47.677527
C 103.674932 47.345144 103.861688 46.894273 103.861688 46.424213
C 103.861688 45.954153 103.674932 45.503282 103.342549 45.170899
C 103.010166 44.838516 102.559295 44.651759 102.089235 44.651759
C 101.619174 44.651759 101.168303 44.838516 100.83592 45.170899
C 100.503538 45.503282 100.316781 45.954153 100.316781 46.424213
C 100.316781 46.894273 100.503538 47.345144 100.83592 47.677527
C 101.168303 48.00991 101.619174 48.196667 102.089235 48.196667
z
" style="fill:#7570b3;stroke:#7570b3;stroke-width:0.886227;"/>
    <path clip-path="url(#p2448d71da6)" d="M 101.296355 35.644214
C 101.766415 35.644214 102.217286 35.457457 102.549669 35.125074
C 102.882051 34.792691 103.068808 34.34182 103.068808 33.87176
C 103.068808 33.4017 102.882051 32.950829 102.549669 32.618446
C 102.217286 32.286063 101.766415 32.099306 101.296355 32.099306
C 100.826294 32.099306 100.375423 32.286063 100.04304 32.618446
C 99.710658 32.950829 99.523901 33.4017 99.523901 33.87176
C 99.523901 34.34182 99.710658 34.792691 100.04304 35.125074
C 100.375423 35.457457 100.826294 35.644214 101.296355 35.644214
z
" style="fill:#7570b3;stroke:#7570b3;stroke-width:0.886227;"/>
   </g>
   <g id="line2d_32">
    <path clip-path="url(#p2448d71da6)" d="M 105.567483 284.920817
L 105.597208 272.368364
L 105.816655 259.815911
L 105.886496 247.263458
L 105.550434 234.711005
L 105.497853 222.158553
L 105.060617 209.6061
L 102.359609 197.053647
L 102.463207 184.501194
L 103.611668 171.948741
L 100.406009 159.396288
L 100.414665 146.843836
L 103.215426 134.291383
L 103.312251 121.73893
L 103.16633 109.186477
L 103.018208 96.634024
L 103.259208 84.081571
L 103.470184 71.529119
L 102.818122 58.976666
L 102.102408 46.424213
L 102.342481 33.87176
" style="fill:none;stroke:#1b9e77;stroke-width:0.886227;"/>
   </g>
   <g id="line2d_33">
    <path clip-path="url(#p2448d71da6)" d="M 123.32205 284.920817
L 109.369348 272.368364
L 112.152713 259.815911
L 103.62812 247.263458
L 105.061028 234.711005
L 113.415747 222.158553
L 102.590754 209.6061
L 103.587154 197.053647
L 104.374618 184.501194
L 114.322668 171.948741
L 100.406009 159.396288
L 106.014095 146.843836
L 103.586964 134.291383
L 102.306922 121.73893
L 101.746658 109.186477
L 100.93506 96.634024
L 104.628232 84.081571
L 104.967018 71.529119
L 101.658673 58.976666
L 425.060554 46.424213
L 130.408823 33.87176
" style="fill:none;stroke:#d95f02;stroke-width:0.886227;"/>
   </g>
   <g id="line2d_34">
    <path clip-path="url(#p2448d71da6)" d="M 155.327957 146.843836
L 250.677871 134.291383
L 142.152959 121.73893
L 113.869778 109.186477
L 102.083481 96.634024
L 100.406009 84.081571
L 100.545846 71.529119
L 100.517125 58.976666
L 102.089235 46.424213
L 101.296355 33.87176
" style="fill:none;stroke:#7570b3;stroke-width:0.886227;"/>
   </g>
   <g id="patch_3">
    <path d="M 84.173281 292.452288
L 84.173281 26.340288
" style="fill:none;stroke:#262626;stroke-linecap:square;stroke-linejoin:miter;stroke-width:1.25;"/>
   </g>
   <g id="patch_4">
    <path d="M 441.293281 292.452288
L 441.293281 26.340288
" style="fill:none;stroke:#262626;stroke-linecap:square;stroke-linejoin:miter;stroke-width:1.25;"/>
   </g>
   <g id="patch_5">
    <path d="M 84.173281 292.452288
L 441.293281 292.452288
" style="fill:none;stroke:#262626;stroke-linecap:square;stroke-linejoin:miter;stroke-width:1.25;"/>
   </g>
   <g id="patch_6">
    <path d="M 84.173281 26.340288
L 441.293281 26.340288
" style="fill:none;stroke:#262626;stroke-linecap:square;stroke-linejoin:miter;stroke-width:1.25;"/>
   </g>
   <g id="text_29">
    <!-- label -->
    <g transform="translate(468.493281 127.770476)scale(0.12 -0.12)">
     <defs>
      <path d="M 6.390625 0
L 6.390625 71.578125
L 15.1875 71.578125
L 15.1875 0
z
" id="ArialMT-108"/>
      <path d="M 40.4375 6.390625
Q 35.546875 2.25 31.03125 0.53125
Q 26.515625 -1.171875 21.34375 -1.171875
Q 12.796875 -1.171875 8.203125 3
Q 3.609375 7.171875 3.609375 13.671875
Q 3.609375 17.484375 5.34375 20.625
Q 7.078125 23.78125 9.890625 25.6875
Q 12.703125 27.59375 16.21875 28.5625
Q 18.796875 29.25 24.03125 29.890625
Q 34.671875 31.15625 39.703125 32.90625
Q 39.75 34.71875 39.75 35.203125
Q 39.75 40.578125 37.25 42.78125
Q 33.890625 45.75 27.25 45.75
Q 21.046875 45.75 18.09375 43.578125
Q 15.140625 41.40625 13.71875 35.890625
L 5.125 37.0625
Q 6.296875 42.578125 8.984375 45.96875
Q 11.671875 49.359375 16.75 51.1875
Q 21.828125 53.03125 28.515625 53.03125
Q 35.15625 53.03125 39.296875 51.46875
Q 43.453125 49.90625 45.40625 47.53125
Q 47.359375 45.171875 48.140625 41.546875
Q 48.578125 39.3125 48.578125 33.453125
L 48.578125 21.734375
Q 48.578125 9.46875 49.140625 6.21875
Q 49.703125 2.984375 51.375 0
L 42.1875 0
Q 40.828125 2.734375 40.4375 6.390625
z
M 39.703125 26.03125
Q 34.90625 24.078125 25.34375 22.703125
Q 19.921875 21.921875 17.671875 20.9375
Q 15.4375 19.96875 14.203125 18.09375
Q 12.984375 16.21875 12.984375 13.921875
Q 12.984375 10.40625 15.640625 8.0625
Q 18.3125 5.71875 23.4375 5.71875
Q 28.515625 5.71875 32.46875 7.9375
Q 36.421875 10.15625 38.28125 14.015625
Q 39.703125 17 39.703125 22.796875
z
" id="ArialMT-97"/>
      <path d="M 14.703125 0
L 6.546875 0
L 6.546875 71.578125
L 15.328125 71.578125
L 15.328125 46.046875
Q 20.90625 53.03125 29.546875 53.03125
Q 34.328125 53.03125 38.59375 51.09375
Q 42.875 49.171875 45.625 45.671875
Q 48.390625 42.1875 49.953125 37.25
Q 51.515625 32.328125 51.515625 26.703125
Q 51.515625 13.375 44.921875 6.09375
Q 38.328125 -1.171875 29.109375 -1.171875
Q 19.921875 -1.171875 14.703125 6.5
z
M 14.59375 26.3125
Q 14.59375 17 17.140625 12.84375
Q 21.296875 6.0625 28.375 6.0625
Q 34.125 6.0625 38.328125 11.0625
Q 42.53125 16.0625 42.53125 25.984375
Q 42.53125 36.140625 38.5 40.96875
Q 34.46875 45.796875 28.765625 45.796875
Q 23 45.796875 18.796875 40.796875
Q 14.59375 35.796875 14.59375 26.3125
z
" id="ArialMT-98"/>
     </defs>
     <use xlink:href="#ArialMT-108"/>
     <use x="22.216797" xlink:href="#ArialMT-97"/>
     <use x="77.832031" xlink:href="#ArialMT-98"/>
     <use x="133.447266" xlink:href="#ArialMT-101"/>
     <use x="189.0625" xlink:href="#ArialMT-108"/>
    </g>
   </g>
   <g id="patch_7">
    <path clip-path="url(#p33155f098c)" d="M 468.493281 156.155476
L 486.493281 156.155476
L 486.493281 138.155476
L 468.493281 138.155476
z
" style="fill:#ffffff;"/>
   </g>
   <g id="line2d_35">
    <path clip-path="url(#p33155f098c)" d="M 477.493281 147.155476
" style="fill:none;stroke:#1f77b4;stroke-linecap:round;stroke-width:1.5;"/>
    <defs>
     <path d="M 0 1.772454
C 0.47006 1.772454 0.920931 1.585697 1.253314 1.253314
C 1.585697 0.920931 1.772454 0.47006 1.772454 0
C 1.772454 -0.47006 1.585697 -0.920931 1.253314 -1.253314
C 0.920931 -1.585697 0.47006 -1.772454 0 -1.772454
C -0.47006 -1.772454 -0.920931 -1.585697 -1.253314 -1.253314
C -1.585697 -0.920931 -1.772454 -0.47006 -1.772454 0
C -1.772454 0.47006 -1.585697 0.920931 -1.253314 1.253314
C -0.920931 1.585697 -0.47006 1.772454 0 1.772454
z
" id="m007783584f" style="stroke:#1b9e77;stroke-width:0.886227;"/>
    </defs>
    <g clip-path="url(#p33155f098c)">
     <use style="fill:#1b9e77;stroke:#1b9e77;stroke-width:0.886227;" x="477.493281" xlink:href="#m007783584f" y="147.155476"/>
    </g>
   </g>
   <g id="line2d_36">
    <path clip-path="url(#p33155f098c)" d="M 468.493281 147.155476
L 486.493281 147.155476
" style="fill:none;stroke:#1b9e77;stroke-width:0.886227;"/>
   </g>
   <g id="text_30">
    <!-- correction_model -->
    <g transform="translate(489.493281 150.257663)scale(0.12 -0.12)">
     <defs>
      <path d="M -1.515625 -19.875
L -1.515625 -13.53125
L 56.734375 -13.53125
L 56.734375 -19.875
z
" id="ArialMT-95"/>
     </defs>
     <use xlink:href="#ArialMT-99"/>
     <use x="50" xlink:href="#ArialMT-111"/>
     <use x="105.615234" xlink:href="#ArialMT-114"/>
     <use x="138.916016" xlink:href="#ArialMT-114"/>
     <use x="172.216797" xlink:href="#ArialMT-101"/>
     <use x="227.832031" xlink:href="#ArialMT-99"/>
     <use x="277.832031" xlink:href="#ArialMT-116"/>
     <use x="305.615234" xlink:href="#ArialMT-105"/>
     <use x="327.832031" xlink:href="#ArialMT-111"/>
     <use x="383.447266" xlink:href="#ArialMT-110"/>
     <use x="439.0625" xlink:href="#ArialMT-95"/>
     <use x="494.677734" xlink:href="#ArialMT-109"/>
     <use x="577.978516" xlink:href="#ArialMT-111"/>
     <use x="633.59375" xlink:href="#ArialMT-100"/>
     <use x="689.208984" xlink:href="#ArialMT-101"/>
     <use x="744.824219" xlink:href="#ArialMT-108"/>
    </g>
   </g>
   <g id="patch_8">
    <path clip-path="url(#p6a7d79b25e)" d="M 468.493281 176.155476
L 486.493281 176.155476
L 486.493281 158.155476
L 468.493281 158.155476
z
" style="fill:#ffffff;"/>
   </g>
   <g id="line2d_37">
    <path clip-path="url(#p6a7d79b25e)" d="M 477.493281 167.155476
" style="fill:none;stroke:#1f77b4;stroke-linecap:round;stroke-width:1.5;"/>
    <defs>
     <path d="M 0 1.772454
C 0.47006 1.772454 0.920931 1.585697 1.253314 1.253314
C 1.585697 0.920931 1.772454 0.47006 1.772454 0
C 1.772454 -0.47006 1.585697 -0.920931 1.253314 -1.253314
C 0.920931 -1.585697 0.47006 -1.772454 0 -1.772454
C -0.47006 -1.772454 -0.920931 -1.585697 -1.253314 -1.253314
C -1.585697 -0.920931 -1.772454 -0.47006 -1.772454 0
C -1.772454 0.47006 -1.585697 0.920931 -1.253314 1.253314
C -0.920931 1.585697 -0.47006 1.772454 0 1.772454
z
" id="m66e443bd32" style="stroke:#d95f02;stroke-width:0.886227;"/>
    </defs>
    <g clip-path="url(#p6a7d79b25e)">
     <use style="fill:#d95f02;stroke:#d95f02;stroke-width:0.886227;" x="477.493281" xlink:href="#m66e443bd32" y="167.155476"/>
    </g>
   </g>
   <g id="line2d_38">
    <path clip-path="url(#p6a7d79b25e)" d="M 468.493281 167.155476
L 486.493281 167.155476
" style="fill:none;stroke:#d95f02;stroke-width:0.886227;"/>
   </g>
   <g id="text_31">
    <!-- pandemic token -->
    <g transform="translate(489.493281 170.257663)scale(0.12 -0.12)">
     <defs>
      <path d="M 6.59375 -19.875
L 6.59375 51.859375
L 14.59375 51.859375
L 14.59375 45.125
Q 17.4375 49.078125 21 51.046875
Q 24.5625 53.03125 29.640625 53.03125
Q 36.28125 53.03125 41.359375 49.609375
Q 46.4375 46.1875 49.015625 39.953125
Q 51.609375 33.734375 51.609375 26.3125
Q 51.609375 18.359375 48.75 11.984375
Q 45.90625 5.609375 40.453125 2.21875
Q 35.015625 -1.171875 29 -1.171875
Q 24.609375 -1.171875 21.109375 0.6875
Q 17.625 2.546875 15.375 5.375
L 15.375 -19.875
z
M 14.546875 25.640625
Q 14.546875 15.625 18.59375 10.84375
Q 22.65625 6.0625 28.421875 6.0625
Q 34.28125 6.0625 38.453125 11.015625
Q 42.625 15.96875 42.625 26.375
Q 42.625 36.28125 38.546875 41.203125
Q 34.46875 46.140625 28.8125 46.140625
Q 23.1875 46.140625 18.859375 40.890625
Q 14.546875 35.640625 14.546875 25.640625
z
" id="ArialMT-112"/>
      <path d="M 6.640625 0
L 6.640625 71.578125
L 15.4375 71.578125
L 15.4375 30.765625
L 36.234375 51.859375
L 47.609375 51.859375
L 27.78125 32.625
L 49.609375 0
L 38.765625 0
L 21.625 26.515625
L 15.4375 20.5625
L 15.4375 0
z
" id="ArialMT-107"/>
     </defs>
     <use xlink:href="#ArialMT-112"/>
     <use x="55.615234" xlink:href="#ArialMT-97"/>
     <use x="111.230469" xlink:href="#ArialMT-110"/>
     <use x="166.845703" xlink:href="#ArialMT-100"/>
     <use x="222.460938" xlink:href="#ArialMT-101"/>
     <use x="278.076172" xlink:href="#ArialMT-109"/>
     <use x="361.376953" xlink:href="#ArialMT-105"/>
     <use x="383.59375" xlink:href="#ArialMT-99"/>
     <use x="433.59375" xlink:href="#ArialMT-32"/>
     <use x="461.376953" xlink:href="#ArialMT-116"/>
     <use x="489.160156" xlink:href="#ArialMT-111"/>
     <use x="544.775391" xlink:href="#ArialMT-107"/>
     <use x="594.775391" xlink:href="#ArialMT-101"/>
     <use x="650.390625" xlink:href="#ArialMT-110"/>
    </g>
   </g>
   <g id="patch_9">
    <path clip-path="url(#p9841f1a2cf)" d="M 468.493281 196.155476
L 486.493281 196.155476
L 486.493281 178.155476
L 468.493281 178.155476
z
" style="fill:#ffffff;"/>
   </g>
   <g id="line2d_39">
    <path clip-path="url(#p9841f1a2cf)" d="M 477.493281 187.155476
" style="fill:none;stroke:#1f77b4;stroke-linecap:round;stroke-width:1.5;"/>
    <defs>
     <path d="M 0 1.772454
C 0.47006 1.772454 0.920931 1.585697 1.253314 1.253314
C 1.585697 0.920931 1.772454 0.47006 1.772454 0
C 1.772454 -0.47006 1.585697 -0.920931 1.253314 -1.253314
C 0.920931 -1.585697 0.47006 -1.772454 0 -1.772454
C -0.47006 -1.772454 -0.920931 -1.585697 -1.253314 -1.253314
C -1.585697 -0.920931 -1.772454 -0.47006 -1.772454 0
C -1.772454 0.47006 -1.585697 0.920931 -1.253314 1.253314
C -0.920931 1.585697 -0.47006 1.772454 0 1.772454
z
" id="m14b9146394" style="stroke:#7570b3;stroke-width:0.886227;"/>
    </defs>
    <g clip-path="url(#p9841f1a2cf)">
     <use style="fill:#7570b3;stroke:#7570b3;stroke-width:0.886227;" x="477.493281" xlink:href="#m14b9146394" y="187.155476"/>
    </g>
   </g>
   <g id="line2d_40">
    <path clip-path="url(#p9841f1a2cf)" d="M 468.493281 187.155476
L 486.493281 187.155476
" style="fill:none;stroke:#7570b3;stroke-width:0.886227;"/>
   </g>
   <g id="text_32">
    <!-- cas9 token -->
    <g transform="translate(489.493281 190.257663)scale(0.12 -0.12)">
     <use xlink:href="#ArialMT-99"/>
     <use x="50" xlink:href="#ArialMT-97"/>
     <use x="105.615234" xlink:href="#ArialMT-115"/>
     <use x="155.615234" xlink:href="#ArialMT-57"/>
     <use x="211.230469" xlink:href="#ArialMT-32"/>
     <use x="239.013672" xlink:href="#ArialMT-116"/>
     <use x="266.796875" xlink:href="#ArialMT-111"/>
     <use x="322.412109" xlink:href="#ArialMT-107"/>
     <use x="372.412109" xlink:href="#ArialMT-101"/>
     <use x="428.027344" xlink:href="#ArialMT-110"/>
    </g>
   </g>
  </g>
  <g id="text_33">
   <!-- Percent Difference Relative to 2010-2011 -->
   <g style="fill:#262626;" transform="translate(147.462969 15.789375)scale(0.12 -0.12)">
    <defs>
     <path d="M 7.859375 0
L 7.859375 71.578125
L 39.59375 71.578125
Q 49.171875 71.578125 54.140625 69.640625
Q 59.125 67.71875 62.109375 62.828125
Q 65.09375 57.953125 65.09375 52.046875
Q 65.09375 44.4375 60.15625 39.203125
Q 55.21875 33.984375 44.921875 32.5625
Q 48.6875 30.765625 50.640625 29
Q 54.78125 25.203125 58.5 19.484375
L 70.953125 0
L 59.03125 0
L 49.5625 14.890625
Q 45.40625 21.34375 42.71875 24.75
Q 40.046875 28.171875 37.921875 29.53125
Q 35.796875 30.90625 33.59375 31.453125
Q 31.984375 31.78125 28.328125 31.78125
L 17.328125 31.78125
L 17.328125 0
z
M 17.328125 39.984375
L 37.703125 39.984375
Q 44.1875 39.984375 47.84375 41.328125
Q 51.515625 42.671875 53.421875 45.625
Q 55.328125 48.578125 55.328125 52.046875
Q 55.328125 57.125 51.640625 60.390625
Q 47.953125 63.671875 39.984375 63.671875
L 17.328125 63.671875
z
" id="ArialMT-82"/>
     <path d="M 21 0
L 1.265625 51.859375
L 10.546875 51.859375
L 21.6875 20.796875
Q 23.484375 15.765625 25 10.359375
Q 26.171875 14.453125 28.265625 20.21875
L 39.796875 51.859375
L 48.828125 51.859375
L 29.203125 0
z
" id="ArialMT-118"/>
    </defs>
    <use xlink:href="#ArialMT-80"/>
    <use x="66.699219" xlink:href="#ArialMT-101"/>
    <use x="122.314453" xlink:href="#ArialMT-114"/>
    <use x="155.615234" xlink:href="#ArialMT-99"/>
    <use x="205.615234" xlink:href="#ArialMT-101"/>
    <use x="261.230469" xlink:href="#ArialMT-110"/>
    <use x="316.845703" xlink:href="#ArialMT-116"/>
    <use x="344.628906" xlink:href="#ArialMT-32"/>
    <use x="372.412109" xlink:href="#ArialMT-68"/>
    <use x="444.628906" xlink:href="#ArialMT-105"/>
    <use x="466.845703" xlink:href="#ArialMT-102"/>
    <use x="492.878906" xlink:href="#ArialMT-102"/>
    <use x="520.662109" xlink:href="#ArialMT-101"/>
    <use x="576.277344" xlink:href="#ArialMT-114"/>
    <use x="609.578125" xlink:href="#ArialMT-101"/>
    <use x="665.193359" xlink:href="#ArialMT-110"/>
    <use x="720.808594" xlink:href="#ArialMT-99"/>
    <use x="770.808594" xlink:href="#ArialMT-101"/>
    <use x="826.423828" xlink:href="#ArialMT-32"/>
    <use x="854.207031" xlink:href="#ArialMT-82"/>
    <use x="926.423828" xlink:href="#ArialMT-101"/>
    <use x="982.039062" xlink:href="#ArialMT-108"/>
    <use x="1004.255859" xlink:href="#ArialMT-97"/>
    <use x="1059.871094" xlink:href="#ArialMT-116"/>
    <use x="1087.654297" xlink:href="#ArialMT-105"/>
    <use x="1109.871094" xlink:href="#ArialMT-118"/>
    <use x="1159.871094" xlink:href="#ArialMT-101"/>
    <use x="1215.486328" xlink:href="#ArialMT-32"/>
    <use x="1243.269531" xlink:href="#ArialMT-116"/>
    <use x="1271.052734" xlink:href="#ArialMT-111"/>
    <use x="1326.667969" xlink:href="#ArialMT-32"/>
    <use x="1354.451172" xlink:href="#ArialMT-50"/>
    <use x="1410.066406" xlink:href="#ArialMT-48"/>
    <use x="1465.681641" xlink:href="#ArialMT-49"/>
    <use x="1521.296875" xlink:href="#ArialMT-48"/>
    <use x="1576.912109" xlink:href="#ArialMT-45"/>
    <use x="1610.212891" xlink:href="#ArialMT-50"/>
    <use x="1665.828125" xlink:href="#ArialMT-48"/>
    <use x="1721.443359" xlink:href="#ArialMT-49"/>
    <use x="1769.683594" xlink:href="#ArialMT-49"/>
   </g>
  </g>
 </g>
 <defs>
  <clipPath id="p2448d71da6">
   <rect height="266.112" width="357.12" x="84.173281" y="26.340288"/>
  </clipPath>
  <clipPath id="p33155f098c">
   <path d="M 468.493281 156.155476
L 468.493281 138.155476
L 486.493281 138.155476
L 486.493281 156.155476
"/>
  </clipPath>
  <clipPath id="p6a7d79b25e">
   <path d="M 468.493281 176.155476
L 468.493281 158.155476
L 486.493281 158.155476
L 486.493281 176.155476
"/>
  </clipPath>
  <clipPath id="p9841f1a2cf">
   <path d="M 468.493281 196.155476
L 468.493281 178.155476
L 486.493281 178.155476
L 486.493281 196.155476
"/>
  </clipPath>
 </defs>
</svg>
