<?xml version="1.0" encoding="utf-8" standalone="no"?>
<!DOCTYPE svg PUBLIC "-//W3C//DTD SVG 1.1//EN"
  "http://www.w3.org/Graphics/SVG/1.1/DTD/svg11.dtd">
<!-- Created with matplotlib (https://matplotlib.org/) -->
<svg height="334.086507pt" version="1.1" viewBox="0 0 608.731406 334.086507" width="608.731406pt" xmlns="http://www.w3.org/2000/svg" xmlns:xlink="http://www.w3.org/1999/xlink">
 <metadata>
  <rdf:RDF xmlns:cc="http://creativecommons.org/ns#" xmlns:dc="http://purl.org/dc/elements/1.1/" xmlns:rdf="http://www.w3.org/1999/02/22-rdf-syntax-ns#">
   <cc:Work>
    <dc:type rdf:resource="http://purl.org/dc/dcmitype/StillImage"/>
    <dc:date>2022-05-19T15:10:50.793025</dc:date>
    <dc:format>image/svg+xml</dc:format>
    <dc:creator>
     <cc:Agent>
      <dc:title>Matplotlib v3.3.3, https://matplotlib.org/</dc:title>
     </cc:Agent>
    </dc:creator>
   </cc:Work>
  </rdf:RDF>
 </metadata>
 <defs>
  <style type="text/css">*{stroke-linecap:butt;stroke-linejoin:round;}</style>
 </defs>
 <g id="figure_1">
  <g id="patch_1">
   <path d="M 0 334.086507
L 608.731406 334.086507
L 608.731406 0
L 0 0
z
" style="fill:#ffffff;"/>
  </g>
  <g id="axes_1">
   <g id="patch_2">
    <path d="M 84.173281 292.452288
L 441.293281 292.452288
L 441.293281 26.340288
L 84.173281 26.340288
z
" style="fill:#ffffff;"/>
   </g>
   <g id="matplotlib.axis_1">
    <g id="xtick_1">
     <g id="line2d_1">
      <defs>
       <path d="M 0 0
L 0 6
" id="m17e5eb01d5" style="stroke:#262626;stroke-width:1.25;"/>
      </defs>
      <g>
       <use style="fill:#262626;stroke:#262626;stroke-width:1.25;" x="100.406009" xlink:href="#m17e5eb01d5" y="292.452288"/>
      </g>
     </g>
     <g id="text_1">
      <!-- 0 -->
      <g style="fill:#262626;" transform="translate(97.347493 308.725882)scale(0.11 -0.11)">
       <defs>
        <path d="M 4.15625 35.296875
Q 4.15625 48 6.765625 55.734375
Q 9.375 63.484375 14.515625 67.671875
Q 19.671875 71.875 27.484375 71.875
Q 33.25 71.875 37.59375 69.546875
Q 41.9375 67.234375 44.765625 62.859375
Q 47.609375 58.5 49.21875 52.21875
Q 50.828125 45.953125 50.828125 35.296875
Q 50.828125 22.703125 48.234375 14.96875
Q 45.65625 7.234375 40.5 3
Q 35.359375 -1.21875 27.484375 -1.21875
Q 17.140625 -1.21875 11.234375 6.203125
Q 4.15625 15.140625 4.15625 35.296875
z
M 13.1875 35.296875
Q 13.1875 17.671875 17.3125 11.828125
Q 21.4375 6 27.484375 6
Q 33.546875 6 37.671875 11.859375
Q 41.796875 17.71875 41.796875 35.296875
Q 41.796875 52.984375 37.671875 58.78125
Q 33.546875 64.59375 27.390625 64.59375
Q 21.34375 64.59375 17.71875 59.46875
Q 13.1875 52.9375 13.1875 35.296875
z
" id="ArialMT-48"/>
       </defs>
       <use xlink:href="#ArialMT-48"/>
      </g>
     </g>
    </g>
    <g id="xtick_2">
     <g id="line2d_2">
      <g>
       <use style="fill:#262626;stroke:#262626;stroke-width:1.25;" x="176.616217" xlink:href="#m17e5eb01d5" y="292.452288"/>
      </g>
     </g>
     <g id="text_2">
      <!-- 0.2 -->
      <g style="fill:#262626;" transform="translate(168.971217 308.725882)scale(0.11 -0.11)">
       <defs>
        <path d="M 9.078125 0
L 9.078125 10.015625
L 19.09375 10.015625
L 19.09375 0
z
" id="ArialMT-46"/>
        <path d="M 50.34375 8.453125
L 50.34375 0
L 3.03125 0
Q 2.9375 3.171875 4.046875 6.109375
Q 5.859375 10.9375 9.828125 15.625
Q 13.8125 20.3125 21.34375 26.46875
Q 33.015625 36.03125 37.109375 41.625
Q 41.21875 47.21875 41.21875 52.203125
Q 41.21875 57.421875 37.46875 61
Q 33.734375 64.59375 27.734375 64.59375
Q 21.390625 64.59375 17.578125 60.78125
Q 13.765625 56.984375 13.71875 50.25
L 4.6875 51.171875
Q 5.609375 61.28125 11.65625 66.578125
Q 17.71875 71.875 27.9375 71.875
Q 38.234375 71.875 44.234375 66.15625
Q 50.25 60.453125 50.25 52
Q 50.25 47.703125 48.484375 43.546875
Q 46.734375 39.40625 42.65625 34.8125
Q 38.578125 30.21875 29.109375 22.21875
Q 21.1875 15.578125 18.9375 13.203125
Q 16.703125 10.84375 15.234375 8.453125
z
" id="ArialMT-50"/>
       </defs>
       <use xlink:href="#ArialMT-48"/>
       <use x="55.615234" xlink:href="#ArialMT-46"/>
       <use x="83.398438" xlink:href="#ArialMT-50"/>
      </g>
     </g>
    </g>
    <g id="xtick_3">
     <g id="line2d_3">
      <g>
       <use style="fill:#262626;stroke:#262626;stroke-width:1.25;" x="252.826425" xlink:href="#m17e5eb01d5" y="292.452288"/>
      </g>
     </g>
     <g id="text_3">
      <!-- 0.4 -->
      <g style="fill:#262626;" transform="translate(245.181425 308.725882)scale(0.11 -0.11)">
       <defs>
        <path d="M 32.328125 0
L 32.328125 17.140625
L 1.265625 17.140625
L 1.265625 25.203125
L 33.9375 71.578125
L 41.109375 71.578125
L 41.109375 25.203125
L 50.78125 25.203125
L 50.78125 17.140625
L 41.109375 17.140625
L 41.109375 0
z
M 32.328125 25.203125
L 32.328125 57.46875
L 9.90625 25.203125
z
" id="ArialMT-52"/>
       </defs>
       <use xlink:href="#ArialMT-48"/>
       <use x="55.615234" xlink:href="#ArialMT-46"/>
       <use x="83.398438" xlink:href="#ArialMT-52"/>
      </g>
     </g>
    </g>
    <g id="xtick_4">
     <g id="line2d_4">
      <g>
       <use style="fill:#262626;stroke:#262626;stroke-width:1.25;" x="329.036633" xlink:href="#m17e5eb01d5" y="292.452288"/>
      </g>
     </g>
     <g id="text_4">
      <!-- 0.6 -->
      <g style="fill:#262626;" transform="translate(321.391633 308.725882)scale(0.11 -0.11)">
       <defs>
        <path d="M 49.75 54.046875
L 41.015625 53.375
Q 39.84375 58.546875 37.703125 60.890625
Q 34.125 64.65625 28.90625 64.65625
Q 24.703125 64.65625 21.53125 62.3125
Q 17.390625 59.28125 14.984375 53.46875
Q 12.59375 47.65625 12.5 36.921875
Q 15.671875 41.75 20.265625 44.09375
Q 24.859375 46.4375 29.890625 46.4375
Q 38.671875 46.4375 44.84375 39.96875
Q 51.03125 33.5 51.03125 23.25
Q 51.03125 16.5 48.125 10.71875
Q 45.21875 4.9375 40.140625 1.859375
Q 35.0625 -1.21875 28.609375 -1.21875
Q 17.625 -1.21875 10.6875 6.859375
Q 3.765625 14.9375 3.765625 33.5
Q 3.765625 54.25 11.421875 63.671875
Q 18.109375 71.875 29.4375 71.875
Q 37.890625 71.875 43.28125 67.140625
Q 48.6875 62.40625 49.75 54.046875
z
M 13.875 23.1875
Q 13.875 18.65625 15.796875 14.5
Q 17.71875 10.359375 21.1875 8.171875
Q 24.65625 6 28.46875 6
Q 34.03125 6 38.03125 10.484375
Q 42.046875 14.984375 42.046875 22.703125
Q 42.046875 30.125 38.078125 34.390625
Q 34.125 38.671875 28.125 38.671875
Q 22.171875 38.671875 18.015625 34.390625
Q 13.875 30.125 13.875 23.1875
z
" id="ArialMT-54"/>
       </defs>
       <use xlink:href="#ArialMT-48"/>
       <use x="55.615234" xlink:href="#ArialMT-46"/>
       <use x="83.398438" xlink:href="#ArialMT-54"/>
      </g>
     </g>
    </g>
    <g id="xtick_5">
     <g id="line2d_5">
      <g>
       <use style="fill:#262626;stroke:#262626;stroke-width:1.25;" x="405.246841" xlink:href="#m17e5eb01d5" y="292.452288"/>
      </g>
     </g>
     <g id="text_5">
      <!-- 0.8 -->
      <g style="fill:#262626;" transform="translate(397.601841 308.725882)scale(0.11 -0.11)">
       <defs>
        <path d="M 17.671875 38.8125
Q 12.203125 40.828125 9.5625 44.53125
Q 6.9375 48.25 6.9375 53.421875
Q 6.9375 61.234375 12.546875 66.546875
Q 18.171875 71.875 27.484375 71.875
Q 36.859375 71.875 42.578125 66.421875
Q 48.296875 60.984375 48.296875 53.171875
Q 48.296875 48.1875 45.671875 44.5
Q 43.0625 40.828125 37.75 38.8125
Q 44.34375 36.671875 47.78125 31.875
Q 51.21875 27.09375 51.21875 20.453125
Q 51.21875 11.28125 44.71875 5.03125
Q 38.234375 -1.21875 27.640625 -1.21875
Q 17.046875 -1.21875 10.546875 5.046875
Q 4.046875 11.328125 4.046875 20.703125
Q 4.046875 27.6875 7.59375 32.390625
Q 11.140625 37.109375 17.671875 38.8125
z
M 15.921875 53.71875
Q 15.921875 48.640625 19.1875 45.40625
Q 22.46875 42.1875 27.6875 42.1875
Q 32.765625 42.1875 36.015625 45.375
Q 39.265625 48.578125 39.265625 53.21875
Q 39.265625 58.0625 35.90625 61.359375
Q 32.5625 64.65625 27.59375 64.65625
Q 22.5625 64.65625 19.234375 61.421875
Q 15.921875 58.203125 15.921875 53.71875
z
M 13.09375 20.65625
Q 13.09375 16.890625 14.875 13.375
Q 16.65625 9.859375 20.171875 7.921875
Q 23.6875 6 27.734375 6
Q 34.03125 6 38.125 10.046875
Q 42.234375 14.109375 42.234375 20.359375
Q 42.234375 26.703125 38.015625 30.859375
Q 33.796875 35.015625 27.4375 35.015625
Q 21.234375 35.015625 17.15625 30.90625
Q 13.09375 26.8125 13.09375 20.65625
z
" id="ArialMT-56"/>
       </defs>
       <use xlink:href="#ArialMT-48"/>
       <use x="55.615234" xlink:href="#ArialMT-46"/>
       <use x="83.398438" xlink:href="#ArialMT-56"/>
      </g>
     </g>
    </g>
    <g id="xtick_6">
     <g id="line2d_6">
      <defs>
       <path d="M 0 0
L 0 4
" id="m2d9dc3d8fa" style="stroke:#262626;"/>
      </defs>
      <g>
       <use style="fill:#262626;stroke:#262626;" x="138.511113" xlink:href="#m2d9dc3d8fa" y="292.452288"/>
      </g>
     </g>
    </g>
    <g id="xtick_7">
     <g id="line2d_7">
      <g>
       <use style="fill:#262626;stroke:#262626;" x="214.721321" xlink:href="#m2d9dc3d8fa" y="292.452288"/>
      </g>
     </g>
    </g>
    <g id="xtick_8">
     <g id="line2d_8">
      <g>
       <use style="fill:#262626;stroke:#262626;" x="290.931529" xlink:href="#m2d9dc3d8fa" y="292.452288"/>
      </g>
     </g>
    </g>
    <g id="xtick_9">
     <g id="line2d_9">
      <g>
       <use style="fill:#262626;stroke:#262626;" x="367.141737" xlink:href="#m2d9dc3d8fa" y="292.452288"/>
      </g>
     </g>
    </g>
    <g id="text_6">
     <!-- Percent Difference -->
     <g style="fill:#262626;" transform="translate(207.390781 324.501507)scale(0.12 -0.12)">
      <defs>
       <path d="M 7.71875 0
L 7.71875 71.578125
L 34.71875 71.578125
Q 41.84375 71.578125 45.609375 70.90625
Q 50.875 70.015625 54.4375 67.546875
Q 58.015625 65.09375 60.1875 60.640625
Q 62.359375 56.203125 62.359375 50.875
Q 62.359375 41.75 56.546875 35.421875
Q 50.734375 29.109375 35.546875 29.109375
L 17.1875 29.109375
L 17.1875 0
z
M 17.1875 37.546875
L 35.6875 37.546875
Q 44.875 37.546875 48.734375 40.96875
Q 52.59375 44.390625 52.59375 50.59375
Q 52.59375 55.078125 50.3125 58.265625
Q 48.046875 61.46875 44.34375 62.5
Q 41.9375 63.140625 35.5 63.140625
L 17.1875 63.140625
z
" id="ArialMT-80"/>
       <path d="M 42.09375 16.703125
L 51.171875 15.578125
Q 49.03125 7.625 43.21875 3.21875
Q 37.40625 -1.171875 28.375 -1.171875
Q 17 -1.171875 10.328125 5.828125
Q 3.65625 12.84375 3.65625 25.484375
Q 3.65625 38.578125 10.390625 45.796875
Q 17.140625 53.03125 27.875 53.03125
Q 38.28125 53.03125 44.875 45.953125
Q 51.46875 38.875 51.46875 26.03125
Q 51.46875 25.25 51.421875 23.6875
L 12.75 23.6875
Q 13.234375 15.140625 17.578125 10.59375
Q 21.921875 6.0625 28.421875 6.0625
Q 33.25 6.0625 36.671875 8.59375
Q 40.09375 11.140625 42.09375 16.703125
z
M 13.234375 30.90625
L 42.1875 30.90625
Q 41.609375 37.453125 38.875 40.71875
Q 34.671875 45.796875 27.984375 45.796875
Q 21.921875 45.796875 17.796875 41.75
Q 13.671875 37.703125 13.234375 30.90625
z
" id="ArialMT-101"/>
       <path d="M 6.5 0
L 6.5 51.859375
L 14.40625 51.859375
L 14.40625 44
Q 17.4375 49.515625 20 51.265625
Q 22.5625 53.03125 25.640625 53.03125
Q 30.078125 53.03125 34.671875 50.203125
L 31.640625 42.046875
Q 28.421875 43.953125 25.203125 43.953125
Q 22.3125 43.953125 20.015625 42.21875
Q 17.71875 40.484375 16.75 37.40625
Q 15.28125 32.71875 15.28125 27.15625
L 15.28125 0
z
" id="ArialMT-114"/>
       <path d="M 40.4375 19
L 49.078125 17.875
Q 47.65625 8.9375 41.8125 3.875
Q 35.984375 -1.171875 27.484375 -1.171875
Q 16.84375 -1.171875 10.375 5.78125
Q 3.90625 12.75 3.90625 25.734375
Q 3.90625 34.125 6.6875 40.421875
Q 9.46875 46.734375 15.15625 49.875
Q 20.84375 53.03125 27.546875 53.03125
Q 35.984375 53.03125 41.359375 48.75
Q 46.734375 44.484375 48.25 36.625
L 39.703125 35.296875
Q 38.484375 40.53125 35.375 43.15625
Q 32.28125 45.796875 27.875 45.796875
Q 21.234375 45.796875 17.078125 41.03125
Q 12.9375 36.28125 12.9375 25.984375
Q 12.9375 15.53125 16.9375 10.796875
Q 20.953125 6.0625 27.390625 6.0625
Q 32.5625 6.0625 36.03125 9.234375
Q 39.5 12.40625 40.4375 19
z
" id="ArialMT-99"/>
       <path d="M 6.59375 0
L 6.59375 51.859375
L 14.5 51.859375
L 14.5 44.484375
Q 20.21875 53.03125 31 53.03125
Q 35.6875 53.03125 39.625 51.34375
Q 43.5625 49.65625 45.515625 46.921875
Q 47.46875 44.1875 48.25 40.4375
Q 48.734375 37.984375 48.734375 31.890625
L 48.734375 0
L 39.9375 0
L 39.9375 31.546875
Q 39.9375 36.921875 38.90625 39.578125
Q 37.890625 42.234375 35.28125 43.8125
Q 32.671875 45.40625 29.15625 45.40625
Q 23.53125 45.40625 19.453125 41.84375
Q 15.375 38.28125 15.375 28.328125
L 15.375 0
z
" id="ArialMT-110"/>
       <path d="M 25.78125 7.859375
L 27.046875 0.09375
Q 23.34375 -0.6875 20.40625 -0.6875
Q 15.625 -0.6875 12.984375 0.828125
Q 10.359375 2.34375 9.28125 4.8125
Q 8.203125 7.28125 8.203125 15.1875
L 8.203125 45.015625
L 1.765625 45.015625
L 1.765625 51.859375
L 8.203125 51.859375
L 8.203125 64.703125
L 16.9375 69.96875
L 16.9375 51.859375
L 25.78125 51.859375
L 25.78125 45.015625
L 16.9375 45.015625
L 16.9375 14.703125
Q 16.9375 10.9375 17.40625 9.859375
Q 17.875 8.796875 18.921875 8.15625
Q 19.96875 7.515625 21.921875 7.515625
Q 23.390625 7.515625 25.78125 7.859375
z
" id="ArialMT-116"/>
       <path id="ArialMT-32"/>
       <path d="M 7.71875 0
L 7.71875 71.578125
L 32.375 71.578125
Q 40.71875 71.578125 45.125 70.5625
Q 51.265625 69.140625 55.609375 65.4375
Q 61.28125 60.640625 64.078125 53.1875
Q 66.890625 45.75 66.890625 36.1875
Q 66.890625 28.03125 64.984375 21.734375
Q 63.09375 15.4375 60.109375 11.296875
Q 57.125 7.171875 53.578125 4.796875
Q 50.046875 2.4375 45.046875 1.21875
Q 40.046875 0 33.546875 0
z
M 17.1875 8.453125
L 32.46875 8.453125
Q 39.546875 8.453125 43.578125 9.765625
Q 47.609375 11.078125 50 13.484375
Q 53.375 16.84375 55.25 22.53125
Q 57.125 28.21875 57.125 36.328125
Q 57.125 47.5625 53.4375 53.59375
Q 49.75 59.625 44.484375 61.671875
Q 40.671875 63.140625 32.234375 63.140625
L 17.1875 63.140625
z
" id="ArialMT-68"/>
       <path d="M 6.640625 61.46875
L 6.640625 71.578125
L 15.4375 71.578125
L 15.4375 61.46875
z
M 6.640625 0
L 6.640625 51.859375
L 15.4375 51.859375
L 15.4375 0
z
" id="ArialMT-105"/>
       <path d="M 8.6875 0
L 8.6875 45.015625
L 0.921875 45.015625
L 0.921875 51.859375
L 8.6875 51.859375
L 8.6875 57.375
Q 8.6875 62.59375 9.625 65.140625
Q 10.890625 68.5625 14.078125 70.671875
Q 17.28125 72.796875 23.046875 72.796875
Q 26.765625 72.796875 31.25 71.921875
L 29.9375 64.265625
Q 27.203125 64.75 24.75 64.75
Q 20.75 64.75 19.09375 63.03125
Q 17.4375 61.328125 17.4375 56.640625
L 17.4375 51.859375
L 27.546875 51.859375
L 27.546875 45.015625
L 17.4375 45.015625
L 17.4375 0
z
" id="ArialMT-102"/>
      </defs>
      <use xlink:href="#ArialMT-80"/>
      <use x="66.699219" xlink:href="#ArialMT-101"/>
      <use x="122.314453" xlink:href="#ArialMT-114"/>
      <use x="155.615234" xlink:href="#ArialMT-99"/>
      <use x="205.615234" xlink:href="#ArialMT-101"/>
      <use x="261.230469" xlink:href="#ArialMT-110"/>
      <use x="316.845703" xlink:href="#ArialMT-116"/>
      <use x="344.628906" xlink:href="#ArialMT-32"/>
      <use x="372.412109" xlink:href="#ArialMT-68"/>
      <use x="444.628906" xlink:href="#ArialMT-105"/>
      <use x="466.845703" xlink:href="#ArialMT-102"/>
      <use x="492.878906" xlink:href="#ArialMT-102"/>
      <use x="520.662109" xlink:href="#ArialMT-101"/>
      <use x="576.277344" xlink:href="#ArialMT-114"/>
      <use x="609.578125" xlink:href="#ArialMT-101"/>
      <use x="665.193359" xlink:href="#ArialMT-110"/>
      <use x="720.808594" xlink:href="#ArialMT-99"/>
      <use x="770.808594" xlink:href="#ArialMT-101"/>
     </g>
    </g>
   </g>
   <g id="matplotlib.axis_2">
    <g id="ytick_1">
     <g id="line2d_10">
      <defs>
       <path d="M 0 0
L -6 0
" id="m1325c57e13" style="stroke:#262626;stroke-width:1.25;"/>
      </defs>
      <g>
       <use style="fill:#262626;stroke:#262626;stroke-width:1.25;" x="84.173281" xlink:href="#m1325c57e13" y="284.920817"/>
      </g>
     </g>
     <g id="text_7">
      <!-- 2000-2001 -->
      <g style="fill:#262626;" transform="translate(23.174375 288.857614)scale(0.11 -0.11)">
       <defs>
        <path d="M 3.171875 21.484375
L 3.171875 30.328125
L 30.171875 30.328125
L 30.171875 21.484375
z
" id="ArialMT-45"/>
        <path d="M 37.25 0
L 28.46875 0
L 28.46875 56
Q 25.296875 52.984375 20.140625 49.953125
Q 14.984375 46.921875 10.890625 45.40625
L 10.890625 53.90625
Q 18.265625 57.375 23.78125 62.296875
Q 29.296875 67.234375 31.59375 71.875
L 37.25 71.875
z
" id="ArialMT-49"/>
       </defs>
       <use xlink:href="#ArialMT-50"/>
       <use x="55.615234" xlink:href="#ArialMT-48"/>
       <use x="111.230469" xlink:href="#ArialMT-48"/>
       <use x="166.845703" xlink:href="#ArialMT-48"/>
       <use x="222.460938" xlink:href="#ArialMT-45"/>
       <use x="255.761719" xlink:href="#ArialMT-50"/>
       <use x="311.376953" xlink:href="#ArialMT-48"/>
       <use x="366.992188" xlink:href="#ArialMT-48"/>
       <use x="422.607422" xlink:href="#ArialMT-49"/>
      </g>
     </g>
    </g>
    <g id="ytick_2">
     <g id="line2d_11">
      <g>
       <use style="fill:#262626;stroke:#262626;stroke-width:1.25;" x="84.173281" xlink:href="#m1325c57e13" y="272.368364"/>
      </g>
     </g>
     <g id="text_8">
      <!-- 2001-2002 -->
      <g style="fill:#262626;" transform="translate(23.174375 276.305161)scale(0.11 -0.11)">
       <use xlink:href="#ArialMT-50"/>
       <use x="55.615234" xlink:href="#ArialMT-48"/>
       <use x="111.230469" xlink:href="#ArialMT-48"/>
       <use x="166.845703" xlink:href="#ArialMT-49"/>
       <use x="222.460938" xlink:href="#ArialMT-45"/>
       <use x="255.761719" xlink:href="#ArialMT-50"/>
       <use x="311.376953" xlink:href="#ArialMT-48"/>
       <use x="366.992188" xlink:href="#ArialMT-48"/>
       <use x="422.607422" xlink:href="#ArialMT-50"/>
      </g>
     </g>
    </g>
    <g id="ytick_3">
     <g id="line2d_12">
      <g>
       <use style="fill:#262626;stroke:#262626;stroke-width:1.25;" x="84.173281" xlink:href="#m1325c57e13" y="259.815911"/>
      </g>
     </g>
     <g id="text_9">
      <!-- 2002-2003 -->
      <g style="fill:#262626;" transform="translate(23.174375 263.752708)scale(0.11 -0.11)">
       <defs>
        <path d="M 4.203125 18.890625
L 12.984375 20.0625
Q 14.5 12.59375 18.140625 9.296875
Q 21.78125 6 27 6
Q 33.203125 6 37.46875 10.296875
Q 41.75 14.59375 41.75 20.953125
Q 41.75 27 37.796875 30.921875
Q 33.84375 34.859375 27.734375 34.859375
Q 25.25 34.859375 21.53125 33.890625
L 22.515625 41.609375
Q 23.390625 41.5 23.921875 41.5
Q 29.546875 41.5 34.03125 44.421875
Q 38.53125 47.359375 38.53125 53.46875
Q 38.53125 58.296875 35.25 61.46875
Q 31.984375 64.65625 26.8125 64.65625
Q 21.6875 64.65625 18.265625 61.421875
Q 14.84375 58.203125 13.875 51.765625
L 5.078125 53.328125
Q 6.6875 62.15625 12.390625 67.015625
Q 18.109375 71.875 26.609375 71.875
Q 32.46875 71.875 37.390625 69.359375
Q 42.328125 66.84375 44.9375 62.5
Q 47.5625 58.15625 47.5625 53.265625
Q 47.5625 48.640625 45.0625 44.828125
Q 42.578125 41.015625 37.703125 38.765625
Q 44.046875 37.3125 47.5625 32.6875
Q 51.078125 28.078125 51.078125 21.140625
Q 51.078125 11.765625 44.234375 5.25
Q 37.40625 -1.265625 26.953125 -1.265625
Q 17.53125 -1.265625 11.296875 4.34375
Q 5.078125 9.96875 4.203125 18.890625
z
" id="ArialMT-51"/>
       </defs>
       <use xlink:href="#ArialMT-50"/>
       <use x="55.615234" xlink:href="#ArialMT-48"/>
       <use x="111.230469" xlink:href="#ArialMT-48"/>
       <use x="166.845703" xlink:href="#ArialMT-50"/>
       <use x="222.460938" xlink:href="#ArialMT-45"/>
       <use x="255.761719" xlink:href="#ArialMT-50"/>
       <use x="311.376953" xlink:href="#ArialMT-48"/>
       <use x="366.992188" xlink:href="#ArialMT-48"/>
       <use x="422.607422" xlink:href="#ArialMT-51"/>
      </g>
     </g>
    </g>
    <g id="ytick_4">
     <g id="line2d_13">
      <g>
       <use style="fill:#262626;stroke:#262626;stroke-width:1.25;" x="84.173281" xlink:href="#m1325c57e13" y="247.263458"/>
      </g>
     </g>
     <g id="text_10">
      <!-- 2003-2004 -->
      <g style="fill:#262626;" transform="translate(23.174375 251.200255)scale(0.11 -0.11)">
       <use xlink:href="#ArialMT-50"/>
       <use x="55.615234" xlink:href="#ArialMT-48"/>
       <use x="111.230469" xlink:href="#ArialMT-48"/>
       <use x="166.845703" xlink:href="#ArialMT-51"/>
       <use x="222.460938" xlink:href="#ArialMT-45"/>
       <use x="255.761719" xlink:href="#ArialMT-50"/>
       <use x="311.376953" xlink:href="#ArialMT-48"/>
       <use x="366.992188" xlink:href="#ArialMT-48"/>
       <use x="422.607422" xlink:href="#ArialMT-52"/>
      </g>
     </g>
    </g>
    <g id="ytick_5">
     <g id="line2d_14">
      <g>
       <use style="fill:#262626;stroke:#262626;stroke-width:1.25;" x="84.173281" xlink:href="#m1325c57e13" y="234.711005"/>
      </g>
     </g>
     <g id="text_11">
      <!-- 2004-2005 -->
      <g style="fill:#262626;" transform="translate(23.174375 238.647802)scale(0.11 -0.11)">
       <defs>
        <path d="M 4.15625 18.75
L 13.375 19.53125
Q 14.40625 12.796875 18.140625 9.390625
Q 21.875 6 27.15625 6
Q 33.5 6 37.890625 10.78125
Q 42.28125 15.578125 42.28125 23.484375
Q 42.28125 31 38.0625 35.34375
Q 33.84375 39.703125 27 39.703125
Q 22.75 39.703125 19.328125 37.765625
Q 15.921875 35.84375 13.96875 32.765625
L 5.71875 33.84375
L 12.640625 70.609375
L 48.25 70.609375
L 48.25 62.203125
L 19.671875 62.203125
L 15.828125 42.96875
Q 22.265625 47.46875 29.34375 47.46875
Q 38.71875 47.46875 45.15625 40.96875
Q 51.609375 34.46875 51.609375 24.265625
Q 51.609375 14.546875 45.953125 7.46875
Q 39.0625 -1.21875 27.15625 -1.21875
Q 17.390625 -1.21875 11.203125 4.25
Q 5.03125 9.71875 4.15625 18.75
z
" id="ArialMT-53"/>
       </defs>
       <use xlink:href="#ArialMT-50"/>
       <use x="55.615234" xlink:href="#ArialMT-48"/>
       <use x="111.230469" xlink:href="#ArialMT-48"/>
       <use x="166.845703" xlink:href="#ArialMT-52"/>
       <use x="222.460938" xlink:href="#ArialMT-45"/>
       <use x="255.761719" xlink:href="#ArialMT-50"/>
       <use x="311.376953" xlink:href="#ArialMT-48"/>
       <use x="366.992188" xlink:href="#ArialMT-48"/>
       <use x="422.607422" xlink:href="#ArialMT-53"/>
      </g>
     </g>
    </g>
    <g id="ytick_6">
     <g id="line2d_15">
      <g>
       <use style="fill:#262626;stroke:#262626;stroke-width:1.25;" x="84.173281" xlink:href="#m1325c57e13" y="222.158553"/>
      </g>
     </g>
     <g id="text_12">
      <!-- 2005-2006 -->
      <g style="fill:#262626;" transform="translate(23.174375 226.095349)scale(0.11 -0.11)">
       <use xlink:href="#ArialMT-50"/>
       <use x="55.615234" xlink:href="#ArialMT-48"/>
       <use x="111.230469" xlink:href="#ArialMT-48"/>
       <use x="166.845703" xlink:href="#ArialMT-53"/>
       <use x="222.460938" xlink:href="#ArialMT-45"/>
       <use x="255.761719" xlink:href="#ArialMT-50"/>
       <use x="311.376953" xlink:href="#ArialMT-48"/>
       <use x="366.992188" xlink:href="#ArialMT-48"/>
       <use x="422.607422" xlink:href="#ArialMT-54"/>
      </g>
     </g>
    </g>
    <g id="ytick_7">
     <g id="line2d_16">
      <g>
       <use style="fill:#262626;stroke:#262626;stroke-width:1.25;" x="84.173281" xlink:href="#m1325c57e13" y="209.6061"/>
      </g>
     </g>
     <g id="text_13">
      <!-- 2006-2007 -->
      <g style="fill:#262626;" transform="translate(23.174375 213.542897)scale(0.11 -0.11)">
       <defs>
        <path d="M 4.734375 62.203125
L 4.734375 70.65625
L 51.078125 70.65625
L 51.078125 63.8125
Q 44.234375 56.546875 37.515625 44.484375
Q 30.8125 32.421875 27.15625 19.671875
Q 24.515625 10.6875 23.78125 0
L 14.75 0
Q 14.890625 8.453125 18.0625 20.40625
Q 21.234375 32.375 27.171875 43.484375
Q 33.109375 54.59375 39.796875 62.203125
z
" id="ArialMT-55"/>
       </defs>
       <use xlink:href="#ArialMT-50"/>
       <use x="55.615234" xlink:href="#ArialMT-48"/>
       <use x="111.230469" xlink:href="#ArialMT-48"/>
       <use x="166.845703" xlink:href="#ArialMT-54"/>
       <use x="222.460938" xlink:href="#ArialMT-45"/>
       <use x="255.761719" xlink:href="#ArialMT-50"/>
       <use x="311.376953" xlink:href="#ArialMT-48"/>
       <use x="366.992188" xlink:href="#ArialMT-48"/>
       <use x="422.607422" xlink:href="#ArialMT-55"/>
      </g>
     </g>
    </g>
    <g id="ytick_8">
     <g id="line2d_17">
      <g>
       <use style="fill:#262626;stroke:#262626;stroke-width:1.25;" x="84.173281" xlink:href="#m1325c57e13" y="197.053647"/>
      </g>
     </g>
     <g id="text_14">
      <!-- 2007-2008 -->
      <g style="fill:#262626;" transform="translate(23.174375 200.990444)scale(0.11 -0.11)">
       <use xlink:href="#ArialMT-50"/>
       <use x="55.615234" xlink:href="#ArialMT-48"/>
       <use x="111.230469" xlink:href="#ArialMT-48"/>
       <use x="166.845703" xlink:href="#ArialMT-55"/>
       <use x="222.460938" xlink:href="#ArialMT-45"/>
       <use x="255.761719" xlink:href="#ArialMT-50"/>
       <use x="311.376953" xlink:href="#ArialMT-48"/>
       <use x="366.992188" xlink:href="#ArialMT-48"/>
       <use x="422.607422" xlink:href="#ArialMT-56"/>
      </g>
     </g>
    </g>
    <g id="ytick_9">
     <g id="line2d_18">
      <g>
       <use style="fill:#262626;stroke:#262626;stroke-width:1.25;" x="84.173281" xlink:href="#m1325c57e13" y="184.501194"/>
      </g>
     </g>
     <g id="text_15">
      <!-- 2008-2009 -->
      <g style="fill:#262626;" transform="translate(23.174375 188.437991)scale(0.11 -0.11)">
       <defs>
        <path d="M 5.46875 16.546875
L 13.921875 17.328125
Q 14.984375 11.375 18.015625 8.6875
Q 21.046875 6 25.78125 6
Q 29.828125 6 32.875 7.859375
Q 35.9375 9.71875 37.890625 12.8125
Q 39.84375 15.921875 41.15625 21.1875
Q 42.484375 26.46875 42.484375 31.9375
Q 42.484375 32.515625 42.4375 33.6875
Q 39.796875 29.5 35.234375 26.875
Q 30.671875 24.265625 25.34375 24.265625
Q 16.453125 24.265625 10.296875 30.703125
Q 4.15625 37.15625 4.15625 47.703125
Q 4.15625 58.59375 10.578125 65.234375
Q 17 71.875 26.65625 71.875
Q 33.640625 71.875 39.421875 68.109375
Q 45.21875 64.359375 48.21875 57.390625
Q 51.21875 50.4375 51.21875 37.25
Q 51.21875 23.53125 48.234375 15.40625
Q 45.265625 7.28125 39.375 3.03125
Q 33.5 -1.21875 25.59375 -1.21875
Q 17.1875 -1.21875 11.859375 3.4375
Q 6.546875 8.109375 5.46875 16.546875
z
M 41.453125 48.140625
Q 41.453125 55.71875 37.421875 60.15625
Q 33.40625 64.59375 27.734375 64.59375
Q 21.875 64.59375 17.53125 59.8125
Q 13.1875 55.03125 13.1875 47.40625
Q 13.1875 40.578125 17.3125 36.296875
Q 21.4375 32.03125 27.484375 32.03125
Q 33.59375 32.03125 37.515625 36.296875
Q 41.453125 40.578125 41.453125 48.140625
z
" id="ArialMT-57"/>
       </defs>
       <use xlink:href="#ArialMT-50"/>
       <use x="55.615234" xlink:href="#ArialMT-48"/>
       <use x="111.230469" xlink:href="#ArialMT-48"/>
       <use x="166.845703" xlink:href="#ArialMT-56"/>
       <use x="222.460938" xlink:href="#ArialMT-45"/>
       <use x="255.761719" xlink:href="#ArialMT-50"/>
       <use x="311.376953" xlink:href="#ArialMT-48"/>
       <use x="366.992188" xlink:href="#ArialMT-48"/>
       <use x="422.607422" xlink:href="#ArialMT-57"/>
      </g>
     </g>
    </g>
    <g id="ytick_10">
     <g id="line2d_19">
      <g>
       <use style="fill:#262626;stroke:#262626;stroke-width:1.25;" x="84.173281" xlink:href="#m1325c57e13" y="171.948741"/>
      </g>
     </g>
     <g id="text_16">
      <!-- 2009-2010 -->
      <g style="fill:#262626;" transform="translate(23.174375 175.885538)scale(0.11 -0.11)">
       <use xlink:href="#ArialMT-50"/>
       <use x="55.615234" xlink:href="#ArialMT-48"/>
       <use x="111.230469" xlink:href="#ArialMT-48"/>
       <use x="166.845703" xlink:href="#ArialMT-57"/>
       <use x="222.460938" xlink:href="#ArialMT-45"/>
       <use x="255.761719" xlink:href="#ArialMT-50"/>
       <use x="311.376953" xlink:href="#ArialMT-48"/>
       <use x="366.992188" xlink:href="#ArialMT-49"/>
       <use x="422.607422" xlink:href="#ArialMT-48"/>
      </g>
     </g>
    </g>
    <g id="ytick_11">
     <g id="line2d_20">
      <g>
       <use style="fill:#262626;stroke:#262626;stroke-width:1.25;" x="84.173281" xlink:href="#m1325c57e13" y="159.396288"/>
      </g>
     </g>
     <g id="text_17">
      <!-- 2010-2011 -->
      <g style="fill:#262626;" transform="translate(23.985625 163.333085)scale(0.11 -0.11)">
       <use xlink:href="#ArialMT-50"/>
       <use x="55.615234" xlink:href="#ArialMT-48"/>
       <use x="111.230469" xlink:href="#ArialMT-49"/>
       <use x="166.845703" xlink:href="#ArialMT-48"/>
       <use x="222.460938" xlink:href="#ArialMT-45"/>
       <use x="255.761719" xlink:href="#ArialMT-50"/>
       <use x="311.376953" xlink:href="#ArialMT-48"/>
       <use x="366.992188" xlink:href="#ArialMT-49"/>
       <use x="415.232422" xlink:href="#ArialMT-49"/>
      </g>
     </g>
    </g>
    <g id="ytick_12">
     <g id="line2d_21">
      <g>
       <use style="fill:#262626;stroke:#262626;stroke-width:1.25;" x="84.173281" xlink:href="#m1325c57e13" y="146.843836"/>
      </g>
     </g>
     <g id="text_18">
      <!-- 2011-2012 -->
      <g style="fill:#262626;" transform="translate(23.985625 150.780632)scale(0.11 -0.11)">
       <use xlink:href="#ArialMT-50"/>
       <use x="55.615234" xlink:href="#ArialMT-48"/>
       <use x="111.230469" xlink:href="#ArialMT-49"/>
       <use x="159.470703" xlink:href="#ArialMT-49"/>
       <use x="215.085938" xlink:href="#ArialMT-45"/>
       <use x="248.386719" xlink:href="#ArialMT-50"/>
       <use x="304.001953" xlink:href="#ArialMT-48"/>
       <use x="359.617188" xlink:href="#ArialMT-49"/>
       <use x="415.232422" xlink:href="#ArialMT-50"/>
      </g>
     </g>
    </g>
    <g id="ytick_13">
     <g id="line2d_22">
      <g>
       <use style="fill:#262626;stroke:#262626;stroke-width:1.25;" x="84.173281" xlink:href="#m1325c57e13" y="134.291383"/>
      </g>
     </g>
     <g id="text_19">
      <!-- 2012-2013 -->
      <g style="fill:#262626;" transform="translate(23.174375 138.22818)scale(0.11 -0.11)">
       <use xlink:href="#ArialMT-50"/>
       <use x="55.615234" xlink:href="#ArialMT-48"/>
       <use x="111.230469" xlink:href="#ArialMT-49"/>
       <use x="166.845703" xlink:href="#ArialMT-50"/>
       <use x="222.460938" xlink:href="#ArialMT-45"/>
       <use x="255.761719" xlink:href="#ArialMT-50"/>
       <use x="311.376953" xlink:href="#ArialMT-48"/>
       <use x="366.992188" xlink:href="#ArialMT-49"/>
       <use x="422.607422" xlink:href="#ArialMT-51"/>
      </g>
     </g>
    </g>
    <g id="ytick_14">
     <g id="line2d_23">
      <g>
       <use style="fill:#262626;stroke:#262626;stroke-width:1.25;" x="84.173281" xlink:href="#m1325c57e13" y="121.73893"/>
      </g>
     </g>
     <g id="text_20">
      <!-- 2013-2014 -->
      <g style="fill:#262626;" transform="translate(23.174375 125.675727)scale(0.11 -0.11)">
       <use xlink:href="#ArialMT-50"/>
       <use x="55.615234" xlink:href="#ArialMT-48"/>
       <use x="111.230469" xlink:href="#ArialMT-49"/>
       <use x="166.845703" xlink:href="#ArialMT-51"/>
       <use x="222.460938" xlink:href="#ArialMT-45"/>
       <use x="255.761719" xlink:href="#ArialMT-50"/>
       <use x="311.376953" xlink:href="#ArialMT-48"/>
       <use x="366.992188" xlink:href="#ArialMT-49"/>
       <use x="422.607422" xlink:href="#ArialMT-52"/>
      </g>
     </g>
    </g>
    <g id="ytick_15">
     <g id="line2d_24">
      <g>
       <use style="fill:#262626;stroke:#262626;stroke-width:1.25;" x="84.173281" xlink:href="#m1325c57e13" y="109.186477"/>
      </g>
     </g>
     <g id="text_21">
      <!-- 2014-2015 -->
      <g style="fill:#262626;" transform="translate(23.174375 113.123274)scale(0.11 -0.11)">
       <use xlink:href="#ArialMT-50"/>
       <use x="55.615234" xlink:href="#ArialMT-48"/>
       <use x="111.230469" xlink:href="#ArialMT-49"/>
       <use x="166.845703" xlink:href="#ArialMT-52"/>
       <use x="222.460938" xlink:href="#ArialMT-45"/>
       <use x="255.761719" xlink:href="#ArialMT-50"/>
       <use x="311.376953" xlink:href="#ArialMT-48"/>
       <use x="366.992188" xlink:href="#ArialMT-49"/>
       <use x="422.607422" xlink:href="#ArialMT-53"/>
      </g>
     </g>
    </g>
    <g id="ytick_16">
     <g id="line2d_25">
      <g>
       <use style="fill:#262626;stroke:#262626;stroke-width:1.25;" x="84.173281" xlink:href="#m1325c57e13" y="96.634024"/>
      </g>
     </g>
     <g id="text_22">
      <!-- 2015-2016 -->
      <g style="fill:#262626;" transform="translate(23.174375 100.570821)scale(0.11 -0.11)">
       <use xlink:href="#ArialMT-50"/>
       <use x="55.615234" xlink:href="#ArialMT-48"/>
       <use x="111.230469" xlink:href="#ArialMT-49"/>
       <use x="166.845703" xlink:href="#ArialMT-53"/>
       <use x="222.460938" xlink:href="#ArialMT-45"/>
       <use x="255.761719" xlink:href="#ArialMT-50"/>
       <use x="311.376953" xlink:href="#ArialMT-48"/>
       <use x="366.992188" xlink:href="#ArialMT-49"/>
       <use x="422.607422" xlink:href="#ArialMT-54"/>
      </g>
     </g>
    </g>
    <g id="ytick_17">
     <g id="line2d_26">
      <g>
       <use style="fill:#262626;stroke:#262626;stroke-width:1.25;" x="84.173281" xlink:href="#m1325c57e13" y="84.081571"/>
      </g>
     </g>
     <g id="text_23">
      <!-- 2016-2017 -->
      <g style="fill:#262626;" transform="translate(23.174375 88.018368)scale(0.11 -0.11)">
       <use xlink:href="#ArialMT-50"/>
       <use x="55.615234" xlink:href="#ArialMT-48"/>
       <use x="111.230469" xlink:href="#ArialMT-49"/>
       <use x="166.845703" xlink:href="#ArialMT-54"/>
       <use x="222.460938" xlink:href="#ArialMT-45"/>
       <use x="255.761719" xlink:href="#ArialMT-50"/>
       <use x="311.376953" xlink:href="#ArialMT-48"/>
       <use x="366.992188" xlink:href="#ArialMT-49"/>
       <use x="422.607422" xlink:href="#ArialMT-55"/>
      </g>
     </g>
    </g>
    <g id="ytick_18">
     <g id="line2d_27">
      <g>
       <use style="fill:#262626;stroke:#262626;stroke-width:1.25;" x="84.173281" xlink:href="#m1325c57e13" y="71.529119"/>
      </g>
     </g>
     <g id="text_24">
      <!-- 2017-2018 -->
      <g style="fill:#262626;" transform="translate(23.174375 75.465915)scale(0.11 -0.11)">
       <use xlink:href="#ArialMT-50"/>
       <use x="55.615234" xlink:href="#ArialMT-48"/>
       <use x="111.230469" xlink:href="#ArialMT-49"/>
       <use x="166.845703" xlink:href="#ArialMT-55"/>
       <use x="222.460938" xlink:href="#ArialMT-45"/>
       <use x="255.761719" xlink:href="#ArialMT-50"/>
       <use x="311.376953" xlink:href="#ArialMT-48"/>
       <use x="366.992188" xlink:href="#ArialMT-49"/>
       <use x="422.607422" xlink:href="#ArialMT-56"/>
      </g>
     </g>
    </g>
    <g id="ytick_19">
     <g id="line2d_28">
      <g>
       <use style="fill:#262626;stroke:#262626;stroke-width:1.25;" x="84.173281" xlink:href="#m1325c57e13" y="58.976666"/>
      </g>
     </g>
     <g id="text_25">
      <!-- 2018-2019 -->
      <g style="fill:#262626;" transform="translate(23.174375 62.913463)scale(0.11 -0.11)">
       <use xlink:href="#ArialMT-50"/>
       <use x="55.615234" xlink:href="#ArialMT-48"/>
       <use x="111.230469" xlink:href="#ArialMT-49"/>
       <use x="166.845703" xlink:href="#ArialMT-56"/>
       <use x="222.460938" xlink:href="#ArialMT-45"/>
       <use x="255.761719" xlink:href="#ArialMT-50"/>
       <use x="311.376953" xlink:href="#ArialMT-48"/>
       <use x="366.992188" xlink:href="#ArialMT-49"/>
       <use x="422.607422" xlink:href="#ArialMT-57"/>
      </g>
     </g>
    </g>
    <g id="ytick_20">
     <g id="line2d_29">
      <g>
       <use style="fill:#262626;stroke:#262626;stroke-width:1.25;" x="84.173281" xlink:href="#m1325c57e13" y="46.424213"/>
      </g>
     </g>
     <g id="text_26">
      <!-- 2019-2020 -->
      <g style="fill:#262626;" transform="translate(23.174375 50.36101)scale(0.11 -0.11)">
       <use xlink:href="#ArialMT-50"/>
       <use x="55.615234" xlink:href="#ArialMT-48"/>
       <use x="111.230469" xlink:href="#ArialMT-49"/>
       <use x="166.845703" xlink:href="#ArialMT-57"/>
       <use x="222.460938" xlink:href="#ArialMT-45"/>
       <use x="255.761719" xlink:href="#ArialMT-50"/>
       <use x="311.376953" xlink:href="#ArialMT-48"/>
       <use x="366.992188" xlink:href="#ArialMT-50"/>
       <use x="422.607422" xlink:href="#ArialMT-48"/>
      </g>
     </g>
    </g>
    <g id="ytick_21">
     <g id="line2d_30">
      <g>
       <use style="fill:#262626;stroke:#262626;stroke-width:1.25;" x="84.173281" xlink:href="#m1325c57e13" y="33.87176"/>
      </g>
     </g>
     <g id="text_27">
      <!-- 2020-2021 -->
      <g style="fill:#262626;" transform="translate(23.174375 37.808557)scale(0.11 -0.11)">
       <use xlink:href="#ArialMT-50"/>
       <use x="55.615234" xlink:href="#ArialMT-48"/>
       <use x="111.230469" xlink:href="#ArialMT-50"/>
       <use x="166.845703" xlink:href="#ArialMT-48"/>
       <use x="222.460938" xlink:href="#ArialMT-45"/>
       <use x="255.761719" xlink:href="#ArialMT-50"/>
       <use x="311.376953" xlink:href="#ArialMT-48"/>
       <use x="366.992188" xlink:href="#ArialMT-50"/>
       <use x="422.607422" xlink:href="#ArialMT-49"/>
      </g>
     </g>
    </g>
    <g id="text_28">
     <!-- Time Periods -->
     <g style="fill:#262626;" transform="translate(15.789375 192.785163)rotate(-90)scale(0.12 -0.12)">
      <defs>
       <path d="M 25.921875 0
L 25.921875 63.140625
L 2.34375 63.140625
L 2.34375 71.578125
L 59.078125 71.578125
L 59.078125 63.140625
L 35.40625 63.140625
L 35.40625 0
z
" id="ArialMT-84"/>
       <path d="M 6.59375 0
L 6.59375 51.859375
L 14.453125 51.859375
L 14.453125 44.578125
Q 16.890625 48.390625 20.9375 50.703125
Q 25 53.03125 30.171875 53.03125
Q 35.9375 53.03125 39.625 50.640625
Q 43.3125 48.25 44.828125 43.953125
Q 50.984375 53.03125 60.84375 53.03125
Q 68.5625 53.03125 72.703125 48.75
Q 76.859375 44.484375 76.859375 35.59375
L 76.859375 0
L 68.109375 0
L 68.109375 32.671875
Q 68.109375 37.9375 67.25 40.25
Q 66.40625 42.578125 64.15625 43.984375
Q 61.921875 45.40625 58.890625 45.40625
Q 53.421875 45.40625 49.796875 41.765625
Q 46.1875 38.140625 46.1875 30.125
L 46.1875 0
L 37.40625 0
L 37.40625 33.6875
Q 37.40625 39.546875 35.25 42.46875
Q 33.109375 45.40625 28.21875 45.40625
Q 24.515625 45.40625 21.359375 43.453125
Q 18.21875 41.5 16.796875 37.734375
Q 15.375 33.984375 15.375 26.90625
L 15.375 0
z
" id="ArialMT-109"/>
       <path d="M 3.328125 25.921875
Q 3.328125 40.328125 11.328125 47.265625
Q 18.015625 53.03125 27.640625 53.03125
Q 38.328125 53.03125 45.109375 46.015625
Q 51.90625 39.015625 51.90625 26.65625
Q 51.90625 16.65625 48.90625 10.90625
Q 45.90625 5.171875 40.15625 2
Q 34.421875 -1.171875 27.640625 -1.171875
Q 16.75 -1.171875 10.03125 5.8125
Q 3.328125 12.796875 3.328125 25.921875
z
M 12.359375 25.921875
Q 12.359375 15.96875 16.703125 11.015625
Q 21.046875 6.0625 27.640625 6.0625
Q 34.1875 6.0625 38.53125 11.03125
Q 42.875 16.015625 42.875 26.21875
Q 42.875 35.84375 38.5 40.796875
Q 34.125 45.75 27.640625 45.75
Q 21.046875 45.75 16.703125 40.8125
Q 12.359375 35.890625 12.359375 25.921875
z
" id="ArialMT-111"/>
       <path d="M 40.234375 0
L 40.234375 6.546875
Q 35.296875 -1.171875 25.734375 -1.171875
Q 19.53125 -1.171875 14.328125 2.25
Q 9.125 5.671875 6.265625 11.796875
Q 3.421875 17.921875 3.421875 25.875
Q 3.421875 33.640625 6 39.96875
Q 8.59375 46.296875 13.765625 49.65625
Q 18.953125 53.03125 25.34375 53.03125
Q 30.03125 53.03125 33.6875 51.046875
Q 37.359375 49.078125 39.65625 45.90625
L 39.65625 71.578125
L 48.390625 71.578125
L 48.390625 0
z
M 12.453125 25.875
Q 12.453125 15.921875 16.640625 10.984375
Q 20.84375 6.0625 26.5625 6.0625
Q 32.328125 6.0625 36.34375 10.765625
Q 40.375 15.484375 40.375 25.140625
Q 40.375 35.796875 36.265625 40.765625
Q 32.171875 45.75 26.171875 45.75
Q 20.3125 45.75 16.375 40.96875
Q 12.453125 36.1875 12.453125 25.875
z
" id="ArialMT-100"/>
       <path d="M 3.078125 15.484375
L 11.765625 16.84375
Q 12.5 11.625 15.84375 8.84375
Q 19.1875 6.0625 25.203125 6.0625
Q 31.25 6.0625 34.171875 8.515625
Q 37.109375 10.984375 37.109375 14.3125
Q 37.109375 17.28125 34.515625 19
Q 32.71875 20.171875 25.53125 21.96875
Q 15.875 24.421875 12.140625 26.203125
Q 8.40625 27.984375 6.46875 31.125
Q 4.546875 34.28125 4.546875 38.09375
Q 4.546875 41.546875 6.125 44.5
Q 7.71875 47.46875 10.453125 49.421875
Q 12.5 50.921875 16.03125 51.96875
Q 19.578125 53.03125 23.640625 53.03125
Q 29.734375 53.03125 34.34375 51.265625
Q 38.96875 49.515625 41.15625 46.5
Q 43.359375 43.5 44.1875 38.484375
L 35.59375 37.3125
Q 35.015625 41.3125 32.203125 43.546875
Q 29.390625 45.796875 24.265625 45.796875
Q 18.21875 45.796875 15.625 43.796875
Q 13.03125 41.796875 13.03125 39.109375
Q 13.03125 37.40625 14.109375 36.03125
Q 15.1875 34.625 17.484375 33.6875
Q 18.796875 33.203125 25.25 31.453125
Q 34.578125 28.953125 38.25 27.359375
Q 41.9375 25.78125 44.03125 22.75
Q 46.140625 19.734375 46.140625 15.234375
Q 46.140625 10.84375 43.578125 6.953125
Q 41.015625 3.078125 36.171875 0.953125
Q 31.34375 -1.171875 25.25 -1.171875
Q 15.140625 -1.171875 9.84375 3.03125
Q 4.546875 7.234375 3.078125 15.484375
z
" id="ArialMT-115"/>
      </defs>
      <use xlink:href="#ArialMT-84"/>
      <use x="57.333984" xlink:href="#ArialMT-105"/>
      <use x="79.550781" xlink:href="#ArialMT-109"/>
      <use x="162.851562" xlink:href="#ArialMT-101"/>
      <use x="218.466797" xlink:href="#ArialMT-32"/>
      <use x="246.25" xlink:href="#ArialMT-80"/>
      <use x="312.949219" xlink:href="#ArialMT-101"/>
      <use x="368.564453" xlink:href="#ArialMT-114"/>
      <use x="401.865234" xlink:href="#ArialMT-105"/>
      <use x="424.082031" xlink:href="#ArialMT-111"/>
      <use x="479.697266" xlink:href="#ArialMT-100"/>
      <use x="535.3125" xlink:href="#ArialMT-115"/>
     </g>
    </g>
   </g>
   <g id="PathCollection_1">
    <path clip-path="url(#p2531bc7cb9)" d="M 425.060554 286.693271
C 425.530614 286.693271 425.981485 286.506514 426.313868 286.174131
C 426.646251 285.841748 426.833008 285.390877 426.833008 284.920817
C 426.833008 284.450756 426.646251 283.999885 426.313868 283.667503
C 425.981485 283.33512 425.530614 283.148363 425.060554 283.148363
C 424.590494 283.148363 424.139623 283.33512 423.80724 283.667503
C 423.474857 283.999885 423.2881 284.450756 423.2881 284.920817
C 423.2881 285.390877 423.474857 285.841748 423.80724 286.174131
C 424.139623 286.506514 424.590494 286.693271 425.060554 286.693271
z
" style="fill:#d95f02;stroke:#d95f02;stroke-width:0.886227;"/>
    <path clip-path="url(#p2531bc7cb9)" d="M 415.577903 274.140818
C 416.047964 274.140818 416.498835 273.954061 416.831218 273.621678
C 417.1636 273.289295 417.350357 272.838424 417.350357 272.368364
C 417.350357 271.898304 417.1636 271.447433 416.831218 271.11505
C 416.498835 270.782667 416.047964 270.59591 415.577903 270.59591
C 415.107843 270.59591 414.656972 270.782667 414.324589 271.11505
C 413.992207 271.447433 413.80545 271.898304 413.80545 272.368364
C 413.80545 272.838424 413.992207 273.289295 414.324589 273.621678
C 414.656972 273.954061 415.107843 274.140818 415.577903 274.140818
z
" style="fill:#d95f02;stroke:#d95f02;stroke-width:0.886227;"/>
    <path clip-path="url(#p2531bc7cb9)" d="M 405.29088 261.588365
C 405.760941 261.588365 406.211812 261.401608 406.544194 261.069225
C 406.876577 260.736842 407.063334 260.285971 407.063334 259.815911
C 407.063334 259.345851 406.876577 258.89498 406.544194 258.562597
C 406.211812 258.230214 405.760941 258.043457 405.29088 258.043457
C 404.82082 258.043457 404.369949 258.230214 404.037566 258.562597
C 403.705183 258.89498 403.518426 259.345851 403.518426 259.815911
C 403.518426 260.285971 403.705183 260.736842 404.037566 261.069225
C 404.369949 261.401608 404.82082 261.588365 405.29088 261.588365
z
" style="fill:#d95f02;stroke:#d95f02;stroke-width:0.886227;"/>
    <path clip-path="url(#p2531bc7cb9)" d="M 390.62403 249.035912
C 391.094091 249.035912 391.544962 248.849155 391.877345 248.516772
C 392.209727 248.18439 392.396484 247.733518 392.396484 247.263458
C 392.396484 246.793398 392.209727 246.342527 391.877345 246.010144
C 391.544962 245.677761 391.094091 245.491004 390.62403 245.491004
C 390.15397 245.491004 389.703099 245.677761 389.370716 246.010144
C 389.038334 246.342527 388.851577 246.793398 388.851577 247.263458
C 388.851577 247.733518 389.038334 248.18439 389.370716 248.516772
C 389.703099 248.849155 390.15397 249.035912 390.62403 249.035912
z
" style="fill:#d95f02;stroke:#d95f02;stroke-width:0.886227;"/>
    <path clip-path="url(#p2531bc7cb9)" d="M 371.654789 236.483459
C 372.124849 236.483459 372.57572 236.296702 372.908103 235.964319
C 373.240486 235.631937 373.427243 235.181066 373.427243 234.711005
C 373.427243 234.240945 373.240486 233.790074 372.908103 233.457691
C 372.57572 233.125308 372.124849 232.938552 371.654789 232.938552
C 371.184729 232.938552 370.733858 233.125308 370.401475 233.457691
C 370.069092 233.790074 369.882335 234.240945 369.882335 234.711005
C 369.882335 235.181066 370.069092 235.631937 370.401475 235.964319
C 370.733858 236.296702 371.184729 236.483459 371.654789 236.483459
z
" style="fill:#d95f02;stroke:#d95f02;stroke-width:0.886227;"/>
    <path clip-path="url(#p2531bc7cb9)" d="M 351.374294 223.931006
C 351.844354 223.931006 352.295225 223.744249 352.627608 223.411867
C 352.959991 223.079484 353.146748 222.628613 353.146748 222.158553
C 353.146748 221.688492 352.959991 221.237621 352.627608 220.905238
C 352.295225 220.572856 351.844354 220.386099 351.374294 220.386099
C 350.904234 220.386099 350.453362 220.572856 350.12098 220.905238
C 349.788597 221.237621 349.60184 221.688492 349.60184 222.158553
C 349.60184 222.628613 349.788597 223.079484 350.12098 223.411867
C 350.453362 223.744249 350.904234 223.931006 351.374294 223.931006
z
" style="fill:#d95f02;stroke:#d95f02;stroke-width:0.886227;"/>
    <path clip-path="url(#p2531bc7cb9)" d="M 333.365657 211.378554
C 333.835718 211.378554 334.286589 211.191797 334.618972 210.859414
C 334.951354 210.527031 335.138111 210.07616 335.138111 209.6061
C 335.138111 209.136039 334.951354 208.685168 334.618972 208.352786
C 334.286589 208.020403 333.835718 207.833646 333.365657 207.833646
C 332.895597 207.833646 332.444726 208.020403 332.112343 208.352786
C 331.779961 208.685168 331.593204 209.136039 331.593204 209.6061
C 331.593204 210.07616 331.779961 210.527031 332.112343 210.859414
C 332.444726 211.191797 332.895597 211.378554 333.365657 211.378554
z
" style="fill:#d95f02;stroke:#d95f02;stroke-width:0.886227;"/>
    <path clip-path="url(#p2531bc7cb9)" d="M 307.298984 198.826101
C 307.769044 198.826101 308.219915 198.639344 308.552298 198.306961
C 308.884681 197.974578 309.071438 197.523707 309.071438 197.053647
C 309.071438 196.583587 308.884681 196.132716 308.552298 195.800333
C 308.219915 195.46795 307.769044 195.281193 307.298984 195.281193
C 306.828924 195.281193 306.378053 195.46795 306.04567 195.800333
C 305.713287 196.132716 305.52653 196.583587 305.52653 197.053647
C 305.52653 197.523707 305.713287 197.974578 306.04567 198.306961
C 306.378053 198.639344 306.828924 198.826101 307.298984 198.826101
z
" style="fill:#d95f02;stroke:#d95f02;stroke-width:0.886227;"/>
    <path clip-path="url(#p2531bc7cb9)" d="M 243.515361 186.273648
C 243.985421 186.273648 244.436292 186.086891 244.768675 185.754508
C 245.101058 185.422125 245.287815 184.971254 245.287815 184.501194
C 245.287815 184.031134 245.101058 183.580263 244.768675 183.24788
C 244.436292 182.915497 243.985421 182.72874 243.515361 182.72874
C 243.0453 182.72874 242.594429 182.915497 242.262047 183.24788
C 241.929664 183.580263 241.742907 184.031134 241.742907 184.501194
C 241.742907 184.971254 241.929664 185.422125 242.262047 185.754508
C 242.594429 186.086891 243.0453 186.273648 243.515361 186.273648
z
" style="fill:#d95f02;stroke:#d95f02;stroke-width:0.886227;"/>
    <path clip-path="url(#p2531bc7cb9)" d="M 197.379236 173.721195
C 197.849296 173.721195 198.300167 173.534438 198.63255 173.202055
C 198.964933 172.869673 199.15169 172.418801 199.15169 171.948741
C 199.15169 171.478681 198.964933 171.02781 198.63255 170.695427
C 198.300167 170.363044 197.849296 170.176287 197.379236 170.176287
C 196.909176 170.176287 196.458305 170.363044 196.125922 170.695427
C 195.793539 171.02781 195.606782 171.478681 195.606782 171.948741
C 195.606782 172.418801 195.793539 172.869673 196.125922 173.202055
C 196.458305 173.534438 196.909176 173.721195 197.379236 173.721195
z
" style="fill:#d95f02;stroke:#d95f02;stroke-width:0.886227;"/>
    <path clip-path="url(#p2531bc7cb9)" d="M 183.305191 161.168742
C 183.775251 161.168742 184.226122 160.981985 184.558505 160.649603
C 184.890888 160.31722 185.077645 159.866349 185.077645 159.396288
C 185.077645 158.926228 184.890888 158.475357 184.558505 158.142974
C 184.226122 157.810591 183.775251 157.623835 183.305191 157.623835
C 182.83513 157.623835 182.384259 157.810591 182.051877 158.142974
C 181.719494 158.475357 181.532737 158.926228 181.532737 159.396288
C 181.532737 159.866349 181.719494 160.31722 182.051877 160.649603
C 182.384259 160.981985 182.83513 161.168742 183.305191 161.168742
z
" style="fill:#d95f02;stroke:#d95f02;stroke-width:0.886227;"/>
    <path clip-path="url(#p2531bc7cb9)" d="M 159.805326 148.616289
C 160.275386 148.616289 160.726257 148.429532 161.05864 148.09715
C 161.391023 147.764767 161.57778 147.313896 161.57778 146.843836
C 161.57778 146.373775 161.391023 145.922904 161.05864 145.590521
C 160.726257 145.258139 160.275386 145.071382 159.805326 145.071382
C 159.335266 145.071382 158.884394 145.258139 158.552012 145.590521
C 158.219629 145.922904 158.032872 146.373775 158.032872 146.843836
C 158.032872 147.313896 158.219629 147.764767 158.552012 148.09715
C 158.884394 148.429532 159.335266 148.616289 159.805326 148.616289
z
" style="fill:#d95f02;stroke:#d95f02;stroke-width:0.886227;"/>
    <path clip-path="url(#p2531bc7cb9)" d="M 133.283438 136.063837
C 133.753498 136.063837 134.204369 135.87708 134.536752 135.544697
C 134.869135 135.212314 135.055892 134.761443 135.055892 134.291383
C 135.055892 133.821322 134.869135 133.370451 134.536752 133.038069
C 134.204369 132.705686 133.753498 132.518929 133.283438 132.518929
C 132.813378 132.518929 132.362507 132.705686 132.030124 133.038069
C 131.697741 133.370451 131.510984 133.821322 131.510984 134.291383
C 131.510984 134.761443 131.697741 135.212314 132.030124 135.544697
C 132.362507 135.87708 132.813378 136.063837 133.283438 136.063837
z
" style="fill:#d95f02;stroke:#d95f02;stroke-width:0.886227;"/>
    <path clip-path="url(#p2531bc7cb9)" d="M 118.784104 123.511384
C 119.254164 123.511384 119.705035 123.324627 120.037418 122.992244
C 120.369801 122.659861 120.556558 122.20899 120.556558 121.73893
C 120.556558 121.26887 120.369801 120.817999 120.037418 120.485616
C 119.705035 120.153233 119.254164 119.966476 118.784104 119.966476
C 118.314044 119.966476 117.863173 120.153233 117.53079 120.485616
C 117.198407 120.817999 117.01165 121.26887 117.01165 121.73893
C 117.01165 122.20899 117.198407 122.659861 117.53079 122.992244
C 117.863173 123.324627 118.314044 123.511384 118.784104 123.511384
z
" style="fill:#d95f02;stroke:#d95f02;stroke-width:0.886227;"/>
    <path clip-path="url(#p2531bc7cb9)" d="M 108.537837 110.958931
C 109.007897 110.958931 109.458768 110.772174 109.791151 110.439791
C 110.123534 110.107408 110.31029 109.656537 110.31029 109.186477
C 110.31029 108.716417 110.123534 108.265546 109.791151 107.933163
C 109.458768 107.60078 109.007897 107.414023 108.537837 107.414023
C 108.067776 107.414023 107.616905 107.60078 107.284522 107.933163
C 106.95214 108.265546 106.765383 108.716417 106.765383 109.186477
C 106.765383 109.656537 106.95214 110.107408 107.284522 110.439791
C 107.616905 110.772174 108.067776 110.958931 108.537837 110.958931
z
" style="fill:#d95f02;stroke:#d95f02;stroke-width:0.886227;"/>
    <path clip-path="url(#p2531bc7cb9)" d="M 100.406009 98.406478
C 100.876069 98.406478 101.32694 98.219721 101.659323 97.887338
C 101.991705 97.554956 102.178462 97.104084 102.178462 96.634024
C 102.178462 96.163964 101.991705 95.713093 101.659323 95.38071
C 101.32694 95.048327 100.876069 94.86157 100.406009 94.86157
C 99.935948 94.86157 99.485077 95.048327 99.152694 95.38071
C 98.820312 95.713093 98.633555 96.163964 98.633555 96.634024
C 98.633555 97.104084 98.820312 97.554956 99.152694 97.887338
C 99.485077 98.219721 99.935948 98.406478 100.406009 98.406478
z
" style="fill:#d95f02;stroke:#d95f02;stroke-width:0.886227;"/>
    <path clip-path="url(#p2531bc7cb9)" d="M 108.628057 85.854025
C 109.098117 85.854025 109.548988 85.667268 109.881371 85.334886
C 110.213754 85.002503 110.400511 84.551632 110.400511 84.081571
C 110.400511 83.611511 110.213754 83.16064 109.881371 82.828257
C 109.548988 82.495874 109.098117 82.309118 108.628057 82.309118
C 108.157997 82.309118 107.707126 82.495874 107.374743 82.828257
C 107.04236 83.16064 106.855603 83.611511 106.855603 84.081571
C 106.855603 84.551632 107.04236 85.002503 107.374743 85.334886
C 107.707126 85.667268 108.157997 85.854025 108.628057 85.854025
z
" style="fill:#d95f02;stroke:#d95f02;stroke-width:0.886227;"/>
    <path clip-path="url(#p2531bc7cb9)" d="M 116.645855 73.301572
C 117.115916 73.301572 117.566787 73.114815 117.899169 72.782433
C 118.231552 72.45005 118.418309 71.999179 118.418309 71.529119
C 118.418309 71.059058 118.231552 70.608187 117.899169 70.275804
C 117.566787 69.943422 117.115916 69.756665 116.645855 69.756665
C 116.175795 69.756665 115.724924 69.943422 115.392541 70.275804
C 115.060158 70.608187 114.873401 71.059058 114.873401 71.529119
C 114.873401 71.999179 115.060158 72.45005 115.392541 72.782433
C 115.724924 73.114815 116.175795 73.301572 116.645855 73.301572
z
" style="fill:#d95f02;stroke:#d95f02;stroke-width:0.886227;"/>
    <path clip-path="url(#p2531bc7cb9)" d="M 122.224572 60.74912
C 122.694632 60.74912 123.145503 60.562363 123.477886 60.22998
C 123.810269 59.897597 123.997026 59.446726 123.997026 58.976666
C 123.997026 58.506605 123.810269 58.055734 123.477886 57.723352
C 123.145503 57.390969 122.694632 57.204212 122.224572 57.204212
C 121.754512 57.204212 121.303641 57.390969 120.971258 57.723352
C 120.638875 58.055734 120.452118 58.506605 120.452118 58.976666
C 120.452118 59.446726 120.638875 59.897597 120.971258 60.22998
C 121.303641 60.562363 121.754512 60.74912 122.224572 60.74912
z
" style="fill:#d95f02;stroke:#d95f02;stroke-width:0.886227;"/>
    <path clip-path="url(#p2531bc7cb9)" d="M 127.101073 48.196667
C 127.571133 48.196667 128.022004 48.00991 128.354387 47.677527
C 128.68677 47.345144 128.873527 46.894273 128.873527 46.424213
C 128.873527 45.954153 128.68677 45.503282 128.354387 45.170899
C 128.022004 44.838516 127.571133 44.651759 127.101073 44.651759
C 126.631013 44.651759 126.180142 44.838516 125.847759 45.170899
C 125.515376 45.503282 125.328619 45.954153 125.328619 46.424213
C 125.328619 46.894273 125.515376 47.345144 125.847759 47.677527
C 126.180142 48.00991 126.631013 48.196667 127.101073 48.196667
z
" style="fill:#d95f02;stroke:#d95f02;stroke-width:0.886227;"/>
    <path clip-path="url(#p2531bc7cb9)" d="M 148.240326 35.644214
C 148.710386 35.644214 149.161257 35.457457 149.49364 35.125074
C 149.826023 34.792691 150.01278 34.34182 150.01278 33.87176
C 150.01278 33.4017 149.826023 32.950829 149.49364 32.618446
C 149.161257 32.286063 148.710386 32.099306 148.240326 32.099306
C 147.770266 32.099306 147.319395 32.286063 146.987012 32.618446
C 146.654629 32.950829 146.467872 33.4017 146.467872 33.87176
C 146.467872 34.34182 146.654629 34.792691 146.987012 35.125074
C 147.319395 35.457457 147.770266 35.644214 148.240326 35.644214
z
" style="fill:#d95f02;stroke:#d95f02;stroke-width:0.886227;"/>
    <path clip-path="url(#p2531bc7cb9)" d="M 115.110532 286.693271
C 115.580592 286.693271 116.031463 286.506514 116.363846 286.174131
C 116.696229 285.841748 116.882985 285.390877 116.882985 284.920817
C 116.882985 284.450756 116.696229 283.999885 116.363846 283.667503
C 116.031463 283.33512 115.580592 283.148363 115.110532 283.148363
C 114.640471 283.148363 114.1896 283.33512 113.857217 283.667503
C 113.524835 283.999885 113.338078 284.450756 113.338078 284.920817
C 113.338078 285.390877 113.524835 285.841748 113.857217 286.174131
C 114.1896 286.506514 114.640471 286.693271 115.110532 286.693271
z
" style="fill:#1b9e77;stroke:#1b9e77;stroke-width:0.886227;"/>
    <path clip-path="url(#p2531bc7cb9)" d="M 115.281985 274.140818
C 115.752045 274.140818 116.202916 273.954061 116.535299 273.621678
C 116.867681 273.289295 117.054438 272.838424 117.054438 272.368364
C 117.054438 271.898304 116.867681 271.447433 116.535299 271.11505
C 116.202916 270.782667 115.752045 270.59591 115.281985 270.59591
C 114.811924 270.59591 114.361053 270.782667 114.02867 271.11505
C 113.696288 271.447433 113.509531 271.898304 113.509531 272.368364
C 113.509531 272.838424 113.696288 273.289295 114.02867 273.621678
C 114.361053 273.954061 114.811924 274.140818 115.281985 274.140818
z
" style="fill:#1b9e77;stroke:#1b9e77;stroke-width:0.886227;"/>
    <path clip-path="url(#p2531bc7cb9)" d="M 116.547781 261.588365
C 117.017841 261.588365 117.468712 261.401608 117.801095 261.069225
C 118.133478 260.736842 118.320235 260.285971 118.320235 259.815911
C 118.320235 259.345851 118.133478 258.89498 117.801095 258.562597
C 117.468712 258.230214 117.017841 258.043457 116.547781 258.043457
C 116.077721 258.043457 115.62685 258.230214 115.294467 258.562597
C 114.962084 258.89498 114.775327 259.345851 114.775327 259.815911
C 114.775327 260.285971 114.962084 260.736842 115.294467 261.069225
C 115.62685 261.401608 116.077721 261.588365 116.547781 261.588365
z
" style="fill:#1b9e77;stroke:#1b9e77;stroke-width:0.886227;"/>
    <path clip-path="url(#p2531bc7cb9)" d="M 116.950632 249.035912
C 117.420692 249.035912 117.871563 248.849155 118.203946 248.516772
C 118.536329 248.18439 118.723086 247.733518 118.723086 247.263458
C 118.723086 246.793398 118.536329 246.342527 118.203946 246.010144
C 117.871563 245.677761 117.420692 245.491004 116.950632 245.491004
C 116.480572 245.491004 116.029701 245.677761 115.697318 246.010144
C 115.364935 246.342527 115.178178 246.793398 115.178178 247.263458
C 115.178178 247.733518 115.364935 248.18439 115.697318 248.516772
C 116.029701 248.849155 116.480572 249.035912 116.950632 249.035912
z
" style="fill:#1b9e77;stroke:#1b9e77;stroke-width:0.886227;"/>
    <path clip-path="url(#p2531bc7cb9)" d="M 115.012188 236.483459
C 115.482248 236.483459 115.933119 236.296702 116.265502 235.964319
C 116.597885 235.631937 116.784642 235.181066 116.784642 234.711005
C 116.784642 234.240945 116.597885 233.790074 116.265502 233.457691
C 115.933119 233.125308 115.482248 232.938552 115.012188 232.938552
C 114.542128 232.938552 114.091257 233.125308 113.758874 233.457691
C 113.426491 233.790074 113.239734 234.240945 113.239734 234.711005
C 113.239734 235.181066 113.426491 235.631937 113.758874 235.964319
C 114.091257 236.296702 114.542128 236.483459 115.012188 236.483459
z
" style="fill:#1b9e77;stroke:#1b9e77;stroke-width:0.886227;"/>
    <path clip-path="url(#p2531bc7cb9)" d="M 114.708892 223.931006
C 115.178952 223.931006 115.629823 223.744249 115.962206 223.411867
C 116.294589 223.079484 116.481346 222.628613 116.481346 222.158553
C 116.481346 221.688492 116.294589 221.237621 115.962206 220.905238
C 115.629823 220.572856 115.178952 220.386099 114.708892 220.386099
C 114.238832 220.386099 113.787961 220.572856 113.455578 220.905238
C 113.123195 221.237621 112.936438 221.688492 112.936438 222.158553
C 112.936438 222.628613 113.123195 223.079484 113.455578 223.411867
C 113.787961 223.744249 114.238832 223.931006 114.708892 223.931006
z
" style="fill:#1b9e77;stroke:#1b9e77;stroke-width:0.886227;"/>
    <path clip-path="url(#p2531bc7cb9)" d="M 112.186868 211.378554
C 112.656929 211.378554 113.1078 211.191797 113.440182 210.859414
C 113.772565 210.527031 113.959322 210.07616 113.959322 209.6061
C 113.959322 209.136039 113.772565 208.685168 113.440182 208.352786
C 113.1078 208.020403 112.656929 207.833646 112.186868 207.833646
C 111.716808 207.833646 111.265937 208.020403 110.933554 208.352786
C 110.601171 208.685168 110.414414 209.136039 110.414414 209.6061
C 110.414414 210.07616 110.601171 210.527031 110.933554 210.859414
C 111.265937 211.191797 111.716808 211.378554 112.186868 211.378554
z
" style="fill:#1b9e77;stroke:#1b9e77;stroke-width:0.886227;"/>
    <path clip-path="url(#p2531bc7cb9)" d="M 104.204882 198.826101
C 104.674942 198.826101 105.125813 198.639344 105.458196 198.306961
C 105.790579 197.974578 105.977336 197.523707 105.977336 197.053647
C 105.977336 196.583587 105.790579 196.132716 105.458196 195.800333
C 105.125813 195.46795 104.674942 195.281193 104.204882 195.281193
C 103.734822 195.281193 103.283951 195.46795 102.951568 195.800333
C 102.619185 196.132716 102.432428 196.583587 102.432428 197.053647
C 102.432428 197.523707 102.619185 197.974578 102.951568 198.306961
C 103.283951 198.639344 103.734822 198.826101 104.204882 198.826101
z
" style="fill:#1b9e77;stroke:#1b9e77;stroke-width:0.886227;"/>
    <path clip-path="url(#p2531bc7cb9)" d="M 103.607318 186.273648
C 104.077378 186.273648 104.528249 186.086891 104.860632 185.754508
C 105.193015 185.422125 105.379771 184.971254 105.379771 184.501194
C 105.379771 184.031134 105.193015 183.580263 104.860632 183.24788
C 104.528249 182.915497 104.077378 182.72874 103.607318 182.72874
C 103.137257 182.72874 102.686386 182.915497 102.354003 183.24788
C 102.021621 183.580263 101.834864 184.031134 101.834864 184.501194
C 101.834864 184.971254 102.021621 185.422125 102.354003 185.754508
C 102.686386 186.086891 103.137257 186.273648 103.607318 186.273648
z
" style="fill:#1b9e77;stroke:#1b9e77;stroke-width:0.886227;"/>
    <path clip-path="url(#p2531bc7cb9)" d="M 103.829158 173.721195
C 104.299218 173.721195 104.750089 173.534438 105.082472 173.202055
C 105.414855 172.869673 105.601612 172.418801 105.601612 171.948741
C 105.601612 171.478681 105.414855 171.02781 105.082472 170.695427
C 104.750089 170.363044 104.299218 170.176287 103.829158 170.176287
C 103.359097 170.176287 102.908226 170.363044 102.575844 170.695427
C 102.243461 171.02781 102.056704 171.478681 102.056704 171.948741
C 102.056704 172.418801 102.243461 172.869673 102.575844 173.202055
C 102.908226 173.534438 103.359097 173.721195 103.829158 173.721195
z
" style="fill:#1b9e77;stroke:#1b9e77;stroke-width:0.886227;"/>
    <path clip-path="url(#p2531bc7cb9)" d="M 115.473482 161.168742
C 115.943543 161.168742 116.394414 160.981985 116.726797 160.649603
C 117.059179 160.31722 117.245936 159.866349 117.245936 159.396288
C 117.245936 158.926228 117.059179 158.475357 116.726797 158.142974
C 116.394414 157.810591 115.943543 157.623835 115.473482 157.623835
C 115.003422 157.623835 114.552551 157.810591 114.220168 158.142974
C 113.887785 158.475357 113.701029 158.926228 113.701029 159.396288
C 113.701029 159.866349 113.887785 160.31722 114.220168 160.649603
C 114.552551 160.981985 115.003422 161.168742 115.473482 161.168742
z
" style="fill:#1b9e77;stroke:#1b9e77;stroke-width:0.886227;"/>
    <path clip-path="url(#p2531bc7cb9)" d="M 115.423548 148.616289
C 115.893608 148.616289 116.344479 148.429532 116.676862 148.09715
C 117.009245 147.764767 117.196002 147.313896 117.196002 146.843836
C 117.196002 146.373775 117.009245 145.922904 116.676862 145.590521
C 116.344479 145.258139 115.893608 145.071382 115.423548 145.071382
C 114.953488 145.071382 114.502617 145.258139 114.170234 145.590521
C 113.837851 145.922904 113.651094 146.373775 113.651094 146.843836
C 113.651094 147.313896 113.837851 147.764767 114.170234 148.09715
C 114.502617 148.429532 114.953488 148.616289 115.423548 148.616289
z
" style="fill:#1b9e77;stroke:#1b9e77;stroke-width:0.886227;"/>
    <path clip-path="url(#p2531bc7cb9)" d="M 101.543585 136.063837
C 102.013645 136.063837 102.464517 135.87708 102.796899 135.544697
C 103.129282 135.212314 103.316039 134.761443 103.316039 134.291383
C 103.316039 133.821322 103.129282 133.370451 102.796899 133.038069
C 102.464517 132.705686 102.013645 132.518929 101.543585 132.518929
C 101.073525 132.518929 100.622654 132.705686 100.290271 133.038069
C 99.957888 133.370451 99.771131 133.821322 99.771131 134.291383
C 99.771131 134.761443 99.957888 135.212314 100.290271 135.544697
C 100.622654 135.87708 101.073525 136.063837 101.543585 136.063837
z
" style="fill:#1b9e77;stroke:#1b9e77;stroke-width:0.886227;"/>
    <path clip-path="url(#p2531bc7cb9)" d="M 102.102085 123.511384
C 102.572146 123.511384 103.023017 123.324627 103.355399 122.992244
C 103.687782 122.659861 103.874539 122.20899 103.874539 121.73893
C 103.874539 121.26887 103.687782 120.817999 103.355399 120.485616
C 103.023017 120.153233 102.572146 119.966476 102.102085 119.966476
C 101.632025 119.966476 101.181154 120.153233 100.848771 120.485616
C 100.516388 120.817999 100.329631 121.26887 100.329631 121.73893
C 100.329631 122.20899 100.516388 122.659861 100.848771 122.992244
C 101.181154 123.324627 101.632025 123.511384 102.102085 123.511384
z
" style="fill:#1b9e77;stroke:#1b9e77;stroke-width:0.886227;"/>
    <path clip-path="url(#p2531bc7cb9)" d="M 101.260393 110.958931
C 101.730453 110.958931 102.181324 110.772174 102.513707 110.439791
C 102.84609 110.107408 103.032846 109.656537 103.032846 109.186477
C 103.032846 108.716417 102.84609 108.265546 102.513707 107.933163
C 102.181324 107.60078 101.730453 107.414023 101.260393 107.414023
C 100.790332 107.414023 100.339461 107.60078 100.007078 107.933163
C 99.674696 108.265546 99.487939 108.716417 99.487939 109.186477
C 99.487939 109.656537 99.674696 110.107408 100.007078 110.439791
C 100.339461 110.772174 100.790332 110.958931 101.260393 110.958931
z
" style="fill:#1b9e77;stroke:#1b9e77;stroke-width:0.886227;"/>
    <path clip-path="url(#p2531bc7cb9)" d="M 100.406009 98.406478
C 100.876069 98.406478 101.32694 98.219721 101.659323 97.887338
C 101.991705 97.554956 102.178462 97.104084 102.178462 96.634024
C 102.178462 96.163964 101.991705 95.713093 101.659323 95.38071
C 101.32694 95.048327 100.876069 94.86157 100.406009 94.86157
C 99.935948 94.86157 99.485077 95.048327 99.152694 95.38071
C 98.820312 95.713093 98.633555 96.163964 98.633555 96.634024
C 98.633555 97.104084 98.820312 97.554956 99.152694 97.887338
C 99.485077 98.219721 99.935948 98.406478 100.406009 98.406478
z
" style="fill:#1b9e77;stroke:#1b9e77;stroke-width:0.886227;"/>
    <path clip-path="url(#p2531bc7cb9)" d="M 101.796128 85.854025
C 102.266188 85.854025 102.71706 85.667268 103.049442 85.334886
C 103.381825 85.002503 103.568582 84.551632 103.568582 84.081571
C 103.568582 83.611511 103.381825 83.16064 103.049442 82.828257
C 102.71706 82.495874 102.266188 82.309118 101.796128 82.309118
C 101.326068 82.309118 100.875197 82.495874 100.542814 82.828257
C 100.210431 83.16064 100.023674 83.611511 100.023674 84.081571
C 100.023674 84.551632 100.210431 85.002503 100.542814 85.334886
C 100.875197 85.667268 101.326068 85.854025 101.796128 85.854025
z
" style="fill:#1b9e77;stroke:#1b9e77;stroke-width:0.886227;"/>
    <path clip-path="url(#p2531bc7cb9)" d="M 103.013059 73.301572
C 103.483119 73.301572 103.93399 73.114815 104.266373 72.782433
C 104.598756 72.45005 104.785513 71.999179 104.785513 71.529119
C 104.785513 71.059058 104.598756 70.608187 104.266373 70.275804
C 103.93399 69.943422 103.483119 69.756665 103.013059 69.756665
C 102.542999 69.756665 102.092128 69.943422 101.759745 70.275804
C 101.427362 70.608187 101.240605 71.059058 101.240605 71.529119
C 101.240605 71.999179 101.427362 72.45005 101.759745 72.782433
C 102.092128 73.114815 102.542999 73.301572 103.013059 73.301572
z
" style="fill:#1b9e77;stroke:#1b9e77;stroke-width:0.886227;"/>
    <path clip-path="url(#p2531bc7cb9)" d="M 101.560125 60.74912
C 102.030185 60.74912 102.481056 60.562363 102.813439 60.22998
C 103.145822 59.897597 103.332579 59.446726 103.332579 58.976666
C 103.332579 58.506605 103.145822 58.055734 102.813439 57.723352
C 102.481056 57.390969 102.030185 57.204212 101.560125 57.204212
C 101.090065 57.204212 100.639194 57.390969 100.306811 57.723352
C 99.974428 58.055734 99.787671 58.506605 99.787671 58.976666
C 99.787671 59.446726 99.974428 59.897597 100.306811 60.22998
C 100.639194 60.562363 101.090065 60.74912 101.560125 60.74912
z
" style="fill:#1b9e77;stroke:#1b9e77;stroke-width:0.886227;"/>
    <path clip-path="url(#p2531bc7cb9)" d="M 105.688448 48.196667
C 106.158508 48.196667 106.609379 48.00991 106.941762 47.677527
C 107.274145 47.345144 107.460902 46.894273 107.460902 46.424213
C 107.460902 45.954153 107.274145 45.503282 106.941762 45.170899
C 106.609379 44.838516 106.158508 44.651759 105.688448 44.651759
C 105.218388 44.651759 104.767517 44.838516 104.435134 45.170899
C 104.102751 45.503282 103.915994 45.954153 103.915994 46.424213
C 103.915994 46.894273 104.102751 47.345144 104.435134 47.677527
C 104.767517 48.00991 105.218388 48.196667 105.688448 48.196667
z
" style="fill:#1b9e77;stroke:#1b9e77;stroke-width:0.886227;"/>
    <path clip-path="url(#p2531bc7cb9)" d="M 104.303678 35.644214
C 104.773739 35.644214 105.22461 35.457457 105.556992 35.125074
C 105.889375 34.792691 106.076132 34.34182 106.076132 33.87176
C 106.076132 33.4017 105.889375 32.950829 105.556992 32.618446
C 105.22461 32.286063 104.773739 32.099306 104.303678 32.099306
C 103.833618 32.099306 103.382747 32.286063 103.050364 32.618446
C 102.717981 32.950829 102.531224 33.4017 102.531224 33.87176
C 102.531224 34.34182 102.717981 34.792691 103.050364 35.125074
C 103.382747 35.457457 103.833618 35.644214 104.303678 35.644214
z
" style="fill:#1b9e77;stroke:#1b9e77;stroke-width:0.886227;"/>
   </g>
   <g id="line2d_31">
    <path clip-path="url(#p2531bc7cb9)" d="M 115.110532 284.920817
L 115.281985 272.368364
L 116.547781 259.815911
L 116.950632 247.263458
L 115.012188 234.711005
L 114.708892 222.158553
L 112.186868 209.6061
L 104.204882 197.053647
L 103.607318 184.501194
L 103.829158 171.948741
L 115.473482 159.396288
L 115.423548 146.843836
L 101.543585 134.291383
L 102.102085 121.73893
L 101.260393 109.186477
L 100.406009 96.634024
L 101.796128 84.081571
L 103.013059 71.529119
L 101.560125 58.976666
L 105.688448 46.424213
L 104.303678 33.87176
" style="fill:none;stroke:#1b9e77;stroke-width:0.886227;"/>
   </g>
   <g id="line2d_32">
    <path clip-path="url(#p2531bc7cb9)" d="M 425.060554 284.920817
L 415.577903 272.368364
L 405.29088 259.815911
L 390.62403 247.263458
L 371.654789 234.711005
L 351.374294 222.158553
L 333.365657 209.6061
L 307.298984 197.053647
L 243.515361 184.501194
L 197.379236 171.948741
L 183.305191 159.396288
L 159.805326 146.843836
L 133.283438 134.291383
L 118.784104 121.73893
L 108.537837 109.186477
L 100.406009 96.634024
L 108.628057 84.081571
L 116.645855 71.529119
L 122.224572 58.976666
L 127.101073 46.424213
L 148.240326 33.87176
" style="fill:none;stroke:#d95f02;stroke-width:0.886227;"/>
   </g>
   <g id="patch_3">
    <path d="M 84.173281 292.452288
L 84.173281 26.340288
" style="fill:none;stroke:#262626;stroke-linecap:square;stroke-linejoin:miter;stroke-width:1.25;"/>
   </g>
   <g id="patch_4">
    <path d="M 441.293281 292.452288
L 441.293281 26.340288
" style="fill:none;stroke:#262626;stroke-linecap:square;stroke-linejoin:miter;stroke-width:1.25;"/>
   </g>
   <g id="patch_5">
    <path d="M 84.173281 292.452288
L 441.293281 292.452288
" style="fill:none;stroke:#262626;stroke-linecap:square;stroke-linejoin:miter;stroke-width:1.25;"/>
   </g>
   <g id="patch_6">
    <path d="M 84.173281 26.340288
L 441.293281 26.340288
" style="fill:none;stroke:#262626;stroke-linecap:square;stroke-linejoin:miter;stroke-width:1.25;"/>
   </g>
   <g id="text_29">
    <!-- label -->
    <g transform="translate(468.493281 137.770476)scale(0.12 -0.12)">
     <defs>
      <path d="M 6.390625 0
L 6.390625 71.578125
L 15.1875 71.578125
L 15.1875 0
z
" id="ArialMT-108"/>
      <path d="M 40.4375 6.390625
Q 35.546875 2.25 31.03125 0.53125
Q 26.515625 -1.171875 21.34375 -1.171875
Q 12.796875 -1.171875 8.203125 3
Q 3.609375 7.171875 3.609375 13.671875
Q 3.609375 17.484375 5.34375 20.625
Q 7.078125 23.78125 9.890625 25.6875
Q 12.703125 27.59375 16.21875 28.5625
Q 18.796875 29.25 24.03125 29.890625
Q 34.671875 31.15625 39.703125 32.90625
Q 39.75 34.71875 39.75 35.203125
Q 39.75 40.578125 37.25 42.78125
Q 33.890625 45.75 27.25 45.75
Q 21.046875 45.75 18.09375 43.578125
Q 15.140625 41.40625 13.71875 35.890625
L 5.125 37.0625
Q 6.296875 42.578125 8.984375 45.96875
Q 11.671875 49.359375 16.75 51.1875
Q 21.828125 53.03125 28.515625 53.03125
Q 35.15625 53.03125 39.296875 51.46875
Q 43.453125 49.90625 45.40625 47.53125
Q 47.359375 45.171875 48.140625 41.546875
Q 48.578125 39.3125 48.578125 33.453125
L 48.578125 21.734375
Q 48.578125 9.46875 49.140625 6.21875
Q 49.703125 2.984375 51.375 0
L 42.1875 0
Q 40.828125 2.734375 40.4375 6.390625
z
M 39.703125 26.03125
Q 34.90625 24.078125 25.34375 22.703125
Q 19.921875 21.921875 17.671875 20.9375
Q 15.4375 19.96875 14.203125 18.09375
Q 12.984375 16.21875 12.984375 13.921875
Q 12.984375 10.40625 15.640625 8.0625
Q 18.3125 5.71875 23.4375 5.71875
Q 28.515625 5.71875 32.46875 7.9375
Q 36.421875 10.15625 38.28125 14.015625
Q 39.703125 17 39.703125 22.796875
z
" id="ArialMT-97"/>
      <path d="M 14.703125 0
L 6.546875 0
L 6.546875 71.578125
L 15.328125 71.578125
L 15.328125 46.046875
Q 20.90625 53.03125 29.546875 53.03125
Q 34.328125 53.03125 38.59375 51.09375
Q 42.875 49.171875 45.625 45.671875
Q 48.390625 42.1875 49.953125 37.25
Q 51.515625 32.328125 51.515625 26.703125
Q 51.515625 13.375 44.921875 6.09375
Q 38.328125 -1.171875 29.109375 -1.171875
Q 19.921875 -1.171875 14.703125 6.5
z
M 14.59375 26.3125
Q 14.59375 17 17.140625 12.84375
Q 21.296875 6.0625 28.375 6.0625
Q 34.125 6.0625 38.328125 11.0625
Q 42.53125 16.0625 42.53125 25.984375
Q 42.53125 36.140625 38.5 40.96875
Q 34.46875 45.796875 28.765625 45.796875
Q 23 45.796875 18.796875 40.796875
Q 14.59375 35.796875 14.59375 26.3125
z
" id="ArialMT-98"/>
     </defs>
     <use xlink:href="#ArialMT-108"/>
     <use x="22.216797" xlink:href="#ArialMT-97"/>
     <use x="77.832031" xlink:href="#ArialMT-98"/>
     <use x="133.447266" xlink:href="#ArialMT-101"/>
     <use x="189.0625" xlink:href="#ArialMT-108"/>
    </g>
   </g>
   <g id="patch_7">
    <path clip-path="url(#pcb8ef87d35)" d="M 468.493281 166.155476
L 486.493281 166.155476
L 486.493281 148.155476
L 468.493281 148.155476
z
" style="fill:#ffffff;"/>
   </g>
   <g id="line2d_33">
    <path clip-path="url(#pcb8ef87d35)" d="M 477.493281 157.155476
" style="fill:none;stroke:#1f77b4;stroke-linecap:round;stroke-width:1.5;"/>
    <defs>
     <path d="M 0 1.772454
C 0.47006 1.772454 0.920931 1.585697 1.253314 1.253314
C 1.585697 0.920931 1.772454 0.47006 1.772454 0
C 1.772454 -0.47006 1.585697 -0.920931 1.253314 -1.253314
C 0.920931 -1.585697 0.47006 -1.772454 0 -1.772454
C -0.47006 -1.772454 -0.920931 -1.585697 -1.253314 -1.253314
C -1.585697 -0.920931 -1.772454 -0.47006 -1.772454 0
C -1.772454 0.47006 -1.585697 0.920931 -1.253314 1.253314
C -0.920931 1.585697 -0.47006 1.772454 0 1.772454
z
" id="m9aa8bcbd2e" style="stroke:#1b9e77;stroke-width:0.886227;"/>
    </defs>
    <g clip-path="url(#pcb8ef87d35)">
     <use style="fill:#1b9e77;stroke:#1b9e77;stroke-width:0.886227;" x="477.493281" xlink:href="#m9aa8bcbd2e" y="157.155476"/>
    </g>
   </g>
   <g id="line2d_34">
    <path clip-path="url(#pcb8ef87d35)" d="M 468.493281 157.155476
L 486.493281 157.155476
" style="fill:none;stroke:#1b9e77;stroke-width:0.886227;"/>
   </g>
   <g id="text_30">
    <!-- correction_model -->
    <g transform="translate(489.493281 160.257663)scale(0.12 -0.12)">
     <defs>
      <path d="M -1.515625 -19.875
L -1.515625 -13.53125
L 56.734375 -13.53125
L 56.734375 -19.875
z
" id="ArialMT-95"/>
     </defs>
     <use xlink:href="#ArialMT-99"/>
     <use x="50" xlink:href="#ArialMT-111"/>
     <use x="105.615234" xlink:href="#ArialMT-114"/>
     <use x="138.916016" xlink:href="#ArialMT-114"/>
     <use x="172.216797" xlink:href="#ArialMT-101"/>
     <use x="227.832031" xlink:href="#ArialMT-99"/>
     <use x="277.832031" xlink:href="#ArialMT-116"/>
     <use x="305.615234" xlink:href="#ArialMT-105"/>
     <use x="327.832031" xlink:href="#ArialMT-111"/>
     <use x="383.447266" xlink:href="#ArialMT-110"/>
     <use x="439.0625" xlink:href="#ArialMT-95"/>
     <use x="494.677734" xlink:href="#ArialMT-109"/>
     <use x="577.978516" xlink:href="#ArialMT-111"/>
     <use x="633.59375" xlink:href="#ArialMT-100"/>
     <use x="689.208984" xlink:href="#ArialMT-101"/>
     <use x="744.824219" xlink:href="#ArialMT-108"/>
    </g>
   </g>
   <g id="patch_8">
    <path clip-path="url(#pc22e248aee)" d="M 468.493281 186.155476
L 486.493281 186.155476
L 486.493281 168.155476
L 468.493281 168.155476
z
" style="fill:#ffffff;"/>
   </g>
   <g id="line2d_35">
    <path clip-path="url(#pc22e248aee)" d="M 477.493281 177.155476
" style="fill:none;stroke:#1f77b4;stroke-linecap:round;stroke-width:1.5;"/>
    <defs>
     <path d="M 0 1.772454
C 0.47006 1.772454 0.920931 1.585697 1.253314 1.253314
C 1.585697 0.920931 1.772454 0.47006 1.772454 0
C 1.772454 -0.47006 1.585697 -0.920931 1.253314 -1.253314
C 0.920931 -1.585697 0.47006 -1.772454 0 -1.772454
C -0.47006 -1.772454 -0.920931 -1.585697 -1.253314 -1.253314
C -1.585697 -0.920931 -1.772454 -0.47006 -1.772454 0
C -1.772454 0.47006 -1.585697 0.920931 -1.253314 1.253314
C -0.920931 1.585697 -0.47006 1.772454 0 1.772454
z
" id="mbb81e02ef6" style="stroke:#d95f02;stroke-width:0.886227;"/>
    </defs>
    <g clip-path="url(#pc22e248aee)">
     <use style="fill:#d95f02;stroke:#d95f02;stroke-width:0.886227;" x="477.493281" xlink:href="#mbb81e02ef6" y="177.155476"/>
    </g>
   </g>
   <g id="line2d_36">
    <path clip-path="url(#pc22e248aee)" d="M 468.493281 177.155476
L 486.493281 177.155476
" style="fill:none;stroke:#d95f02;stroke-width:0.886227;"/>
   </g>
   <g id="text_31">
    <!-- single_model -->
    <g transform="translate(489.493281 180.187351)scale(0.12 -0.12)">
     <defs>
      <path d="M 4.984375 -4.296875
L 13.53125 -5.5625
Q 14.0625 -9.515625 16.5 -11.328125
Q 19.78125 -13.765625 25.4375 -13.765625
Q 31.546875 -13.765625 34.859375 -11.328125
Q 38.1875 -8.890625 39.359375 -4.5
Q 40.046875 -1.8125 39.984375 6.78125
Q 34.234375 0 25.640625 0
Q 14.9375 0 9.078125 7.71875
Q 3.21875 15.4375 3.21875 26.21875
Q 3.21875 33.640625 5.90625 39.90625
Q 8.59375 46.1875 13.6875 49.609375
Q 18.796875 53.03125 25.6875 53.03125
Q 34.859375 53.03125 40.828125 45.609375
L 40.828125 51.859375
L 48.921875 51.859375
L 48.921875 7.03125
Q 48.921875 -5.078125 46.453125 -10.125
Q 44 -15.1875 38.640625 -18.109375
Q 33.296875 -21.046875 25.484375 -21.046875
Q 16.21875 -21.046875 10.5 -16.875
Q 4.78125 -12.703125 4.984375 -4.296875
z
M 12.25 26.859375
Q 12.25 16.65625 16.296875 11.96875
Q 20.359375 7.28125 26.46875 7.28125
Q 32.515625 7.28125 36.609375 11.9375
Q 40.71875 16.609375 40.71875 26.5625
Q 40.71875 36.078125 36.5 40.90625
Q 32.28125 45.75 26.3125 45.75
Q 20.453125 45.75 16.34375 40.984375
Q 12.25 36.234375 12.25 26.859375
z
" id="ArialMT-103"/>
     </defs>
     <use xlink:href="#ArialMT-115"/>
     <use x="50" xlink:href="#ArialMT-105"/>
     <use x="72.216797" xlink:href="#ArialMT-110"/>
     <use x="127.832031" xlink:href="#ArialMT-103"/>
     <use x="183.447266" xlink:href="#ArialMT-108"/>
     <use x="205.664062" xlink:href="#ArialMT-101"/>
     <use x="261.279297" xlink:href="#ArialMT-95"/>
     <use x="316.894531" xlink:href="#ArialMT-109"/>
     <use x="400.195312" xlink:href="#ArialMT-111"/>
     <use x="455.810547" xlink:href="#ArialMT-100"/>
     <use x="511.425781" xlink:href="#ArialMT-101"/>
     <use x="567.041016" xlink:href="#ArialMT-108"/>
    </g>
   </g>
  </g>
  <g id="text_32">
   <!-- Percent Difference Relative to 2015-2016 -->
   <g style="fill:#262626;" transform="translate(147.020469 15.789375)scale(0.12 -0.12)">
    <defs>
     <path d="M 7.859375 0
L 7.859375 71.578125
L 39.59375 71.578125
Q 49.171875 71.578125 54.140625 69.640625
Q 59.125 67.71875 62.109375 62.828125
Q 65.09375 57.953125 65.09375 52.046875
Q 65.09375 44.4375 60.15625 39.203125
Q 55.21875 33.984375 44.921875 32.5625
Q 48.6875 30.765625 50.640625 29
Q 54.78125 25.203125 58.5 19.484375
L 70.953125 0
L 59.03125 0
L 49.5625 14.890625
Q 45.40625 21.34375 42.71875 24.75
Q 40.046875 28.171875 37.921875 29.53125
Q 35.796875 30.90625 33.59375 31.453125
Q 31.984375 31.78125 28.328125 31.78125
L 17.328125 31.78125
L 17.328125 0
z
M 17.328125 39.984375
L 37.703125 39.984375
Q 44.1875 39.984375 47.84375 41.328125
Q 51.515625 42.671875 53.421875 45.625
Q 55.328125 48.578125 55.328125 52.046875
Q 55.328125 57.125 51.640625 60.390625
Q 47.953125 63.671875 39.984375 63.671875
L 17.328125 63.671875
z
" id="ArialMT-82"/>
     <path d="M 21 0
L 1.265625 51.859375
L 10.546875 51.859375
L 21.6875 20.796875
Q 23.484375 15.765625 25 10.359375
Q 26.171875 14.453125 28.265625 20.21875
L 39.796875 51.859375
L 48.828125 51.859375
L 29.203125 0
z
" id="ArialMT-118"/>
    </defs>
    <use xlink:href="#ArialMT-80"/>
    <use x="66.699219" xlink:href="#ArialMT-101"/>
    <use x="122.314453" xlink:href="#ArialMT-114"/>
    <use x="155.615234" xlink:href="#ArialMT-99"/>
    <use x="205.615234" xlink:href="#ArialMT-101"/>
    <use x="261.230469" xlink:href="#ArialMT-110"/>
    <use x="316.845703" xlink:href="#ArialMT-116"/>
    <use x="344.628906" xlink:href="#ArialMT-32"/>
    <use x="372.412109" xlink:href="#ArialMT-68"/>
    <use x="444.628906" xlink:href="#ArialMT-105"/>
    <use x="466.845703" xlink:href="#ArialMT-102"/>
    <use x="492.878906" xlink:href="#ArialMT-102"/>
    <use x="520.662109" xlink:href="#ArialMT-101"/>
    <use x="576.277344" xlink:href="#ArialMT-114"/>
    <use x="609.578125" xlink:href="#ArialMT-101"/>
    <use x="665.193359" xlink:href="#ArialMT-110"/>
    <use x="720.808594" xlink:href="#ArialMT-99"/>
    <use x="770.808594" xlink:href="#ArialMT-101"/>
    <use x="826.423828" xlink:href="#ArialMT-32"/>
    <use x="854.207031" xlink:href="#ArialMT-82"/>
    <use x="926.423828" xlink:href="#ArialMT-101"/>
    <use x="982.039062" xlink:href="#ArialMT-108"/>
    <use x="1004.255859" xlink:href="#ArialMT-97"/>
    <use x="1059.871094" xlink:href="#ArialMT-116"/>
    <use x="1087.654297" xlink:href="#ArialMT-105"/>
    <use x="1109.871094" xlink:href="#ArialMT-118"/>
    <use x="1159.871094" xlink:href="#ArialMT-101"/>
    <use x="1215.486328" xlink:href="#ArialMT-32"/>
    <use x="1243.269531" xlink:href="#ArialMT-116"/>
    <use x="1271.052734" xlink:href="#ArialMT-111"/>
    <use x="1326.667969" xlink:href="#ArialMT-32"/>
    <use x="1354.451172" xlink:href="#ArialMT-50"/>
    <use x="1410.066406" xlink:href="#ArialMT-48"/>
    <use x="1465.681641" xlink:href="#ArialMT-49"/>
    <use x="1521.296875" xlink:href="#ArialMT-53"/>
    <use x="1576.912109" xlink:href="#ArialMT-45"/>
    <use x="1610.212891" xlink:href="#ArialMT-50"/>
    <use x="1665.828125" xlink:href="#ArialMT-48"/>
    <use x="1721.443359" xlink:href="#ArialMT-49"/>
    <use x="1777.058594" xlink:href="#ArialMT-54"/>
   </g>
  </g>
 </g>
 <defs>
  <clipPath id="p2531bc7cb9">
   <rect height="266.112" width="357.12" x="84.173281" y="26.340288"/>
  </clipPath>
  <clipPath id="pcb8ef87d35">
   <path d="M 468.493281 166.155476
L 468.493281 148.155476
L 486.493281 148.155476
L 486.493281 166.155476
"/>
  </clipPath>
  <clipPath id="pc22e248aee">
   <path d="M 468.493281 186.155476
L 468.493281 168.155476
L 486.493281 168.155476
L 486.493281 186.155476
"/>
  </clipPath>
 </defs>
</svg>
