<?xml version="1.0" encoding="utf-8" standalone="no"?>
<!DOCTYPE svg PUBLIC "-//W3C//DTD SVG 1.1//EN"
  "http://www.w3.org/Graphics/SVG/1.1/DTD/svg11.dtd">
<!-- Created with matplotlib (https://matplotlib.org/) -->
<svg height="334.086507pt" version="1.1" viewBox="0 0 608.731406 334.086507" width="608.731406pt" xmlns="http://www.w3.org/2000/svg" xmlns:xlink="http://www.w3.org/1999/xlink">
 <metadata>
  <rdf:RDF xmlns:cc="http://creativecommons.org/ns#" xmlns:dc="http://purl.org/dc/elements/1.1/" xmlns:rdf="http://www.w3.org/1999/02/22-rdf-syntax-ns#">
   <cc:Work>
    <dc:type rdf:resource="http://purl.org/dc/dcmitype/StillImage"/>
    <dc:date>2022-05-19T15:10:49.732252</dc:date>
    <dc:format>image/svg+xml</dc:format>
    <dc:creator>
     <cc:Agent>
      <dc:title>Matplotlib v3.3.3, https://matplotlib.org/</dc:title>
     </cc:Agent>
    </dc:creator>
   </cc:Work>
  </rdf:RDF>
 </metadata>
 <defs>
  <style type="text/css">*{stroke-linecap:butt;stroke-linejoin:round;}</style>
 </defs>
 <g id="figure_1">
  <g id="patch_1">
   <path d="M 0 334.086507
L 608.731406 334.086507
L 608.731406 0
L 0 0
z
" style="fill:#ffffff;"/>
  </g>
  <g id="axes_1">
   <g id="patch_2">
    <path d="M 84.173281 292.452288
L 441.293281 292.452288
L 441.293281 26.340288
L 84.173281 26.340288
z
" style="fill:#ffffff;"/>
   </g>
   <g id="matplotlib.axis_1">
    <g id="xtick_1">
     <g id="line2d_1">
      <defs>
       <path d="M 0 0
L 0 6
" id="mc29c24862b" style="stroke:#262626;stroke-width:1.25;"/>
      </defs>
      <g>
       <use style="fill:#262626;stroke:#262626;stroke-width:1.25;" x="100.406009" xlink:href="#mc29c24862b" y="292.452288"/>
      </g>
     </g>
     <g id="text_1">
      <!-- 0 -->
      <g style="fill:#262626;" transform="translate(97.347493 308.725882)scale(0.11 -0.11)">
       <defs>
        <path d="M 4.15625 35.296875
Q 4.15625 48 6.765625 55.734375
Q 9.375 63.484375 14.515625 67.671875
Q 19.671875 71.875 27.484375 71.875
Q 33.25 71.875 37.59375 69.546875
Q 41.9375 67.234375 44.765625 62.859375
Q 47.609375 58.5 49.21875 52.21875
Q 50.828125 45.953125 50.828125 35.296875
Q 50.828125 22.703125 48.234375 14.96875
Q 45.65625 7.234375 40.5 3
Q 35.359375 -1.21875 27.484375 -1.21875
Q 17.140625 -1.21875 11.234375 6.203125
Q 4.15625 15.140625 4.15625 35.296875
z
M 13.1875 35.296875
Q 13.1875 17.671875 17.3125 11.828125
Q 21.4375 6 27.484375 6
Q 33.546875 6 37.671875 11.859375
Q 41.796875 17.71875 41.796875 35.296875
Q 41.796875 52.984375 37.671875 58.78125
Q 33.546875 64.59375 27.390625 64.59375
Q 21.34375 64.59375 17.71875 59.46875
Q 13.1875 52.9375 13.1875 35.296875
z
" id="ArialMT-48"/>
       </defs>
       <use xlink:href="#ArialMT-48"/>
      </g>
     </g>
    </g>
    <g id="xtick_2">
     <g id="line2d_2">
      <g>
       <use style="fill:#262626;stroke:#262626;stroke-width:1.25;" x="162.710127" xlink:href="#mc29c24862b" y="292.452288"/>
      </g>
     </g>
     <g id="text_2">
      <!-- 0.1 -->
      <g style="fill:#262626;" transform="translate(155.065127 308.725882)scale(0.11 -0.11)">
       <defs>
        <path d="M 9.078125 0
L 9.078125 10.015625
L 19.09375 10.015625
L 19.09375 0
z
" id="ArialMT-46"/>
        <path d="M 37.25 0
L 28.46875 0
L 28.46875 56
Q 25.296875 52.984375 20.140625 49.953125
Q 14.984375 46.921875 10.890625 45.40625
L 10.890625 53.90625
Q 18.265625 57.375 23.78125 62.296875
Q 29.296875 67.234375 31.59375 71.875
L 37.25 71.875
z
" id="ArialMT-49"/>
       </defs>
       <use xlink:href="#ArialMT-48"/>
       <use x="55.615234" xlink:href="#ArialMT-46"/>
       <use x="83.398438" xlink:href="#ArialMT-49"/>
      </g>
     </g>
    </g>
    <g id="xtick_3">
     <g id="line2d_3">
      <g>
       <use style="fill:#262626;stroke:#262626;stroke-width:1.25;" x="225.014246" xlink:href="#mc29c24862b" y="292.452288"/>
      </g>
     </g>
     <g id="text_3">
      <!-- 0.2 -->
      <g style="fill:#262626;" transform="translate(217.369246 308.725882)scale(0.11 -0.11)">
       <defs>
        <path d="M 50.34375 8.453125
L 50.34375 0
L 3.03125 0
Q 2.9375 3.171875 4.046875 6.109375
Q 5.859375 10.9375 9.828125 15.625
Q 13.8125 20.3125 21.34375 26.46875
Q 33.015625 36.03125 37.109375 41.625
Q 41.21875 47.21875 41.21875 52.203125
Q 41.21875 57.421875 37.46875 61
Q 33.734375 64.59375 27.734375 64.59375
Q 21.390625 64.59375 17.578125 60.78125
Q 13.765625 56.984375 13.71875 50.25
L 4.6875 51.171875
Q 5.609375 61.28125 11.65625 66.578125
Q 17.71875 71.875 27.9375 71.875
Q 38.234375 71.875 44.234375 66.15625
Q 50.25 60.453125 50.25 52
Q 50.25 47.703125 48.484375 43.546875
Q 46.734375 39.40625 42.65625 34.8125
Q 38.578125 30.21875 29.109375 22.21875
Q 21.1875 15.578125 18.9375 13.203125
Q 16.703125 10.84375 15.234375 8.453125
z
" id="ArialMT-50"/>
       </defs>
       <use xlink:href="#ArialMT-48"/>
       <use x="55.615234" xlink:href="#ArialMT-46"/>
       <use x="83.398438" xlink:href="#ArialMT-50"/>
      </g>
     </g>
    </g>
    <g id="xtick_4">
     <g id="line2d_4">
      <g>
       <use style="fill:#262626;stroke:#262626;stroke-width:1.25;" x="287.318365" xlink:href="#mc29c24862b" y="292.452288"/>
      </g>
     </g>
     <g id="text_4">
      <!-- 0.3 -->
      <g style="fill:#262626;" transform="translate(279.673365 308.725882)scale(0.11 -0.11)">
       <defs>
        <path d="M 4.203125 18.890625
L 12.984375 20.0625
Q 14.5 12.59375 18.140625 9.296875
Q 21.78125 6 27 6
Q 33.203125 6 37.46875 10.296875
Q 41.75 14.59375 41.75 20.953125
Q 41.75 27 37.796875 30.921875
Q 33.84375 34.859375 27.734375 34.859375
Q 25.25 34.859375 21.53125 33.890625
L 22.515625 41.609375
Q 23.390625 41.5 23.921875 41.5
Q 29.546875 41.5 34.03125 44.421875
Q 38.53125 47.359375 38.53125 53.46875
Q 38.53125 58.296875 35.25 61.46875
Q 31.984375 64.65625 26.8125 64.65625
Q 21.6875 64.65625 18.265625 61.421875
Q 14.84375 58.203125 13.875 51.765625
L 5.078125 53.328125
Q 6.6875 62.15625 12.390625 67.015625
Q 18.109375 71.875 26.609375 71.875
Q 32.46875 71.875 37.390625 69.359375
Q 42.328125 66.84375 44.9375 62.5
Q 47.5625 58.15625 47.5625 53.265625
Q 47.5625 48.640625 45.0625 44.828125
Q 42.578125 41.015625 37.703125 38.765625
Q 44.046875 37.3125 47.5625 32.6875
Q 51.078125 28.078125 51.078125 21.140625
Q 51.078125 11.765625 44.234375 5.25
Q 37.40625 -1.265625 26.953125 -1.265625
Q 17.53125 -1.265625 11.296875 4.34375
Q 5.078125 9.96875 4.203125 18.890625
z
" id="ArialMT-51"/>
       </defs>
       <use xlink:href="#ArialMT-48"/>
       <use x="55.615234" xlink:href="#ArialMT-46"/>
       <use x="83.398438" xlink:href="#ArialMT-51"/>
      </g>
     </g>
    </g>
    <g id="xtick_5">
     <g id="line2d_5">
      <g>
       <use style="fill:#262626;stroke:#262626;stroke-width:1.25;" x="349.622484" xlink:href="#mc29c24862b" y="292.452288"/>
      </g>
     </g>
     <g id="text_5">
      <!-- 0.4 -->
      <g style="fill:#262626;" transform="translate(341.977484 308.725882)scale(0.11 -0.11)">
       <defs>
        <path d="M 32.328125 0
L 32.328125 17.140625
L 1.265625 17.140625
L 1.265625 25.203125
L 33.9375 71.578125
L 41.109375 71.578125
L 41.109375 25.203125
L 50.78125 25.203125
L 50.78125 17.140625
L 41.109375 17.140625
L 41.109375 0
z
M 32.328125 25.203125
L 32.328125 57.46875
L 9.90625 25.203125
z
" id="ArialMT-52"/>
       </defs>
       <use xlink:href="#ArialMT-48"/>
       <use x="55.615234" xlink:href="#ArialMT-46"/>
       <use x="83.398438" xlink:href="#ArialMT-52"/>
      </g>
     </g>
    </g>
    <g id="xtick_6">
     <g id="line2d_6">
      <g>
       <use style="fill:#262626;stroke:#262626;stroke-width:1.25;" x="411.926603" xlink:href="#mc29c24862b" y="292.452288"/>
      </g>
     </g>
     <g id="text_6">
      <!-- 0.5 -->
      <g style="fill:#262626;" transform="translate(404.281603 308.725882)scale(0.11 -0.11)">
       <defs>
        <path d="M 4.15625 18.75
L 13.375 19.53125
Q 14.40625 12.796875 18.140625 9.390625
Q 21.875 6 27.15625 6
Q 33.5 6 37.890625 10.78125
Q 42.28125 15.578125 42.28125 23.484375
Q 42.28125 31 38.0625 35.34375
Q 33.84375 39.703125 27 39.703125
Q 22.75 39.703125 19.328125 37.765625
Q 15.921875 35.84375 13.96875 32.765625
L 5.71875 33.84375
L 12.640625 70.609375
L 48.25 70.609375
L 48.25 62.203125
L 19.671875 62.203125
L 15.828125 42.96875
Q 22.265625 47.46875 29.34375 47.46875
Q 38.71875 47.46875 45.15625 40.96875
Q 51.609375 34.46875 51.609375 24.265625
Q 51.609375 14.546875 45.953125 7.46875
Q 39.0625 -1.21875 27.15625 -1.21875
Q 17.390625 -1.21875 11.203125 4.25
Q 5.03125 9.71875 4.15625 18.75
z
" id="ArialMT-53"/>
       </defs>
       <use xlink:href="#ArialMT-48"/>
       <use x="55.615234" xlink:href="#ArialMT-46"/>
       <use x="83.398438" xlink:href="#ArialMT-53"/>
      </g>
     </g>
    </g>
    <g id="xtick_7">
     <g id="line2d_7">
      <defs>
       <path d="M 0 0
L 0 4
" id="m89bc39ef65" style="stroke:#262626;"/>
      </defs>
      <g>
       <use style="fill:#262626;stroke:#262626;" x="131.558068" xlink:href="#m89bc39ef65" y="292.452288"/>
      </g>
     </g>
    </g>
    <g id="xtick_8">
     <g id="line2d_8">
      <g>
       <use style="fill:#262626;stroke:#262626;" x="193.862187" xlink:href="#m89bc39ef65" y="292.452288"/>
      </g>
     </g>
    </g>
    <g id="xtick_9">
     <g id="line2d_9">
      <g>
       <use style="fill:#262626;stroke:#262626;" x="256.166306" xlink:href="#m89bc39ef65" y="292.452288"/>
      </g>
     </g>
    </g>
    <g id="xtick_10">
     <g id="line2d_10">
      <g>
       <use style="fill:#262626;stroke:#262626;" x="318.470424" xlink:href="#m89bc39ef65" y="292.452288"/>
      </g>
     </g>
    </g>
    <g id="xtick_11">
     <g id="line2d_11">
      <g>
       <use style="fill:#262626;stroke:#262626;" x="380.774543" xlink:href="#m89bc39ef65" y="292.452288"/>
      </g>
     </g>
    </g>
    <g id="text_7">
     <!-- Percent Difference -->
     <g style="fill:#262626;" transform="translate(207.390781 324.501507)scale(0.12 -0.12)">
      <defs>
       <path d="M 7.71875 0
L 7.71875 71.578125
L 34.71875 71.578125
Q 41.84375 71.578125 45.609375 70.90625
Q 50.875 70.015625 54.4375 67.546875
Q 58.015625 65.09375 60.1875 60.640625
Q 62.359375 56.203125 62.359375 50.875
Q 62.359375 41.75 56.546875 35.421875
Q 50.734375 29.109375 35.546875 29.109375
L 17.1875 29.109375
L 17.1875 0
z
M 17.1875 37.546875
L 35.6875 37.546875
Q 44.875 37.546875 48.734375 40.96875
Q 52.59375 44.390625 52.59375 50.59375
Q 52.59375 55.078125 50.3125 58.265625
Q 48.046875 61.46875 44.34375 62.5
Q 41.9375 63.140625 35.5 63.140625
L 17.1875 63.140625
z
" id="ArialMT-80"/>
       <path d="M 42.09375 16.703125
L 51.171875 15.578125
Q 49.03125 7.625 43.21875 3.21875
Q 37.40625 -1.171875 28.375 -1.171875
Q 17 -1.171875 10.328125 5.828125
Q 3.65625 12.84375 3.65625 25.484375
Q 3.65625 38.578125 10.390625 45.796875
Q 17.140625 53.03125 27.875 53.03125
Q 38.28125 53.03125 44.875 45.953125
Q 51.46875 38.875 51.46875 26.03125
Q 51.46875 25.25 51.421875 23.6875
L 12.75 23.6875
Q 13.234375 15.140625 17.578125 10.59375
Q 21.921875 6.0625 28.421875 6.0625
Q 33.25 6.0625 36.671875 8.59375
Q 40.09375 11.140625 42.09375 16.703125
z
M 13.234375 30.90625
L 42.1875 30.90625
Q 41.609375 37.453125 38.875 40.71875
Q 34.671875 45.796875 27.984375 45.796875
Q 21.921875 45.796875 17.796875 41.75
Q 13.671875 37.703125 13.234375 30.90625
z
" id="ArialMT-101"/>
       <path d="M 6.5 0
L 6.5 51.859375
L 14.40625 51.859375
L 14.40625 44
Q 17.4375 49.515625 20 51.265625
Q 22.5625 53.03125 25.640625 53.03125
Q 30.078125 53.03125 34.671875 50.203125
L 31.640625 42.046875
Q 28.421875 43.953125 25.203125 43.953125
Q 22.3125 43.953125 20.015625 42.21875
Q 17.71875 40.484375 16.75 37.40625
Q 15.28125 32.71875 15.28125 27.15625
L 15.28125 0
z
" id="ArialMT-114"/>
       <path d="M 40.4375 19
L 49.078125 17.875
Q 47.65625 8.9375 41.8125 3.875
Q 35.984375 -1.171875 27.484375 -1.171875
Q 16.84375 -1.171875 10.375 5.78125
Q 3.90625 12.75 3.90625 25.734375
Q 3.90625 34.125 6.6875 40.421875
Q 9.46875 46.734375 15.15625 49.875
Q 20.84375 53.03125 27.546875 53.03125
Q 35.984375 53.03125 41.359375 48.75
Q 46.734375 44.484375 48.25 36.625
L 39.703125 35.296875
Q 38.484375 40.53125 35.375 43.15625
Q 32.28125 45.796875 27.875 45.796875
Q 21.234375 45.796875 17.078125 41.03125
Q 12.9375 36.28125 12.9375 25.984375
Q 12.9375 15.53125 16.9375 10.796875
Q 20.953125 6.0625 27.390625 6.0625
Q 32.5625 6.0625 36.03125 9.234375
Q 39.5 12.40625 40.4375 19
z
" id="ArialMT-99"/>
       <path d="M 6.59375 0
L 6.59375 51.859375
L 14.5 51.859375
L 14.5 44.484375
Q 20.21875 53.03125 31 53.03125
Q 35.6875 53.03125 39.625 51.34375
Q 43.5625 49.65625 45.515625 46.921875
Q 47.46875 44.1875 48.25 40.4375
Q 48.734375 37.984375 48.734375 31.890625
L 48.734375 0
L 39.9375 0
L 39.9375 31.546875
Q 39.9375 36.921875 38.90625 39.578125
Q 37.890625 42.234375 35.28125 43.8125
Q 32.671875 45.40625 29.15625 45.40625
Q 23.53125 45.40625 19.453125 41.84375
Q 15.375 38.28125 15.375 28.328125
L 15.375 0
z
" id="ArialMT-110"/>
       <path d="M 25.78125 7.859375
L 27.046875 0.09375
Q 23.34375 -0.6875 20.40625 -0.6875
Q 15.625 -0.6875 12.984375 0.828125
Q 10.359375 2.34375 9.28125 4.8125
Q 8.203125 7.28125 8.203125 15.1875
L 8.203125 45.015625
L 1.765625 45.015625
L 1.765625 51.859375
L 8.203125 51.859375
L 8.203125 64.703125
L 16.9375 69.96875
L 16.9375 51.859375
L 25.78125 51.859375
L 25.78125 45.015625
L 16.9375 45.015625
L 16.9375 14.703125
Q 16.9375 10.9375 17.40625 9.859375
Q 17.875 8.796875 18.921875 8.15625
Q 19.96875 7.515625 21.921875 7.515625
Q 23.390625 7.515625 25.78125 7.859375
z
" id="ArialMT-116"/>
       <path id="ArialMT-32"/>
       <path d="M 7.71875 0
L 7.71875 71.578125
L 32.375 71.578125
Q 40.71875 71.578125 45.125 70.5625
Q 51.265625 69.140625 55.609375 65.4375
Q 61.28125 60.640625 64.078125 53.1875
Q 66.890625 45.75 66.890625 36.1875
Q 66.890625 28.03125 64.984375 21.734375
Q 63.09375 15.4375 60.109375 11.296875
Q 57.125 7.171875 53.578125 4.796875
Q 50.046875 2.4375 45.046875 1.21875
Q 40.046875 0 33.546875 0
z
M 17.1875 8.453125
L 32.46875 8.453125
Q 39.546875 8.453125 43.578125 9.765625
Q 47.609375 11.078125 50 13.484375
Q 53.375 16.84375 55.25 22.53125
Q 57.125 28.21875 57.125 36.328125
Q 57.125 47.5625 53.4375 53.59375
Q 49.75 59.625 44.484375 61.671875
Q 40.671875 63.140625 32.234375 63.140625
L 17.1875 63.140625
z
" id="ArialMT-68"/>
       <path d="M 6.640625 61.46875
L 6.640625 71.578125
L 15.4375 71.578125
L 15.4375 61.46875
z
M 6.640625 0
L 6.640625 51.859375
L 15.4375 51.859375
L 15.4375 0
z
" id="ArialMT-105"/>
       <path d="M 8.6875 0
L 8.6875 45.015625
L 0.921875 45.015625
L 0.921875 51.859375
L 8.6875 51.859375
L 8.6875 57.375
Q 8.6875 62.59375 9.625 65.140625
Q 10.890625 68.5625 14.078125 70.671875
Q 17.28125 72.796875 23.046875 72.796875
Q 26.765625 72.796875 31.25 71.921875
L 29.9375 64.265625
Q 27.203125 64.75 24.75 64.75
Q 20.75 64.75 19.09375 63.03125
Q 17.4375 61.328125 17.4375 56.640625
L 17.4375 51.859375
L 27.546875 51.859375
L 27.546875 45.015625
L 17.4375 45.015625
L 17.4375 0
z
" id="ArialMT-102"/>
      </defs>
      <use xlink:href="#ArialMT-80"/>
      <use x="66.699219" xlink:href="#ArialMT-101"/>
      <use x="122.314453" xlink:href="#ArialMT-114"/>
      <use x="155.615234" xlink:href="#ArialMT-99"/>
      <use x="205.615234" xlink:href="#ArialMT-101"/>
      <use x="261.230469" xlink:href="#ArialMT-110"/>
      <use x="316.845703" xlink:href="#ArialMT-116"/>
      <use x="344.628906" xlink:href="#ArialMT-32"/>
      <use x="372.412109" xlink:href="#ArialMT-68"/>
      <use x="444.628906" xlink:href="#ArialMT-105"/>
      <use x="466.845703" xlink:href="#ArialMT-102"/>
      <use x="492.878906" xlink:href="#ArialMT-102"/>
      <use x="520.662109" xlink:href="#ArialMT-101"/>
      <use x="576.277344" xlink:href="#ArialMT-114"/>
      <use x="609.578125" xlink:href="#ArialMT-101"/>
      <use x="665.193359" xlink:href="#ArialMT-110"/>
      <use x="720.808594" xlink:href="#ArialMT-99"/>
      <use x="770.808594" xlink:href="#ArialMT-101"/>
     </g>
    </g>
   </g>
   <g id="matplotlib.axis_2">
    <g id="ytick_1">
     <g id="line2d_12">
      <defs>
       <path d="M 0 0
L -6 0
" id="mbd61aa075a" style="stroke:#262626;stroke-width:1.25;"/>
      </defs>
      <g>
       <use style="fill:#262626;stroke:#262626;stroke-width:1.25;" x="84.173281" xlink:href="#mbd61aa075a" y="284.920817"/>
      </g>
     </g>
     <g id="text_8">
      <!-- 2000-2001 -->
      <g style="fill:#262626;" transform="translate(23.174375 288.857614)scale(0.11 -0.11)">
       <defs>
        <path d="M 3.171875 21.484375
L 3.171875 30.328125
L 30.171875 30.328125
L 30.171875 21.484375
z
" id="ArialMT-45"/>
       </defs>
       <use xlink:href="#ArialMT-50"/>
       <use x="55.615234" xlink:href="#ArialMT-48"/>
       <use x="111.230469" xlink:href="#ArialMT-48"/>
       <use x="166.845703" xlink:href="#ArialMT-48"/>
       <use x="222.460938" xlink:href="#ArialMT-45"/>
       <use x="255.761719" xlink:href="#ArialMT-50"/>
       <use x="311.376953" xlink:href="#ArialMT-48"/>
       <use x="366.992188" xlink:href="#ArialMT-48"/>
       <use x="422.607422" xlink:href="#ArialMT-49"/>
      </g>
     </g>
    </g>
    <g id="ytick_2">
     <g id="line2d_13">
      <g>
       <use style="fill:#262626;stroke:#262626;stroke-width:1.25;" x="84.173281" xlink:href="#mbd61aa075a" y="272.368364"/>
      </g>
     </g>
     <g id="text_9">
      <!-- 2001-2002 -->
      <g style="fill:#262626;" transform="translate(23.174375 276.305161)scale(0.11 -0.11)">
       <use xlink:href="#ArialMT-50"/>
       <use x="55.615234" xlink:href="#ArialMT-48"/>
       <use x="111.230469" xlink:href="#ArialMT-48"/>
       <use x="166.845703" xlink:href="#ArialMT-49"/>
       <use x="222.460938" xlink:href="#ArialMT-45"/>
       <use x="255.761719" xlink:href="#ArialMT-50"/>
       <use x="311.376953" xlink:href="#ArialMT-48"/>
       <use x="366.992188" xlink:href="#ArialMT-48"/>
       <use x="422.607422" xlink:href="#ArialMT-50"/>
      </g>
     </g>
    </g>
    <g id="ytick_3">
     <g id="line2d_14">
      <g>
       <use style="fill:#262626;stroke:#262626;stroke-width:1.25;" x="84.173281" xlink:href="#mbd61aa075a" y="259.815911"/>
      </g>
     </g>
     <g id="text_10">
      <!-- 2002-2003 -->
      <g style="fill:#262626;" transform="translate(23.174375 263.752708)scale(0.11 -0.11)">
       <use xlink:href="#ArialMT-50"/>
       <use x="55.615234" xlink:href="#ArialMT-48"/>
       <use x="111.230469" xlink:href="#ArialMT-48"/>
       <use x="166.845703" xlink:href="#ArialMT-50"/>
       <use x="222.460938" xlink:href="#ArialMT-45"/>
       <use x="255.761719" xlink:href="#ArialMT-50"/>
       <use x="311.376953" xlink:href="#ArialMT-48"/>
       <use x="366.992188" xlink:href="#ArialMT-48"/>
       <use x="422.607422" xlink:href="#ArialMT-51"/>
      </g>
     </g>
    </g>
    <g id="ytick_4">
     <g id="line2d_15">
      <g>
       <use style="fill:#262626;stroke:#262626;stroke-width:1.25;" x="84.173281" xlink:href="#mbd61aa075a" y="247.263458"/>
      </g>
     </g>
     <g id="text_11">
      <!-- 2003-2004 -->
      <g style="fill:#262626;" transform="translate(23.174375 251.200255)scale(0.11 -0.11)">
       <use xlink:href="#ArialMT-50"/>
       <use x="55.615234" xlink:href="#ArialMT-48"/>
       <use x="111.230469" xlink:href="#ArialMT-48"/>
       <use x="166.845703" xlink:href="#ArialMT-51"/>
       <use x="222.460938" xlink:href="#ArialMT-45"/>
       <use x="255.761719" xlink:href="#ArialMT-50"/>
       <use x="311.376953" xlink:href="#ArialMT-48"/>
       <use x="366.992188" xlink:href="#ArialMT-48"/>
       <use x="422.607422" xlink:href="#ArialMT-52"/>
      </g>
     </g>
    </g>
    <g id="ytick_5">
     <g id="line2d_16">
      <g>
       <use style="fill:#262626;stroke:#262626;stroke-width:1.25;" x="84.173281" xlink:href="#mbd61aa075a" y="234.711005"/>
      </g>
     </g>
     <g id="text_12">
      <!-- 2004-2005 -->
      <g style="fill:#262626;" transform="translate(23.174375 238.647802)scale(0.11 -0.11)">
       <use xlink:href="#ArialMT-50"/>
       <use x="55.615234" xlink:href="#ArialMT-48"/>
       <use x="111.230469" xlink:href="#ArialMT-48"/>
       <use x="166.845703" xlink:href="#ArialMT-52"/>
       <use x="222.460938" xlink:href="#ArialMT-45"/>
       <use x="255.761719" xlink:href="#ArialMT-50"/>
       <use x="311.376953" xlink:href="#ArialMT-48"/>
       <use x="366.992188" xlink:href="#ArialMT-48"/>
       <use x="422.607422" xlink:href="#ArialMT-53"/>
      </g>
     </g>
    </g>
    <g id="ytick_6">
     <g id="line2d_17">
      <g>
       <use style="fill:#262626;stroke:#262626;stroke-width:1.25;" x="84.173281" xlink:href="#mbd61aa075a" y="222.158553"/>
      </g>
     </g>
     <g id="text_13">
      <!-- 2005-2006 -->
      <g style="fill:#262626;" transform="translate(23.174375 226.095349)scale(0.11 -0.11)">
       <defs>
        <path d="M 49.75 54.046875
L 41.015625 53.375
Q 39.84375 58.546875 37.703125 60.890625
Q 34.125 64.65625 28.90625 64.65625
Q 24.703125 64.65625 21.53125 62.3125
Q 17.390625 59.28125 14.984375 53.46875
Q 12.59375 47.65625 12.5 36.921875
Q 15.671875 41.75 20.265625 44.09375
Q 24.859375 46.4375 29.890625 46.4375
Q 38.671875 46.4375 44.84375 39.96875
Q 51.03125 33.5 51.03125 23.25
Q 51.03125 16.5 48.125 10.71875
Q 45.21875 4.9375 40.140625 1.859375
Q 35.0625 -1.21875 28.609375 -1.21875
Q 17.625 -1.21875 10.6875 6.859375
Q 3.765625 14.9375 3.765625 33.5
Q 3.765625 54.25 11.421875 63.671875
Q 18.109375 71.875 29.4375 71.875
Q 37.890625 71.875 43.28125 67.140625
Q 48.6875 62.40625 49.75 54.046875
z
M 13.875 23.1875
Q 13.875 18.65625 15.796875 14.5
Q 17.71875 10.359375 21.1875 8.171875
Q 24.65625 6 28.46875 6
Q 34.03125 6 38.03125 10.484375
Q 42.046875 14.984375 42.046875 22.703125
Q 42.046875 30.125 38.078125 34.390625
Q 34.125 38.671875 28.125 38.671875
Q 22.171875 38.671875 18.015625 34.390625
Q 13.875 30.125 13.875 23.1875
z
" id="ArialMT-54"/>
       </defs>
       <use xlink:href="#ArialMT-50"/>
       <use x="55.615234" xlink:href="#ArialMT-48"/>
       <use x="111.230469" xlink:href="#ArialMT-48"/>
       <use x="166.845703" xlink:href="#ArialMT-53"/>
       <use x="222.460938" xlink:href="#ArialMT-45"/>
       <use x="255.761719" xlink:href="#ArialMT-50"/>
       <use x="311.376953" xlink:href="#ArialMT-48"/>
       <use x="366.992188" xlink:href="#ArialMT-48"/>
       <use x="422.607422" xlink:href="#ArialMT-54"/>
      </g>
     </g>
    </g>
    <g id="ytick_7">
     <g id="line2d_18">
      <g>
       <use style="fill:#262626;stroke:#262626;stroke-width:1.25;" x="84.173281" xlink:href="#mbd61aa075a" y="209.6061"/>
      </g>
     </g>
     <g id="text_14">
      <!-- 2006-2007 -->
      <g style="fill:#262626;" transform="translate(23.174375 213.542897)scale(0.11 -0.11)">
       <defs>
        <path d="M 4.734375 62.203125
L 4.734375 70.65625
L 51.078125 70.65625
L 51.078125 63.8125
Q 44.234375 56.546875 37.515625 44.484375
Q 30.8125 32.421875 27.15625 19.671875
Q 24.515625 10.6875 23.78125 0
L 14.75 0
Q 14.890625 8.453125 18.0625 20.40625
Q 21.234375 32.375 27.171875 43.484375
Q 33.109375 54.59375 39.796875 62.203125
z
" id="ArialMT-55"/>
       </defs>
       <use xlink:href="#ArialMT-50"/>
       <use x="55.615234" xlink:href="#ArialMT-48"/>
       <use x="111.230469" xlink:href="#ArialMT-48"/>
       <use x="166.845703" xlink:href="#ArialMT-54"/>
       <use x="222.460938" xlink:href="#ArialMT-45"/>
       <use x="255.761719" xlink:href="#ArialMT-50"/>
       <use x="311.376953" xlink:href="#ArialMT-48"/>
       <use x="366.992188" xlink:href="#ArialMT-48"/>
       <use x="422.607422" xlink:href="#ArialMT-55"/>
      </g>
     </g>
    </g>
    <g id="ytick_8">
     <g id="line2d_19">
      <g>
       <use style="fill:#262626;stroke:#262626;stroke-width:1.25;" x="84.173281" xlink:href="#mbd61aa075a" y="197.053647"/>
      </g>
     </g>
     <g id="text_15">
      <!-- 2007-2008 -->
      <g style="fill:#262626;" transform="translate(23.174375 200.990444)scale(0.11 -0.11)">
       <defs>
        <path d="M 17.671875 38.8125
Q 12.203125 40.828125 9.5625 44.53125
Q 6.9375 48.25 6.9375 53.421875
Q 6.9375 61.234375 12.546875 66.546875
Q 18.171875 71.875 27.484375 71.875
Q 36.859375 71.875 42.578125 66.421875
Q 48.296875 60.984375 48.296875 53.171875
Q 48.296875 48.1875 45.671875 44.5
Q 43.0625 40.828125 37.75 38.8125
Q 44.34375 36.671875 47.78125 31.875
Q 51.21875 27.09375 51.21875 20.453125
Q 51.21875 11.28125 44.71875 5.03125
Q 38.234375 -1.21875 27.640625 -1.21875
Q 17.046875 -1.21875 10.546875 5.046875
Q 4.046875 11.328125 4.046875 20.703125
Q 4.046875 27.6875 7.59375 32.390625
Q 11.140625 37.109375 17.671875 38.8125
z
M 15.921875 53.71875
Q 15.921875 48.640625 19.1875 45.40625
Q 22.46875 42.1875 27.6875 42.1875
Q 32.765625 42.1875 36.015625 45.375
Q 39.265625 48.578125 39.265625 53.21875
Q 39.265625 58.0625 35.90625 61.359375
Q 32.5625 64.65625 27.59375 64.65625
Q 22.5625 64.65625 19.234375 61.421875
Q 15.921875 58.203125 15.921875 53.71875
z
M 13.09375 20.65625
Q 13.09375 16.890625 14.875 13.375
Q 16.65625 9.859375 20.171875 7.921875
Q 23.6875 6 27.734375 6
Q 34.03125 6 38.125 10.046875
Q 42.234375 14.109375 42.234375 20.359375
Q 42.234375 26.703125 38.015625 30.859375
Q 33.796875 35.015625 27.4375 35.015625
Q 21.234375 35.015625 17.15625 30.90625
Q 13.09375 26.8125 13.09375 20.65625
z
" id="ArialMT-56"/>
       </defs>
       <use xlink:href="#ArialMT-50"/>
       <use x="55.615234" xlink:href="#ArialMT-48"/>
       <use x="111.230469" xlink:href="#ArialMT-48"/>
       <use x="166.845703" xlink:href="#ArialMT-55"/>
       <use x="222.460938" xlink:href="#ArialMT-45"/>
       <use x="255.761719" xlink:href="#ArialMT-50"/>
       <use x="311.376953" xlink:href="#ArialMT-48"/>
       <use x="366.992188" xlink:href="#ArialMT-48"/>
       <use x="422.607422" xlink:href="#ArialMT-56"/>
      </g>
     </g>
    </g>
    <g id="ytick_9">
     <g id="line2d_20">
      <g>
       <use style="fill:#262626;stroke:#262626;stroke-width:1.25;" x="84.173281" xlink:href="#mbd61aa075a" y="184.501194"/>
      </g>
     </g>
     <g id="text_16">
      <!-- 2008-2009 -->
      <g style="fill:#262626;" transform="translate(23.174375 188.437991)scale(0.11 -0.11)">
       <defs>
        <path d="M 5.46875 16.546875
L 13.921875 17.328125
Q 14.984375 11.375 18.015625 8.6875
Q 21.046875 6 25.78125 6
Q 29.828125 6 32.875 7.859375
Q 35.9375 9.71875 37.890625 12.8125
Q 39.84375 15.921875 41.15625 21.1875
Q 42.484375 26.46875 42.484375 31.9375
Q 42.484375 32.515625 42.4375 33.6875
Q 39.796875 29.5 35.234375 26.875
Q 30.671875 24.265625 25.34375 24.265625
Q 16.453125 24.265625 10.296875 30.703125
Q 4.15625 37.15625 4.15625 47.703125
Q 4.15625 58.59375 10.578125 65.234375
Q 17 71.875 26.65625 71.875
Q 33.640625 71.875 39.421875 68.109375
Q 45.21875 64.359375 48.21875 57.390625
Q 51.21875 50.4375 51.21875 37.25
Q 51.21875 23.53125 48.234375 15.40625
Q 45.265625 7.28125 39.375 3.03125
Q 33.5 -1.21875 25.59375 -1.21875
Q 17.1875 -1.21875 11.859375 3.4375
Q 6.546875 8.109375 5.46875 16.546875
z
M 41.453125 48.140625
Q 41.453125 55.71875 37.421875 60.15625
Q 33.40625 64.59375 27.734375 64.59375
Q 21.875 64.59375 17.53125 59.8125
Q 13.1875 55.03125 13.1875 47.40625
Q 13.1875 40.578125 17.3125 36.296875
Q 21.4375 32.03125 27.484375 32.03125
Q 33.59375 32.03125 37.515625 36.296875
Q 41.453125 40.578125 41.453125 48.140625
z
" id="ArialMT-57"/>
       </defs>
       <use xlink:href="#ArialMT-50"/>
       <use x="55.615234" xlink:href="#ArialMT-48"/>
       <use x="111.230469" xlink:href="#ArialMT-48"/>
       <use x="166.845703" xlink:href="#ArialMT-56"/>
       <use x="222.460938" xlink:href="#ArialMT-45"/>
       <use x="255.761719" xlink:href="#ArialMT-50"/>
       <use x="311.376953" xlink:href="#ArialMT-48"/>
       <use x="366.992188" xlink:href="#ArialMT-48"/>
       <use x="422.607422" xlink:href="#ArialMT-57"/>
      </g>
     </g>
    </g>
    <g id="ytick_10">
     <g id="line2d_21">
      <g>
       <use style="fill:#262626;stroke:#262626;stroke-width:1.25;" x="84.173281" xlink:href="#mbd61aa075a" y="171.948741"/>
      </g>
     </g>
     <g id="text_17">
      <!-- 2009-2010 -->
      <g style="fill:#262626;" transform="translate(23.174375 175.885538)scale(0.11 -0.11)">
       <use xlink:href="#ArialMT-50"/>
       <use x="55.615234" xlink:href="#ArialMT-48"/>
       <use x="111.230469" xlink:href="#ArialMT-48"/>
       <use x="166.845703" xlink:href="#ArialMT-57"/>
       <use x="222.460938" xlink:href="#ArialMT-45"/>
       <use x="255.761719" xlink:href="#ArialMT-50"/>
       <use x="311.376953" xlink:href="#ArialMT-48"/>
       <use x="366.992188" xlink:href="#ArialMT-49"/>
       <use x="422.607422" xlink:href="#ArialMT-48"/>
      </g>
     </g>
    </g>
    <g id="ytick_11">
     <g id="line2d_22">
      <g>
       <use style="fill:#262626;stroke:#262626;stroke-width:1.25;" x="84.173281" xlink:href="#mbd61aa075a" y="159.396288"/>
      </g>
     </g>
     <g id="text_18">
      <!-- 2010-2011 -->
      <g style="fill:#262626;" transform="translate(23.985625 163.333085)scale(0.11 -0.11)">
       <use xlink:href="#ArialMT-50"/>
       <use x="55.615234" xlink:href="#ArialMT-48"/>
       <use x="111.230469" xlink:href="#ArialMT-49"/>
       <use x="166.845703" xlink:href="#ArialMT-48"/>
       <use x="222.460938" xlink:href="#ArialMT-45"/>
       <use x="255.761719" xlink:href="#ArialMT-50"/>
       <use x="311.376953" xlink:href="#ArialMT-48"/>
       <use x="366.992188" xlink:href="#ArialMT-49"/>
       <use x="415.232422" xlink:href="#ArialMT-49"/>
      </g>
     </g>
    </g>
    <g id="ytick_12">
     <g id="line2d_23">
      <g>
       <use style="fill:#262626;stroke:#262626;stroke-width:1.25;" x="84.173281" xlink:href="#mbd61aa075a" y="146.843836"/>
      </g>
     </g>
     <g id="text_19">
      <!-- 2011-2012 -->
      <g style="fill:#262626;" transform="translate(23.985625 150.780632)scale(0.11 -0.11)">
       <use xlink:href="#ArialMT-50"/>
       <use x="55.615234" xlink:href="#ArialMT-48"/>
       <use x="111.230469" xlink:href="#ArialMT-49"/>
       <use x="159.470703" xlink:href="#ArialMT-49"/>
       <use x="215.085938" xlink:href="#ArialMT-45"/>
       <use x="248.386719" xlink:href="#ArialMT-50"/>
       <use x="304.001953" xlink:href="#ArialMT-48"/>
       <use x="359.617188" xlink:href="#ArialMT-49"/>
       <use x="415.232422" xlink:href="#ArialMT-50"/>
      </g>
     </g>
    </g>
    <g id="ytick_13">
     <g id="line2d_24">
      <g>
       <use style="fill:#262626;stroke:#262626;stroke-width:1.25;" x="84.173281" xlink:href="#mbd61aa075a" y="134.291383"/>
      </g>
     </g>
     <g id="text_20">
      <!-- 2012-2013 -->
      <g style="fill:#262626;" transform="translate(23.174375 138.22818)scale(0.11 -0.11)">
       <use xlink:href="#ArialMT-50"/>
       <use x="55.615234" xlink:href="#ArialMT-48"/>
       <use x="111.230469" xlink:href="#ArialMT-49"/>
       <use x="166.845703" xlink:href="#ArialMT-50"/>
       <use x="222.460938" xlink:href="#ArialMT-45"/>
       <use x="255.761719" xlink:href="#ArialMT-50"/>
       <use x="311.376953" xlink:href="#ArialMT-48"/>
       <use x="366.992188" xlink:href="#ArialMT-49"/>
       <use x="422.607422" xlink:href="#ArialMT-51"/>
      </g>
     </g>
    </g>
    <g id="ytick_14">
     <g id="line2d_25">
      <g>
       <use style="fill:#262626;stroke:#262626;stroke-width:1.25;" x="84.173281" xlink:href="#mbd61aa075a" y="121.73893"/>
      </g>
     </g>
     <g id="text_21">
      <!-- 2013-2014 -->
      <g style="fill:#262626;" transform="translate(23.174375 125.675727)scale(0.11 -0.11)">
       <use xlink:href="#ArialMT-50"/>
       <use x="55.615234" xlink:href="#ArialMT-48"/>
       <use x="111.230469" xlink:href="#ArialMT-49"/>
       <use x="166.845703" xlink:href="#ArialMT-51"/>
       <use x="222.460938" xlink:href="#ArialMT-45"/>
       <use x="255.761719" xlink:href="#ArialMT-50"/>
       <use x="311.376953" xlink:href="#ArialMT-48"/>
       <use x="366.992188" xlink:href="#ArialMT-49"/>
       <use x="422.607422" xlink:href="#ArialMT-52"/>
      </g>
     </g>
    </g>
    <g id="ytick_15">
     <g id="line2d_26">
      <g>
       <use style="fill:#262626;stroke:#262626;stroke-width:1.25;" x="84.173281" xlink:href="#mbd61aa075a" y="109.186477"/>
      </g>
     </g>
     <g id="text_22">
      <!-- 2014-2015 -->
      <g style="fill:#262626;" transform="translate(23.174375 113.123274)scale(0.11 -0.11)">
       <use xlink:href="#ArialMT-50"/>
       <use x="55.615234" xlink:href="#ArialMT-48"/>
       <use x="111.230469" xlink:href="#ArialMT-49"/>
       <use x="166.845703" xlink:href="#ArialMT-52"/>
       <use x="222.460938" xlink:href="#ArialMT-45"/>
       <use x="255.761719" xlink:href="#ArialMT-50"/>
       <use x="311.376953" xlink:href="#ArialMT-48"/>
       <use x="366.992188" xlink:href="#ArialMT-49"/>
       <use x="422.607422" xlink:href="#ArialMT-53"/>
      </g>
     </g>
    </g>
    <g id="ytick_16">
     <g id="line2d_27">
      <g>
       <use style="fill:#262626;stroke:#262626;stroke-width:1.25;" x="84.173281" xlink:href="#mbd61aa075a" y="96.634024"/>
      </g>
     </g>
     <g id="text_23">
      <!-- 2015-2016 -->
      <g style="fill:#262626;" transform="translate(23.174375 100.570821)scale(0.11 -0.11)">
       <use xlink:href="#ArialMT-50"/>
       <use x="55.615234" xlink:href="#ArialMT-48"/>
       <use x="111.230469" xlink:href="#ArialMT-49"/>
       <use x="166.845703" xlink:href="#ArialMT-53"/>
       <use x="222.460938" xlink:href="#ArialMT-45"/>
       <use x="255.761719" xlink:href="#ArialMT-50"/>
       <use x="311.376953" xlink:href="#ArialMT-48"/>
       <use x="366.992188" xlink:href="#ArialMT-49"/>
       <use x="422.607422" xlink:href="#ArialMT-54"/>
      </g>
     </g>
    </g>
    <g id="ytick_17">
     <g id="line2d_28">
      <g>
       <use style="fill:#262626;stroke:#262626;stroke-width:1.25;" x="84.173281" xlink:href="#mbd61aa075a" y="84.081571"/>
      </g>
     </g>
     <g id="text_24">
      <!-- 2016-2017 -->
      <g style="fill:#262626;" transform="translate(23.174375 88.018368)scale(0.11 -0.11)">
       <use xlink:href="#ArialMT-50"/>
       <use x="55.615234" xlink:href="#ArialMT-48"/>
       <use x="111.230469" xlink:href="#ArialMT-49"/>
       <use x="166.845703" xlink:href="#ArialMT-54"/>
       <use x="222.460938" xlink:href="#ArialMT-45"/>
       <use x="255.761719" xlink:href="#ArialMT-50"/>
       <use x="311.376953" xlink:href="#ArialMT-48"/>
       <use x="366.992188" xlink:href="#ArialMT-49"/>
       <use x="422.607422" xlink:href="#ArialMT-55"/>
      </g>
     </g>
    </g>
    <g id="ytick_18">
     <g id="line2d_29">
      <g>
       <use style="fill:#262626;stroke:#262626;stroke-width:1.25;" x="84.173281" xlink:href="#mbd61aa075a" y="71.529119"/>
      </g>
     </g>
     <g id="text_25">
      <!-- 2017-2018 -->
      <g style="fill:#262626;" transform="translate(23.174375 75.465915)scale(0.11 -0.11)">
       <use xlink:href="#ArialMT-50"/>
       <use x="55.615234" xlink:href="#ArialMT-48"/>
       <use x="111.230469" xlink:href="#ArialMT-49"/>
       <use x="166.845703" xlink:href="#ArialMT-55"/>
       <use x="222.460938" xlink:href="#ArialMT-45"/>
       <use x="255.761719" xlink:href="#ArialMT-50"/>
       <use x="311.376953" xlink:href="#ArialMT-48"/>
       <use x="366.992188" xlink:href="#ArialMT-49"/>
       <use x="422.607422" xlink:href="#ArialMT-56"/>
      </g>
     </g>
    </g>
    <g id="ytick_19">
     <g id="line2d_30">
      <g>
       <use style="fill:#262626;stroke:#262626;stroke-width:1.25;" x="84.173281" xlink:href="#mbd61aa075a" y="58.976666"/>
      </g>
     </g>
     <g id="text_26">
      <!-- 2018-2019 -->
      <g style="fill:#262626;" transform="translate(23.174375 62.913463)scale(0.11 -0.11)">
       <use xlink:href="#ArialMT-50"/>
       <use x="55.615234" xlink:href="#ArialMT-48"/>
       <use x="111.230469" xlink:href="#ArialMT-49"/>
       <use x="166.845703" xlink:href="#ArialMT-56"/>
       <use x="222.460938" xlink:href="#ArialMT-45"/>
       <use x="255.761719" xlink:href="#ArialMT-50"/>
       <use x="311.376953" xlink:href="#ArialMT-48"/>
       <use x="366.992188" xlink:href="#ArialMT-49"/>
       <use x="422.607422" xlink:href="#ArialMT-57"/>
      </g>
     </g>
    </g>
    <g id="ytick_20">
     <g id="line2d_31">
      <g>
       <use style="fill:#262626;stroke:#262626;stroke-width:1.25;" x="84.173281" xlink:href="#mbd61aa075a" y="46.424213"/>
      </g>
     </g>
     <g id="text_27">
      <!-- 2019-2020 -->
      <g style="fill:#262626;" transform="translate(23.174375 50.36101)scale(0.11 -0.11)">
       <use xlink:href="#ArialMT-50"/>
       <use x="55.615234" xlink:href="#ArialMT-48"/>
       <use x="111.230469" xlink:href="#ArialMT-49"/>
       <use x="166.845703" xlink:href="#ArialMT-57"/>
       <use x="222.460938" xlink:href="#ArialMT-45"/>
       <use x="255.761719" xlink:href="#ArialMT-50"/>
       <use x="311.376953" xlink:href="#ArialMT-48"/>
       <use x="366.992188" xlink:href="#ArialMT-50"/>
       <use x="422.607422" xlink:href="#ArialMT-48"/>
      </g>
     </g>
    </g>
    <g id="ytick_21">
     <g id="line2d_32">
      <g>
       <use style="fill:#262626;stroke:#262626;stroke-width:1.25;" x="84.173281" xlink:href="#mbd61aa075a" y="33.87176"/>
      </g>
     </g>
     <g id="text_28">
      <!-- 2020-2021 -->
      <g style="fill:#262626;" transform="translate(23.174375 37.808557)scale(0.11 -0.11)">
       <use xlink:href="#ArialMT-50"/>
       <use x="55.615234" xlink:href="#ArialMT-48"/>
       <use x="111.230469" xlink:href="#ArialMT-50"/>
       <use x="166.845703" xlink:href="#ArialMT-48"/>
       <use x="222.460938" xlink:href="#ArialMT-45"/>
       <use x="255.761719" xlink:href="#ArialMT-50"/>
       <use x="311.376953" xlink:href="#ArialMT-48"/>
       <use x="366.992188" xlink:href="#ArialMT-50"/>
       <use x="422.607422" xlink:href="#ArialMT-49"/>
      </g>
     </g>
    </g>
    <g id="text_29">
     <!-- Time Periods -->
     <g style="fill:#262626;" transform="translate(15.789375 192.785163)rotate(-90)scale(0.12 -0.12)">
      <defs>
       <path d="M 25.921875 0
L 25.921875 63.140625
L 2.34375 63.140625
L 2.34375 71.578125
L 59.078125 71.578125
L 59.078125 63.140625
L 35.40625 63.140625
L 35.40625 0
z
" id="ArialMT-84"/>
       <path d="M 6.59375 0
L 6.59375 51.859375
L 14.453125 51.859375
L 14.453125 44.578125
Q 16.890625 48.390625 20.9375 50.703125
Q 25 53.03125 30.171875 53.03125
Q 35.9375 53.03125 39.625 50.640625
Q 43.3125 48.25 44.828125 43.953125
Q 50.984375 53.03125 60.84375 53.03125
Q 68.5625 53.03125 72.703125 48.75
Q 76.859375 44.484375 76.859375 35.59375
L 76.859375 0
L 68.109375 0
L 68.109375 32.671875
Q 68.109375 37.9375 67.25 40.25
Q 66.40625 42.578125 64.15625 43.984375
Q 61.921875 45.40625 58.890625 45.40625
Q 53.421875 45.40625 49.796875 41.765625
Q 46.1875 38.140625 46.1875 30.125
L 46.1875 0
L 37.40625 0
L 37.40625 33.6875
Q 37.40625 39.546875 35.25 42.46875
Q 33.109375 45.40625 28.21875 45.40625
Q 24.515625 45.40625 21.359375 43.453125
Q 18.21875 41.5 16.796875 37.734375
Q 15.375 33.984375 15.375 26.90625
L 15.375 0
z
" id="ArialMT-109"/>
       <path d="M 3.328125 25.921875
Q 3.328125 40.328125 11.328125 47.265625
Q 18.015625 53.03125 27.640625 53.03125
Q 38.328125 53.03125 45.109375 46.015625
Q 51.90625 39.015625 51.90625 26.65625
Q 51.90625 16.65625 48.90625 10.90625
Q 45.90625 5.171875 40.15625 2
Q 34.421875 -1.171875 27.640625 -1.171875
Q 16.75 -1.171875 10.03125 5.8125
Q 3.328125 12.796875 3.328125 25.921875
z
M 12.359375 25.921875
Q 12.359375 15.96875 16.703125 11.015625
Q 21.046875 6.0625 27.640625 6.0625
Q 34.1875 6.0625 38.53125 11.03125
Q 42.875 16.015625 42.875 26.21875
Q 42.875 35.84375 38.5 40.796875
Q 34.125 45.75 27.640625 45.75
Q 21.046875 45.75 16.703125 40.8125
Q 12.359375 35.890625 12.359375 25.921875
z
" id="ArialMT-111"/>
       <path d="M 40.234375 0
L 40.234375 6.546875
Q 35.296875 -1.171875 25.734375 -1.171875
Q 19.53125 -1.171875 14.328125 2.25
Q 9.125 5.671875 6.265625 11.796875
Q 3.421875 17.921875 3.421875 25.875
Q 3.421875 33.640625 6 39.96875
Q 8.59375 46.296875 13.765625 49.65625
Q 18.953125 53.03125 25.34375 53.03125
Q 30.03125 53.03125 33.6875 51.046875
Q 37.359375 49.078125 39.65625 45.90625
L 39.65625 71.578125
L 48.390625 71.578125
L 48.390625 0
z
M 12.453125 25.875
Q 12.453125 15.921875 16.640625 10.984375
Q 20.84375 6.0625 26.5625 6.0625
Q 32.328125 6.0625 36.34375 10.765625
Q 40.375 15.484375 40.375 25.140625
Q 40.375 35.796875 36.265625 40.765625
Q 32.171875 45.75 26.171875 45.75
Q 20.3125 45.75 16.375 40.96875
Q 12.453125 36.1875 12.453125 25.875
z
" id="ArialMT-100"/>
       <path d="M 3.078125 15.484375
L 11.765625 16.84375
Q 12.5 11.625 15.84375 8.84375
Q 19.1875 6.0625 25.203125 6.0625
Q 31.25 6.0625 34.171875 8.515625
Q 37.109375 10.984375 37.109375 14.3125
Q 37.109375 17.28125 34.515625 19
Q 32.71875 20.171875 25.53125 21.96875
Q 15.875 24.421875 12.140625 26.203125
Q 8.40625 27.984375 6.46875 31.125
Q 4.546875 34.28125 4.546875 38.09375
Q 4.546875 41.546875 6.125 44.5
Q 7.71875 47.46875 10.453125 49.421875
Q 12.5 50.921875 16.03125 51.96875
Q 19.578125 53.03125 23.640625 53.03125
Q 29.734375 53.03125 34.34375 51.265625
Q 38.96875 49.515625 41.15625 46.5
Q 43.359375 43.5 44.1875 38.484375
L 35.59375 37.3125
Q 35.015625 41.3125 32.203125 43.546875
Q 29.390625 45.796875 24.265625 45.796875
Q 18.21875 45.796875 15.625 43.796875
Q 13.03125 41.796875 13.03125 39.109375
Q 13.03125 37.40625 14.109375 36.03125
Q 15.1875 34.625 17.484375 33.6875
Q 18.796875 33.203125 25.25 31.453125
Q 34.578125 28.953125 38.25 27.359375
Q 41.9375 25.78125 44.03125 22.75
Q 46.140625 19.734375 46.140625 15.234375
Q 46.140625 10.84375 43.578125 6.953125
Q 41.015625 3.078125 36.171875 0.953125
Q 31.34375 -1.171875 25.25 -1.171875
Q 15.140625 -1.171875 9.84375 3.03125
Q 4.546875 7.234375 3.078125 15.484375
z
" id="ArialMT-115"/>
      </defs>
      <use xlink:href="#ArialMT-84"/>
      <use x="57.333984" xlink:href="#ArialMT-105"/>
      <use x="79.550781" xlink:href="#ArialMT-109"/>
      <use x="162.851562" xlink:href="#ArialMT-101"/>
      <use x="218.466797" xlink:href="#ArialMT-32"/>
      <use x="246.25" xlink:href="#ArialMT-80"/>
      <use x="312.949219" xlink:href="#ArialMT-101"/>
      <use x="368.564453" xlink:href="#ArialMT-114"/>
      <use x="401.865234" xlink:href="#ArialMT-105"/>
      <use x="424.082031" xlink:href="#ArialMT-111"/>
      <use x="479.697266" xlink:href="#ArialMT-100"/>
      <use x="535.3125" xlink:href="#ArialMT-115"/>
     </g>
    </g>
   </g>
   <g id="PathCollection_1">
    <path clip-path="url(#pfebade3687)" d="M 425.060554 286.693271
C 425.530614 286.693271 425.981485 286.506514 426.313868 286.174131
C 426.646251 285.841748 426.833008 285.390877 426.833008 284.920817
C 426.833008 284.450756 426.646251 283.999885 426.313868 283.667503
C 425.981485 283.33512 425.530614 283.148363 425.060554 283.148363
C 424.590494 283.148363 424.139623 283.33512 423.80724 283.667503
C 423.474857 283.999885 423.2881 284.450756 423.2881 284.920817
C 423.2881 285.390877 423.474857 285.841748 423.80724 286.174131
C 424.139623 286.506514 424.590494 286.693271 425.060554 286.693271
z
" style="fill:#d95f02;stroke:#d95f02;stroke-width:0.886227;"/>
    <path clip-path="url(#pfebade3687)" d="M 412.326253 274.140818
C 412.796313 274.140818 413.247184 273.954061 413.579567 273.621678
C 413.91195 273.289295 414.098707 272.838424 414.098707 272.368364
C 414.098707 271.898304 413.91195 271.447433 413.579567 271.11505
C 413.247184 270.782667 412.796313 270.59591 412.326253 270.59591
C 411.856193 270.59591 411.405321 270.782667 411.072939 271.11505
C 410.740556 271.447433 410.553799 271.898304 410.553799 272.368364
C 410.553799 272.838424 410.740556 273.289295 411.072939 273.621678
C 411.405321 273.954061 411.856193 274.140818 412.326253 274.140818
z
" style="fill:#d95f02;stroke:#d95f02;stroke-width:0.886227;"/>
    <path clip-path="url(#pfebade3687)" d="M 398.511755 261.588365
C 398.981816 261.588365 399.432687 261.401608 399.76507 261.069225
C 400.097452 260.736842 400.284209 260.285971 400.284209 259.815911
C 400.284209 259.345851 400.097452 258.89498 399.76507 258.562597
C 399.432687 258.230214 398.981816 258.043457 398.511755 258.043457
C 398.041695 258.043457 397.590824 258.230214 397.258441 258.562597
C 396.926059 258.89498 396.739302 259.345851 396.739302 259.815911
C 396.739302 260.285971 396.926059 260.736842 397.258441 261.069225
C 397.590824 261.401608 398.041695 261.588365 398.511755 261.588365
z
" style="fill:#d95f02;stroke:#d95f02;stroke-width:0.886227;"/>
    <path clip-path="url(#pfebade3687)" d="M 378.815566 249.035912
C 379.285626 249.035912 379.736497 248.849155 380.06888 248.516772
C 380.401263 248.18439 380.58802 247.733518 380.58802 247.263458
C 380.58802 246.793398 380.401263 246.342527 380.06888 246.010144
C 379.736497 245.677761 379.285626 245.491004 378.815566 245.491004
C 378.345506 245.491004 377.894635 245.677761 377.562252 246.010144
C 377.229869 246.342527 377.043112 246.793398 377.043112 247.263458
C 377.043112 247.733518 377.229869 248.18439 377.562252 248.516772
C 377.894635 248.849155 378.345506 249.035912 378.815566 249.035912
z
" style="fill:#d95f02;stroke:#d95f02;stroke-width:0.886227;"/>
    <path clip-path="url(#pfebade3687)" d="M 353.341672 236.483459
C 353.811732 236.483459 354.262603 236.296702 354.594986 235.964319
C 354.927369 235.631937 355.114126 235.181066 355.114126 234.711005
C 355.114126 234.240945 354.927369 233.790074 354.594986 233.457691
C 354.262603 233.125308 353.811732 232.938552 353.341672 232.938552
C 352.871612 232.938552 352.420741 233.125308 352.088358 233.457691
C 351.755975 233.790074 351.569218 234.240945 351.569218 234.711005
C 351.569218 235.181066 351.755975 235.631937 352.088358 235.964319
C 352.420741 236.296702 352.871612 236.483459 353.341672 236.483459
z
" style="fill:#d95f02;stroke:#d95f02;stroke-width:0.886227;"/>
    <path clip-path="url(#pfebade3687)" d="M 326.106889 223.931006
C 326.576949 223.931006 327.02782 223.744249 327.360203 223.411867
C 327.692586 223.079484 327.879342 222.628613 327.879342 222.158553
C 327.879342 221.688492 327.692586 221.237621 327.360203 220.905238
C 327.02782 220.572856 326.576949 220.386099 326.106889 220.386099
C 325.636828 220.386099 325.185957 220.572856 324.853574 220.905238
C 324.521192 221.237621 324.334435 221.688492 324.334435 222.158553
C 324.334435 222.628613 324.521192 223.079484 324.853574 223.411867
C 325.185957 223.744249 325.636828 223.931006 326.106889 223.931006
z
" style="fill:#d95f02;stroke:#d95f02;stroke-width:0.886227;"/>
    <path clip-path="url(#pfebade3687)" d="M 301.922996 211.378554
C 302.393057 211.378554 302.843928 211.191797 303.176311 210.859414
C 303.508693 210.527031 303.69545 210.07616 303.69545 209.6061
C 303.69545 209.136039 303.508693 208.685168 303.176311 208.352786
C 302.843928 208.020403 302.393057 207.833646 301.922996 207.833646
C 301.452936 207.833646 301.002065 208.020403 300.669682 208.352786
C 300.3373 208.685168 300.150543 209.136039 300.150543 209.6061
C 300.150543 210.07616 300.3373 210.527031 300.669682 210.859414
C 301.002065 211.191797 301.452936 211.378554 301.922996 211.378554
z
" style="fill:#d95f02;stroke:#d95f02;stroke-width:0.886227;"/>
    <path clip-path="url(#pfebade3687)" d="M 266.917924 198.826101
C 267.387984 198.826101 267.838855 198.639344 268.171238 198.306961
C 268.503621 197.974578 268.690378 197.523707 268.690378 197.053647
C 268.690378 196.583587 268.503621 196.132716 268.171238 195.800333
C 267.838855 195.46795 267.387984 195.281193 266.917924 195.281193
C 266.447864 195.281193 265.996992 195.46795 265.66461 195.800333
C 265.332227 196.132716 265.14547 196.583587 265.14547 197.053647
C 265.14547 197.523707 265.332227 197.974578 265.66461 198.306961
C 265.996992 198.639344 266.447864 198.826101 266.917924 198.826101
z
" style="fill:#d95f02;stroke:#d95f02;stroke-width:0.886227;"/>
    <path clip-path="url(#pfebade3687)" d="M 181.262562 186.273648
C 181.732622 186.273648 182.183493 186.086891 182.515876 185.754508
C 182.848258 185.422125 183.035015 184.971254 183.035015 184.501194
C 183.035015 184.031134 182.848258 183.580263 182.515876 183.24788
C 182.183493 182.915497 181.732622 182.72874 181.262562 182.72874
C 180.792501 182.72874 180.34163 182.915497 180.009247 183.24788
C 179.676865 183.580263 179.490108 184.031134 179.490108 184.501194
C 179.490108 184.971254 179.676865 185.422125 180.009247 185.754508
C 180.34163 186.086891 180.792501 186.273648 181.262562 186.273648
z
" style="fill:#d95f02;stroke:#d95f02;stroke-width:0.886227;"/>
    <path clip-path="url(#pfebade3687)" d="M 119.306118 173.721195
C 119.776178 173.721195 120.227049 173.534438 120.559432 173.202055
C 120.891815 172.869673 121.078571 172.418801 121.078571 171.948741
C 121.078571 171.478681 120.891815 171.02781 120.559432 170.695427
C 120.227049 170.363044 119.776178 170.176287 119.306118 170.176287
C 118.836057 170.176287 118.385186 170.363044 118.052804 170.695427
C 117.720421 171.02781 117.533664 171.478681 117.533664 171.948741
C 117.533664 172.418801 117.720421 172.869673 118.052804 173.202055
C 118.385186 173.534438 118.836057 173.721195 119.306118 173.721195
z
" style="fill:#d95f02;stroke:#d95f02;stroke-width:0.886227;"/>
    <path clip-path="url(#pfebade3687)" d="M 100.406009 161.168742
C 100.876069 161.168742 101.32694 160.981985 101.659323 160.649603
C 101.991705 160.31722 102.178462 159.866349 102.178462 159.396288
C 102.178462 158.926228 101.991705 158.475357 101.659323 158.142974
C 101.32694 157.810591 100.876069 157.623835 100.406009 157.623835
C 99.935948 157.623835 99.485077 157.810591 99.152694 158.142974
C 98.820312 158.475357 98.633555 158.926228 98.633555 159.396288
C 98.633555 159.866349 98.820312 160.31722 99.152694 160.649603
C 99.485077 160.981985 99.935948 161.168742 100.406009 161.168742
z
" style="fill:#d95f02;stroke:#d95f02;stroke-width:0.886227;"/>
    <path clip-path="url(#pfebade3687)" d="M 131.9641 148.616289
C 132.434161 148.616289 132.885032 148.429532 133.217415 148.09715
C 133.549797 147.764767 133.736554 147.313896 133.736554 146.843836
C 133.736554 146.373775 133.549797 145.922904 133.217415 145.590521
C 132.885032 145.258139 132.434161 145.071382 131.9641 145.071382
C 131.49404 145.071382 131.043169 145.258139 130.710786 145.590521
C 130.378403 145.922904 130.191647 146.373775 130.191647 146.843836
C 130.191647 147.313896 130.378403 147.764767 130.710786 148.09715
C 131.043169 148.429532 131.49404 148.616289 131.9641 148.616289
z
" style="fill:#d95f02;stroke:#d95f02;stroke-width:0.886227;"/>
    <path clip-path="url(#pfebade3687)" d="M 167.580483 136.063837
C 168.050543 136.063837 168.501414 135.87708 168.833797 135.544697
C 169.166179 135.212314 169.352936 134.761443 169.352936 134.291383
C 169.352936 133.821322 169.166179 133.370451 168.833797 133.038069
C 168.501414 132.705686 168.050543 132.518929 167.580483 132.518929
C 167.110422 132.518929 166.659551 132.705686 166.327168 133.038069
C 165.994786 133.370451 165.808029 133.821322 165.808029 134.291383
C 165.808029 134.761443 165.994786 135.212314 166.327168 135.544697
C 166.659551 135.87708 167.110422 136.063837 167.580483 136.063837
z
" style="fill:#d95f02;stroke:#d95f02;stroke-width:0.886227;"/>
    <path clip-path="url(#pfebade3687)" d="M 187.051714 123.511384
C 187.521774 123.511384 187.972645 123.324627 188.305028 122.992244
C 188.637411 122.659861 188.824168 122.20899 188.824168 121.73893
C 188.824168 121.26887 188.637411 120.817999 188.305028 120.485616
C 187.972645 120.153233 187.521774 119.966476 187.051714 119.966476
C 186.581654 119.966476 186.130783 120.153233 185.7984 120.485616
C 185.466017 120.817999 185.27926 121.26887 185.27926 121.73893
C 185.27926 122.20899 185.466017 122.659861 185.7984 122.992244
C 186.130783 123.324627 186.581654 123.511384 187.051714 123.511384
z
" style="fill:#d95f02;stroke:#d95f02;stroke-width:0.886227;"/>
    <path clip-path="url(#pfebade3687)" d="M 200.811481 110.958931
C 201.281541 110.958931 201.732412 110.772174 202.064795 110.439791
C 202.397178 110.107408 202.583934 109.656537 202.583934 109.186477
C 202.583934 108.716417 202.397178 108.265546 202.064795 107.933163
C 201.732412 107.60078 201.281541 107.414023 200.811481 107.414023
C 200.34142 107.414023 199.890549 107.60078 199.558166 107.933163
C 199.225784 108.265546 199.039027 108.716417 199.039027 109.186477
C 199.039027 109.656537 199.225784 110.107408 199.558166 110.439791
C 199.890549 110.772174 200.34142 110.958931 200.811481 110.958931
z
" style="fill:#d95f02;stroke:#d95f02;stroke-width:0.886227;"/>
    <path clip-path="url(#pfebade3687)" d="M 211.731755 98.406478
C 212.201815 98.406478 212.652687 98.219721 212.985069 97.887338
C 213.317452 97.554956 213.504209 97.104084 213.504209 96.634024
C 213.504209 96.163964 213.317452 95.713093 212.985069 95.38071
C 212.652687 95.048327 212.201815 94.86157 211.731755 94.86157
C 211.261695 94.86157 210.810824 95.048327 210.478441 95.38071
C 210.146058 95.713093 209.959301 96.163964 209.959301 96.634024
C 209.959301 97.104084 210.146058 97.554956 210.478441 97.887338
C 210.810824 98.219721 211.261695 98.406478 211.731755 98.406478
z
" style="fill:#d95f02;stroke:#d95f02;stroke-width:0.886227;"/>
    <path clip-path="url(#pfebade3687)" d="M 222.773187 85.854025
C 223.243248 85.854025 223.694119 85.667268 224.026501 85.334886
C 224.358884 85.002503 224.545641 84.551632 224.545641 84.081571
C 224.545641 83.611511 224.358884 83.16064 224.026501 82.828257
C 223.694119 82.495874 223.243248 82.309118 222.773187 82.309118
C 222.303127 82.309118 221.852256 82.495874 221.519873 82.828257
C 221.18749 83.16064 221.000733 83.611511 221.000733 84.081571
C 221.000733 84.551632 221.18749 85.002503 221.519873 85.334886
C 221.852256 85.667268 222.303127 85.854025 222.773187 85.854025
z
" style="fill:#d95f02;stroke:#d95f02;stroke-width:0.886227;"/>
    <path clip-path="url(#pfebade3687)" d="M 233.540331 73.301572
C 234.010391 73.301572 234.461262 73.114815 234.793645 72.782433
C 235.126028 72.45005 235.312784 71.999179 235.312784 71.529119
C 235.312784 71.059058 235.126028 70.608187 234.793645 70.275804
C 234.461262 69.943422 234.010391 69.756665 233.540331 69.756665
C 233.07027 69.756665 232.619399 69.943422 232.287016 70.275804
C 231.954634 70.608187 231.767877 71.059058 231.767877 71.529119
C 231.767877 71.999179 231.954634 72.45005 232.287016 72.782433
C 232.619399 73.114815 233.07027 73.301572 233.540331 73.301572
z
" style="fill:#d95f02;stroke:#d95f02;stroke-width:0.886227;"/>
    <path clip-path="url(#pfebade3687)" d="M 241.032018 60.74912
C 241.502079 60.74912 241.95295 60.562363 242.285333 60.22998
C 242.617715 59.897597 242.804472 59.446726 242.804472 58.976666
C 242.804472 58.506605 242.617715 58.055734 242.285333 57.723352
C 241.95295 57.390969 241.502079 57.204212 241.032018 57.204212
C 240.561958 57.204212 240.111087 57.390969 239.778704 57.723352
C 239.446321 58.055734 239.259565 58.506605 239.259565 58.976666
C 239.259565 59.446726 239.446321 59.897597 239.778704 60.22998
C 240.111087 60.562363 240.561958 60.74912 241.032018 60.74912
z
" style="fill:#d95f02;stroke:#d95f02;stroke-width:0.886227;"/>
    <path clip-path="url(#pfebade3687)" d="M 247.580697 48.196667
C 248.050758 48.196667 248.501629 48.00991 248.834011 47.677527
C 249.166394 47.345144 249.353151 46.894273 249.353151 46.424213
C 249.353151 45.954153 249.166394 45.503282 248.834011 45.170899
C 248.501629 44.838516 248.050758 44.651759 247.580697 44.651759
C 247.110637 44.651759 246.659766 44.838516 246.327383 45.170899
C 245.995 45.503282 245.808243 45.954153 245.808243 46.424213
C 245.808243 46.894273 245.995 47.345144 246.327383 47.677527
C 246.659766 48.00991 247.110637 48.196667 247.580697 48.196667
z
" style="fill:#d95f02;stroke:#d95f02;stroke-width:0.886227;"/>
    <path clip-path="url(#pfebade3687)" d="M 275.968711 35.644214
C 276.438771 35.644214 276.889642 35.457457 277.222025 35.125074
C 277.554408 34.792691 277.741165 34.34182 277.741165 33.87176
C 277.741165 33.4017 277.554408 32.950829 277.222025 32.618446
C 276.889642 32.286063 276.438771 32.099306 275.968711 32.099306
C 275.498651 32.099306 275.04778 32.286063 274.715397 32.618446
C 274.383014 32.950829 274.196257 33.4017 274.196257 33.87176
C 274.196257 34.34182 274.383014 34.792691 274.715397 35.125074
C 275.04778 35.457457 275.498651 35.644214 275.968711 35.644214
z
" style="fill:#d95f02;stroke:#d95f02;stroke-width:0.886227;"/>
    <path clip-path="url(#pfebade3687)" d="M 147.233359 286.693271
C 147.703419 286.693271 148.15429 286.506514 148.486673 286.174131
C 148.819055 285.841748 149.005812 285.390877 149.005812 284.920817
C 149.005812 284.450756 148.819055 283.999885 148.486673 283.667503
C 148.15429 283.33512 147.703419 283.148363 147.233359 283.148363
C 146.763298 283.148363 146.312427 283.33512 145.980044 283.667503
C 145.647662 283.999885 145.460905 284.450756 145.460905 284.920817
C 145.460905 285.390877 145.647662 285.841748 145.980044 286.174131
C 146.312427 286.506514 146.763298 286.693271 147.233359 286.693271
z
" style="fill:#1b9e77;stroke:#1b9e77;stroke-width:0.886227;"/>
    <path clip-path="url(#pfebade3687)" d="M 147.503031 274.140818
C 147.973091 274.140818 148.423962 273.954061 148.756345 273.621678
C 149.088728 273.289295 149.275485 272.838424 149.275485 272.368364
C 149.275485 271.898304 149.088728 271.447433 148.756345 271.11505
C 148.423962 270.782667 147.973091 270.59591 147.503031 270.59591
C 147.032971 270.59591 146.5821 270.782667 146.249717 271.11505
C 145.917334 271.447433 145.730577 271.898304 145.730577 272.368364
C 145.730577 272.838424 145.917334 273.289295 146.249717 273.621678
C 146.5821 273.954061 147.032971 274.140818 147.503031 274.140818
z
" style="fill:#1b9e77;stroke:#1b9e77;stroke-width:0.886227;"/>
    <path clip-path="url(#pfebade3687)" d="M 149.493959 261.588365
C 149.964019 261.588365 150.41489 261.401608 150.747273 261.069225
C 151.079656 260.736842 151.266412 260.285971 151.266412 259.815911
C 151.266412 259.345851 151.079656 258.89498 150.747273 258.562597
C 150.41489 258.230214 149.964019 258.043457 149.493959 258.043457
C 149.023898 258.043457 148.573027 258.230214 148.240645 258.562597
C 147.908262 258.89498 147.721505 259.345851 147.721505 259.815911
C 147.721505 260.285971 147.908262 260.736842 148.240645 261.069225
C 148.573027 261.401608 149.023898 261.588365 149.493959 261.588365
z
" style="fill:#1b9e77;stroke:#1b9e77;stroke-width:0.886227;"/>
    <path clip-path="url(#pfebade3687)" d="M 150.127589 249.035912
C 150.59765 249.035912 151.048521 248.849155 151.380903 248.516772
C 151.713286 248.18439 151.900043 247.733518 151.900043 247.263458
C 151.900043 246.793398 151.713286 246.342527 151.380903 246.010144
C 151.048521 245.677761 150.59765 245.491004 150.127589 245.491004
C 149.657529 245.491004 149.206658 245.677761 148.874275 246.010144
C 148.541892 246.342527 148.355135 246.793398 148.355135 247.263458
C 148.355135 247.733518 148.541892 248.18439 148.874275 248.516772
C 149.206658 248.849155 149.657529 249.035912 150.127589 249.035912
z
" style="fill:#1b9e77;stroke:#1b9e77;stroke-width:0.886227;"/>
    <path clip-path="url(#pfebade3687)" d="M 147.078677 236.483459
C 147.548738 236.483459 147.999609 236.296702 148.331992 235.964319
C 148.664374 235.631937 148.851131 235.181066 148.851131 234.711005
C 148.851131 234.240945 148.664374 233.790074 148.331992 233.457691
C 147.999609 233.125308 147.548738 232.938552 147.078677 232.938552
C 146.608617 232.938552 146.157746 233.125308 145.825363 233.457691
C 145.492981 233.790074 145.306224 234.240945 145.306224 234.711005
C 145.306224 235.181066 145.492981 235.631937 145.825363 235.964319
C 146.157746 236.296702 146.608617 236.483459 147.078677 236.483459
z
" style="fill:#1b9e77;stroke:#1b9e77;stroke-width:0.886227;"/>
    <path clip-path="url(#pfebade3687)" d="M 146.601633 223.931006
C 147.071693 223.931006 147.522565 223.744249 147.854947 223.411867
C 148.18733 223.079484 148.374087 222.628613 148.374087 222.158553
C 148.374087 221.688492 148.18733 221.237621 147.854947 220.905238
C 147.522565 220.572856 147.071693 220.386099 146.601633 220.386099
C 146.131573 220.386099 145.680702 220.572856 145.348319 220.905238
C 145.015936 221.237621 144.829179 221.688492 144.829179 222.158553
C 144.829179 222.628613 145.015936 223.079484 145.348319 223.411867
C 145.680702 223.744249 146.131573 223.931006 146.601633 223.931006
z
" style="fill:#1b9e77;stroke:#1b9e77;stroke-width:0.886227;"/>
    <path clip-path="url(#pfebade3687)" d="M 142.634829 211.378554
C 143.104889 211.378554 143.55576 211.191797 143.888143 210.859414
C 144.220526 210.527031 144.407283 210.07616 144.407283 209.6061
C 144.407283 209.136039 144.220526 208.685168 143.888143 208.352786
C 143.55576 208.020403 143.104889 207.833646 142.634829 207.833646
C 142.164769 207.833646 141.713898 208.020403 141.381515 208.352786
C 141.049132 208.685168 140.862375 209.136039 140.862375 209.6061
C 140.862375 210.07616 141.049132 210.527031 141.381515 210.859414
C 141.713898 211.191797 142.164769 211.378554 142.634829 211.378554
z
" style="fill:#1b9e77;stroke:#1b9e77;stroke-width:0.886227;"/>
    <path clip-path="url(#pfebade3687)" d="M 118.130002 198.826101
C 118.600063 198.826101 119.050934 198.639344 119.383317 198.306961
C 119.715699 197.974578 119.902456 197.523707 119.902456 197.053647
C 119.902456 196.583587 119.715699 196.132716 119.383317 195.800333
C 119.050934 195.46795 118.600063 195.281193 118.130002 195.281193
C 117.659942 195.281193 117.209071 195.46795 116.876688 195.800333
C 116.544305 196.132716 116.357549 196.583587 116.357549 197.053647
C 116.357549 197.523707 116.544305 197.974578 116.876688 198.306961
C 117.209071 198.639344 117.659942 198.826101 118.130002 198.826101
z
" style="fill:#1b9e77;stroke:#1b9e77;stroke-width:0.886227;"/>
    <path clip-path="url(#pfebade3687)" d="M 119.069891 186.273648
C 119.539951 186.273648 119.990822 186.086891 120.323205 185.754508
C 120.655588 185.422125 120.842345 184.971254 120.842345 184.501194
C 120.842345 184.031134 120.655588 183.580263 120.323205 183.24788
C 119.990822 182.915497 119.539951 182.72874 119.069891 182.72874
C 118.599831 182.72874 118.14896 182.915497 117.816577 183.24788
C 117.484194 183.580263 117.297437 184.031134 117.297437 184.501194
C 117.297437 184.971254 117.484194 185.422125 117.816577 185.754508
C 118.14896 186.086891 118.599831 186.273648 119.069891 186.273648
z
" style="fill:#1b9e77;stroke:#1b9e77;stroke-width:0.886227;"/>
    <path clip-path="url(#pfebade3687)" d="M 129.489273 173.721195
C 129.959334 173.721195 130.410205 173.534438 130.742588 173.202055
C 131.07497 172.869673 131.261727 172.418801 131.261727 171.948741
C 131.261727 171.478681 131.07497 171.02781 130.742588 170.695427
C 130.410205 170.363044 129.959334 170.176287 129.489273 170.176287
C 129.019213 170.176287 128.568342 170.363044 128.235959 170.695427
C 127.903577 171.02781 127.71682 171.478681 127.71682 171.948741
C 127.71682 172.418801 127.903577 172.869673 128.235959 173.202055
C 128.568342 173.534438 129.019213 173.721195 129.489273 173.721195
z
" style="fill:#1b9e77;stroke:#1b9e77;stroke-width:0.886227;"/>
    <path clip-path="url(#pfebade3687)" d="M 100.406009 161.168742
C 100.876069 161.168742 101.32694 160.981985 101.659323 160.649603
C 101.991705 160.31722 102.178462 159.866349 102.178462 159.396288
C 102.178462 158.926228 101.991705 158.475357 101.659323 158.142974
C 101.32694 157.810591 100.876069 157.623835 100.406009 157.623835
C 99.935948 157.623835 99.485077 157.810591 99.152694 158.142974
C 98.820312 158.475357 98.633555 158.926228 98.633555 159.396288
C 98.633555 159.866349 98.820312 160.31722 99.152694 160.649603
C 99.485077 160.981985 99.935948 161.168742 100.406009 161.168742
z
" style="fill:#1b9e77;stroke:#1b9e77;stroke-width:0.886227;"/>
    <path clip-path="url(#pfebade3687)" d="M 100.484549 148.616289
C 100.954609 148.616289 101.40548 148.429532 101.737863 148.09715
C 102.070245 147.764767 102.257002 147.313896 102.257002 146.843836
C 102.257002 146.373775 102.070245 145.922904 101.737863 145.590521
C 101.40548 145.258139 100.954609 145.071382 100.484549 145.071382
C 100.014488 145.071382 99.563617 145.258139 99.231234 145.590521
C 98.898852 145.922904 98.712095 146.373775 98.712095 146.843836
C 98.712095 147.313896 98.898852 147.764767 99.231234 148.09715
C 99.563617 148.429532 100.014488 148.616289 100.484549 148.616289
z
" style="fill:#1b9e77;stroke:#1b9e77;stroke-width:0.886227;"/>
    <path clip-path="url(#pfebade3687)" d="M 125.894375 136.063837
C 126.364435 136.063837 126.815307 135.87708 127.147689 135.544697
C 127.480072 135.212314 127.666829 134.761443 127.666829 134.291383
C 127.666829 133.821322 127.480072 133.370451 127.147689 133.038069
C 126.815307 132.705686 126.364435 132.518929 125.894375 132.518929
C 125.424315 132.518929 124.973444 132.705686 124.641061 133.038069
C 124.308678 133.370451 124.121921 133.821322 124.121921 134.291383
C 124.121921 134.761443 124.308678 135.212314 124.641061 135.544697
C 124.973444 135.87708 125.424315 136.063837 125.894375 136.063837
z
" style="fill:#1b9e77;stroke:#1b9e77;stroke-width:0.886227;"/>
    <path clip-path="url(#pfebade3687)" d="M 126.772821 123.511384
C 127.242881 123.511384 127.693752 123.324627 128.026135 122.992244
C 128.358518 122.659861 128.545275 122.20899 128.545275 121.73893
C 128.545275 121.26887 128.358518 120.817999 128.026135 120.485616
C 127.693752 120.153233 127.242881 119.966476 126.772821 119.966476
C 126.30276 119.966476 125.851889 120.153233 125.519507 120.485616
C 125.187124 120.817999 125.000367 121.26887 125.000367 121.73893
C 125.000367 122.20899 125.187124 122.659861 125.519507 122.992244
C 125.851889 123.324627 126.30276 123.511384 126.772821 123.511384
z
" style="fill:#1b9e77;stroke:#1b9e77;stroke-width:0.886227;"/>
    <path clip-path="url(#pfebade3687)" d="M 125.448951 110.958931
C 125.919012 110.958931 126.369883 110.772174 126.702265 110.439791
C 127.034648 110.107408 127.221405 109.656537 127.221405 109.186477
C 127.221405 108.716417 127.034648 108.265546 126.702265 107.933163
C 126.369883 107.60078 125.919012 107.414023 125.448951 107.414023
C 124.978891 107.414023 124.52802 107.60078 124.195637 107.933163
C 123.863254 108.265546 123.676497 108.716417 123.676497 109.186477
C 123.676497 109.656537 123.863254 110.107408 124.195637 110.439791
C 124.52802 110.772174 124.978891 110.958931 125.448951 110.958931
z
" style="fill:#1b9e77;stroke:#1b9e77;stroke-width:0.886227;"/>
    <path clip-path="url(#pfebade3687)" d="M 124.10512 98.406478
C 124.57518 98.406478 125.026051 98.219721 125.358434 97.887338
C 125.690817 97.554956 125.877574 97.104084 125.877574 96.634024
C 125.877574 96.163964 125.690817 95.713093 125.358434 95.38071
C 125.026051 95.048327 124.57518 94.86157 124.10512 94.86157
C 123.63506 94.86157 123.184189 95.048327 122.851806 95.38071
C 122.519423 95.713093 122.332666 96.163964 122.332666 96.634024
C 122.332666 97.104084 122.519423 97.554956 122.851806 97.887338
C 123.184189 98.219721 123.63506 98.406478 124.10512 98.406478
z
" style="fill:#1b9e77;stroke:#1b9e77;stroke-width:0.886227;"/>
    <path clip-path="url(#pfebade3687)" d="M 126.291591 85.854025
C 126.761652 85.854025 127.212523 85.667268 127.544905 85.334886
C 127.877288 85.002503 128.064045 84.551632 128.064045 84.081571
C 128.064045 83.611511 127.877288 83.16064 127.544905 82.828257
C 127.212523 82.495874 126.761652 82.309118 126.291591 82.309118
C 125.821531 82.309118 125.37066 82.495874 125.038277 82.828257
C 124.705894 83.16064 124.519137 83.611511 124.519137 84.081571
C 124.519137 84.551632 124.705894 85.002503 125.038277 85.334886
C 125.37066 85.667268 125.821531 85.854025 126.291591 85.854025
z
" style="fill:#1b9e77;stroke:#1b9e77;stroke-width:0.886227;"/>
    <path clip-path="url(#pfebade3687)" d="M 128.20566 73.301572
C 128.67572 73.301572 129.126591 73.114815 129.458974 72.782433
C 129.791357 72.45005 129.978114 71.999179 129.978114 71.529119
C 129.978114 71.059058 129.791357 70.608187 129.458974 70.275804
C 129.126591 69.943422 128.67572 69.756665 128.20566 69.756665
C 127.7356 69.756665 127.284729 69.943422 126.952346 70.275804
C 126.619963 70.608187 126.433206 71.059058 126.433206 71.529119
C 126.433206 71.999179 126.619963 72.45005 126.952346 72.782433
C 127.284729 73.114815 127.7356 73.301572 128.20566 73.301572
z
" style="fill:#1b9e77;stroke:#1b9e77;stroke-width:0.886227;"/>
    <path clip-path="url(#pfebade3687)" d="M 122.28985 60.74912
C 122.75991 60.74912 123.210781 60.562363 123.543164 60.22998
C 123.875547 59.897597 124.062304 59.446726 124.062304 58.976666
C 124.062304 58.506605 123.875547 58.055734 123.543164 57.723352
C 123.210781 57.390969 122.75991 57.204212 122.28985 57.204212
C 121.819789 57.204212 121.368918 57.390969 121.036536 57.723352
C 120.704153 58.055734 120.517396 58.506605 120.517396 58.976666
C 120.517396 59.446726 120.704153 59.897597 121.036536 60.22998
C 121.368918 60.562363 121.819789 60.74912 122.28985 60.74912
z
" style="fill:#1b9e77;stroke:#1b9e77;stroke-width:0.886227;"/>
    <path clip-path="url(#pfebade3687)" d="M 115.796553 48.196667
C 116.266613 48.196667 116.717484 48.00991 117.049867 47.677527
C 117.382249 47.345144 117.569006 46.894273 117.569006 46.424213
C 117.569006 45.954153 117.382249 45.503282 117.049867 45.170899
C 116.717484 44.838516 116.266613 44.651759 115.796553 44.651759
C 115.326492 44.651759 114.875621 44.838516 114.543238 45.170899
C 114.210856 45.503282 114.024099 45.954153 114.024099 46.424213
C 114.024099 46.894273 114.210856 47.345144 114.543238 47.677527
C 114.875621 48.00991 115.326492 48.196667 115.796553 48.196667
z
" style="fill:#1b9e77;stroke:#1b9e77;stroke-width:0.886227;"/>
    <path clip-path="url(#pfebade3687)" d="M 117.974609 35.644214
C 118.444669 35.644214 118.895541 35.457457 119.227923 35.125074
C 119.560306 34.792691 119.747063 34.34182 119.747063 33.87176
C 119.747063 33.4017 119.560306 32.950829 119.227923 32.618446
C 118.895541 32.286063 118.444669 32.099306 117.974609 32.099306
C 117.504549 32.099306 117.053678 32.286063 116.721295 32.618446
C 116.388912 32.950829 116.202155 33.4017 116.202155 33.87176
C 116.202155 34.34182 116.388912 34.792691 116.721295 35.125074
C 117.053678 35.457457 117.504549 35.644214 117.974609 35.644214
z
" style="fill:#1b9e77;stroke:#1b9e77;stroke-width:0.886227;"/>
   </g>
   <g id="line2d_33">
    <path clip-path="url(#pfebade3687)" d="M 147.233359 284.920817
L 147.503031 272.368364
L 149.493959 259.815911
L 150.127589 247.263458
L 147.078677 234.711005
L 146.601633 222.158553
L 142.634829 209.6061
L 118.130002 197.053647
L 119.069891 184.501194
L 129.489273 171.948741
L 100.406009 159.396288
L 100.484549 146.843836
L 125.894375 134.291383
L 126.772821 121.73893
L 125.448951 109.186477
L 124.10512 96.634024
L 126.291591 84.081571
L 128.20566 71.529119
L 122.28985 58.976666
L 115.796553 46.424213
L 117.974609 33.87176
" style="fill:none;stroke:#1b9e77;stroke-width:0.886227;"/>
   </g>
   <g id="line2d_34">
    <path clip-path="url(#pfebade3687)" d="M 425.060554 284.920817
L 412.326253 272.368364
L 398.511755 259.815911
L 378.815566 247.263458
L 353.341672 234.711005
L 326.106889 222.158553
L 301.922996 209.6061
L 266.917924 197.053647
L 181.262562 184.501194
L 119.306118 171.948741
L 100.406009 159.396288
L 131.9641 146.843836
L 167.580483 134.291383
L 187.051714 121.73893
L 200.811481 109.186477
L 211.731755 96.634024
L 222.773187 84.081571
L 233.540331 71.529119
L 241.032018 58.976666
L 247.580697 46.424213
L 275.968711 33.87176
" style="fill:none;stroke:#d95f02;stroke-width:0.886227;"/>
   </g>
   <g id="patch_3">
    <path d="M 84.173281 292.452288
L 84.173281 26.340288
" style="fill:none;stroke:#262626;stroke-linecap:square;stroke-linejoin:miter;stroke-width:1.25;"/>
   </g>
   <g id="patch_4">
    <path d="M 441.293281 292.452288
L 441.293281 26.340288
" style="fill:none;stroke:#262626;stroke-linecap:square;stroke-linejoin:miter;stroke-width:1.25;"/>
   </g>
   <g id="patch_5">
    <path d="M 84.173281 292.452288
L 441.293281 292.452288
" style="fill:none;stroke:#262626;stroke-linecap:square;stroke-linejoin:miter;stroke-width:1.25;"/>
   </g>
   <g id="patch_6">
    <path d="M 84.173281 26.340288
L 441.293281 26.340288
" style="fill:none;stroke:#262626;stroke-linecap:square;stroke-linejoin:miter;stroke-width:1.25;"/>
   </g>
   <g id="text_30">
    <!-- label -->
    <g transform="translate(468.493281 137.770476)scale(0.12 -0.12)">
     <defs>
      <path d="M 6.390625 0
L 6.390625 71.578125
L 15.1875 71.578125
L 15.1875 0
z
" id="ArialMT-108"/>
      <path d="M 40.4375 6.390625
Q 35.546875 2.25 31.03125 0.53125
Q 26.515625 -1.171875 21.34375 -1.171875
Q 12.796875 -1.171875 8.203125 3
Q 3.609375 7.171875 3.609375 13.671875
Q 3.609375 17.484375 5.34375 20.625
Q 7.078125 23.78125 9.890625 25.6875
Q 12.703125 27.59375 16.21875 28.5625
Q 18.796875 29.25 24.03125 29.890625
Q 34.671875 31.15625 39.703125 32.90625
Q 39.75 34.71875 39.75 35.203125
Q 39.75 40.578125 37.25 42.78125
Q 33.890625 45.75 27.25 45.75
Q 21.046875 45.75 18.09375 43.578125
Q 15.140625 41.40625 13.71875 35.890625
L 5.125 37.0625
Q 6.296875 42.578125 8.984375 45.96875
Q 11.671875 49.359375 16.75 51.1875
Q 21.828125 53.03125 28.515625 53.03125
Q 35.15625 53.03125 39.296875 51.46875
Q 43.453125 49.90625 45.40625 47.53125
Q 47.359375 45.171875 48.140625 41.546875
Q 48.578125 39.3125 48.578125 33.453125
L 48.578125 21.734375
Q 48.578125 9.46875 49.140625 6.21875
Q 49.703125 2.984375 51.375 0
L 42.1875 0
Q 40.828125 2.734375 40.4375 6.390625
z
M 39.703125 26.03125
Q 34.90625 24.078125 25.34375 22.703125
Q 19.921875 21.921875 17.671875 20.9375
Q 15.4375 19.96875 14.203125 18.09375
Q 12.984375 16.21875 12.984375 13.921875
Q 12.984375 10.40625 15.640625 8.0625
Q 18.3125 5.71875 23.4375 5.71875
Q 28.515625 5.71875 32.46875 7.9375
Q 36.421875 10.15625 38.28125 14.015625
Q 39.703125 17 39.703125 22.796875
z
" id="ArialMT-97"/>
      <path d="M 14.703125 0
L 6.546875 0
L 6.546875 71.578125
L 15.328125 71.578125
L 15.328125 46.046875
Q 20.90625 53.03125 29.546875 53.03125
Q 34.328125 53.03125 38.59375 51.09375
Q 42.875 49.171875 45.625 45.671875
Q 48.390625 42.1875 49.953125 37.25
Q 51.515625 32.328125 51.515625 26.703125
Q 51.515625 13.375 44.921875 6.09375
Q 38.328125 -1.171875 29.109375 -1.171875
Q 19.921875 -1.171875 14.703125 6.5
z
M 14.59375 26.3125
Q 14.59375 17 17.140625 12.84375
Q 21.296875 6.0625 28.375 6.0625
Q 34.125 6.0625 38.328125 11.0625
Q 42.53125 16.0625 42.53125 25.984375
Q 42.53125 36.140625 38.5 40.96875
Q 34.46875 45.796875 28.765625 45.796875
Q 23 45.796875 18.796875 40.796875
Q 14.59375 35.796875 14.59375 26.3125
z
" id="ArialMT-98"/>
     </defs>
     <use xlink:href="#ArialMT-108"/>
     <use x="22.216797" xlink:href="#ArialMT-97"/>
     <use x="77.832031" xlink:href="#ArialMT-98"/>
     <use x="133.447266" xlink:href="#ArialMT-101"/>
     <use x="189.0625" xlink:href="#ArialMT-108"/>
    </g>
   </g>
   <g id="patch_7">
    <path clip-path="url(#pc1437ca055)" d="M 468.493281 166.155476
L 486.493281 166.155476
L 486.493281 148.155476
L 468.493281 148.155476
z
" style="fill:#ffffff;"/>
   </g>
   <g id="line2d_35">
    <path clip-path="url(#pc1437ca055)" d="M 477.493281 157.155476
" style="fill:none;stroke:#1f77b4;stroke-linecap:round;stroke-width:1.5;"/>
    <defs>
     <path d="M 0 1.772454
C 0.47006 1.772454 0.920931 1.585697 1.253314 1.253314
C 1.585697 0.920931 1.772454 0.47006 1.772454 0
C 1.772454 -0.47006 1.585697 -0.920931 1.253314 -1.253314
C 0.920931 -1.585697 0.47006 -1.772454 0 -1.772454
C -0.47006 -1.772454 -0.920931 -1.585697 -1.253314 -1.253314
C -1.585697 -0.920931 -1.772454 -0.47006 -1.772454 0
C -1.772454 0.47006 -1.585697 0.920931 -1.253314 1.253314
C -0.920931 1.585697 -0.47006 1.772454 0 1.772454
z
" id="md9ce2fac65" style="stroke:#1b9e77;stroke-width:0.886227;"/>
    </defs>
    <g clip-path="url(#pc1437ca055)">
     <use style="fill:#1b9e77;stroke:#1b9e77;stroke-width:0.886227;" x="477.493281" xlink:href="#md9ce2fac65" y="157.155476"/>
    </g>
   </g>
   <g id="line2d_36">
    <path clip-path="url(#pc1437ca055)" d="M 468.493281 157.155476
L 486.493281 157.155476
" style="fill:none;stroke:#1b9e77;stroke-width:0.886227;"/>
   </g>
   <g id="text_31">
    <!-- correction_model -->
    <g transform="translate(489.493281 160.257663)scale(0.12 -0.12)">
     <defs>
      <path d="M -1.515625 -19.875
L -1.515625 -13.53125
L 56.734375 -13.53125
L 56.734375 -19.875
z
" id="ArialMT-95"/>
     </defs>
     <use xlink:href="#ArialMT-99"/>
     <use x="50" xlink:href="#ArialMT-111"/>
     <use x="105.615234" xlink:href="#ArialMT-114"/>
     <use x="138.916016" xlink:href="#ArialMT-114"/>
     <use x="172.216797" xlink:href="#ArialMT-101"/>
     <use x="227.832031" xlink:href="#ArialMT-99"/>
     <use x="277.832031" xlink:href="#ArialMT-116"/>
     <use x="305.615234" xlink:href="#ArialMT-105"/>
     <use x="327.832031" xlink:href="#ArialMT-111"/>
     <use x="383.447266" xlink:href="#ArialMT-110"/>
     <use x="439.0625" xlink:href="#ArialMT-95"/>
     <use x="494.677734" xlink:href="#ArialMT-109"/>
     <use x="577.978516" xlink:href="#ArialMT-111"/>
     <use x="633.59375" xlink:href="#ArialMT-100"/>
     <use x="689.208984" xlink:href="#ArialMT-101"/>
     <use x="744.824219" xlink:href="#ArialMT-108"/>
    </g>
   </g>
   <g id="patch_8">
    <path clip-path="url(#pcdca44d6e6)" d="M 468.493281 186.155476
L 486.493281 186.155476
L 486.493281 168.155476
L 468.493281 168.155476
z
" style="fill:#ffffff;"/>
   </g>
   <g id="line2d_37">
    <path clip-path="url(#pcdca44d6e6)" d="M 477.493281 177.155476
" style="fill:none;stroke:#1f77b4;stroke-linecap:round;stroke-width:1.5;"/>
    <defs>
     <path d="M 0 1.772454
C 0.47006 1.772454 0.920931 1.585697 1.253314 1.253314
C 1.585697 0.920931 1.772454 0.47006 1.772454 0
C 1.772454 -0.47006 1.585697 -0.920931 1.253314 -1.253314
C 0.920931 -1.585697 0.47006 -1.772454 0 -1.772454
C -0.47006 -1.772454 -0.920931 -1.585697 -1.253314 -1.253314
C -1.585697 -0.920931 -1.772454 -0.47006 -1.772454 0
C -1.772454 0.47006 -1.585697 0.920931 -1.253314 1.253314
C -0.920931 1.585697 -0.47006 1.772454 0 1.772454
z
" id="mb1268ad334" style="stroke:#d95f02;stroke-width:0.886227;"/>
    </defs>
    <g clip-path="url(#pcdca44d6e6)">
     <use style="fill:#d95f02;stroke:#d95f02;stroke-width:0.886227;" x="477.493281" xlink:href="#mb1268ad334" y="177.155476"/>
    </g>
   </g>
   <g id="line2d_38">
    <path clip-path="url(#pcdca44d6e6)" d="M 468.493281 177.155476
L 486.493281 177.155476
" style="fill:none;stroke:#d95f02;stroke-width:0.886227;"/>
   </g>
   <g id="text_32">
    <!-- single_model -->
    <g transform="translate(489.493281 180.187351)scale(0.12 -0.12)">
     <defs>
      <path d="M 4.984375 -4.296875
L 13.53125 -5.5625
Q 14.0625 -9.515625 16.5 -11.328125
Q 19.78125 -13.765625 25.4375 -13.765625
Q 31.546875 -13.765625 34.859375 -11.328125
Q 38.1875 -8.890625 39.359375 -4.5
Q 40.046875 -1.8125 39.984375 6.78125
Q 34.234375 0 25.640625 0
Q 14.9375 0 9.078125 7.71875
Q 3.21875 15.4375 3.21875 26.21875
Q 3.21875 33.640625 5.90625 39.90625
Q 8.59375 46.1875 13.6875 49.609375
Q 18.796875 53.03125 25.6875 53.03125
Q 34.859375 53.03125 40.828125 45.609375
L 40.828125 51.859375
L 48.921875 51.859375
L 48.921875 7.03125
Q 48.921875 -5.078125 46.453125 -10.125
Q 44 -15.1875 38.640625 -18.109375
Q 33.296875 -21.046875 25.484375 -21.046875
Q 16.21875 -21.046875 10.5 -16.875
Q 4.78125 -12.703125 4.984375 -4.296875
z
M 12.25 26.859375
Q 12.25 16.65625 16.296875 11.96875
Q 20.359375 7.28125 26.46875 7.28125
Q 32.515625 7.28125 36.609375 11.9375
Q 40.71875 16.609375 40.71875 26.5625
Q 40.71875 36.078125 36.5 40.90625
Q 32.28125 45.75 26.3125 45.75
Q 20.453125 45.75 16.34375 40.984375
Q 12.25 36.234375 12.25 26.859375
z
" id="ArialMT-103"/>
     </defs>
     <use xlink:href="#ArialMT-115"/>
     <use x="50" xlink:href="#ArialMT-105"/>
     <use x="72.216797" xlink:href="#ArialMT-110"/>
     <use x="127.832031" xlink:href="#ArialMT-103"/>
     <use x="183.447266" xlink:href="#ArialMT-108"/>
     <use x="205.664062" xlink:href="#ArialMT-101"/>
     <use x="261.279297" xlink:href="#ArialMT-95"/>
     <use x="316.894531" xlink:href="#ArialMT-109"/>
     <use x="400.195312" xlink:href="#ArialMT-111"/>
     <use x="455.810547" xlink:href="#ArialMT-100"/>
     <use x="511.425781" xlink:href="#ArialMT-101"/>
     <use x="567.041016" xlink:href="#ArialMT-108"/>
    </g>
   </g>
  </g>
  <g id="text_33">
   <!-- Percent Difference Relative to 2010-2011 -->
   <g style="fill:#262626;" transform="translate(147.462969 15.789375)scale(0.12 -0.12)">
    <defs>
     <path d="M 7.859375 0
L 7.859375 71.578125
L 39.59375 71.578125
Q 49.171875 71.578125 54.140625 69.640625
Q 59.125 67.71875 62.109375 62.828125
Q 65.09375 57.953125 65.09375 52.046875
Q 65.09375 44.4375 60.15625 39.203125
Q 55.21875 33.984375 44.921875 32.5625
Q 48.6875 30.765625 50.640625 29
Q 54.78125 25.203125 58.5 19.484375
L 70.953125 0
L 59.03125 0
L 49.5625 14.890625
Q 45.40625 21.34375 42.71875 24.75
Q 40.046875 28.171875 37.921875 29.53125
Q 35.796875 30.90625 33.59375 31.453125
Q 31.984375 31.78125 28.328125 31.78125
L 17.328125 31.78125
L 17.328125 0
z
M 17.328125 39.984375
L 37.703125 39.984375
Q 44.1875 39.984375 47.84375 41.328125
Q 51.515625 42.671875 53.421875 45.625
Q 55.328125 48.578125 55.328125 52.046875
Q 55.328125 57.125 51.640625 60.390625
Q 47.953125 63.671875 39.984375 63.671875
L 17.328125 63.671875
z
" id="ArialMT-82"/>
     <path d="M 21 0
L 1.265625 51.859375
L 10.546875 51.859375
L 21.6875 20.796875
Q 23.484375 15.765625 25 10.359375
Q 26.171875 14.453125 28.265625 20.21875
L 39.796875 51.859375
L 48.828125 51.859375
L 29.203125 0
z
" id="ArialMT-118"/>
    </defs>
    <use xlink:href="#ArialMT-80"/>
    <use x="66.699219" xlink:href="#ArialMT-101"/>
    <use x="122.314453" xlink:href="#ArialMT-114"/>
    <use x="155.615234" xlink:href="#ArialMT-99"/>
    <use x="205.615234" xlink:href="#ArialMT-101"/>
    <use x="261.230469" xlink:href="#ArialMT-110"/>
    <use x="316.845703" xlink:href="#ArialMT-116"/>
    <use x="344.628906" xlink:href="#ArialMT-32"/>
    <use x="372.412109" xlink:href="#ArialMT-68"/>
    <use x="444.628906" xlink:href="#ArialMT-105"/>
    <use x="466.845703" xlink:href="#ArialMT-102"/>
    <use x="492.878906" xlink:href="#ArialMT-102"/>
    <use x="520.662109" xlink:href="#ArialMT-101"/>
    <use x="576.277344" xlink:href="#ArialMT-114"/>
    <use x="609.578125" xlink:href="#ArialMT-101"/>
    <use x="665.193359" xlink:href="#ArialMT-110"/>
    <use x="720.808594" xlink:href="#ArialMT-99"/>
    <use x="770.808594" xlink:href="#ArialMT-101"/>
    <use x="826.423828" xlink:href="#ArialMT-32"/>
    <use x="854.207031" xlink:href="#ArialMT-82"/>
    <use x="926.423828" xlink:href="#ArialMT-101"/>
    <use x="982.039062" xlink:href="#ArialMT-108"/>
    <use x="1004.255859" xlink:href="#ArialMT-97"/>
    <use x="1059.871094" xlink:href="#ArialMT-116"/>
    <use x="1087.654297" xlink:href="#ArialMT-105"/>
    <use x="1109.871094" xlink:href="#ArialMT-118"/>
    <use x="1159.871094" xlink:href="#ArialMT-101"/>
    <use x="1215.486328" xlink:href="#ArialMT-32"/>
    <use x="1243.269531" xlink:href="#ArialMT-116"/>
    <use x="1271.052734" xlink:href="#ArialMT-111"/>
    <use x="1326.667969" xlink:href="#ArialMT-32"/>
    <use x="1354.451172" xlink:href="#ArialMT-50"/>
    <use x="1410.066406" xlink:href="#ArialMT-48"/>
    <use x="1465.681641" xlink:href="#ArialMT-49"/>
    <use x="1521.296875" xlink:href="#ArialMT-48"/>
    <use x="1576.912109" xlink:href="#ArialMT-45"/>
    <use x="1610.212891" xlink:href="#ArialMT-50"/>
    <use x="1665.828125" xlink:href="#ArialMT-48"/>
    <use x="1721.443359" xlink:href="#ArialMT-49"/>
    <use x="1769.683594" xlink:href="#ArialMT-49"/>
   </g>
  </g>
 </g>
 <defs>
  <clipPath id="pfebade3687">
   <rect height="266.112" width="357.12" x="84.173281" y="26.340288"/>
  </clipPath>
  <clipPath id="pc1437ca055">
   <path d="M 468.493281 166.155476
L 468.493281 148.155476
L 486.493281 148.155476
L 486.493281 166.155476
"/>
  </clipPath>
  <clipPath id="pcdca44d6e6">
   <path d="M 468.493281 186.155476
L 468.493281 168.155476
L 486.493281 168.155476
L 486.493281 186.155476
"/>
  </clipPath>
 </defs>
</svg>
