<svg id="frequency" viewBox="-72 -262 493 325" xmlns="http://www.w3.org/2000/svg" style="font-family: sans-serif;"><g class="curve-fills" width="565" height="587"><path class="curve-fill" d="M0,0L44.44444444444444,-0.3282894985094902L88.88888888888889,-1.5433379872457642L133.33333333333331,-3.5809969435115656L177.77777777777777,-6.079015886192974L222.22222222222223,-8.161956152598016L266.66666666666663,-15.739028715897513L311.11111111111114,-68.95211501452775L355.55555555555554,-114.28247990641862L400,-200L400,0L355.55555555555554,0L311.11111111111114,0L266.66666666666663,0L222.22222222222223,0L177.77777777777777,0L133.33333333333331,0L88.88888888888889,0L44.44444444444444,0L0,0Z" fill="#f3f4f6"></path></g><g class="curve-strokes"><path stroke-dasharray="496.86159163812925 496.86159163812925" stroke-dashoffset="0" class="curve-stroke" d="M0,0L44.44444444444444,-0.3282894985094902L88.88888888888889,-1.5433379872457642L133.33333333333331,-3.5809969435115656L177.77777777777777,-6.079015886192974L222.22222222222223,-8.161956152598016L266.66666666666663,-15.739028715897513L311.11111111111114,-68.95211501452775L355.55555555555554,-114.28247990641862L400,-200" fill="none" stroke="#6b7280" stroke-width="2" stroke-linejoin="round" stroke-linecap="round"></path></g><g class="changepoints"></g><g class="x-axis" fill="none" font-size="10" font-family="sans-serif" text-anchor="middle"><path class="domain" stroke="currentColor" d="M0.5,6V0.5H400.5V6"></path><g class="tick" opacity="1" transform="translate(0.5,0)"><line stroke="currentColor" y2="6"></line><text fill="currentColor" y="9" dy="0.71em">2012</text></g><g class="tick" opacity="1" transform="translate(89.38888888888889,0)"><line stroke="currentColor" y2="6"></line><text fill="currentColor" y="9" dy="0.71em">2014</text></g><g class="tick" opacity="1" transform="translate(178.27777777777777,0)"><line stroke="currentColor" y2="6"></line><text fill="currentColor" y="9" dy="0.71em">2016</text></g><g class="tick" opacity="1" transform="translate(267.16666666666663,0)"><line stroke="currentColor" y2="6"></line><text fill="currentColor" y="9" dy="0.71em">2018</text></g><g class="tick" opacity="1" transform="translate(356.05555555555554,0)"><line stroke="currentColor" y2="6"></line><text fill="currentColor" y="9" dy="0.71em">2020</text></g></g><g class="y-axis" fill="none" font-size="10" font-family="sans-serif" text-anchor="end"><path class="domain" stroke="currentColor" d="M-6,0.5H0.5V-199.5H-6"></path><g class="tick" opacity="1" transform="translate(0,0.5)"><line stroke="currentColor" x2="-6"></line><text fill="currentColor" x="-9" dy="0.32em">less</text></g><g class="tick" opacity="1" transform="translate(0,-199.5)"><line stroke="currentColor" x2="-6"></line><text fill="currentColor" x="-9" dy="0.32em">more</text></g></g><g class="dots"><circle r="3" class="dot" fill="#e91e63" stroke="black" stroke-width="1" cx="0" cy="0"></circle><circle r="3" class="dot" fill="#e82b84" stroke="black" stroke-width="1" cx="44.44444444444444" cy="-0.3282894985094902"></circle><circle r="3" class="dot" fill="#e13fa3" stroke="black" stroke-width="1" cx="88.88888888888889" cy="-1.5433379872457642"></circle><circle r="3" class="dot" fill="#d353bf" stroke="black" stroke-width="1" cx="133.33333333333331" cy="-3.5809969435115656"></circle><circle r="3" class="dot" fill="#c067d7" stroke="black" stroke-width="1" cx="177.77777777777777" cy="-6.079015886192974"></circle><circle r="3" class="dot" fill="#a778e9" stroke="black" stroke-width="1" cx="222.22222222222223" cy="-8.161956152598016"></circle><circle r="3" class="dot" fill="#8a87f5" stroke="black" stroke-width="1" cx="266.66666666666663" cy="-15.739028715897513"></circle><circle r="3" class="dot" fill="#6a94fa" stroke="black" stroke-width="1" cx="311.11111111111114" cy="-68.95211501452775"></circle><circle r="3" class="dot" fill="#44a0fa" stroke="black" stroke-width="1" cx="355.55555555555554" cy="-114.28247990641862"></circle><circle r="3" class="dot" fill="#03a9f4" stroke="black" stroke-width="1" cx="400" cy="-200"></circle></g><text transform="translate(200, 40)" text-anchor="middle" alignment-baseline="middle" style="font-size: 12px;">Year</text><text transform="translate(-40, -100) rotate(-90)" text-anchor="middle" alignment-baseline="middle" style="font-size: 12px;">Frequency</text><text x="200" y="-230" text-anchor="middle" style="font-size: 12px; font-weight: 600;">How often "cas9" has been used over time</text></svg>