<?xml version="1.0" encoding="utf-8" standalone="no"?>
<!DOCTYPE svg PUBLIC "-//W3C//DTD SVG 1.1//EN"
  "http://www.w3.org/Graphics/SVG/1.1/DTD/svg11.dtd">
<!-- Created with matplotlib (https://matplotlib.org/) -->
<svg height="334.086507pt" version="1.1" viewBox="0 0 611.185781 334.086507" width="611.185781pt" xmlns="http://www.w3.org/2000/svg" xmlns:xlink="http://www.w3.org/1999/xlink">
 <metadata>
  <rdf:RDF xmlns:cc="http://creativecommons.org/ns#" xmlns:dc="http://purl.org/dc/elements/1.1/" xmlns:rdf="http://www.w3.org/1999/02/22-rdf-syntax-ns#">
   <cc:Work>
    <dc:type rdf:resource="http://purl.org/dc/dcmitype/StillImage"/>
    <dc:date>2021-11-11T12:00:57.783874</dc:date>
    <dc:format>image/svg+xml</dc:format>
    <dc:creator>
     <cc:Agent>
      <dc:title>Matplotlib v3.3.3, https://matplotlib.org/</dc:title>
     </cc:Agent>
    </dc:creator>
   </cc:Work>
  </rdf:RDF>
 </metadata>
 <defs>
  <style type="text/css">*{stroke-linecap:butt;stroke-linejoin:round;}</style>
 </defs>
 <g id="figure_1">
  <g id="patch_1">
   <path d="M 0 334.086507
L 611.185781 334.086507
L 611.185781 0
L 0 0
z
" style="fill:#ffffff;"/>
  </g>
  <g id="axes_1">
   <g id="patch_2">
    <path d="M 86.627656 292.452288
L 443.747656 292.452288
L 443.747656 26.340288
L 86.627656 26.340288
z
" style="fill:#ffffff;"/>
   </g>
   <g id="matplotlib.axis_1">
    <g id="xtick_1">
     <g id="line2d_1">
      <defs>
       <path d="M 0 0
L 0 6
" id="m4c891aa20e" style="stroke:#262626;stroke-width:1.25;"/>
      </defs>
      <g>
       <use style="fill:#262626;stroke:#262626;stroke-width:1.25;" x="102.860384" xlink:href="#m4c891aa20e" y="292.452288"/>
      </g>
     </g>
     <g id="text_1">
      <!-- 0 -->
      <g style="fill:#262626;" transform="translate(99.801868 308.725882)scale(0.11 -0.11)">
       <defs>
        <path d="M 4.15625 35.296875
Q 4.15625 48 6.765625 55.734375
Q 9.375 63.484375 14.515625 67.671875
Q 19.671875 71.875 27.484375 71.875
Q 33.25 71.875 37.59375 69.546875
Q 41.9375 67.234375 44.765625 62.859375
Q 47.609375 58.5 49.21875 52.21875
Q 50.828125 45.953125 50.828125 35.296875
Q 50.828125 22.703125 48.234375 14.96875
Q 45.65625 7.234375 40.5 3
Q 35.359375 -1.21875 27.484375 -1.21875
Q 17.140625 -1.21875 11.234375 6.203125
Q 4.15625 15.140625 4.15625 35.296875
z
M 13.1875 35.296875
Q 13.1875 17.671875 17.3125 11.828125
Q 21.4375 6 27.484375 6
Q 33.546875 6 37.671875 11.859375
Q 41.796875 17.71875 41.796875 35.296875
Q 41.796875 52.984375 37.671875 58.78125
Q 33.546875 64.59375 27.390625 64.59375
Q 21.34375 64.59375 17.71875 59.46875
Q 13.1875 52.9375 13.1875 35.296875
z
" id="ArialMT-48"/>
       </defs>
       <use xlink:href="#ArialMT-48"/>
      </g>
     </g>
    </g>
    <g id="xtick_2">
     <g id="line2d_2">
      <g>
       <use style="fill:#262626;stroke:#262626;stroke-width:1.25;" x="171.10224" xlink:href="#m4c891aa20e" y="292.452288"/>
      </g>
     </g>
     <g id="text_2">
      <!-- 0.25 -->
      <g style="fill:#262626;" transform="translate(160.398725 308.725882)scale(0.11 -0.11)">
       <defs>
        <path d="M 9.078125 0
L 9.078125 10.015625
L 19.09375 10.015625
L 19.09375 0
z
" id="ArialMT-46"/>
        <path d="M 50.34375 8.453125
L 50.34375 0
L 3.03125 0
Q 2.9375 3.171875 4.046875 6.109375
Q 5.859375 10.9375 9.828125 15.625
Q 13.8125 20.3125 21.34375 26.46875
Q 33.015625 36.03125 37.109375 41.625
Q 41.21875 47.21875 41.21875 52.203125
Q 41.21875 57.421875 37.46875 61
Q 33.734375 64.59375 27.734375 64.59375
Q 21.390625 64.59375 17.578125 60.78125
Q 13.765625 56.984375 13.71875 50.25
L 4.6875 51.171875
Q 5.609375 61.28125 11.65625 66.578125
Q 17.71875 71.875 27.9375 71.875
Q 38.234375 71.875 44.234375 66.15625
Q 50.25 60.453125 50.25 52
Q 50.25 47.703125 48.484375 43.546875
Q 46.734375 39.40625 42.65625 34.8125
Q 38.578125 30.21875 29.109375 22.21875
Q 21.1875 15.578125 18.9375 13.203125
Q 16.703125 10.84375 15.234375 8.453125
z
" id="ArialMT-50"/>
        <path d="M 4.15625 18.75
L 13.375 19.53125
Q 14.40625 12.796875 18.140625 9.390625
Q 21.875 6 27.15625 6
Q 33.5 6 37.890625 10.78125
Q 42.28125 15.578125 42.28125 23.484375
Q 42.28125 31 38.0625 35.34375
Q 33.84375 39.703125 27 39.703125
Q 22.75 39.703125 19.328125 37.765625
Q 15.921875 35.84375 13.96875 32.765625
L 5.71875 33.84375
L 12.640625 70.609375
L 48.25 70.609375
L 48.25 62.203125
L 19.671875 62.203125
L 15.828125 42.96875
Q 22.265625 47.46875 29.34375 47.46875
Q 38.71875 47.46875 45.15625 40.96875
Q 51.609375 34.46875 51.609375 24.265625
Q 51.609375 14.546875 45.953125 7.46875
Q 39.0625 -1.21875 27.15625 -1.21875
Q 17.390625 -1.21875 11.203125 4.25
Q 5.03125 9.71875 4.15625 18.75
z
" id="ArialMT-53"/>
       </defs>
       <use xlink:href="#ArialMT-48"/>
       <use x="55.615234" xlink:href="#ArialMT-46"/>
       <use x="83.398438" xlink:href="#ArialMT-50"/>
       <use x="139.013672" xlink:href="#ArialMT-53"/>
      </g>
     </g>
    </g>
    <g id="xtick_3">
     <g id="line2d_3">
      <g>
       <use style="fill:#262626;stroke:#262626;stroke-width:1.25;" x="239.344097" xlink:href="#m4c891aa20e" y="292.452288"/>
      </g>
     </g>
     <g id="text_3">
      <!-- 0.50 -->
      <g style="fill:#262626;" transform="translate(228.640581 308.725882)scale(0.11 -0.11)">
       <use xlink:href="#ArialMT-48"/>
       <use x="55.615234" xlink:href="#ArialMT-46"/>
       <use x="83.398438" xlink:href="#ArialMT-53"/>
       <use x="139.013672" xlink:href="#ArialMT-48"/>
      </g>
     </g>
    </g>
    <g id="xtick_4">
     <g id="line2d_4">
      <g>
       <use style="fill:#262626;stroke:#262626;stroke-width:1.25;" x="307.585954" xlink:href="#m4c891aa20e" y="292.452288"/>
      </g>
     </g>
     <g id="text_4">
      <!-- 0.75 -->
      <g style="fill:#262626;" transform="translate(296.882438 308.725882)scale(0.11 -0.11)">
       <defs>
        <path d="M 4.734375 62.203125
L 4.734375 70.65625
L 51.078125 70.65625
L 51.078125 63.8125
Q 44.234375 56.546875 37.515625 44.484375
Q 30.8125 32.421875 27.15625 19.671875
Q 24.515625 10.6875 23.78125 0
L 14.75 0
Q 14.890625 8.453125 18.0625 20.40625
Q 21.234375 32.375 27.171875 43.484375
Q 33.109375 54.59375 39.796875 62.203125
z
" id="ArialMT-55"/>
       </defs>
       <use xlink:href="#ArialMT-48"/>
       <use x="55.615234" xlink:href="#ArialMT-46"/>
       <use x="83.398438" xlink:href="#ArialMT-55"/>
       <use x="139.013672" xlink:href="#ArialMT-53"/>
      </g>
     </g>
    </g>
    <g id="xtick_5">
     <g id="line2d_5">
      <g>
       <use style="fill:#262626;stroke:#262626;stroke-width:1.25;" x="375.82781" xlink:href="#m4c891aa20e" y="292.452288"/>
      </g>
     </g>
     <g id="text_5">
      <!-- 1 -->
      <g style="fill:#262626;" transform="translate(372.769295 308.725882)scale(0.11 -0.11)">
       <defs>
        <path d="M 37.25 0
L 28.46875 0
L 28.46875 56
Q 25.296875 52.984375 20.140625 49.953125
Q 14.984375 46.921875 10.890625 45.40625
L 10.890625 53.90625
Q 18.265625 57.375 23.78125 62.296875
Q 29.296875 67.234375 31.59375 71.875
L 37.25 71.875
z
" id="ArialMT-49"/>
       </defs>
       <use xlink:href="#ArialMT-49"/>
      </g>
     </g>
    </g>
    <g id="xtick_6">
     <g id="line2d_6">
      <defs>
       <path d="M 0 0
L 0 4
" id="md0db34b0d5" style="stroke:#262626;"/>
      </defs>
      <g>
       <use style="fill:#262626;stroke:#262626;" x="136.981312" xlink:href="#md0db34b0d5" y="292.452288"/>
      </g>
     </g>
    </g>
    <g id="xtick_7">
     <g id="line2d_7">
      <g>
       <use style="fill:#262626;stroke:#262626;" x="205.223169" xlink:href="#md0db34b0d5" y="292.452288"/>
      </g>
     </g>
    </g>
    <g id="xtick_8">
     <g id="line2d_8">
      <g>
       <use style="fill:#262626;stroke:#262626;" x="273.465025" xlink:href="#md0db34b0d5" y="292.452288"/>
      </g>
     </g>
    </g>
    <g id="xtick_9">
     <g id="line2d_9">
      <g>
       <use style="fill:#262626;stroke:#262626;" x="341.706882" xlink:href="#md0db34b0d5" y="292.452288"/>
      </g>
     </g>
    </g>
    <g id="xtick_10">
     <g id="line2d_10">
      <g>
       <use style="fill:#262626;stroke:#262626;" x="409.948739" xlink:href="#md0db34b0d5" y="292.452288"/>
      </g>
     </g>
    </g>
    <g id="text_6">
     <!-- Absolute Percent Difference -->
     <g style="fill:#262626;" transform="translate(184.829844 324.501507)scale(0.12 -0.12)">
      <defs>
       <path d="M -0.140625 0
L 27.34375 71.578125
L 37.546875 71.578125
L 66.84375 0
L 56.0625 0
L 47.703125 21.6875
L 17.78125 21.6875
L 9.90625 0
z
M 20.515625 29.390625
L 44.78125 29.390625
L 37.3125 49.21875
Q 33.890625 58.25 32.234375 64.0625
Q 30.859375 57.171875 28.375 50.390625
z
" id="ArialMT-65"/>
       <path d="M 14.703125 0
L 6.546875 0
L 6.546875 71.578125
L 15.328125 71.578125
L 15.328125 46.046875
Q 20.90625 53.03125 29.546875 53.03125
Q 34.328125 53.03125 38.59375 51.09375
Q 42.875 49.171875 45.625 45.671875
Q 48.390625 42.1875 49.953125 37.25
Q 51.515625 32.328125 51.515625 26.703125
Q 51.515625 13.375 44.921875 6.09375
Q 38.328125 -1.171875 29.109375 -1.171875
Q 19.921875 -1.171875 14.703125 6.5
z
M 14.59375 26.3125
Q 14.59375 17 17.140625 12.84375
Q 21.296875 6.0625 28.375 6.0625
Q 34.125 6.0625 38.328125 11.0625
Q 42.53125 16.0625 42.53125 25.984375
Q 42.53125 36.140625 38.5 40.96875
Q 34.46875 45.796875 28.765625 45.796875
Q 23 45.796875 18.796875 40.796875
Q 14.59375 35.796875 14.59375 26.3125
z
" id="ArialMT-98"/>
       <path d="M 3.078125 15.484375
L 11.765625 16.84375
Q 12.5 11.625 15.84375 8.84375
Q 19.1875 6.0625 25.203125 6.0625
Q 31.25 6.0625 34.171875 8.515625
Q 37.109375 10.984375 37.109375 14.3125
Q 37.109375 17.28125 34.515625 19
Q 32.71875 20.171875 25.53125 21.96875
Q 15.875 24.421875 12.140625 26.203125
Q 8.40625 27.984375 6.46875 31.125
Q 4.546875 34.28125 4.546875 38.09375
Q 4.546875 41.546875 6.125 44.5
Q 7.71875 47.46875 10.453125 49.421875
Q 12.5 50.921875 16.03125 51.96875
Q 19.578125 53.03125 23.640625 53.03125
Q 29.734375 53.03125 34.34375 51.265625
Q 38.96875 49.515625 41.15625 46.5
Q 43.359375 43.5 44.1875 38.484375
L 35.59375 37.3125
Q 35.015625 41.3125 32.203125 43.546875
Q 29.390625 45.796875 24.265625 45.796875
Q 18.21875 45.796875 15.625 43.796875
Q 13.03125 41.796875 13.03125 39.109375
Q 13.03125 37.40625 14.109375 36.03125
Q 15.1875 34.625 17.484375 33.6875
Q 18.796875 33.203125 25.25 31.453125
Q 34.578125 28.953125 38.25 27.359375
Q 41.9375 25.78125 44.03125 22.75
Q 46.140625 19.734375 46.140625 15.234375
Q 46.140625 10.84375 43.578125 6.953125
Q 41.015625 3.078125 36.171875 0.953125
Q 31.34375 -1.171875 25.25 -1.171875
Q 15.140625 -1.171875 9.84375 3.03125
Q 4.546875 7.234375 3.078125 15.484375
z
" id="ArialMT-115"/>
       <path d="M 3.328125 25.921875
Q 3.328125 40.328125 11.328125 47.265625
Q 18.015625 53.03125 27.640625 53.03125
Q 38.328125 53.03125 45.109375 46.015625
Q 51.90625 39.015625 51.90625 26.65625
Q 51.90625 16.65625 48.90625 10.90625
Q 45.90625 5.171875 40.15625 2
Q 34.421875 -1.171875 27.640625 -1.171875
Q 16.75 -1.171875 10.03125 5.8125
Q 3.328125 12.796875 3.328125 25.921875
z
M 12.359375 25.921875
Q 12.359375 15.96875 16.703125 11.015625
Q 21.046875 6.0625 27.640625 6.0625
Q 34.1875 6.0625 38.53125 11.03125
Q 42.875 16.015625 42.875 26.21875
Q 42.875 35.84375 38.5 40.796875
Q 34.125 45.75 27.640625 45.75
Q 21.046875 45.75 16.703125 40.8125
Q 12.359375 35.890625 12.359375 25.921875
z
" id="ArialMT-111"/>
       <path d="M 6.390625 0
L 6.390625 71.578125
L 15.1875 71.578125
L 15.1875 0
z
" id="ArialMT-108"/>
       <path d="M 40.578125 0
L 40.578125 7.625
Q 34.515625 -1.171875 24.125 -1.171875
Q 19.53125 -1.171875 15.546875 0.578125
Q 11.578125 2.34375 9.640625 5
Q 7.71875 7.671875 6.9375 11.53125
Q 6.390625 14.109375 6.390625 19.734375
L 6.390625 51.859375
L 15.1875 51.859375
L 15.1875 23.09375
Q 15.1875 16.21875 15.71875 13.8125
Q 16.546875 10.359375 19.234375 8.375
Q 21.921875 6.390625 25.875 6.390625
Q 29.828125 6.390625 33.296875 8.421875
Q 36.765625 10.453125 38.203125 13.9375
Q 39.65625 17.4375 39.65625 24.078125
L 39.65625 51.859375
L 48.4375 51.859375
L 48.4375 0
z
" id="ArialMT-117"/>
       <path d="M 25.78125 7.859375
L 27.046875 0.09375
Q 23.34375 -0.6875 20.40625 -0.6875
Q 15.625 -0.6875 12.984375 0.828125
Q 10.359375 2.34375 9.28125 4.8125
Q 8.203125 7.28125 8.203125 15.1875
L 8.203125 45.015625
L 1.765625 45.015625
L 1.765625 51.859375
L 8.203125 51.859375
L 8.203125 64.703125
L 16.9375 69.96875
L 16.9375 51.859375
L 25.78125 51.859375
L 25.78125 45.015625
L 16.9375 45.015625
L 16.9375 14.703125
Q 16.9375 10.9375 17.40625 9.859375
Q 17.875 8.796875 18.921875 8.15625
Q 19.96875 7.515625 21.921875 7.515625
Q 23.390625 7.515625 25.78125 7.859375
z
" id="ArialMT-116"/>
       <path d="M 42.09375 16.703125
L 51.171875 15.578125
Q 49.03125 7.625 43.21875 3.21875
Q 37.40625 -1.171875 28.375 -1.171875
Q 17 -1.171875 10.328125 5.828125
Q 3.65625 12.84375 3.65625 25.484375
Q 3.65625 38.578125 10.390625 45.796875
Q 17.140625 53.03125 27.875 53.03125
Q 38.28125 53.03125 44.875 45.953125
Q 51.46875 38.875 51.46875 26.03125
Q 51.46875 25.25 51.421875 23.6875
L 12.75 23.6875
Q 13.234375 15.140625 17.578125 10.59375
Q 21.921875 6.0625 28.421875 6.0625
Q 33.25 6.0625 36.671875 8.59375
Q 40.09375 11.140625 42.09375 16.703125
z
M 13.234375 30.90625
L 42.1875 30.90625
Q 41.609375 37.453125 38.875 40.71875
Q 34.671875 45.796875 27.984375 45.796875
Q 21.921875 45.796875 17.796875 41.75
Q 13.671875 37.703125 13.234375 30.90625
z
" id="ArialMT-101"/>
       <path id="ArialMT-32"/>
       <path d="M 7.71875 0
L 7.71875 71.578125
L 34.71875 71.578125
Q 41.84375 71.578125 45.609375 70.90625
Q 50.875 70.015625 54.4375 67.546875
Q 58.015625 65.09375 60.1875 60.640625
Q 62.359375 56.203125 62.359375 50.875
Q 62.359375 41.75 56.546875 35.421875
Q 50.734375 29.109375 35.546875 29.109375
L 17.1875 29.109375
L 17.1875 0
z
M 17.1875 37.546875
L 35.6875 37.546875
Q 44.875 37.546875 48.734375 40.96875
Q 52.59375 44.390625 52.59375 50.59375
Q 52.59375 55.078125 50.3125 58.265625
Q 48.046875 61.46875 44.34375 62.5
Q 41.9375 63.140625 35.5 63.140625
L 17.1875 63.140625
z
" id="ArialMT-80"/>
       <path d="M 6.5 0
L 6.5 51.859375
L 14.40625 51.859375
L 14.40625 44
Q 17.4375 49.515625 20 51.265625
Q 22.5625 53.03125 25.640625 53.03125
Q 30.078125 53.03125 34.671875 50.203125
L 31.640625 42.046875
Q 28.421875 43.953125 25.203125 43.953125
Q 22.3125 43.953125 20.015625 42.21875
Q 17.71875 40.484375 16.75 37.40625
Q 15.28125 32.71875 15.28125 27.15625
L 15.28125 0
z
" id="ArialMT-114"/>
       <path d="M 40.4375 19
L 49.078125 17.875
Q 47.65625 8.9375 41.8125 3.875
Q 35.984375 -1.171875 27.484375 -1.171875
Q 16.84375 -1.171875 10.375 5.78125
Q 3.90625 12.75 3.90625 25.734375
Q 3.90625 34.125 6.6875 40.421875
Q 9.46875 46.734375 15.15625 49.875
Q 20.84375 53.03125 27.546875 53.03125
Q 35.984375 53.03125 41.359375 48.75
Q 46.734375 44.484375 48.25 36.625
L 39.703125 35.296875
Q 38.484375 40.53125 35.375 43.15625
Q 32.28125 45.796875 27.875 45.796875
Q 21.234375 45.796875 17.078125 41.03125
Q 12.9375 36.28125 12.9375 25.984375
Q 12.9375 15.53125 16.9375 10.796875
Q 20.953125 6.0625 27.390625 6.0625
Q 32.5625 6.0625 36.03125 9.234375
Q 39.5 12.40625 40.4375 19
z
" id="ArialMT-99"/>
       <path d="M 6.59375 0
L 6.59375 51.859375
L 14.5 51.859375
L 14.5 44.484375
Q 20.21875 53.03125 31 53.03125
Q 35.6875 53.03125 39.625 51.34375
Q 43.5625 49.65625 45.515625 46.921875
Q 47.46875 44.1875 48.25 40.4375
Q 48.734375 37.984375 48.734375 31.890625
L 48.734375 0
L 39.9375 0
L 39.9375 31.546875
Q 39.9375 36.921875 38.90625 39.578125
Q 37.890625 42.234375 35.28125 43.8125
Q 32.671875 45.40625 29.15625 45.40625
Q 23.53125 45.40625 19.453125 41.84375
Q 15.375 38.28125 15.375 28.328125
L 15.375 0
z
" id="ArialMT-110"/>
       <path d="M 7.71875 0
L 7.71875 71.578125
L 32.375 71.578125
Q 40.71875 71.578125 45.125 70.5625
Q 51.265625 69.140625 55.609375 65.4375
Q 61.28125 60.640625 64.078125 53.1875
Q 66.890625 45.75 66.890625 36.1875
Q 66.890625 28.03125 64.984375 21.734375
Q 63.09375 15.4375 60.109375 11.296875
Q 57.125 7.171875 53.578125 4.796875
Q 50.046875 2.4375 45.046875 1.21875
Q 40.046875 0 33.546875 0
z
M 17.1875 8.453125
L 32.46875 8.453125
Q 39.546875 8.453125 43.578125 9.765625
Q 47.609375 11.078125 50 13.484375
Q 53.375 16.84375 55.25 22.53125
Q 57.125 28.21875 57.125 36.328125
Q 57.125 47.5625 53.4375 53.59375
Q 49.75 59.625 44.484375 61.671875
Q 40.671875 63.140625 32.234375 63.140625
L 17.1875 63.140625
z
" id="ArialMT-68"/>
       <path d="M 6.640625 61.46875
L 6.640625 71.578125
L 15.4375 71.578125
L 15.4375 61.46875
z
M 6.640625 0
L 6.640625 51.859375
L 15.4375 51.859375
L 15.4375 0
z
" id="ArialMT-105"/>
       <path d="M 8.6875 0
L 8.6875 45.015625
L 0.921875 45.015625
L 0.921875 51.859375
L 8.6875 51.859375
L 8.6875 57.375
Q 8.6875 62.59375 9.625 65.140625
Q 10.890625 68.5625 14.078125 70.671875
Q 17.28125 72.796875 23.046875 72.796875
Q 26.765625 72.796875 31.25 71.921875
L 29.9375 64.265625
Q 27.203125 64.75 24.75 64.75
Q 20.75 64.75 19.09375 63.03125
Q 17.4375 61.328125 17.4375 56.640625
L 17.4375 51.859375
L 27.546875 51.859375
L 27.546875 45.015625
L 17.4375 45.015625
L 17.4375 0
z
" id="ArialMT-102"/>
      </defs>
      <use xlink:href="#ArialMT-65"/>
      <use x="66.699219" xlink:href="#ArialMT-98"/>
      <use x="122.314453" xlink:href="#ArialMT-115"/>
      <use x="172.314453" xlink:href="#ArialMT-111"/>
      <use x="227.929688" xlink:href="#ArialMT-108"/>
      <use x="250.146484" xlink:href="#ArialMT-117"/>
      <use x="305.761719" xlink:href="#ArialMT-116"/>
      <use x="333.544922" xlink:href="#ArialMT-101"/>
      <use x="389.160156" xlink:href="#ArialMT-32"/>
      <use x="416.943359" xlink:href="#ArialMT-80"/>
      <use x="483.642578" xlink:href="#ArialMT-101"/>
      <use x="539.257812" xlink:href="#ArialMT-114"/>
      <use x="572.558594" xlink:href="#ArialMT-99"/>
      <use x="622.558594" xlink:href="#ArialMT-101"/>
      <use x="678.173828" xlink:href="#ArialMT-110"/>
      <use x="733.789062" xlink:href="#ArialMT-116"/>
      <use x="761.572266" xlink:href="#ArialMT-32"/>
      <use x="789.355469" xlink:href="#ArialMT-68"/>
      <use x="861.572266" xlink:href="#ArialMT-105"/>
      <use x="883.789062" xlink:href="#ArialMT-102"/>
      <use x="909.822266" xlink:href="#ArialMT-102"/>
      <use x="937.605469" xlink:href="#ArialMT-101"/>
      <use x="993.220703" xlink:href="#ArialMT-114"/>
      <use x="1026.521484" xlink:href="#ArialMT-101"/>
      <use x="1082.136719" xlink:href="#ArialMT-110"/>
      <use x="1137.751953" xlink:href="#ArialMT-99"/>
      <use x="1187.751953" xlink:href="#ArialMT-101"/>
     </g>
    </g>
   </g>
   <g id="matplotlib.axis_2">
    <g id="ytick_1">
     <g id="line2d_11">
      <defs>
       <path d="M 0 0
L -6 0
" id="m97878aebc6" style="stroke:#262626;stroke-width:1.25;"/>
      </defs>
      <g>
       <use style="fill:#262626;stroke:#262626;stroke-width:1.25;" x="86.627656" xlink:href="#m97878aebc6" y="284.547972"/>
      </g>
     </g>
     <g id="text_7">
      <!-- 2000_2001 -->
      <g style="fill:#262626;" transform="translate(23.174375 288.501097)scale(0.11 -0.11)">
       <defs>
        <path d="M -1.515625 -19.875
L -1.515625 -13.53125
L 56.734375 -13.53125
L 56.734375 -19.875
z
" id="ArialMT-95"/>
       </defs>
       <use xlink:href="#ArialMT-50"/>
       <use x="55.615234" xlink:href="#ArialMT-48"/>
       <use x="111.230469" xlink:href="#ArialMT-48"/>
       <use x="166.845703" xlink:href="#ArialMT-48"/>
       <use x="222.460938" xlink:href="#ArialMT-95"/>
       <use x="278.076172" xlink:href="#ArialMT-50"/>
       <use x="333.691406" xlink:href="#ArialMT-48"/>
       <use x="389.306641" xlink:href="#ArialMT-48"/>
       <use x="444.921875" xlink:href="#ArialMT-49"/>
      </g>
     </g>
    </g>
    <g id="ytick_2">
     <g id="line2d_12">
      <g>
       <use style="fill:#262626;stroke:#262626;stroke-width:1.25;" x="86.627656" xlink:href="#m97878aebc6" y="271.37411"/>
      </g>
     </g>
     <g id="text_8">
      <!-- 2001_2002 -->
      <g style="fill:#262626;" transform="translate(23.174375 275.327235)scale(0.11 -0.11)">
       <use xlink:href="#ArialMT-50"/>
       <use x="55.615234" xlink:href="#ArialMT-48"/>
       <use x="111.230469" xlink:href="#ArialMT-48"/>
       <use x="166.845703" xlink:href="#ArialMT-49"/>
       <use x="222.460938" xlink:href="#ArialMT-95"/>
       <use x="278.076172" xlink:href="#ArialMT-50"/>
       <use x="333.691406" xlink:href="#ArialMT-48"/>
       <use x="389.306641" xlink:href="#ArialMT-48"/>
       <use x="444.921875" xlink:href="#ArialMT-50"/>
      </g>
     </g>
    </g>
    <g id="ytick_3">
     <g id="line2d_13">
      <g>
       <use style="fill:#262626;stroke:#262626;stroke-width:1.25;" x="86.627656" xlink:href="#m97878aebc6" y="258.200249"/>
      </g>
     </g>
     <g id="text_9">
      <!-- 2002_2003 -->
      <g style="fill:#262626;" transform="translate(23.174375 262.153374)scale(0.11 -0.11)">
       <defs>
        <path d="M 4.203125 18.890625
L 12.984375 20.0625
Q 14.5 12.59375 18.140625 9.296875
Q 21.78125 6 27 6
Q 33.203125 6 37.46875 10.296875
Q 41.75 14.59375 41.75 20.953125
Q 41.75 27 37.796875 30.921875
Q 33.84375 34.859375 27.734375 34.859375
Q 25.25 34.859375 21.53125 33.890625
L 22.515625 41.609375
Q 23.390625 41.5 23.921875 41.5
Q 29.546875 41.5 34.03125 44.421875
Q 38.53125 47.359375 38.53125 53.46875
Q 38.53125 58.296875 35.25 61.46875
Q 31.984375 64.65625 26.8125 64.65625
Q 21.6875 64.65625 18.265625 61.421875
Q 14.84375 58.203125 13.875 51.765625
L 5.078125 53.328125
Q 6.6875 62.15625 12.390625 67.015625
Q 18.109375 71.875 26.609375 71.875
Q 32.46875 71.875 37.390625 69.359375
Q 42.328125 66.84375 44.9375 62.5
Q 47.5625 58.15625 47.5625 53.265625
Q 47.5625 48.640625 45.0625 44.828125
Q 42.578125 41.015625 37.703125 38.765625
Q 44.046875 37.3125 47.5625 32.6875
Q 51.078125 28.078125 51.078125 21.140625
Q 51.078125 11.765625 44.234375 5.25
Q 37.40625 -1.265625 26.953125 -1.265625
Q 17.53125 -1.265625 11.296875 4.34375
Q 5.078125 9.96875 4.203125 18.890625
z
" id="ArialMT-51"/>
       </defs>
       <use xlink:href="#ArialMT-50"/>
       <use x="55.615234" xlink:href="#ArialMT-48"/>
       <use x="111.230469" xlink:href="#ArialMT-48"/>
       <use x="166.845703" xlink:href="#ArialMT-50"/>
       <use x="222.460938" xlink:href="#ArialMT-95"/>
       <use x="278.076172" xlink:href="#ArialMT-50"/>
       <use x="333.691406" xlink:href="#ArialMT-48"/>
       <use x="389.306641" xlink:href="#ArialMT-48"/>
       <use x="444.921875" xlink:href="#ArialMT-51"/>
      </g>
     </g>
    </g>
    <g id="ytick_4">
     <g id="line2d_14">
      <g>
       <use style="fill:#262626;stroke:#262626;stroke-width:1.25;" x="86.627656" xlink:href="#m97878aebc6" y="245.026387"/>
      </g>
     </g>
     <g id="text_10">
      <!-- 2003_2004 -->
      <g style="fill:#262626;" transform="translate(23.174375 248.979512)scale(0.11 -0.11)">
       <defs>
        <path d="M 32.328125 0
L 32.328125 17.140625
L 1.265625 17.140625
L 1.265625 25.203125
L 33.9375 71.578125
L 41.109375 71.578125
L 41.109375 25.203125
L 50.78125 25.203125
L 50.78125 17.140625
L 41.109375 17.140625
L 41.109375 0
z
M 32.328125 25.203125
L 32.328125 57.46875
L 9.90625 25.203125
z
" id="ArialMT-52"/>
       </defs>
       <use xlink:href="#ArialMT-50"/>
       <use x="55.615234" xlink:href="#ArialMT-48"/>
       <use x="111.230469" xlink:href="#ArialMT-48"/>
       <use x="166.845703" xlink:href="#ArialMT-51"/>
       <use x="222.460938" xlink:href="#ArialMT-95"/>
       <use x="278.076172" xlink:href="#ArialMT-50"/>
       <use x="333.691406" xlink:href="#ArialMT-48"/>
       <use x="389.306641" xlink:href="#ArialMT-48"/>
       <use x="444.921875" xlink:href="#ArialMT-52"/>
      </g>
     </g>
    </g>
    <g id="ytick_5">
     <g id="line2d_15">
      <g>
       <use style="fill:#262626;stroke:#262626;stroke-width:1.25;" x="86.627656" xlink:href="#m97878aebc6" y="231.852526"/>
      </g>
     </g>
     <g id="text_11">
      <!-- 2004_2005 -->
      <g style="fill:#262626;" transform="translate(23.174375 235.805651)scale(0.11 -0.11)">
       <use xlink:href="#ArialMT-50"/>
       <use x="55.615234" xlink:href="#ArialMT-48"/>
       <use x="111.230469" xlink:href="#ArialMT-48"/>
       <use x="166.845703" xlink:href="#ArialMT-52"/>
       <use x="222.460938" xlink:href="#ArialMT-95"/>
       <use x="278.076172" xlink:href="#ArialMT-50"/>
       <use x="333.691406" xlink:href="#ArialMT-48"/>
       <use x="389.306641" xlink:href="#ArialMT-48"/>
       <use x="444.921875" xlink:href="#ArialMT-53"/>
      </g>
     </g>
    </g>
    <g id="ytick_6">
     <g id="line2d_16">
      <g>
       <use style="fill:#262626;stroke:#262626;stroke-width:1.25;" x="86.627656" xlink:href="#m97878aebc6" y="218.678665"/>
      </g>
     </g>
     <g id="text_12">
      <!-- 2005_2006 -->
      <g style="fill:#262626;" transform="translate(23.174375 222.63179)scale(0.11 -0.11)">
       <defs>
        <path d="M 49.75 54.046875
L 41.015625 53.375
Q 39.84375 58.546875 37.703125 60.890625
Q 34.125 64.65625 28.90625 64.65625
Q 24.703125 64.65625 21.53125 62.3125
Q 17.390625 59.28125 14.984375 53.46875
Q 12.59375 47.65625 12.5 36.921875
Q 15.671875 41.75 20.265625 44.09375
Q 24.859375 46.4375 29.890625 46.4375
Q 38.671875 46.4375 44.84375 39.96875
Q 51.03125 33.5 51.03125 23.25
Q 51.03125 16.5 48.125 10.71875
Q 45.21875 4.9375 40.140625 1.859375
Q 35.0625 -1.21875 28.609375 -1.21875
Q 17.625 -1.21875 10.6875 6.859375
Q 3.765625 14.9375 3.765625 33.5
Q 3.765625 54.25 11.421875 63.671875
Q 18.109375 71.875 29.4375 71.875
Q 37.890625 71.875 43.28125 67.140625
Q 48.6875 62.40625 49.75 54.046875
z
M 13.875 23.1875
Q 13.875 18.65625 15.796875 14.5
Q 17.71875 10.359375 21.1875 8.171875
Q 24.65625 6 28.46875 6
Q 34.03125 6 38.03125 10.484375
Q 42.046875 14.984375 42.046875 22.703125
Q 42.046875 30.125 38.078125 34.390625
Q 34.125 38.671875 28.125 38.671875
Q 22.171875 38.671875 18.015625 34.390625
Q 13.875 30.125 13.875 23.1875
z
" id="ArialMT-54"/>
       </defs>
       <use xlink:href="#ArialMT-50"/>
       <use x="55.615234" xlink:href="#ArialMT-48"/>
       <use x="111.230469" xlink:href="#ArialMT-48"/>
       <use x="166.845703" xlink:href="#ArialMT-53"/>
       <use x="222.460938" xlink:href="#ArialMT-95"/>
       <use x="278.076172" xlink:href="#ArialMT-50"/>
       <use x="333.691406" xlink:href="#ArialMT-48"/>
       <use x="389.306641" xlink:href="#ArialMT-48"/>
       <use x="444.921875" xlink:href="#ArialMT-54"/>
      </g>
     </g>
    </g>
    <g id="ytick_7">
     <g id="line2d_17">
      <g>
       <use style="fill:#262626;stroke:#262626;stroke-width:1.25;" x="86.627656" xlink:href="#m97878aebc6" y="205.504803"/>
      </g>
     </g>
     <g id="text_13">
      <!-- 2006_2007 -->
      <g style="fill:#262626;" transform="translate(23.174375 209.457928)scale(0.11 -0.11)">
       <use xlink:href="#ArialMT-50"/>
       <use x="55.615234" xlink:href="#ArialMT-48"/>
       <use x="111.230469" xlink:href="#ArialMT-48"/>
       <use x="166.845703" xlink:href="#ArialMT-54"/>
       <use x="222.460938" xlink:href="#ArialMT-95"/>
       <use x="278.076172" xlink:href="#ArialMT-50"/>
       <use x="333.691406" xlink:href="#ArialMT-48"/>
       <use x="389.306641" xlink:href="#ArialMT-48"/>
       <use x="444.921875" xlink:href="#ArialMT-55"/>
      </g>
     </g>
    </g>
    <g id="ytick_8">
     <g id="line2d_18">
      <g>
       <use style="fill:#262626;stroke:#262626;stroke-width:1.25;" x="86.627656" xlink:href="#m97878aebc6" y="192.330942"/>
      </g>
     </g>
     <g id="text_14">
      <!-- 2007_2008 -->
      <g style="fill:#262626;" transform="translate(23.174375 196.284067)scale(0.11 -0.11)">
       <defs>
        <path d="M 17.671875 38.8125
Q 12.203125 40.828125 9.5625 44.53125
Q 6.9375 48.25 6.9375 53.421875
Q 6.9375 61.234375 12.546875 66.546875
Q 18.171875 71.875 27.484375 71.875
Q 36.859375 71.875 42.578125 66.421875
Q 48.296875 60.984375 48.296875 53.171875
Q 48.296875 48.1875 45.671875 44.5
Q 43.0625 40.828125 37.75 38.8125
Q 44.34375 36.671875 47.78125 31.875
Q 51.21875 27.09375 51.21875 20.453125
Q 51.21875 11.28125 44.71875 5.03125
Q 38.234375 -1.21875 27.640625 -1.21875
Q 17.046875 -1.21875 10.546875 5.046875
Q 4.046875 11.328125 4.046875 20.703125
Q 4.046875 27.6875 7.59375 32.390625
Q 11.140625 37.109375 17.671875 38.8125
z
M 15.921875 53.71875
Q 15.921875 48.640625 19.1875 45.40625
Q 22.46875 42.1875 27.6875 42.1875
Q 32.765625 42.1875 36.015625 45.375
Q 39.265625 48.578125 39.265625 53.21875
Q 39.265625 58.0625 35.90625 61.359375
Q 32.5625 64.65625 27.59375 64.65625
Q 22.5625 64.65625 19.234375 61.421875
Q 15.921875 58.203125 15.921875 53.71875
z
M 13.09375 20.65625
Q 13.09375 16.890625 14.875 13.375
Q 16.65625 9.859375 20.171875 7.921875
Q 23.6875 6 27.734375 6
Q 34.03125 6 38.125 10.046875
Q 42.234375 14.109375 42.234375 20.359375
Q 42.234375 26.703125 38.015625 30.859375
Q 33.796875 35.015625 27.4375 35.015625
Q 21.234375 35.015625 17.15625 30.90625
Q 13.09375 26.8125 13.09375 20.65625
z
" id="ArialMT-56"/>
       </defs>
       <use xlink:href="#ArialMT-50"/>
       <use x="55.615234" xlink:href="#ArialMT-48"/>
       <use x="111.230469" xlink:href="#ArialMT-48"/>
       <use x="166.845703" xlink:href="#ArialMT-55"/>
       <use x="222.460938" xlink:href="#ArialMT-95"/>
       <use x="278.076172" xlink:href="#ArialMT-50"/>
       <use x="333.691406" xlink:href="#ArialMT-48"/>
       <use x="389.306641" xlink:href="#ArialMT-48"/>
       <use x="444.921875" xlink:href="#ArialMT-56"/>
      </g>
     </g>
    </g>
    <g id="ytick_9">
     <g id="line2d_19">
      <g>
       <use style="fill:#262626;stroke:#262626;stroke-width:1.25;" x="86.627656" xlink:href="#m97878aebc6" y="179.15708"/>
      </g>
     </g>
     <g id="text_15">
      <!-- 2008_2009 -->
      <g style="fill:#262626;" transform="translate(23.174375 183.110205)scale(0.11 -0.11)">
       <defs>
        <path d="M 5.46875 16.546875
L 13.921875 17.328125
Q 14.984375 11.375 18.015625 8.6875
Q 21.046875 6 25.78125 6
Q 29.828125 6 32.875 7.859375
Q 35.9375 9.71875 37.890625 12.8125
Q 39.84375 15.921875 41.15625 21.1875
Q 42.484375 26.46875 42.484375 31.9375
Q 42.484375 32.515625 42.4375 33.6875
Q 39.796875 29.5 35.234375 26.875
Q 30.671875 24.265625 25.34375 24.265625
Q 16.453125 24.265625 10.296875 30.703125
Q 4.15625 37.15625 4.15625 47.703125
Q 4.15625 58.59375 10.578125 65.234375
Q 17 71.875 26.65625 71.875
Q 33.640625 71.875 39.421875 68.109375
Q 45.21875 64.359375 48.21875 57.390625
Q 51.21875 50.4375 51.21875 37.25
Q 51.21875 23.53125 48.234375 15.40625
Q 45.265625 7.28125 39.375 3.03125
Q 33.5 -1.21875 25.59375 -1.21875
Q 17.1875 -1.21875 11.859375 3.4375
Q 6.546875 8.109375 5.46875 16.546875
z
M 41.453125 48.140625
Q 41.453125 55.71875 37.421875 60.15625
Q 33.40625 64.59375 27.734375 64.59375
Q 21.875 64.59375 17.53125 59.8125
Q 13.1875 55.03125 13.1875 47.40625
Q 13.1875 40.578125 17.3125 36.296875
Q 21.4375 32.03125 27.484375 32.03125
Q 33.59375 32.03125 37.515625 36.296875
Q 41.453125 40.578125 41.453125 48.140625
z
" id="ArialMT-57"/>
       </defs>
       <use xlink:href="#ArialMT-50"/>
       <use x="55.615234" xlink:href="#ArialMT-48"/>
       <use x="111.230469" xlink:href="#ArialMT-48"/>
       <use x="166.845703" xlink:href="#ArialMT-56"/>
       <use x="222.460938" xlink:href="#ArialMT-95"/>
       <use x="278.076172" xlink:href="#ArialMT-50"/>
       <use x="333.691406" xlink:href="#ArialMT-48"/>
       <use x="389.306641" xlink:href="#ArialMT-48"/>
       <use x="444.921875" xlink:href="#ArialMT-57"/>
      </g>
     </g>
    </g>
    <g id="ytick_10">
     <g id="line2d_20">
      <g>
       <use style="fill:#262626;stroke:#262626;stroke-width:1.25;" x="86.627656" xlink:href="#m97878aebc6" y="165.983219"/>
      </g>
     </g>
     <g id="text_16">
      <!-- 2009_2010 -->
      <g style="fill:#262626;" transform="translate(23.174375 169.936344)scale(0.11 -0.11)">
       <use xlink:href="#ArialMT-50"/>
       <use x="55.615234" xlink:href="#ArialMT-48"/>
       <use x="111.230469" xlink:href="#ArialMT-48"/>
       <use x="166.845703" xlink:href="#ArialMT-57"/>
       <use x="222.460938" xlink:href="#ArialMT-95"/>
       <use x="278.076172" xlink:href="#ArialMT-50"/>
       <use x="333.691406" xlink:href="#ArialMT-48"/>
       <use x="389.306641" xlink:href="#ArialMT-49"/>
       <use x="444.921875" xlink:href="#ArialMT-48"/>
      </g>
     </g>
    </g>
    <g id="ytick_11">
     <g id="line2d_21">
      <g>
       <use style="fill:#262626;stroke:#262626;stroke-width:1.25;" x="86.627656" xlink:href="#m97878aebc6" y="152.809358"/>
      </g>
     </g>
     <g id="text_17">
      <!-- 2010_2011 -->
      <g style="fill:#262626;" transform="translate(23.985625 156.762483)scale(0.11 -0.11)">
       <use xlink:href="#ArialMT-50"/>
       <use x="55.615234" xlink:href="#ArialMT-48"/>
       <use x="111.230469" xlink:href="#ArialMT-49"/>
       <use x="166.845703" xlink:href="#ArialMT-48"/>
       <use x="222.460938" xlink:href="#ArialMT-95"/>
       <use x="278.076172" xlink:href="#ArialMT-50"/>
       <use x="333.691406" xlink:href="#ArialMT-48"/>
       <use x="389.306641" xlink:href="#ArialMT-49"/>
       <use x="437.546875" xlink:href="#ArialMT-49"/>
      </g>
     </g>
    </g>
    <g id="ytick_12">
     <g id="line2d_22">
      <g>
       <use style="fill:#262626;stroke:#262626;stroke-width:1.25;" x="86.627656" xlink:href="#m97878aebc6" y="139.635496"/>
      </g>
     </g>
     <g id="text_18">
      <!-- 2011_2012 -->
      <g style="fill:#262626;" transform="translate(23.985625 143.588621)scale(0.11 -0.11)">
       <use xlink:href="#ArialMT-50"/>
       <use x="55.615234" xlink:href="#ArialMT-48"/>
       <use x="111.230469" xlink:href="#ArialMT-49"/>
       <use x="159.470703" xlink:href="#ArialMT-49"/>
       <use x="215.085938" xlink:href="#ArialMT-95"/>
       <use x="270.701172" xlink:href="#ArialMT-50"/>
       <use x="326.316406" xlink:href="#ArialMT-48"/>
       <use x="381.931641" xlink:href="#ArialMT-49"/>
       <use x="437.546875" xlink:href="#ArialMT-50"/>
      </g>
     </g>
    </g>
    <g id="ytick_13">
     <g id="line2d_23">
      <g>
       <use style="fill:#262626;stroke:#262626;stroke-width:1.25;" x="86.627656" xlink:href="#m97878aebc6" y="126.461635"/>
      </g>
     </g>
     <g id="text_19">
      <!-- 2012_2013 -->
      <g style="fill:#262626;" transform="translate(23.174375 130.41476)scale(0.11 -0.11)">
       <use xlink:href="#ArialMT-50"/>
       <use x="55.615234" xlink:href="#ArialMT-48"/>
       <use x="111.230469" xlink:href="#ArialMT-49"/>
       <use x="166.845703" xlink:href="#ArialMT-50"/>
       <use x="222.460938" xlink:href="#ArialMT-95"/>
       <use x="278.076172" xlink:href="#ArialMT-50"/>
       <use x="333.691406" xlink:href="#ArialMT-48"/>
       <use x="389.306641" xlink:href="#ArialMT-49"/>
       <use x="444.921875" xlink:href="#ArialMT-51"/>
      </g>
     </g>
    </g>
    <g id="ytick_14">
     <g id="line2d_24">
      <g>
       <use style="fill:#262626;stroke:#262626;stroke-width:1.25;" x="86.627656" xlink:href="#m97878aebc6" y="113.287774"/>
      </g>
     </g>
     <g id="text_20">
      <!-- 2013_2014 -->
      <g style="fill:#262626;" transform="translate(23.174375 117.240899)scale(0.11 -0.11)">
       <use xlink:href="#ArialMT-50"/>
       <use x="55.615234" xlink:href="#ArialMT-48"/>
       <use x="111.230469" xlink:href="#ArialMT-49"/>
       <use x="166.845703" xlink:href="#ArialMT-51"/>
       <use x="222.460938" xlink:href="#ArialMT-95"/>
       <use x="278.076172" xlink:href="#ArialMT-50"/>
       <use x="333.691406" xlink:href="#ArialMT-48"/>
       <use x="389.306641" xlink:href="#ArialMT-49"/>
       <use x="444.921875" xlink:href="#ArialMT-52"/>
      </g>
     </g>
    </g>
    <g id="ytick_15">
     <g id="line2d_25">
      <g>
       <use style="fill:#262626;stroke:#262626;stroke-width:1.25;" x="86.627656" xlink:href="#m97878aebc6" y="100.113912"/>
      </g>
     </g>
     <g id="text_21">
      <!-- 2014_2015 -->
      <g style="fill:#262626;" transform="translate(23.174375 104.067037)scale(0.11 -0.11)">
       <use xlink:href="#ArialMT-50"/>
       <use x="55.615234" xlink:href="#ArialMT-48"/>
       <use x="111.230469" xlink:href="#ArialMT-49"/>
       <use x="166.845703" xlink:href="#ArialMT-52"/>
       <use x="222.460938" xlink:href="#ArialMT-95"/>
       <use x="278.076172" xlink:href="#ArialMT-50"/>
       <use x="333.691406" xlink:href="#ArialMT-48"/>
       <use x="389.306641" xlink:href="#ArialMT-49"/>
       <use x="444.921875" xlink:href="#ArialMT-53"/>
      </g>
     </g>
    </g>
    <g id="ytick_16">
     <g id="line2d_26">
      <g>
       <use style="fill:#262626;stroke:#262626;stroke-width:1.25;" x="86.627656" xlink:href="#m97878aebc6" y="86.940051"/>
      </g>
     </g>
     <g id="text_22">
      <!-- 2015_2016 -->
      <g style="fill:#262626;" transform="translate(23.174375 90.893176)scale(0.11 -0.11)">
       <use xlink:href="#ArialMT-50"/>
       <use x="55.615234" xlink:href="#ArialMT-48"/>
       <use x="111.230469" xlink:href="#ArialMT-49"/>
       <use x="166.845703" xlink:href="#ArialMT-53"/>
       <use x="222.460938" xlink:href="#ArialMT-95"/>
       <use x="278.076172" xlink:href="#ArialMT-50"/>
       <use x="333.691406" xlink:href="#ArialMT-48"/>
       <use x="389.306641" xlink:href="#ArialMT-49"/>
       <use x="444.921875" xlink:href="#ArialMT-54"/>
      </g>
     </g>
    </g>
    <g id="ytick_17">
     <g id="line2d_27">
      <g>
       <use style="fill:#262626;stroke:#262626;stroke-width:1.25;" x="86.627656" xlink:href="#m97878aebc6" y="73.766189"/>
      </g>
     </g>
     <g id="text_23">
      <!-- 2016_2017 -->
      <g style="fill:#262626;" transform="translate(23.174375 77.719314)scale(0.11 -0.11)">
       <use xlink:href="#ArialMT-50"/>
       <use x="55.615234" xlink:href="#ArialMT-48"/>
       <use x="111.230469" xlink:href="#ArialMT-49"/>
       <use x="166.845703" xlink:href="#ArialMT-54"/>
       <use x="222.460938" xlink:href="#ArialMT-95"/>
       <use x="278.076172" xlink:href="#ArialMT-50"/>
       <use x="333.691406" xlink:href="#ArialMT-48"/>
       <use x="389.306641" xlink:href="#ArialMT-49"/>
       <use x="444.921875" xlink:href="#ArialMT-55"/>
      </g>
     </g>
    </g>
    <g id="ytick_18">
     <g id="line2d_28">
      <g>
       <use style="fill:#262626;stroke:#262626;stroke-width:1.25;" x="86.627656" xlink:href="#m97878aebc6" y="60.592328"/>
      </g>
     </g>
     <g id="text_24">
      <!-- 2017_2018 -->
      <g style="fill:#262626;" transform="translate(23.174375 64.545453)scale(0.11 -0.11)">
       <use xlink:href="#ArialMT-50"/>
       <use x="55.615234" xlink:href="#ArialMT-48"/>
       <use x="111.230469" xlink:href="#ArialMT-49"/>
       <use x="166.845703" xlink:href="#ArialMT-55"/>
       <use x="222.460938" xlink:href="#ArialMT-95"/>
       <use x="278.076172" xlink:href="#ArialMT-50"/>
       <use x="333.691406" xlink:href="#ArialMT-48"/>
       <use x="389.306641" xlink:href="#ArialMT-49"/>
       <use x="444.921875" xlink:href="#ArialMT-56"/>
      </g>
     </g>
    </g>
    <g id="ytick_19">
     <g id="line2d_29">
      <g>
       <use style="fill:#262626;stroke:#262626;stroke-width:1.25;" x="86.627656" xlink:href="#m97878aebc6" y="47.418467"/>
      </g>
     </g>
     <g id="text_25">
      <!-- 2018_2019 -->
      <g style="fill:#262626;" transform="translate(23.174375 51.371592)scale(0.11 -0.11)">
       <use xlink:href="#ArialMT-50"/>
       <use x="55.615234" xlink:href="#ArialMT-48"/>
       <use x="111.230469" xlink:href="#ArialMT-49"/>
       <use x="166.845703" xlink:href="#ArialMT-56"/>
       <use x="222.460938" xlink:href="#ArialMT-95"/>
       <use x="278.076172" xlink:href="#ArialMT-50"/>
       <use x="333.691406" xlink:href="#ArialMT-48"/>
       <use x="389.306641" xlink:href="#ArialMT-49"/>
       <use x="444.921875" xlink:href="#ArialMT-57"/>
      </g>
     </g>
    </g>
    <g id="ytick_20">
     <g id="line2d_30">
      <g>
       <use style="fill:#262626;stroke:#262626;stroke-width:1.25;" x="86.627656" xlink:href="#m97878aebc6" y="34.244605"/>
      </g>
     </g>
     <g id="text_26">
      <!-- 2019_2020 -->
      <g style="fill:#262626;" transform="translate(23.174375 38.19773)scale(0.11 -0.11)">
       <use xlink:href="#ArialMT-50"/>
       <use x="55.615234" xlink:href="#ArialMT-48"/>
       <use x="111.230469" xlink:href="#ArialMT-49"/>
       <use x="166.845703" xlink:href="#ArialMT-57"/>
       <use x="222.460938" xlink:href="#ArialMT-95"/>
       <use x="278.076172" xlink:href="#ArialMT-50"/>
       <use x="333.691406" xlink:href="#ArialMT-48"/>
       <use x="389.306641" xlink:href="#ArialMT-50"/>
       <use x="444.921875" xlink:href="#ArialMT-48"/>
      </g>
     </g>
    </g>
    <g id="text_27">
     <!-- Year Shifts -->
     <g style="fill:#262626;" transform="translate(15.789375 186.466413)rotate(-90)scale(0.12 -0.12)">
      <defs>
       <path d="M 27.875 0
L 27.875 30.328125
L 0.296875 71.578125
L 11.8125 71.578125
L 25.921875 50
Q 29.828125 43.953125 33.203125 37.890625
Q 36.421875 43.5 41.015625 50.53125
L 54.890625 71.578125
L 65.921875 71.578125
L 37.359375 30.328125
L 37.359375 0
z
" id="ArialMT-89"/>
       <path d="M 40.4375 6.390625
Q 35.546875 2.25 31.03125 0.53125
Q 26.515625 -1.171875 21.34375 -1.171875
Q 12.796875 -1.171875 8.203125 3
Q 3.609375 7.171875 3.609375 13.671875
Q 3.609375 17.484375 5.34375 20.625
Q 7.078125 23.78125 9.890625 25.6875
Q 12.703125 27.59375 16.21875 28.5625
Q 18.796875 29.25 24.03125 29.890625
Q 34.671875 31.15625 39.703125 32.90625
Q 39.75 34.71875 39.75 35.203125
Q 39.75 40.578125 37.25 42.78125
Q 33.890625 45.75 27.25 45.75
Q 21.046875 45.75 18.09375 43.578125
Q 15.140625 41.40625 13.71875 35.890625
L 5.125 37.0625
Q 6.296875 42.578125 8.984375 45.96875
Q 11.671875 49.359375 16.75 51.1875
Q 21.828125 53.03125 28.515625 53.03125
Q 35.15625 53.03125 39.296875 51.46875
Q 43.453125 49.90625 45.40625 47.53125
Q 47.359375 45.171875 48.140625 41.546875
Q 48.578125 39.3125 48.578125 33.453125
L 48.578125 21.734375
Q 48.578125 9.46875 49.140625 6.21875
Q 49.703125 2.984375 51.375 0
L 42.1875 0
Q 40.828125 2.734375 40.4375 6.390625
z
M 39.703125 26.03125
Q 34.90625 24.078125 25.34375 22.703125
Q 19.921875 21.921875 17.671875 20.9375
Q 15.4375 19.96875 14.203125 18.09375
Q 12.984375 16.21875 12.984375 13.921875
Q 12.984375 10.40625 15.640625 8.0625
Q 18.3125 5.71875 23.4375 5.71875
Q 28.515625 5.71875 32.46875 7.9375
Q 36.421875 10.15625 38.28125 14.015625
Q 39.703125 17 39.703125 22.796875
z
" id="ArialMT-97"/>
       <path d="M 4.5 23
L 13.421875 23.78125
Q 14.0625 18.40625 16.375 14.96875
Q 18.703125 11.53125 23.578125 9.40625
Q 28.46875 7.28125 34.578125 7.28125
Q 39.984375 7.28125 44.140625 8.890625
Q 48.296875 10.5 50.3125 13.296875
Q 52.34375 16.109375 52.34375 19.4375
Q 52.34375 22.796875 50.390625 25.3125
Q 48.4375 27.828125 43.953125 29.546875
Q 41.0625 30.671875 31.203125 33.03125
Q 21.34375 35.40625 17.390625 37.5
Q 12.25 40.1875 9.734375 44.15625
Q 7.234375 48.140625 7.234375 53.078125
Q 7.234375 58.5 10.296875 63.203125
Q 13.375 67.921875 19.28125 70.359375
Q 25.203125 72.796875 32.421875 72.796875
Q 40.375 72.796875 46.453125 70.234375
Q 52.546875 67.671875 55.8125 62.6875
Q 59.078125 57.71875 59.328125 51.421875
L 50.25 50.734375
Q 49.515625 57.515625 45.28125 60.984375
Q 41.0625 64.453125 32.8125 64.453125
Q 24.21875 64.453125 20.28125 61.296875
Q 16.359375 58.15625 16.359375 53.71875
Q 16.359375 49.859375 19.140625 47.359375
Q 21.875 44.875 33.421875 42.265625
Q 44.96875 39.65625 49.265625 37.703125
Q 55.515625 34.8125 58.484375 30.390625
Q 61.46875 25.984375 61.46875 20.21875
Q 61.46875 14.5 58.203125 9.4375
Q 54.9375 4.390625 48.796875 1.578125
Q 42.671875 -1.21875 35.015625 -1.21875
Q 25.296875 -1.21875 18.71875 1.609375
Q 12.15625 4.4375 8.421875 10.125
Q 4.6875 15.828125 4.5 23
z
" id="ArialMT-83"/>
       <path d="M 6.59375 0
L 6.59375 71.578125
L 15.375 71.578125
L 15.375 45.90625
Q 21.53125 53.03125 30.90625 53.03125
Q 36.671875 53.03125 40.921875 50.75
Q 45.171875 48.484375 47 44.484375
Q 48.828125 40.484375 48.828125 32.859375
L 48.828125 0
L 40.046875 0
L 40.046875 32.859375
Q 40.046875 39.453125 37.1875 42.453125
Q 34.328125 45.453125 29.109375 45.453125
Q 25.203125 45.453125 21.75 43.421875
Q 18.3125 41.40625 16.84375 37.9375
Q 15.375 34.46875 15.375 28.375
L 15.375 0
z
" id="ArialMT-104"/>
      </defs>
      <use xlink:href="#ArialMT-89"/>
      <use x="57.574219" xlink:href="#ArialMT-101"/>
      <use x="113.189453" xlink:href="#ArialMT-97"/>
      <use x="168.804688" xlink:href="#ArialMT-114"/>
      <use x="202.105469" xlink:href="#ArialMT-32"/>
      <use x="229.888672" xlink:href="#ArialMT-83"/>
      <use x="296.587891" xlink:href="#ArialMT-104"/>
      <use x="352.203125" xlink:href="#ArialMT-105"/>
      <use x="374.419922" xlink:href="#ArialMT-102"/>
      <use x="402.203125" xlink:href="#ArialMT-116"/>
      <use x="429.986328" xlink:href="#ArialMT-115"/>
     </g>
    </g>
   </g>
   <g id="PathCollection_1">
    <path clip-path="url(#p0c20b9014b)" d="M 173.51602 286.320425
C 173.986081 286.320425 174.436952 286.133668 174.769335 285.801286
C 175.101717 285.468903 175.288474 285.018032 175.288474 284.547972
C 175.288474 284.077911 175.101717 283.62704 174.769335 283.294657
C 174.436952 282.962275 173.986081 282.775518 173.51602 282.775518
C 173.04596 282.775518 172.595089 282.962275 172.262706 283.294657
C 171.930324 283.62704 171.743567 284.077911 171.743567 284.547972
C 171.743567 285.018032 171.930324 285.468903 172.262706 285.801286
C 172.595089 286.133668 173.04596 286.320425 173.51602 286.320425
z
" style="fill:#1b9e77;stroke:#1b9e77;stroke-width:0.886227;"/>
    <path clip-path="url(#p0c20b9014b)" d="M 171.626738 273.146564
C 172.096798 273.146564 172.547669 272.959807 172.880052 272.627424
C 173.212435 272.295041 173.399192 271.84417 173.399192 271.37411
C 173.399192 270.90405 173.212435 270.453179 172.880052 270.120796
C 172.547669 269.788413 172.096798 269.601656 171.626738 269.601656
C 171.156678 269.601656 170.705807 269.788413 170.373424 270.120796
C 170.041041 270.453179 169.854284 270.90405 169.854284 271.37411
C 169.854284 271.84417 170.041041 272.295041 170.373424 272.627424
C 170.705807 272.959807 171.156678 273.146564 171.626738 273.146564
z
" style="fill:#1b9e77;stroke:#1b9e77;stroke-width:0.886227;"/>
    <path clip-path="url(#p0c20b9014b)" d="M 164.611009 259.972703
C 165.081069 259.972703 165.53194 259.785946 165.864323 259.453563
C 166.196706 259.12118 166.383463 258.670309 166.383463 258.200249
C 166.383463 257.730189 166.196706 257.279317 165.864323 256.946935
C 165.53194 256.614552 165.081069 256.427795 164.611009 256.427795
C 164.140948 256.427795 163.690077 256.614552 163.357695 256.946935
C 163.025312 257.279317 162.838555 257.730189 162.838555 258.200249
C 162.838555 258.670309 163.025312 259.12118 163.357695 259.453563
C 163.690077 259.785946 164.140948 259.972703 164.611009 259.972703
z
" style="fill:#1b9e77;stroke:#1b9e77;stroke-width:0.886227;"/>
    <path clip-path="url(#p0c20b9014b)" d="M 153.779189 246.798841
C 154.24925 246.798841 154.700121 246.612084 155.032504 246.279702
C 155.364886 245.947319 155.551643 245.496448 155.551643 245.026387
C 155.551643 244.556327 155.364886 244.105456 155.032504 243.773073
C 154.700121 243.44069 154.24925 243.253934 153.779189 243.253934
C 153.309129 243.253934 152.858258 243.44069 152.525875 243.773073
C 152.193493 244.105456 152.006736 244.556327 152.006736 245.026387
C 152.006736 245.496448 152.193493 245.947319 152.525875 246.279702
C 152.858258 246.612084 153.309129 246.798841 153.779189 246.798841
z
" style="fill:#1b9e77;stroke:#1b9e77;stroke-width:0.886227;"/>
    <path clip-path="url(#p0c20b9014b)" d="M 133.958489 233.62498
C 134.428549 233.62498 134.87942 233.438223 135.211803 233.10584
C 135.544186 232.773457 135.730943 232.322586 135.730943 231.852526
C 135.730943 231.382466 135.544186 230.931595 135.211803 230.599212
C 134.87942 230.266829 134.428549 230.080072 133.958489 230.080072
C 133.488428 230.080072 133.037557 230.266829 132.705175 230.599212
C 132.372792 230.931595 132.186035 231.382466 132.186035 231.852526
C 132.186035 232.322586 132.372792 232.773457 132.705175 233.10584
C 133.037557 233.438223 133.488428 233.62498 133.958489 233.62498
z
" style="fill:#1b9e77;stroke:#1b9e77;stroke-width:0.886227;"/>
    <path clip-path="url(#p0c20b9014b)" d="M 119.434104 220.451118
C 119.904164 220.451118 120.355035 220.264362 120.687418 219.931979
C 121.019801 219.599596 121.206557 219.148725 121.206557 218.678665
C 121.206557 218.208604 121.019801 217.757733 120.687418 217.42535
C 120.355035 217.092968 119.904164 216.906211 119.434104 216.906211
C 118.964043 216.906211 118.513172 217.092968 118.180789 217.42535
C 117.848407 217.757733 117.66165 218.208604 117.66165 218.678665
C 117.66165 219.148725 117.848407 219.599596 118.180789 219.931979
C 118.513172 220.264362 118.964043 220.451118 119.434104 220.451118
z
" style="fill:#1b9e77;stroke:#1b9e77;stroke-width:0.886227;"/>
    <path clip-path="url(#p0c20b9014b)" d="M 105.777438 207.277257
C 106.247498 207.277257 106.698369 207.0905 107.030752 206.758117
C 107.363134 206.425735 107.549891 205.974863 107.549891 205.504803
C 107.549891 205.034743 107.363134 204.583872 107.030752 204.251489
C 106.698369 203.919106 106.247498 203.732349 105.777438 203.732349
C 105.307377 203.732349 104.856506 203.919106 104.524123 204.251489
C 104.191741 204.583872 104.004984 205.034743 104.004984 205.504803
C 104.004984 205.974863 104.191741 206.425735 104.524123 206.758117
C 104.856506 207.0905 105.307377 207.277257 105.777438 207.277257
z
" style="fill:#1b9e77;stroke:#1b9e77;stroke-width:0.886227;"/>
    <path clip-path="url(#p0c20b9014b)" d="M 112.885357 194.103396
C 113.355417 194.103396 113.806288 193.916639 114.138671 193.584256
C 114.471054 193.251873 114.657811 192.801002 114.657811 192.330942
C 114.657811 191.860882 114.471054 191.41001 114.138671 191.077628
C 113.806288 190.745245 113.355417 190.558488 112.885357 190.558488
C 112.415296 190.558488 111.964425 190.745245 111.632043 191.077628
C 111.29966 191.41001 111.112903 191.860882 111.112903 192.330942
C 111.112903 192.801002 111.29966 193.251873 111.632043 193.584256
C 111.964425 193.916639 112.415296 194.103396 112.885357 194.103396
z
" style="fill:#1b9e77;stroke:#1b9e77;stroke-width:0.886227;"/>
    <path clip-path="url(#p0c20b9014b)" d="M 103.98552 180.929534
C 104.45558 180.929534 104.906451 180.742777 105.238834 180.410395
C 105.571217 180.078012 105.757974 179.627141 105.757974 179.15708
C 105.757974 178.68702 105.571217 178.236149 105.238834 177.903766
C 104.906451 177.571384 104.45558 177.384627 103.98552 177.384627
C 103.51546 177.384627 103.064589 177.571384 102.732206 177.903766
C 102.399823 178.236149 102.213066 178.68702 102.213066 179.15708
C 102.213066 179.627141 102.399823 180.078012 102.732206 180.410395
C 103.064589 180.742777 103.51546 180.929534 103.98552 180.929534
z
" style="fill:#1b9e77;stroke:#1b9e77;stroke-width:0.886227;"/>
    <path clip-path="url(#p0c20b9014b)" d="M 104.478803 167.755673
C 104.948863 167.755673 105.399734 167.568916 105.732117 167.236533
C 106.0645 166.90415 106.251257 166.453279 106.251257 165.983219
C 106.251257 165.513159 106.0645 165.062288 105.732117 164.729905
C 105.399734 164.397522 104.948863 164.210765 104.478803 164.210765
C 104.008743 164.210765 103.557872 164.397522 103.225489 164.729905
C 102.893106 165.062288 102.706349 165.513159 102.706349 165.983219
C 102.706349 166.453279 102.893106 166.90415 103.225489 167.236533
C 103.557872 167.568916 104.008743 167.755673 104.478803 167.755673
z
" style="fill:#1b9e77;stroke:#1b9e77;stroke-width:0.886227;"/>
    <path clip-path="url(#p0c20b9014b)" d="M 102.860384 154.581812
C 103.330444 154.581812 103.781315 154.395055 104.113698 154.062672
C 104.44608 153.730289 104.632837 153.279418 104.632837 152.809358
C 104.632837 152.339297 104.44608 151.888426 104.113698 151.556044
C 103.781315 151.223661 103.330444 151.036904 102.860384 151.036904
C 102.390323 151.036904 101.939452 151.223661 101.607069 151.556044
C 101.274687 151.888426 101.08793 152.339297 101.08793 152.809358
C 101.08793 153.279418 101.274687 153.730289 101.607069 154.062672
C 101.939452 154.395055 102.390323 154.581812 102.860384 154.581812
z
" style="fill:#1b9e77;stroke:#1b9e77;stroke-width:0.886227;"/>
    <path clip-path="url(#p0c20b9014b)" d="M 104.994247 141.40795
C 105.464307 141.40795 105.915178 141.221193 106.247561 140.88881
C 106.579944 140.556428 106.7667 140.105557 106.7667 139.635496
C 106.7667 139.165436 106.579944 138.714565 106.247561 138.382182
C 105.915178 138.049799 105.464307 137.863042 104.994247 137.863042
C 104.524186 137.863042 104.073315 138.049799 103.740932 138.382182
C 103.40855 138.714565 103.221793 139.165436 103.221793 139.635496
C 103.221793 140.105557 103.40855 140.556428 103.740932 140.88881
C 104.073315 141.221193 104.524186 141.40795 104.994247 141.40795
z
" style="fill:#1b9e77;stroke:#1b9e77;stroke-width:0.886227;"/>
    <path clip-path="url(#p0c20b9014b)" d="M 107.560362 128.234089
C 108.030423 128.234089 108.481294 128.047332 108.813677 127.714949
C 109.146059 127.382566 109.332816 126.931695 109.332816 126.461635
C 109.332816 125.991575 109.146059 125.540704 108.813677 125.208321
C 108.481294 124.875938 108.030423 124.689181 107.560362 124.689181
C 107.090302 124.689181 106.639431 124.875938 106.307048 125.208321
C 105.974665 125.540704 105.787909 125.991575 105.787909 126.461635
C 105.787909 126.931695 105.974665 127.382566 106.307048 127.714949
C 106.639431 128.047332 107.090302 128.234089 107.560362 128.234089
z
" style="fill:#1b9e77;stroke:#1b9e77;stroke-width:0.886227;"/>
    <path clip-path="url(#p0c20b9014b)" d="M 110.220215 115.060227
C 110.690275 115.060227 111.141146 114.87347 111.473529 114.541088
C 111.805912 114.208705 111.992669 113.757834 111.992669 113.287774
C 111.992669 112.817713 111.805912 112.366842 111.473529 112.034459
C 111.141146 111.702077 110.690275 111.51532 110.220215 111.51532
C 109.750154 111.51532 109.299283 111.702077 108.966901 112.034459
C 108.634518 112.366842 108.447761 112.817713 108.447761 113.287774
C 108.447761 113.757834 108.634518 114.208705 108.966901 114.541088
C 109.299283 114.87347 109.750154 115.060227 110.220215 115.060227
z
" style="fill:#1b9e77;stroke:#1b9e77;stroke-width:0.886227;"/>
    <path clip-path="url(#p0c20b9014b)" d="M 113.195742 101.886366
C 113.665802 101.886366 114.116673 101.699609 114.449056 101.367226
C 114.781439 101.034843 114.968196 100.583972 114.968196 100.113912
C 114.968196 99.643852 114.781439 99.192981 114.449056 98.860598
C 114.116673 98.528215 113.665802 98.341458 113.195742 98.341458
C 112.725682 98.341458 112.274811 98.528215 111.942428 98.860598
C 111.610045 99.192981 111.423288 99.643852 111.423288 100.113912
C 111.423288 100.583972 111.610045 101.034843 111.942428 101.367226
C 112.274811 101.699609 112.725682 101.886366 113.195742 101.886366
z
" style="fill:#1b9e77;stroke:#1b9e77;stroke-width:0.886227;"/>
    <path clip-path="url(#p0c20b9014b)" d="M 115.342525 88.712505
C 115.812585 88.712505 116.263457 88.525748 116.595839 88.193365
C 116.928222 87.860982 117.114979 87.410111 117.114979 86.940051
C 117.114979 86.46999 116.928222 86.019119 116.595839 85.686737
C 116.263457 85.354354 115.812585 85.167597 115.342525 85.167597
C 114.872465 85.167597 114.421594 85.354354 114.089211 85.686737
C 113.756828 86.019119 113.570071 86.46999 113.570071 86.940051
C 113.570071 87.410111 113.756828 87.860982 114.089211 88.193365
C 114.421594 88.525748 114.872465 88.712505 115.342525 88.712505
z
" style="fill:#1b9e77;stroke:#1b9e77;stroke-width:0.886227;"/>
    <path clip-path="url(#p0c20b9014b)" d="M 117.789205 75.538643
C 118.259265 75.538643 118.710136 75.351886 119.042519 75.019503
C 119.374902 74.687121 119.561658 74.23625 119.561658 73.766189
C 119.561658 73.296129 119.374902 72.845258 119.042519 72.512875
C 118.710136 72.180492 118.259265 71.993736 117.789205 71.993736
C 117.319144 71.993736 116.868273 72.180492 116.53589 72.512875
C 116.203508 72.845258 116.016751 73.296129 116.016751 73.766189
C 116.016751 74.23625 116.203508 74.687121 116.53589 75.019503
C 116.868273 75.351886 117.319144 75.538643 117.789205 75.538643
z
" style="fill:#1b9e77;stroke:#1b9e77;stroke-width:0.886227;"/>
    <path clip-path="url(#p0c20b9014b)" d="M 119.969487 62.364782
C 120.439547 62.364782 120.890418 62.178025 121.222801 61.845642
C 121.555184 61.513259 121.741941 61.062388 121.741941 60.592328
C 121.741941 60.122268 121.555184 59.671397 121.222801 59.339014
C 120.890418 59.006631 120.439547 58.819874 119.969487 58.819874
C 119.499427 58.819874 119.048556 59.006631 118.716173 59.339014
C 118.38379 59.671397 118.197033 60.122268 118.197033 60.592328
C 118.197033 61.062388 118.38379 61.513259 118.716173 61.845642
C 119.048556 62.178025 119.499427 62.364782 119.969487 62.364782
z
" style="fill:#1b9e77;stroke:#1b9e77;stroke-width:0.886227;"/>
    <path clip-path="url(#p0c20b9014b)" d="M 124.446768 49.19092
C 124.916828 49.19092 125.367699 49.004164 125.700082 48.671781
C 126.032465 48.339398 126.219222 47.888527 126.219222 47.418467
C 126.219222 46.948406 126.032465 46.497535 125.700082 46.165152
C 125.367699 45.83277 124.916828 45.646013 124.446768 45.646013
C 123.976707 45.646013 123.525836 45.83277 123.193454 46.165152
C 122.861071 46.497535 122.674314 46.948406 122.674314 47.418467
C 122.674314 47.888527 122.861071 48.339398 123.193454 48.671781
C 123.525836 49.004164 123.976707 49.19092 124.446768 49.19092
z
" style="fill:#1b9e77;stroke:#1b9e77;stroke-width:0.886227;"/>
    <path clip-path="url(#p0c20b9014b)" d="M 108.021895 36.017059
C 108.491955 36.017059 108.942826 35.830302 109.275209 35.497919
C 109.607592 35.165537 109.794349 34.714665 109.794349 34.244605
C 109.794349 33.774545 109.607592 33.323674 109.275209 32.991291
C 108.942826 32.658908 108.491955 32.472151 108.021895 32.472151
C 107.551835 32.472151 107.100963 32.658908 106.768581 32.991291
C 106.436198 33.323674 106.249441 33.774545 106.249441 34.244605
C 106.249441 34.714665 106.436198 35.165537 106.768581 35.497919
C 107.100963 35.830302 107.551835 36.017059 108.021895 36.017059
z
" style="fill:#1b9e77;stroke:#1b9e77;stroke-width:0.886227;"/>
    <path clip-path="url(#p0c20b9014b)" d="M 131.720645 115.060227
C 132.190705 115.060227 132.641576 114.87347 132.973959 114.541088
C 133.306342 114.208705 133.493099 113.757834 133.493099 113.287774
C 133.493099 112.817713 133.306342 112.366842 132.973959 112.034459
C 132.641576 111.702077 132.190705 111.51532 131.720645 111.51532
C 131.250585 111.51532 130.799713 111.702077 130.467331 112.034459
C 130.134948 112.366842 129.948191 112.817713 129.948191 113.287774
C 129.948191 113.757834 130.134948 114.208705 130.467331 114.541088
C 130.799713 114.87347 131.250585 115.060227 131.720645 115.060227
z
" style="fill:#d95f02;stroke:#d95f02;stroke-width:0.886227;"/>
    <path clip-path="url(#p0c20b9014b)" d="M 391.820407 233.62498
C 392.290468 233.62498 392.741339 233.438223 393.073722 233.10584
C 393.406104 232.773457 393.592861 232.322586 393.592861 231.852526
C 393.592861 231.382466 393.406104 230.931595 393.073722 230.599212
C 392.741339 230.266829 392.290468 230.080072 391.820407 230.080072
C 391.350347 230.080072 390.899476 230.266829 390.567093 230.599212
C 390.23471 230.931595 390.047954 231.382466 390.047954 231.852526
C 390.047954 232.322586 390.23471 232.773457 390.567093 233.10584
C 390.899476 233.438223 391.350347 233.62498 391.820407 233.62498
z
" style="fill:#d95f02;stroke:#d95f02;stroke-width:0.886227;"/>
    <path clip-path="url(#p0c20b9014b)" d="M 335.942954 273.146564
C 336.413015 273.146564 336.863886 272.959807 337.196269 272.627424
C 337.528651 272.295041 337.715408 271.84417 337.715408 271.37411
C 337.715408 270.90405 337.528651 270.453179 337.196269 270.120796
C 336.863886 269.788413 336.413015 269.601656 335.942954 269.601656
C 335.472894 269.601656 335.022023 269.788413 334.68964 270.120796
C 334.357257 270.453179 334.170501 270.90405 334.170501 271.37411
C 334.170501 271.84417 334.357257 272.295041 334.68964 272.627424
C 335.022023 272.959807 335.472894 273.146564 335.942954 273.146564
z
" style="fill:#d95f02;stroke:#d95f02;stroke-width:0.886227;"/>
    <path clip-path="url(#p0c20b9014b)" d="M 102.860384 154.581812
C 103.330444 154.581812 103.781315 154.395055 104.113698 154.062672
C 104.44608 153.730289 104.632837 153.279418 104.632837 152.809358
C 104.632837 152.339297 104.44608 151.888426 104.113698 151.556044
C 103.781315 151.223661 103.330444 151.036904 102.860384 151.036904
C 102.390323 151.036904 101.939452 151.223661 101.607069 151.556044
C 101.274687 151.888426 101.08793 152.339297 101.08793 152.809358
C 101.08793 153.279418 101.274687 153.730289 101.607069 154.062672
C 101.939452 154.395055 102.390323 154.581812 102.860384 154.581812
z
" style="fill:#d95f02;stroke:#d95f02;stroke-width:0.886227;"/>
    <path clip-path="url(#p0c20b9014b)" d="M 157.725714 62.364782
C 158.195774 62.364782 158.646646 62.178025 158.979028 61.845642
C 159.311411 61.513259 159.498168 61.062388 159.498168 60.592328
C 159.498168 60.122268 159.311411 59.671397 158.979028 59.339014
C 158.646646 59.006631 158.195774 58.819874 157.725714 58.819874
C 157.255654 58.819874 156.804783 59.006631 156.4724 59.339014
C 156.140017 59.671397 155.95326 60.122268 155.95326 60.592328
C 155.95326 61.062388 156.140017 61.513259 156.4724 61.845642
C 156.804783 62.178025 157.255654 62.364782 157.725714 62.364782
z
" style="fill:#d95f02;stroke:#d95f02;stroke-width:0.886227;"/>
    <path clip-path="url(#p0c20b9014b)" d="M 140.521926 101.886366
C 140.991987 101.886366 141.442858 101.699609 141.775241 101.367226
C 142.107623 101.034843 142.29438 100.583972 142.29438 100.113912
C 142.29438 99.643852 142.107623 99.192981 141.775241 98.860598
C 141.442858 98.528215 140.991987 98.341458 140.521926 98.341458
C 140.051866 98.341458 139.600995 98.528215 139.268612 98.860598
C 138.93623 99.192981 138.749473 99.643852 138.749473 100.113912
C 138.749473 100.583972 138.93623 101.034843 139.268612 101.367226
C 139.600995 101.699609 140.051866 101.886366 140.521926 101.886366
z
" style="fill:#d95f02;stroke:#d95f02;stroke-width:0.886227;"/>
    <path clip-path="url(#p0c20b9014b)" d="M 320.454345 286.320425
C 320.924405 286.320425 321.375277 286.133668 321.707659 285.801286
C 322.040042 285.468903 322.226799 285.018032 322.226799 284.547972
C 322.226799 284.077911 322.040042 283.62704 321.707659 283.294657
C 321.375277 282.962275 320.924405 282.775518 320.454345 282.775518
C 319.984285 282.775518 319.533414 282.962275 319.201031 283.294657
C 318.868648 283.62704 318.681891 284.077911 318.681891 284.547972
C 318.681891 285.018032 318.868648 285.468903 319.201031 285.801286
C 319.533414 286.133668 319.984285 286.320425 320.454345 286.320425
z
" style="fill:#d95f02;stroke:#d95f02;stroke-width:0.886227;"/>
    <path clip-path="url(#p0c20b9014b)" d="M 138.075609 36.017059
C 138.54567 36.017059 138.996541 35.830302 139.328923 35.497919
C 139.661306 35.165537 139.848063 34.714665 139.848063 34.244605
C 139.848063 33.774545 139.661306 33.323674 139.328923 32.991291
C 138.996541 32.658908 138.54567 32.472151 138.075609 32.472151
C 137.605549 32.472151 137.154678 32.658908 136.822295 32.991291
C 136.489912 33.323674 136.303155 33.774545 136.303155 34.244605
C 136.303155 34.714665 136.489912 35.165537 136.822295 35.497919
C 137.154678 35.830302 137.605549 36.017059 138.075609 36.017059
z
" style="fill:#d95f02;stroke:#d95f02;stroke-width:0.886227;"/>
    <path clip-path="url(#p0c20b9014b)" d="M 147.232281 88.712505
C 147.702341 88.712505 148.153212 88.525748 148.485595 88.193365
C 148.817978 87.860982 149.004735 87.410111 149.004735 86.940051
C 149.004735 86.46999 148.817978 86.019119 148.485595 85.686737
C 148.153212 85.354354 147.702341 85.167597 147.232281 85.167597
C 146.762221 85.167597 146.31135 85.354354 145.978967 85.686737
C 145.646584 86.019119 145.459827 86.46999 145.459827 86.940051
C 145.459827 87.410111 145.646584 87.860982 145.978967 88.193365
C 146.31135 88.525748 146.762221 88.712505 147.232281 88.712505
z
" style="fill:#d95f02;stroke:#d95f02;stroke-width:0.886227;"/>
    <path clip-path="url(#p0c20b9014b)" d="M 152.973982 75.538643
C 153.444042 75.538643 153.894913 75.351886 154.227296 75.019503
C 154.559679 74.687121 154.746436 74.23625 154.746436 73.766189
C 154.746436 73.296129 154.559679 72.845258 154.227296 72.512875
C 153.894913 72.180492 153.444042 71.993736 152.973982 71.993736
C 152.503922 71.993736 152.053051 72.180492 151.720668 72.512875
C 151.388285 72.845258 151.201528 73.296129 151.201528 73.766189
C 151.201528 74.23625 151.388285 74.687121 151.720668 75.019503
C 152.053051 75.351886 152.503922 75.538643 152.973982 75.538643
z
" style="fill:#d95f02;stroke:#d95f02;stroke-width:0.886227;"/>
    <path clip-path="url(#p0c20b9014b)" d="M 145.959801 180.929534
C 146.429861 180.929534 146.880732 180.742777 147.213115 180.410395
C 147.545498 180.078012 147.732255 179.627141 147.732255 179.15708
C 147.732255 178.68702 147.545498 178.236149 147.213115 177.903766
C 146.880732 177.571384 146.429861 177.384627 145.959801 177.384627
C 145.489741 177.384627 145.03887 177.571384 144.706487 177.903766
C 144.374104 178.236149 144.187347 178.68702 144.187347 179.15708
C 144.187347 179.627141 144.374104 180.078012 144.706487 180.410395
C 145.03887 180.742777 145.489741 180.929534 145.959801 180.929534
z
" style="fill:#d95f02;stroke:#d95f02;stroke-width:0.886227;"/>
    <path clip-path="url(#p0c20b9014b)" d="M 412.680481 220.451118
C 413.150541 220.451118 413.601412 220.264362 413.933795 219.931979
C 414.266178 219.599596 414.452935 219.148725 414.452935 218.678665
C 414.452935 218.208604 414.266178 217.757733 413.933795 217.42535
C 413.601412 217.092968 413.150541 216.906211 412.680481 216.906211
C 412.210421 216.906211 411.759549 217.092968 411.427167 217.42535
C 411.094784 217.757733 410.908027 218.208604 410.908027 218.678665
C 410.908027 219.148725 411.094784 219.599596 411.427167 219.931979
C 411.759549 220.264362 412.210421 220.451118 412.680481 220.451118
z
" style="fill:#d95f02;stroke:#d95f02;stroke-width:0.886227;"/>
    <path clip-path="url(#p0c20b9014b)" d="M 346.168801 259.972703
C 346.638861 259.972703 347.089732 259.785946 347.422115 259.453563
C 347.754498 259.12118 347.941255 258.670309 347.941255 258.200249
C 347.941255 257.730189 347.754498 257.279317 347.422115 256.946935
C 347.089732 256.614552 346.638861 256.427795 346.168801 256.427795
C 345.698741 256.427795 345.24787 256.614552 344.915487 256.946935
C 344.583104 257.279317 344.396347 257.730189 344.396347 258.200249
C 344.396347 258.670309 344.583104 259.12118 344.915487 259.453563
C 345.24787 259.785946 345.698741 259.972703 346.168801 259.972703
z
" style="fill:#d95f02;stroke:#d95f02;stroke-width:0.886227;"/>
    <path clip-path="url(#p0c20b9014b)" d="M 358.309348 246.798841
C 358.779408 246.798841 359.230279 246.612084 359.562662 246.279702
C 359.895045 245.947319 360.081802 245.496448 360.081802 245.026387
C 360.081802 244.556327 359.895045 244.105456 359.562662 243.773073
C 359.230279 243.44069 358.779408 243.253934 358.309348 243.253934
C 357.839287 243.253934 357.388416 243.44069 357.056034 243.773073
C 356.723651 244.105456 356.536894 244.556327 356.536894 245.026387
C 356.536894 245.496448 356.723651 245.947319 357.056034 246.279702
C 357.388416 246.612084 357.839287 246.798841 358.309348 246.798841
z
" style="fill:#d95f02;stroke:#d95f02;stroke-width:0.886227;"/>
    <path clip-path="url(#p0c20b9014b)" d="M 197.975632 194.103396
C 198.445692 194.103396 198.896563 193.916639 199.228946 193.584256
C 199.561329 193.251873 199.748086 192.801002 199.748086 192.330942
C 199.748086 191.860882 199.561329 191.41001 199.228946 191.077628
C 198.896563 190.745245 198.445692 190.558488 197.975632 190.558488
C 197.505572 190.558488 197.054701 190.745245 196.722318 191.077628
C 196.389935 191.41001 196.203178 191.860882 196.203178 192.330942
C 196.203178 192.801002 196.389935 193.251873 196.722318 193.584256
C 197.054701 193.916639 197.505572 194.103396 197.975632 194.103396
z
" style="fill:#d95f02;stroke:#d95f02;stroke-width:0.886227;"/>
    <path clip-path="url(#p0c20b9014b)" d="M 114.552198 167.755673
C 115.022258 167.755673 115.47313 167.568916 115.805512 167.236533
C 116.137895 166.90415 116.324652 166.453279 116.324652 165.983219
C 116.324652 165.513159 116.137895 165.062288 115.805512 164.729905
C 115.47313 164.397522 115.022258 164.210765 114.552198 164.210765
C 114.082138 164.210765 113.631267 164.397522 113.298884 164.729905
C 112.966501 165.062288 112.779744 165.513159 112.779744 165.983219
C 112.779744 166.453279 112.966501 166.90415 113.298884 167.236533
C 113.631267 167.568916 114.082138 167.755673 114.552198 167.755673
z
" style="fill:#d95f02;stroke:#d95f02;stroke-width:0.886227;"/>
    <path clip-path="url(#p0c20b9014b)" d="M 160.406641 49.19092
C 160.876701 49.19092 161.327572 49.004164 161.659955 48.671781
C 161.992338 48.339398 162.179095 47.888527 162.179095 47.418467
C 162.179095 46.948406 161.992338 46.497535 161.659955 46.165152
C 161.327572 45.83277 160.876701 45.646013 160.406641 45.646013
C 159.93658 45.646013 159.485709 45.83277 159.153327 46.165152
C 158.820944 46.497535 158.634187 46.948406 158.634187 47.418467
C 158.634187 47.888527 158.820944 48.339398 159.153327 48.671781
C 159.485709 49.004164 159.93658 49.19092 160.406641 49.19092
z
" style="fill:#d95f02;stroke:#d95f02;stroke-width:0.886227;"/>
    <path clip-path="url(#p0c20b9014b)" d="M 427.514929 207.277257
C 427.984989 207.277257 428.43586 207.0905 428.768243 206.758117
C 429.100626 206.425735 429.287383 205.974863 429.287383 205.504803
C 429.287383 205.034743 429.100626 204.583872 428.768243 204.251489
C 428.43586 203.919106 427.984989 203.732349 427.514929 203.732349
C 427.044869 203.732349 426.593998 203.919106 426.261615 204.251489
C 425.929232 204.583872 425.742475 205.034743 425.742475 205.504803
C 425.742475 205.974863 425.929232 206.425735 426.261615 206.758117
C 426.593998 207.0905 427.044869 207.277257 427.514929 207.277257
z
" style="fill:#d95f02;stroke:#d95f02;stroke-width:0.886227;"/>
    <path clip-path="url(#p0c20b9014b)" d="M 112.238931 141.40795
C 112.708992 141.40795 113.159863 141.221193 113.492246 140.88881
C 113.824628 140.556428 114.011385 140.105557 114.011385 139.635496
C 114.011385 139.165436 113.824628 138.714565 113.492246 138.382182
C 113.159863 138.049799 112.708992 137.863042 112.238931 137.863042
C 111.768871 137.863042 111.318 138.049799 110.985617 138.382182
C 110.653235 138.714565 110.466478 139.165436 110.466478 139.635496
C 110.466478 140.105557 110.653235 140.556428 110.985617 140.88881
C 111.318 141.221193 111.768871 141.40795 112.238931 141.40795
z
" style="fill:#d95f02;stroke:#d95f02;stroke-width:0.886227;"/>
    <path clip-path="url(#p0c20b9014b)" d="M 121.541995 128.234089
C 122.012056 128.234089 122.462927 128.047332 122.79531 127.714949
C 123.127692 127.382566 123.314449 126.931695 123.314449 126.461635
C 123.314449 125.991575 123.127692 125.540704 122.79531 125.208321
C 122.462927 124.875938 122.012056 124.689181 121.541995 124.689181
C 121.071935 124.689181 120.621064 124.875938 120.288681 125.208321
C 119.956299 125.540704 119.769542 125.991575 119.769542 126.461635
C 119.769542 126.931695 119.956299 127.382566 120.288681 127.714949
C 120.621064 128.047332 121.071935 128.234089 121.541995 128.234089
z
" style="fill:#d95f02;stroke:#d95f02;stroke-width:0.886227;"/>
   </g>
   <g id="line2d_31">
    <path clip-path="url(#p0c20b9014b)" d="M 173.51602 284.547972
L 171.626738 271.37411
L 164.611009 258.200249
L 153.779189 245.026387
L 133.958489 231.852526
L 119.434104 218.678665
L 105.777438 205.504803
L 112.885357 192.330942
L 103.98552 179.15708
L 104.478803 165.983219
L 102.860384 152.809358
L 104.994247 139.635496
L 107.560362 126.461635
L 110.220215 113.287774
L 113.195742 100.113912
L 115.342525 86.940051
L 117.789205 73.766189
L 119.969487 60.592328
L 124.446768 47.418467
L 108.021895 34.244605
" style="fill:none;stroke:#1b9e77;stroke-width:0.886227;"/>
   </g>
   <g id="line2d_32">
    <path clip-path="url(#p0c20b9014b)" d="M 320.454345 284.547972
L 335.942954 271.37411
L 346.168801 258.200249
L 358.309348 245.026387
L 391.820407 231.852526
L 412.680481 218.678665
L 427.514929 205.504803
L 197.975632 192.330942
L 145.959801 179.15708
L 114.552198 165.983219
L 102.860384 152.809358
L 112.238931 139.635496
L 121.541995 126.461635
L 131.720645 113.287774
L 140.521926 100.113912
L 147.232281 86.940051
L 152.973982 73.766189
L 157.725714 60.592328
L 160.406641 47.418467
L 138.075609 34.244605
" style="fill:none;stroke:#d95f02;stroke-width:0.886227;"/>
   </g>
   <g id="patch_3">
    <path d="M 86.627656 292.452288
L 86.627656 26.340288
" style="fill:none;stroke:#262626;stroke-linecap:square;stroke-linejoin:miter;stroke-width:1.25;"/>
   </g>
   <g id="patch_4">
    <path d="M 443.747656 292.452288
L 443.747656 26.340288
" style="fill:none;stroke:#262626;stroke-linecap:square;stroke-linejoin:miter;stroke-width:1.25;"/>
   </g>
   <g id="patch_5">
    <path d="M 86.627656 292.452288
L 443.747656 292.452288
" style="fill:none;stroke:#262626;stroke-linecap:square;stroke-linejoin:miter;stroke-width:1.25;"/>
   </g>
   <g id="patch_6">
    <path d="M 86.627656 26.340288
L 443.747656 26.340288
" style="fill:none;stroke:#262626;stroke-linecap:square;stroke-linejoin:miter;stroke-width:1.25;"/>
   </g>
   <g id="text_28">
    <!-- metric -->
    <g transform="translate(470.947656 137.770476)scale(0.12 -0.12)">
     <defs>
      <path d="M 6.59375 0
L 6.59375 51.859375
L 14.453125 51.859375
L 14.453125 44.578125
Q 16.890625 48.390625 20.9375 50.703125
Q 25 53.03125 30.171875 53.03125
Q 35.9375 53.03125 39.625 50.640625
Q 43.3125 48.25 44.828125 43.953125
Q 50.984375 53.03125 60.84375 53.03125
Q 68.5625 53.03125 72.703125 48.75
Q 76.859375 44.484375 76.859375 35.59375
L 76.859375 0
L 68.109375 0
L 68.109375 32.671875
Q 68.109375 37.9375 67.25 40.25
Q 66.40625 42.578125 64.15625 43.984375
Q 61.921875 45.40625 58.890625 45.40625
Q 53.421875 45.40625 49.796875 41.765625
Q 46.1875 38.140625 46.1875 30.125
L 46.1875 0
L 37.40625 0
L 37.40625 33.6875
Q 37.40625 39.546875 35.25 42.46875
Q 33.109375 45.40625 28.21875 45.40625
Q 24.515625 45.40625 21.359375 43.453125
Q 18.21875 41.5 16.796875 37.734375
Q 15.375 33.984375 15.375 26.90625
L 15.375 0
z
" id="ArialMT-109"/>
     </defs>
     <use xlink:href="#ArialMT-109"/>
     <use x="83.300781" xlink:href="#ArialMT-101"/>
     <use x="138.916016" xlink:href="#ArialMT-116"/>
     <use x="166.699219" xlink:href="#ArialMT-114"/>
     <use x="200" xlink:href="#ArialMT-105"/>
     <use x="222.216797" xlink:href="#ArialMT-99"/>
    </g>
   </g>
   <g id="patch_7">
    <path clip-path="url(#p0fcb02778c)" d="M 470.947656 166.155476
L 488.947656 166.155476
L 488.947656 148.155476
L 470.947656 148.155476
z
" style="fill:#ffffff;"/>
   </g>
   <g id="line2d_33">
    <path clip-path="url(#p0fcb02778c)" d="M 479.947656 157.155476
" style="fill:none;stroke:#1f77b4;stroke-linecap:round;stroke-width:1.5;"/>
    <defs>
     <path d="M 0 1.772454
C 0.47006 1.772454 0.920931 1.585697 1.253314 1.253314
C 1.585697 0.920931 1.772454 0.47006 1.772454 0
C 1.772454 -0.47006 1.585697 -0.920931 1.253314 -1.253314
C 0.920931 -1.585697 0.47006 -1.772454 0 -1.772454
C -0.47006 -1.772454 -0.920931 -1.585697 -1.253314 -1.253314
C -1.585697 -0.920931 -1.772454 -0.47006 -1.772454 0
C -1.772454 0.47006 -1.585697 0.920931 -1.253314 1.253314
C -0.920931 1.585697 -0.47006 1.772454 0 1.772454
z
" id="ma3ebd6650f" style="stroke:#1b9e77;stroke-width:0.886227;"/>
    </defs>
    <g clip-path="url(#p0fcb02778c)">
     <use style="fill:#1b9e77;stroke:#1b9e77;stroke-width:0.886227;" x="479.947656" xlink:href="#ma3ebd6650f" y="157.155476"/>
    </g>
   </g>
   <g id="line2d_34">
    <path clip-path="url(#p0fcb02778c)" d="M 470.947656 157.155476
L 488.947656 157.155476
" style="fill:none;stroke:#1b9e77;stroke-width:0.886227;"/>
   </g>
   <g id="text_29">
    <!-- correction_model -->
    <g transform="translate(491.947656 160.257663)scale(0.12 -0.12)">
     <defs>
      <path d="M 40.234375 0
L 40.234375 6.546875
Q 35.296875 -1.171875 25.734375 -1.171875
Q 19.53125 -1.171875 14.328125 2.25
Q 9.125 5.671875 6.265625 11.796875
Q 3.421875 17.921875 3.421875 25.875
Q 3.421875 33.640625 6 39.96875
Q 8.59375 46.296875 13.765625 49.65625
Q 18.953125 53.03125 25.34375 53.03125
Q 30.03125 53.03125 33.6875 51.046875
Q 37.359375 49.078125 39.65625 45.90625
L 39.65625 71.578125
L 48.390625 71.578125
L 48.390625 0
z
M 12.453125 25.875
Q 12.453125 15.921875 16.640625 10.984375
Q 20.84375 6.0625 26.5625 6.0625
Q 32.328125 6.0625 36.34375 10.765625
Q 40.375 15.484375 40.375 25.140625
Q 40.375 35.796875 36.265625 40.765625
Q 32.171875 45.75 26.171875 45.75
Q 20.3125 45.75 16.375 40.96875
Q 12.453125 36.1875 12.453125 25.875
z
" id="ArialMT-100"/>
     </defs>
     <use xlink:href="#ArialMT-99"/>
     <use x="50" xlink:href="#ArialMT-111"/>
     <use x="105.615234" xlink:href="#ArialMT-114"/>
     <use x="138.916016" xlink:href="#ArialMT-114"/>
     <use x="172.216797" xlink:href="#ArialMT-101"/>
     <use x="227.832031" xlink:href="#ArialMT-99"/>
     <use x="277.832031" xlink:href="#ArialMT-116"/>
     <use x="305.615234" xlink:href="#ArialMT-105"/>
     <use x="327.832031" xlink:href="#ArialMT-111"/>
     <use x="383.447266" xlink:href="#ArialMT-110"/>
     <use x="439.0625" xlink:href="#ArialMT-95"/>
     <use x="494.677734" xlink:href="#ArialMT-109"/>
     <use x="577.978516" xlink:href="#ArialMT-111"/>
     <use x="633.59375" xlink:href="#ArialMT-100"/>
     <use x="689.208984" xlink:href="#ArialMT-101"/>
     <use x="744.824219" xlink:href="#ArialMT-108"/>
    </g>
   </g>
   <g id="patch_8">
    <path clip-path="url(#pefe41d3349)" d="M 470.947656 186.155476
L 488.947656 186.155476
L 488.947656 168.155476
L 470.947656 168.155476
z
" style="fill:#ffffff;"/>
   </g>
   <g id="line2d_35">
    <path clip-path="url(#pefe41d3349)" d="M 479.947656 177.155476
" style="fill:none;stroke:#1f77b4;stroke-linecap:round;stroke-width:1.5;"/>
    <defs>
     <path d="M 0 1.772454
C 0.47006 1.772454 0.920931 1.585697 1.253314 1.253314
C 1.585697 0.920931 1.772454 0.47006 1.772454 0
C 1.772454 -0.47006 1.585697 -0.920931 1.253314 -1.253314
C 0.920931 -1.585697 0.47006 -1.772454 0 -1.772454
C -0.47006 -1.772454 -0.920931 -1.585697 -1.253314 -1.253314
C -1.585697 -0.920931 -1.772454 -0.47006 -1.772454 0
C -1.772454 0.47006 -1.585697 0.920931 -1.253314 1.253314
C -0.920931 1.585697 -0.47006 1.772454 0 1.772454
z
" id="m077e164518" style="stroke:#d95f02;stroke-width:0.886227;"/>
    </defs>
    <g clip-path="url(#pefe41d3349)">
     <use style="fill:#d95f02;stroke:#d95f02;stroke-width:0.886227;" x="479.947656" xlink:href="#m077e164518" y="177.155476"/>
    </g>
   </g>
   <g id="line2d_36">
    <path clip-path="url(#pefe41d3349)" d="M 470.947656 177.155476
L 488.947656 177.155476
" style="fill:none;stroke:#d95f02;stroke-width:0.886227;"/>
   </g>
   <g id="text_30">
    <!-- single_model -->
    <g transform="translate(491.947656 180.187351)scale(0.12 -0.12)">
     <defs>
      <path d="M 4.984375 -4.296875
L 13.53125 -5.5625
Q 14.0625 -9.515625 16.5 -11.328125
Q 19.78125 -13.765625 25.4375 -13.765625
Q 31.546875 -13.765625 34.859375 -11.328125
Q 38.1875 -8.890625 39.359375 -4.5
Q 40.046875 -1.8125 39.984375 6.78125
Q 34.234375 0 25.640625 0
Q 14.9375 0 9.078125 7.71875
Q 3.21875 15.4375 3.21875 26.21875
Q 3.21875 33.640625 5.90625 39.90625
Q 8.59375 46.1875 13.6875 49.609375
Q 18.796875 53.03125 25.6875 53.03125
Q 34.859375 53.03125 40.828125 45.609375
L 40.828125 51.859375
L 48.921875 51.859375
L 48.921875 7.03125
Q 48.921875 -5.078125 46.453125 -10.125
Q 44 -15.1875 38.640625 -18.109375
Q 33.296875 -21.046875 25.484375 -21.046875
Q 16.21875 -21.046875 10.5 -16.875
Q 4.78125 -12.703125 4.984375 -4.296875
z
M 12.25 26.859375
Q 12.25 16.65625 16.296875 11.96875
Q 20.359375 7.28125 26.46875 7.28125
Q 32.515625 7.28125 36.609375 11.9375
Q 40.71875 16.609375 40.71875 26.5625
Q 40.71875 36.078125 36.5 40.90625
Q 32.28125 45.75 26.3125 45.75
Q 20.453125 45.75 16.34375 40.984375
Q 12.25 36.234375 12.25 26.859375
z
" id="ArialMT-103"/>
     </defs>
     <use xlink:href="#ArialMT-115"/>
     <use x="50" xlink:href="#ArialMT-105"/>
     <use x="72.216797" xlink:href="#ArialMT-110"/>
     <use x="127.832031" xlink:href="#ArialMT-103"/>
     <use x="183.447266" xlink:href="#ArialMT-108"/>
     <use x="205.664062" xlink:href="#ArialMT-101"/>
     <use x="261.279297" xlink:href="#ArialMT-95"/>
     <use x="316.894531" xlink:href="#ArialMT-109"/>
     <use x="400.195312" xlink:href="#ArialMT-111"/>
     <use x="455.810547" xlink:href="#ArialMT-100"/>
     <use x="511.425781" xlink:href="#ArialMT-101"/>
     <use x="567.041016" xlink:href="#ArialMT-108"/>
    </g>
   </g>
  </g>
  <g id="text_31">
   <!-- Percent Difference Relative to 2010-2011 -->
   <g style="fill:#262626;" transform="translate(149.917344 15.789375)scale(0.12 -0.12)">
    <defs>
     <path d="M 7.859375 0
L 7.859375 71.578125
L 39.59375 71.578125
Q 49.171875 71.578125 54.140625 69.640625
Q 59.125 67.71875 62.109375 62.828125
Q 65.09375 57.953125 65.09375 52.046875
Q 65.09375 44.4375 60.15625 39.203125
Q 55.21875 33.984375 44.921875 32.5625
Q 48.6875 30.765625 50.640625 29
Q 54.78125 25.203125 58.5 19.484375
L 70.953125 0
L 59.03125 0
L 49.5625 14.890625
Q 45.40625 21.34375 42.71875 24.75
Q 40.046875 28.171875 37.921875 29.53125
Q 35.796875 30.90625 33.59375 31.453125
Q 31.984375 31.78125 28.328125 31.78125
L 17.328125 31.78125
L 17.328125 0
z
M 17.328125 39.984375
L 37.703125 39.984375
Q 44.1875 39.984375 47.84375 41.328125
Q 51.515625 42.671875 53.421875 45.625
Q 55.328125 48.578125 55.328125 52.046875
Q 55.328125 57.125 51.640625 60.390625
Q 47.953125 63.671875 39.984375 63.671875
L 17.328125 63.671875
z
" id="ArialMT-82"/>
     <path d="M 21 0
L 1.265625 51.859375
L 10.546875 51.859375
L 21.6875 20.796875
Q 23.484375 15.765625 25 10.359375
Q 26.171875 14.453125 28.265625 20.21875
L 39.796875 51.859375
L 48.828125 51.859375
L 29.203125 0
z
" id="ArialMT-118"/>
     <path d="M 3.171875 21.484375
L 3.171875 30.328125
L 30.171875 30.328125
L 30.171875 21.484375
z
" id="ArialMT-45"/>
    </defs>
    <use xlink:href="#ArialMT-80"/>
    <use x="66.699219" xlink:href="#ArialMT-101"/>
    <use x="122.314453" xlink:href="#ArialMT-114"/>
    <use x="155.615234" xlink:href="#ArialMT-99"/>
    <use x="205.615234" xlink:href="#ArialMT-101"/>
    <use x="261.230469" xlink:href="#ArialMT-110"/>
    <use x="316.845703" xlink:href="#ArialMT-116"/>
    <use x="344.628906" xlink:href="#ArialMT-32"/>
    <use x="372.412109" xlink:href="#ArialMT-68"/>
    <use x="444.628906" xlink:href="#ArialMT-105"/>
    <use x="466.845703" xlink:href="#ArialMT-102"/>
    <use x="492.878906" xlink:href="#ArialMT-102"/>
    <use x="520.662109" xlink:href="#ArialMT-101"/>
    <use x="576.277344" xlink:href="#ArialMT-114"/>
    <use x="609.578125" xlink:href="#ArialMT-101"/>
    <use x="665.193359" xlink:href="#ArialMT-110"/>
    <use x="720.808594" xlink:href="#ArialMT-99"/>
    <use x="770.808594" xlink:href="#ArialMT-101"/>
    <use x="826.423828" xlink:href="#ArialMT-32"/>
    <use x="854.207031" xlink:href="#ArialMT-82"/>
    <use x="926.423828" xlink:href="#ArialMT-101"/>
    <use x="982.039062" xlink:href="#ArialMT-108"/>
    <use x="1004.255859" xlink:href="#ArialMT-97"/>
    <use x="1059.871094" xlink:href="#ArialMT-116"/>
    <use x="1087.654297" xlink:href="#ArialMT-105"/>
    <use x="1109.871094" xlink:href="#ArialMT-118"/>
    <use x="1159.871094" xlink:href="#ArialMT-101"/>
    <use x="1215.486328" xlink:href="#ArialMT-32"/>
    <use x="1243.269531" xlink:href="#ArialMT-116"/>
    <use x="1271.052734" xlink:href="#ArialMT-111"/>
    <use x="1326.667969" xlink:href="#ArialMT-32"/>
    <use x="1354.451172" xlink:href="#ArialMT-50"/>
    <use x="1410.066406" xlink:href="#ArialMT-48"/>
    <use x="1465.681641" xlink:href="#ArialMT-49"/>
    <use x="1521.296875" xlink:href="#ArialMT-48"/>
    <use x="1576.912109" xlink:href="#ArialMT-45"/>
    <use x="1610.212891" xlink:href="#ArialMT-50"/>
    <use x="1665.828125" xlink:href="#ArialMT-48"/>
    <use x="1721.443359" xlink:href="#ArialMT-49"/>
    <use x="1769.683594" xlink:href="#ArialMT-49"/>
   </g>
  </g>
 </g>
 <defs>
  <clipPath id="p0c20b9014b">
   <rect height="266.112" width="357.12" x="86.627656" y="26.340288"/>
  </clipPath>
  <clipPath id="p0fcb02778c">
   <path d="M 470.947656 166.155476
L 470.947656 148.155476
L 488.947656 148.155476
L 488.947656 166.155476
"/>
  </clipPath>
  <clipPath id="pefe41d3349">
   <path d="M 470.947656 186.155476
L 470.947656 168.155476
L 488.947656 168.155476
L 488.947656 186.155476
"/>
  </clipPath>
 </defs>
</svg>
